<?xml version="1.0" encoding="UTF-8" standalone="no"?>
<!DOCTYPE svg PUBLIC "-//W3C//DTD SVG 1.1//EN"
 "http://www.w3.org/Graphics/SVG/1.1/DTD/svg11.dtd">
<!-- Generated by graphviz version 2.36.0 (20140111.2315)
 -->
<!-- Title: electronBeam::set_avgBetaFunc Pages: 1 -->
<svg width="736pt" height="28pt"
 viewBox="0.00 0.00 736.00 28.00" xmlns="http://www.w3.org/2000/svg" xmlns:xlink="http://www.w3.org/1999/xlink">
<g id="graph0" class="graph" transform="scale(1 1) rotate(0) translate(4 24)">
<title>electronBeam::set_avgBetaFunc</title>
<polygon fill="white" stroke="none" points="-4,4 -4,-24 732,-24 732,4 -4,4"/>
<!-- Node1 -->
<g id="node1" class="node"><title>Node1</title>
<polygon fill="#bfbfbf" stroke="black" points="0.5,-0.5 0.5,-19.5 159.5,-19.5 159.5,-0.5 0.5,-0.5"/>
<text text-anchor="middle" x="80" y="-7.5" font-family="Helvetica,sans-Serif" font-size="10.00">electronBeam::set_avgBetaFunc</text>
</g>
<!-- Node2 -->
<g id="node2" class="node"><title>Node2</title>
<g id="a_node2"><a xlink:href="classscanpanel.html#a892cbc5c1eeafa7be9d8ddecaee3d68e" target="_top" xlink:title="scanpanel::set_electronBeam">
<polygon fill="white" stroke="black" points="196,-0.5 196,-19.5 342,-19.5 342,-0.5 196,-0.5"/>
<text text-anchor="middle" x="269" y="-7.5" font-family="Helvetica,sans-Serif" font-size="10.00">scanpanel::set_electronBeam</text>
</a>
</g>
</g>
<!-- Node1&#45;&gt;Node2 -->
<g id="edge1" class="edge"><title>Node1&#45;&gt;Node2</title>
<path fill="none" stroke="midnightblue" d="M169.93,-10C178.626,-10 187.376,-10 195.876,-10"/>
<polygon fill="midnightblue" stroke="midnightblue" points="169.763,-6.5001 159.763,-10 169.763,-13.5001 169.763,-6.5001"/>
</g>
<!-- Node3 -->
<g id="node3" class="node"><title>Node3</title>
<g id="a_node3"><a xlink:href="classscanpanel.html#a1338695a9884249cea3397a4f75c4fe5" target="_top" xlink:title="update varlist read from external namelist file ">
<polygon fill="white" stroke="black" points="378,-0.5 378,-19.5 502,-19.5 502,-0.5 378,-0.5"/>
<text text-anchor="middle" x="440" y="-7.5" font-family="Helvetica,sans-Serif" font-size="10.00">scanpanel::updateVarlist</text>
</a>
</g>
</g>
<!-- Node2&#45;&gt;Node3 -->
<g id="edge2" class="edge"><title>Node2&#45;&gt;Node3</title>
<path fill="none" stroke="midnightblue" d="M352.287,-10C360.943,-10 369.63,-10 377.984,-10"/>
<polygon fill="midnightblue" stroke="midnightblue" points="352.161,-6.5001 342.161,-10 352.161,-13.5001 352.161,-6.5001"/>
</g>
<!-- Node4 -->
<g id="node4" class="node"><title>Node4</title>
<g id="a_node4"><a xlink:href="classscanpanel.html#ad5d03fff058d2903c654c55f101ae852" target="_top" xlink:title="do parameters scan ">
<polygon fill="white" stroke="black" points="538,-0.5 538,-19.5 654,-19.5 654,-0.5 538,-0.5"/>
<text text-anchor="middle" x="596" y="-7.5" font-family="Helvetica,sans-Serif" font-size="10.00">scanpanel::paramScan</text>
</a>
</g>
</g>
<!-- Node3&#45;&gt;Node4 -->
<g id="edge3" class="edge"><title>Node3&#45;&gt;Node4</title>
<path fill="none" stroke="midnightblue" d="M512.31,-10C520.891,-10 529.565,-10 537.906,-10"/>
<polygon fill="midnightblue" stroke="midnightblue" points="512.307,-6.5001 502.307,-10 512.307,-13.5001 512.307,-6.5001"/>
</g>
<!-- Node5 -->
<g id="node5" class="node"><title>Node5</title>
<g id="a_node5"><a xlink:href="main_8cpp.html#a3c04138a5bfe5d72780bb7e82a18e627" target="_top" xlink:title="main">
<polygon fill="white" stroke="black" points="690,-0.5 690,-19.5 728,-19.5 728,-0.5 690,-0.5"/>
<text text-anchor="middle" x="709" y="-7.5" font-family="Helvetica,sans-Serif" font-size="10.00">main</text>
</a>
</g>
</g>
<!-- Node4&#45;&gt;Node5 -->
<g id="edge4" class="edge"><title>Node4&#45;&gt;Node5</title>
<path fill="none" stroke="midnightblue" d="M664.376,-10C673.702,-10 682.558,-10 689.824,-10"/>
<polygon fill="midnightblue" stroke="midnightblue" points="664.126,-6.5001 654.126,-10 664.126,-13.5001 664.126,-6.5001"/>
</g>
</g>
</svg>
