<?xml version="1.0" encoding="UTF-8" standalone="no"?>
<!DOCTYPE svg PUBLIC "-//W3C//DTD SVG 1.1//EN"
 "http://www.w3.org/Graphics/SVG/1.1/DTD/svg11.dtd">
<!-- Generated by graphviz version 2.36.0 (20140111.2315)
 -->
<!-- Title: FELNumerical::odef1 Pages: 1 -->
<svg width="536pt" height="53pt"
 viewBox="0.00 0.00 536.00 53.00" xmlns="http://www.w3.org/2000/svg" xmlns:xlink="http://www.w3.org/1999/xlink">
<g id="graph0" class="graph" transform="scale(1 1) rotate(0) translate(4 49)">
<title>FELNumerical::odef1</title>
<polygon fill="white" stroke="none" points="-4,4 -4,-49 532,-49 532,4 -4,4"/>
<!-- Node1 -->
<g id="node1" class="node"><title>Node1</title>
<polygon fill="#bfbfbf" stroke="black" points="0.5,-6.5 0.5,-25.5 109.5,-25.5 109.5,-6.5 0.5,-6.5"/>
<text text-anchor="middle" x="55" y="-13.5" font-family="Helvetica,sans-Serif" font-size="10.00">FELNumerical::odef1</text>
</g>
<!-- Node2 -->
<g id="node2" class="node"><title>Node2</title>
<g id="a_node2"><a xlink:href="class_f_e_l_numerical.html#acf164cc84fbe47c386ec672d1a62d43e" target="_top" xlink:title="functions defined for ODE solver ">
<polygon fill="white" stroke="black" points="146,-1 146,-31 302,-31 302,-1 146,-1"/>
<text text-anchor="start" x="154" y="-19" font-family="Helvetica,sans-Serif" font-size="10.00">FELNumerical::FELsolverSingle</text>
<text text-anchor="middle" x="224" y="-8" font-family="Helvetica,sans-Serif" font-size="10.00">Frequency1D</text>
</a>
</g>
</g>
<!-- Node1&#45;&gt;Node2 -->
<g id="edge1" class="edge"><title>Node1&#45;&gt;Node2</title>
<path fill="none" stroke="midnightblue" d="M119.957,-16C128.455,-16 137.239,-16 145.929,-16"/>
<polygon fill="midnightblue" stroke="midnightblue" points="119.759,-12.5001 109.759,-16 119.759,-19.5001 119.759,-12.5001"/>
</g>
<!-- Node3 -->
<g id="node3" class="node"><title>Node3</title>
<g id="a_node3"><a xlink:href="classscanpanel.html#ad5d03fff058d2903c654c55f101ae852" target="_top" xlink:title="do parameters scan ">
<polygon fill="white" stroke="black" points="338,-25.5 338,-44.5 454,-44.5 454,-25.5 338,-25.5"/>
<text text-anchor="middle" x="396" y="-32.5" font-family="Helvetica,sans-Serif" font-size="10.00">scanpanel::paramScan</text>
</a>
</g>
</g>
<!-- Node2&#45;&gt;Node3 -->
<g id="edge2" class="edge"><title>Node2&#45;&gt;Node3</title>
<path fill="none" stroke="midnightblue" d="M312.226,-25.7488C320.908,-26.7191 329.559,-27.686 337.816,-28.6088"/>
<polygon fill="midnightblue" stroke="midnightblue" points="312.369,-22.243 302.042,-24.6105 311.591,-29.1997 312.369,-22.243"/>
</g>
<!-- Node4 -->
<g id="node4" class="node"><title>Node4</title>
<g id="a_node4"><a xlink:href="main_8cpp.html#a3c04138a5bfe5d72780bb7e82a18e627" target="_top" xlink:title="main">
<polygon fill="white" stroke="black" points="490,-6.5 490,-25.5 528,-25.5 528,-6.5 490,-6.5"/>
<text text-anchor="middle" x="509" y="-13.5" font-family="Helvetica,sans-Serif" font-size="10.00">main</text>
</a>
</g>
</g>
<!-- Node2&#45;&gt;Node4 -->
<g id="edge4" class="edge"><title>Node2&#45;&gt;Node4</title>
<path fill="none" stroke="midnightblue" d="M312.656,-16C375.467,-16 454.914,-16 489.975,-16"/>
<polygon fill="midnightblue" stroke="midnightblue" points="312.331,-12.5001 302.331,-16 312.331,-19.5001 312.331,-12.5001"/>
</g>
<!-- Node3&#45;&gt;Node4 -->
<g id="edge3" class="edge"><title>Node3&#45;&gt;Node4</title>
<path fill="none" stroke="midnightblue" d="M462.813,-23.7347C472.699,-22.0425 482.133,-20.4277 489.799,-19.1155"/>
<polygon fill="midnightblue" stroke="midnightblue" points="462.091,-20.3073 452.825,-25.4443 463.272,-27.2069 462.091,-20.3073"/>
</g>
</g>
</svg>
