<?xml version="1.0" encoding="UTF-8" standalone="no"?>
<!DOCTYPE svg PUBLIC "-//W3C//DTD SVG 1.1//EN"
 "http://www.w3.org/Graphics/SVG/1.1/DTD/svg11.dtd">
<!-- Generated by graphviz version 2.36.0 (20140111.2315)
 -->
<!-- Title: seedfield::info Pages: 1 -->
<svg width="230pt" height="66pt"
 viewBox="0.00 0.00 230.00 66.00" xmlns="http://www.w3.org/2000/svg" xmlns:xlink="http://www.w3.org/1999/xlink">
<g id="graph0" class="graph" transform="scale(1 1) rotate(0) translate(4 62)">
<title>seedfield::info</title>
<polygon fill="white" stroke="none" points="-4,4 -4,-62 226,-62 226,4 -4,4"/>
<!-- Node1 -->
<g id="node1" class="node"><title>Node1</title>
<polygon fill="#bfbfbf" stroke="black" points="0.5,-19.5 0.5,-38.5 77.5,-38.5 77.5,-19.5 0.5,-19.5"/>
<text text-anchor="middle" x="39" y="-26.5" font-family="Helvetica,sans-Serif" font-size="10.00">seedfield::info</text>
</g>
<!-- Node2 -->
<g id="node2" class="node"><title>Node2</title>
<g id="a_node2"><a xlink:href="classefield.html#a278694fcf6d0066dcc3ad781478c4490" target="_top" xlink:title="efield::get_amplitude">
<polygon fill="white" stroke="black" points="114.5,-38.5 114.5,-57.5 221.5,-57.5 221.5,-38.5 114.5,-38.5"/>
<text text-anchor="middle" x="168" y="-45.5" font-family="Helvetica,sans-Serif" font-size="10.00">efield::get_amplitude</text>
</a>
</g>
</g>
<!-- Node1&#45;&gt;Node2 -->
<g id="edge1" class="edge"><title>Node1&#45;&gt;Node2</title>
<path fill="none" stroke="midnightblue" d="M77.7603,-34.6492C86.0477,-35.889 95.0392,-37.2342 104.017,-38.5773"/>
<polygon fill="midnightblue" stroke="midnightblue" points="103.701,-42.069 114.109,-40.0872 104.737,-35.146 103.701,-42.069"/>
</g>
<!-- Node3 -->
<g id="node3" class="node"><title>Node3</title>
<g id="a_node3"><a xlink:href="classefield.html#ab371b0b285c61fe396814860613497b9" target="_top" xlink:title="efield::get_phase">
<polygon fill="white" stroke="black" points="122.5,-0.5 122.5,-19.5 213.5,-19.5 213.5,-0.5 122.5,-0.5"/>
<text text-anchor="middle" x="168" y="-7.5" font-family="Helvetica,sans-Serif" font-size="10.00">efield::get_phase</text>
</a>
</g>
</g>
<!-- Node1&#45;&gt;Node3 -->
<g id="edge2" class="edge"><title>Node1&#45;&gt;Node3</title>
<path fill="none" stroke="midnightblue" d="M77.7603,-23.3508C88.6183,-21.7264 100.685,-19.9212 112.346,-18.1767"/>
<polygon fill="midnightblue" stroke="midnightblue" points="113.076,-21.6065 122.448,-16.6653 112.04,-14.6835 113.076,-21.6065"/>
</g>
</g>
</svg>
