<?xml version="1.0" encoding="UTF-8" standalone="no"?>
<!DOCTYPE svg PUBLIC "-//W3C//DTD SVG 1.1//EN"
 "http://www.w3.org/Graphics/SVG/1.1/DTD/svg11.dtd">
<!-- Generated by graphviz version 2.36.0 (20140111.2315)
 -->
<!-- Title: efield::get_real Pages: 1 -->
<svg width="506pt" height="78pt"
 viewBox="0.00 0.00 506.00 78.00" xmlns="http://www.w3.org/2000/svg" xmlns:xlink="http://www.w3.org/1999/xlink">
<g id="graph0" class="graph" transform="scale(1 1) rotate(0) translate(4 74)">
<title>efield::get_real</title>
<polygon fill="white" stroke="none" points="-4,4 -4,-74 502,-74 502,4 -4,4"/>
<!-- Node1 -->
<g id="node1" class="node"><title>Node1</title>
<polygon fill="#bfbfbf" stroke="black" points="0,-28.5 0,-47.5 80,-47.5 80,-28.5 0,-28.5"/>
<text text-anchor="middle" x="40" y="-35.5" font-family="Helvetica,sans-Serif" font-size="10.00">efield::get_real</text>
</g>
<!-- Node2 -->
<g id="node2" class="node"><title>Node2</title>
<g id="a_node2"><a xlink:href="classefield.html#a8ea19dbc0f4a7e8c22cecc11c7d3ca64" target="_top" xlink:title="efield::efield">
<polygon fill="white" stroke="black" points="159.5,-50.5 159.5,-69.5 228.5,-69.5 228.5,-50.5 159.5,-50.5"/>
<text text-anchor="middle" x="194" y="-57.5" font-family="Helvetica,sans-Serif" font-size="10.00">efield::efield</text>
</a>
</g>
</g>
<!-- Node1&#45;&gt;Node2 -->
<g id="edge1" class="edge"><title>Node1&#45;&gt;Node2</title>
<path fill="none" stroke="midnightblue" d="M90.2456,-45.1277C112.862,-48.401 139.101,-52.1988 159.403,-55.1373"/>
<polygon fill="midnightblue" stroke="midnightblue" points="90.542,-41.6342 80.1438,-43.6655 89.5393,-48.562 90.542,-41.6342"/>
</g>
<!-- Node3 -->
<g id="node3" class="node"><title>Node3</title>
<g id="a_node3"><a xlink:href="class_f_e_l_numerical.html#acf164cc84fbe47c386ec672d1a62d43e" target="_top" xlink:title="functions defined for ODE solver ">
<polygon fill="white" stroke="black" points="116,-1 116,-31 272,-31 272,-1 116,-1"/>
<text text-anchor="start" x="124" y="-19" font-family="Helvetica,sans-Serif" font-size="10.00">FELNumerical::FELsolverSingle</text>
<text text-anchor="middle" x="194" y="-8" font-family="Helvetica,sans-Serif" font-size="10.00">Frequency1D</text>
</a>
</g>
</g>
<!-- Node1&#45;&gt;Node3 -->
<g id="edge2" class="edge"><title>Node1&#45;&gt;Node3</title>
<path fill="none" stroke="midnightblue" d="M90.261,-30.8701C98.4772,-29.6809 107.171,-28.4226 115.885,-27.1614"/>
<polygon fill="midnightblue" stroke="midnightblue" points="89.5393,-27.438 80.1438,-32.3345 90.542,-34.3658 89.5393,-27.438"/>
</g>
<!-- Node4 -->
<g id="node4" class="node"><title>Node4</title>
<g id="a_node4"><a xlink:href="classscanpanel.html#ad5d03fff058d2903c654c55f101ae852" target="_top" xlink:title="do parameters scan ">
<polygon fill="white" stroke="black" points="308,-25.5 308,-44.5 424,-44.5 424,-25.5 308,-25.5"/>
<text text-anchor="middle" x="366" y="-32.5" font-family="Helvetica,sans-Serif" font-size="10.00">scanpanel::paramScan</text>
</a>
</g>
</g>
<!-- Node3&#45;&gt;Node4 -->
<g id="edge3" class="edge"><title>Node3&#45;&gt;Node4</title>
<path fill="none" stroke="midnightblue" d="M282.226,-25.7488C290.908,-26.7191 299.559,-27.686 307.816,-28.6088"/>
<polygon fill="midnightblue" stroke="midnightblue" points="282.369,-22.243 272.042,-24.6105 281.591,-29.1997 282.369,-22.243"/>
</g>
<!-- Node5 -->
<g id="node5" class="node"><title>Node5</title>
<g id="a_node5"><a xlink:href="main_8cpp.html#a3c04138a5bfe5d72780bb7e82a18e627" target="_top" xlink:title="main">
<polygon fill="white" stroke="black" points="460,-6.5 460,-25.5 498,-25.5 498,-6.5 460,-6.5"/>
<text text-anchor="middle" x="479" y="-13.5" font-family="Helvetica,sans-Serif" font-size="10.00">main</text>
</a>
</g>
</g>
<!-- Node3&#45;&gt;Node5 -->
<g id="edge5" class="edge"><title>Node3&#45;&gt;Node5</title>
<path fill="none" stroke="midnightblue" d="M282.656,-16C345.467,-16 424.914,-16 459.975,-16"/>
<polygon fill="midnightblue" stroke="midnightblue" points="282.331,-12.5001 272.331,-16 282.331,-19.5001 282.331,-12.5001"/>
</g>
<!-- Node4&#45;&gt;Node5 -->
<g id="edge4" class="edge"><title>Node4&#45;&gt;Node5</title>
<path fill="none" stroke="midnightblue" d="M432.813,-23.7347C442.699,-22.0425 452.133,-20.4277 459.799,-19.1155"/>
<polygon fill="midnightblue" stroke="midnightblue" points="432.091,-20.3073 422.825,-25.4443 433.272,-27.2069 432.091,-20.3073"/>
</g>
</g>
</svg>
