<?xml version="1.0" encoding="UTF-8" standalone="no"?>
<!DOCTYPE svg PUBLIC "-//W3C//DTD SVG 1.1//EN"
 "http://www.w3.org/Graphics/SVG/1.1/DTD/svg11.dtd">
<!-- Generated by graphviz version 2.36.0 (20140111.2315)
 -->
<!-- Title: efield::get_amplitude Pages: 1 -->
<svg width="530pt" height="104pt"
 viewBox="0.00 0.00 530.00 104.00" xmlns="http://www.w3.org/2000/svg" xmlns:xlink="http://www.w3.org/1999/xlink">
<g id="graph0" class="graph" transform="scale(1 1) rotate(0) translate(4 100)">
<title>efield::get_amplitude</title>
<polygon fill="white" stroke="none" points="-4,4 -4,-100 526,-100 526,4 -4,4"/>
<!-- Node1 -->
<g id="node1" class="node"><title>Node1</title>
<polygon fill="#bfbfbf" stroke="black" points="0.5,-38.5 0.5,-57.5 107.5,-57.5 107.5,-38.5 0.5,-38.5"/>
<text text-anchor="middle" x="54" y="-45.5" font-family="Helvetica,sans-Serif" font-size="10.00">efield::get_amplitude</text>
</g>
<!-- Node2 -->
<g id="node2" class="node"><title>Node2</title>
<g id="a_node2"><a xlink:href="classseedfield.html#a19313d51bf26babc5903fc8a4cfa8750" target="_top" xlink:title="show all parameters ">
<polygon fill="white" stroke="black" points="181.5,-76.5 181.5,-95.5 258.5,-95.5 258.5,-76.5 181.5,-76.5"/>
<text text-anchor="middle" x="220" y="-83.5" font-family="Helvetica,sans-Serif" font-size="10.00">seedfield::info</text>
</a>
</g>
</g>
<!-- Node1&#45;&gt;Node2 -->
<g id="edge1" class="edge"><title>Node1&#45;&gt;Node2</title>
<path fill="none" stroke="midnightblue" d="M106.159,-59.854C130.458,-65.4842 158.987,-72.0944 181.279,-77.2597"/>
<polygon fill="midnightblue" stroke="midnightblue" points="106.916,-56.4367 96.3841,-57.589 105.336,-63.256 106.916,-56.4367"/>
</g>
<!-- Node3 -->
<g id="node3" class="node"><title>Node3</title>
<g id="a_node3"><a xlink:href="class_f_e_l_numerical.html#a6f826e9f11871164430bfe54175e8c11" target="_top" xlink:title="get the last record of Ex amplitude ">
<polygon fill="white" stroke="black" points="144,-38.5 144,-57.5 296,-57.5 296,-38.5 144,-38.5"/>
<text text-anchor="middle" x="220" y="-45.5" font-family="Helvetica,sans-Serif" font-size="10.00">FELNumerical::get_endExAmp</text>
</a>
</g>
</g>
<!-- Node1&#45;&gt;Node3 -->
<g id="edge2" class="edge"><title>Node1&#45;&gt;Node3</title>
<path fill="none" stroke="midnightblue" d="M117.976,-48C126.463,-48 135.238,-48 143.909,-48"/>
<polygon fill="midnightblue" stroke="midnightblue" points="117.793,-44.5001 107.793,-48 117.793,-51.5001 117.793,-44.5001"/>
</g>
<!-- Node6 -->
<g id="node6" class="node"><title>Node6</title>
<g id="a_node6"><a xlink:href="class_f_e_l_numerical.html#a240603c060d6eadae8b1d3b172f75cf8" target="_top" xlink:title="get the last record of Ey amplitude ">
<polygon fill="white" stroke="black" points="144,-0.5 144,-19.5 296,-19.5 296,-0.5 144,-0.5"/>
<text text-anchor="middle" x="220" y="-7.5" font-family="Helvetica,sans-Serif" font-size="10.00">FELNumerical::get_endEyAmp</text>
</a>
</g>
</g>
<!-- Node1&#45;&gt;Node6 -->
<g id="edge5" class="edge"><title>Node1&#45;&gt;Node6</title>
<path fill="none" stroke="midnightblue" d="M106.341,-36.1039C129.393,-30.7626 156.221,-24.5463 177.913,-19.5201"/>
<polygon fill="midnightblue" stroke="midnightblue" points="105.336,-32.744 96.3841,-38.411 106.916,-39.5633 105.336,-32.744"/>
</g>
<!-- Node4 -->
<g id="node4" class="node"><title>Node4</title>
<g id="a_node4"><a xlink:href="classscanpanel.html#ad5d03fff058d2903c654c55f101ae852" target="_top" xlink:title="do parameters scan ">
<polygon fill="white" stroke="black" points="332,-38.5 332,-57.5 448,-57.5 448,-38.5 332,-38.5"/>
<text text-anchor="middle" x="390" y="-45.5" font-family="Helvetica,sans-Serif" font-size="10.00">scanpanel::paramScan</text>
</a>
</g>
</g>
<!-- Node3&#45;&gt;Node4 -->
<g id="edge3" class="edge"><title>Node3&#45;&gt;Node4</title>
<path fill="none" stroke="midnightblue" d="M306.29,-48C314.934,-48 323.561,-48 331.802,-48"/>
<polygon fill="midnightblue" stroke="midnightblue" points="306.155,-44.5001 296.155,-48 306.155,-51.5001 306.155,-44.5001"/>
</g>
<!-- Node5 -->
<g id="node5" class="node"><title>Node5</title>
<g id="a_node5"><a xlink:href="main_8cpp.html#a3c04138a5bfe5d72780bb7e82a18e627" target="_top" xlink:title="main">
<polygon fill="white" stroke="black" points="484,-38.5 484,-57.5 522,-57.5 522,-38.5 484,-38.5"/>
<text text-anchor="middle" x="503" y="-45.5" font-family="Helvetica,sans-Serif" font-size="10.00">main</text>
</a>
</g>
</g>
<!-- Node4&#45;&gt;Node5 -->
<g id="edge4" class="edge"><title>Node4&#45;&gt;Node5</title>
<path fill="none" stroke="midnightblue" d="M458.376,-48C467.702,-48 476.558,-48 483.824,-48"/>
<polygon fill="midnightblue" stroke="midnightblue" points="458.126,-44.5001 448.126,-48 458.126,-51.5001 458.126,-44.5001"/>
</g>
</g>
</svg>
