<?xml version="1.0" encoding="UTF-8" standalone="no"?>
<!DOCTYPE svg PUBLIC "-//W3C//DTD SVG 1.1//EN"
 "http://www.w3.org/Graphics/SVG/1.1/DTD/svg11.dtd">
<!-- Generated by graphviz version 2.36.0 (20140111.2315)
 -->
<!-- Title: FELAnalysis::FELAnalysis Pages: 1 -->
<svg width="338pt" height="316pt"
 viewBox="0.00 0.00 338.00 316.00" xmlns="http://www.w3.org/2000/svg" xmlns:xlink="http://www.w3.org/1999/xlink">
<g id="graph0" class="graph" transform="scale(1 1) rotate(0) translate(4 312)">
<title>FELAnalysis::FELAnalysis</title>
<polygon fill="white" stroke="none" points="-4,4 -4,-312 334,-312 334,4 -4,4"/>
<!-- Node1 -->
<g id="node1" class="node"><title>Node1</title>
<polygon fill="#bfbfbf" stroke="black" points="0,-133.5 0,-152.5 134,-152.5 134,-133.5 0,-133.5"/>
<text text-anchor="middle" x="67" y="-140.5" font-family="Helvetica,sans-Serif" font-size="10.00">FELAnalysis::FELAnalysis</text>
</g>
<!-- Node2 -->
<g id="node2" class="node"><title>Node2</title>
<g id="a_node2"><a xlink:href="classelectron_beam.html#afe29e0f5432af0a901d1040750d9e30a" target="_top" xlink:title="electronBeam::get_central\lEnergy">
<polygon fill="white" stroke="black" points="184.5,-278 184.5,-308 315.5,-308 315.5,-278 184.5,-278"/>
<text text-anchor="start" x="192.5" y="-296" font-family="Helvetica,sans-Serif" font-size="10.00">electronBeam::get_central</text>
<text text-anchor="middle" x="250" y="-285" font-family="Helvetica,sans-Serif" font-size="10.00">Energy</text>
</a>
</g>
</g>
<!-- Node1&#45;&gt;Node2 -->
<g id="edge1" class="edge"><title>Node1&#45;&gt;Node2</title>
<path fill="none" stroke="midnightblue" d="M73.2565,-152.748C86.384,-176.176 122.958,-236.063 170,-268 172.946,-270 176.06,-271.847 179.283,-273.551"/>
<polygon fill="midnightblue" stroke="midnightblue" points="178.071,-276.851 188.605,-277.988 181.08,-270.53 178.071,-276.851"/>
</g>
<!-- Node3 -->
<g id="node3" class="node"><title>Node3</title>
<g id="a_node3"><a xlink:href="classelectron_beam.html#a9bd9fc55effd4ed222652cfd9e9123c1" target="_top" xlink:title="electronBeam::get_energy\lSpread">
<polygon fill="white" stroke="black" points="184.5,-229 184.5,-259 315.5,-259 315.5,-229 184.5,-229"/>
<text text-anchor="start" x="192.5" y="-247" font-family="Helvetica,sans-Serif" font-size="10.00">electronBeam::get_energy</text>
<text text-anchor="middle" x="250" y="-236" font-family="Helvetica,sans-Serif" font-size="10.00">Spread</text>
</a>
</g>
</g>
<!-- Node1&#45;&gt;Node3 -->
<g id="edge2" class="edge"><title>Node1&#45;&gt;Node3</title>
<path fill="none" stroke="midnightblue" d="M78.5084,-152.739C96.1625,-168.638 133.442,-200.272 170,-219 174.333,-221.22 178.901,-223.29 183.567,-225.21"/>
<polygon fill="midnightblue" stroke="midnightblue" points="182.646,-228.606 193.235,-228.944 185.167,-222.076 182.646,-228.606"/>
</g>
<!-- Node4 -->
<g id="node4" class="node"><title>Node4</title>
<g id="a_node4"><a xlink:href="classelectron_beam.html#a1ea62fb4f103eece7f7f0226a18a6d33" target="_top" xlink:title="electronBeam::get_emitnx">
<polygon fill="white" stroke="black" points="184.5,-190.5 184.5,-209.5 315.5,-209.5 315.5,-190.5 184.5,-190.5"/>
<text text-anchor="middle" x="250" y="-197.5" font-family="Helvetica,sans-Serif" font-size="10.00">electronBeam::get_emitnx</text>
</a>
</g>
</g>
<!-- Node1&#45;&gt;Node4 -->
<g id="edge3" class="edge"><title>Node1&#45;&gt;Node4</title>
<path fill="none" stroke="midnightblue" d="M91.2225,-152.566C111.72,-160.789 142.528,-172.612 170,-181 178.146,-183.487 186.843,-185.858 195.379,-188.029"/>
<polygon fill="midnightblue" stroke="midnightblue" points="194.735,-191.475 205.283,-190.48 196.417,-184.68 194.735,-191.475"/>
</g>
<!-- Node5 -->
<g id="node5" class="node"><title>Node5</title>
<g id="a_node5"><a xlink:href="classelectron_beam.html#aae0c806c3fc1fcd56296a7e3d11cb0e1" target="_top" xlink:title="electronBeam::get_avgBetaFunc">
<polygon fill="white" stroke="black" points="170.5,-152.5 170.5,-171.5 329.5,-171.5 329.5,-152.5 170.5,-152.5"/>
<text text-anchor="middle" x="250" y="-159.5" font-family="Helvetica,sans-Serif" font-size="10.00">electronBeam::get_avgBetaFunc</text>
</a>
</g>
</g>
<!-- Node1&#45;&gt;Node5 -->
<g id="edge4" class="edge"><title>Node1&#45;&gt;Node5</title>
<path fill="none" stroke="midnightblue" d="M134.113,-149.94C142.698,-150.841 151.599,-151.776 160.475,-152.707"/>
<polygon fill="midnightblue" stroke="midnightblue" points="160.156,-156.193 170.467,-153.756 160.887,-149.231 160.156,-156.193"/>
</g>
<!-- Node6 -->
<g id="node6" class="node"><title>Node6</title>
<g id="a_node6"><a xlink:href="classundulator.html#a717066050ec371b8bb7704168cd118b6" target="_top" xlink:title="undulator::get_period">
<polygon fill="white" stroke="black" points="196.5,-114.5 196.5,-133.5 303.5,-133.5 303.5,-114.5 196.5,-114.5"/>
<text text-anchor="middle" x="250" y="-121.5" font-family="Helvetica,sans-Serif" font-size="10.00">undulator::get_period</text>
</a>
</g>
</g>
<!-- Node1&#45;&gt;Node6 -->
<g id="edge5" class="edge"><title>Node1&#45;&gt;Node6</title>
<path fill="none" stroke="midnightblue" d="M134.113,-136.06C151.09,-134.278 169.304,-132.366 186.113,-130.601"/>
<polygon fill="midnightblue" stroke="midnightblue" points="186.793,-134.049 196.373,-129.524 186.062,-127.088 186.793,-134.049"/>
</g>
<!-- Node7 -->
<g id="node7" class="node"><title>Node7</title>
<g id="a_node7"><a xlink:href="classundulator.html#a9cdaa82744819744efb5eaa12ed28b92" target="_top" xlink:title="undulator::get_field">
<polygon fill="white" stroke="black" points="200.5,-76.5 200.5,-95.5 299.5,-95.5 299.5,-76.5 200.5,-76.5"/>
<text text-anchor="middle" x="250" y="-83.5" font-family="Helvetica,sans-Serif" font-size="10.00">undulator::get_field</text>
</a>
</g>
</g>
<!-- Node1&#45;&gt;Node7 -->
<g id="edge6" class="edge"><title>Node1&#45;&gt;Node7</title>
<path fill="none" stroke="midnightblue" d="M91.2225,-133.434C111.72,-125.211 142.528,-113.388 170,-105 178.146,-102.513 186.843,-100.142 195.379,-97.9715"/>
<polygon fill="midnightblue" stroke="midnightblue" points="196.417,-101.32 205.283,-95.5197 194.735,-94.5254 196.417,-101.32"/>
</g>
<!-- Node8 -->
<g id="node8" class="node"><title>Node8</title>
<g id="a_node8"><a xlink:href="classelectron_beam.html#a7ece1e5a5fd4ca224a6b1104f14b3c8f" target="_top" xlink:title="electronBeam::get_peakCurrent">
<polygon fill="white" stroke="black" points="172.5,-38.5 172.5,-57.5 327.5,-57.5 327.5,-38.5 172.5,-38.5"/>
<text text-anchor="middle" x="250" y="-45.5" font-family="Helvetica,sans-Serif" font-size="10.00">electronBeam::get_peakCurrent</text>
</a>
</g>
</g>
<!-- Node1&#45;&gt;Node8 -->
<g id="edge7" class="edge"><title>Node1&#45;&gt;Node8</title>
<path fill="none" stroke="midnightblue" d="M77.8094,-133.491C95.0187,-117.346 132.406,-84.6157 170,-67 175.237,-64.546 180.823,-62.3907 186.512,-60.5014"/>
<polygon fill="midnightblue" stroke="midnightblue" points="187.594,-63.8306 196.139,-57.5671 185.553,-57.1347 187.594,-63.8306"/>
</g>
<!-- Node9 -->
<g id="node9" class="node"><title>Node9</title>
<g id="a_node9"><a xlink:href="class_f_e_lradiation.html#a5be822c35edae96fc72449a6b8a34852" target="_top" xlink:title="FELradiation::get_wavelength">
<polygon fill="white" stroke="black" points="177,-0.5 177,-19.5 323,-19.5 323,-0.5 177,-0.5"/>
<text text-anchor="middle" x="250" y="-7.5" font-family="Helvetica,sans-Serif" font-size="10.00">FELradiation::get_wavelength</text>
</a>
</g>
</g>
<!-- Node1&#45;&gt;Node9 -->
<g id="edge8" class="edge"><title>Node1&#45;&gt;Node9</title>
<path fill="none" stroke="midnightblue" d="M73.7555,-133.266C87.4287,-111.04 124.173,-56.3742 170,-29 173.679,-26.8027 177.596,-24.8593 181.645,-23.1406"/>
<polygon fill="midnightblue" stroke="midnightblue" points="183.146,-26.3157 191.277,-19.524 180.685,-19.7623 183.146,-26.3157"/>
</g>
</g>
</svg>
