<?xml version="1.0" encoding="UTF-8" standalone="no"?>
<!DOCTYPE svg PUBLIC "-//W3C//DTD SVG 1.1//EN"
 "http://www.w3.org/Graphics/SVG/1.1/DTD/svg11.dtd">
<!-- Generated by graphviz version 2.36.0 (20140111.2315)
 -->
<!-- Title: undulator::set_field Pages: 1 -->
<svg width="656pt" height="28pt"
 viewBox="0.00 0.00 656.00 28.00" xmlns="http://www.w3.org/2000/svg" xmlns:xlink="http://www.w3.org/1999/xlink">
<g id="graph0" class="graph" transform="scale(1 1) rotate(0) translate(4 24)">
<title>undulator::set_field</title>
<polygon fill="white" stroke="none" points="-4,4 -4,-24 652,-24 652,4 -4,4"/>
<!-- Node1 -->
<g id="node1" class="node"><title>Node1</title>
<polygon fill="#bfbfbf" stroke="black" points="0.5,-0.5 0.5,-19.5 99.5,-19.5 99.5,-0.5 0.5,-0.5"/>
<text text-anchor="middle" x="50" y="-7.5" font-family="Helvetica,sans-Serif" font-size="10.00">undulator::set_field</text>
</g>
<!-- Node2 -->
<g id="node2" class="node"><title>Node2</title>
<g id="a_node2"><a xlink:href="classscanpanel.html#a039ed64a56edba772f36f872d65c61d0" target="_top" xlink:title="scanpanel::set_undulator">
<polygon fill="white" stroke="black" points="136.5,-0.5 136.5,-19.5 261.5,-19.5 261.5,-0.5 136.5,-0.5"/>
<text text-anchor="middle" x="199" y="-7.5" font-family="Helvetica,sans-Serif" font-size="10.00">scanpanel::set_undulator</text>
</a>
</g>
</g>
<!-- Node1&#45;&gt;Node2 -->
<g id="edge1" class="edge"><title>Node1&#45;&gt;Node2</title>
<path fill="none" stroke="midnightblue" d="M109.689,-10C118.476,-10 127.558,-10 136.403,-10"/>
<polygon fill="midnightblue" stroke="midnightblue" points="109.541,-6.5001 99.5407,-10 109.541,-13.5001 109.541,-6.5001"/>
</g>
<!-- Node3 -->
<g id="node3" class="node"><title>Node3</title>
<g id="a_node3"><a xlink:href="classscanpanel.html#a1338695a9884249cea3397a4f75c4fe5" target="_top" xlink:title="update varlist read from external namelist file ">
<polygon fill="white" stroke="black" points="298,-0.5 298,-19.5 422,-19.5 422,-0.5 298,-0.5"/>
<text text-anchor="middle" x="360" y="-7.5" font-family="Helvetica,sans-Serif" font-size="10.00">scanpanel::updateVarlist</text>
</a>
</g>
</g>
<!-- Node2&#45;&gt;Node3 -->
<g id="edge2" class="edge"><title>Node2&#45;&gt;Node3</title>
<path fill="none" stroke="midnightblue" d="M271.965,-10C280.582,-10 289.318,-10 297.763,-10"/>
<polygon fill="midnightblue" stroke="midnightblue" points="271.929,-6.5001 261.929,-10 271.929,-13.5001 271.929,-6.5001"/>
</g>
<!-- Node4 -->
<g id="node4" class="node"><title>Node4</title>
<g id="a_node4"><a xlink:href="classscanpanel.html#ad5d03fff058d2903c654c55f101ae852" target="_top" xlink:title="do parameters scan ">
<polygon fill="white" stroke="black" points="458,-0.5 458,-19.5 574,-19.5 574,-0.5 458,-0.5"/>
<text text-anchor="middle" x="516" y="-7.5" font-family="Helvetica,sans-Serif" font-size="10.00">scanpanel::paramScan</text>
</a>
</g>
</g>
<!-- Node3&#45;&gt;Node4 -->
<g id="edge3" class="edge"><title>Node3&#45;&gt;Node4</title>
<path fill="none" stroke="midnightblue" d="M432.31,-10C440.891,-10 449.565,-10 457.906,-10"/>
<polygon fill="midnightblue" stroke="midnightblue" points="432.307,-6.5001 422.307,-10 432.307,-13.5001 432.307,-6.5001"/>
</g>
<!-- Node5 -->
<g id="node5" class="node"><title>Node5</title>
<g id="a_node5"><a xlink:href="main_8cpp.html#a3c04138a5bfe5d72780bb7e82a18e627" target="_top" xlink:title="main">
<polygon fill="white" stroke="black" points="610,-0.5 610,-19.5 648,-19.5 648,-0.5 610,-0.5"/>
<text text-anchor="middle" x="629" y="-7.5" font-family="Helvetica,sans-Serif" font-size="10.00">main</text>
</a>
</g>
</g>
<!-- Node4&#45;&gt;Node5 -->
<g id="edge4" class="edge"><title>Node4&#45;&gt;Node5</title>
<path fill="none" stroke="midnightblue" d="M584.376,-10C593.702,-10 602.558,-10 609.824,-10"/>
<polygon fill="midnightblue" stroke="midnightblue" points="584.126,-6.5001 574.126,-10 584.126,-13.5001 584.126,-6.5001"/>
</g>
</g>
</svg>
