<?xml version="1.0" encoding="UTF-8" standalone="no"?>
<!DOCTYPE svg PUBLIC "-//W3C//DTD SVG 1.1//EN"
 "http://www.w3.org/Graphics/SVG/1.1/DTD/svg11.dtd">
<!-- Generated by graphviz version 2.36.0 (20140111.2315)
 -->
<!-- Title: FELAnalysis Pages: 1 -->
<svg width="132pt" height="534pt"
 viewBox="0.00 0.00 132.00 534.00" xmlns="http://www.w3.org/2000/svg" xmlns:xlink="http://www.w3.org/1999/xlink">
<g id="graph0" class="graph" transform="scale(1 1) rotate(0) translate(4 530)">
<title>FELAnalysis</title>
<polygon fill="white" stroke="none" points="-4,4 -4,-530 128,-530 128,4 -4,4"/>
<!-- Node1 -->
<g id="node1" class="node"><title>Node1</title>
<polygon fill="#bfbfbf" stroke="black" points="-0.5,-0.5 -0.5,-123.5 124.5,-123.5 124.5,-0.5 -0.5,-0.5"/>
<text text-anchor="middle" x="62" y="-111.5" font-family="Helvetica,sans-Serif" font-size="10.00">FELAnalysis</text>
<polyline fill="none" stroke="black" points="-0.5,-104.5 124.5,-104.5 "/>
<text text-anchor="middle" x="62" y="-92.5" font-family="Helvetica,sans-Serif" font-size="10.00"> </text>
<polyline fill="none" stroke="black" points="-0.5,-85.5 124.5,-85.5 "/>
<text text-anchor="start" x="7.5" y="-73.5" font-family="Helvetica,sans-Serif" font-size="10.00">+ FELAnalysis()</text>
<text text-anchor="start" x="7.5" y="-62.5" font-family="Helvetica,sans-Serif" font-size="10.00">+ ~FELAnalysis()</text>
<text text-anchor="start" x="7.5" y="-51.5" font-family="Helvetica,sans-Serif" font-size="10.00">+ get_FELparameter1D()</text>
<text text-anchor="start" x="7.5" y="-40.5" font-family="Helvetica,sans-Serif" font-size="10.00">+ get_FELparameter3D()</text>
<text text-anchor="start" x="7.5" y="-29.5" font-family="Helvetica,sans-Serif" font-size="10.00">+ get_FELgainlength1D()</text>
<text text-anchor="start" x="7.5" y="-18.5" font-family="Helvetica,sans-Serif" font-size="10.00">+ get_FELgainlength3D()</text>
<text text-anchor="start" x="7.5" y="-7.5" font-family="Helvetica,sans-Serif" font-size="10.00">+ get_FELsatpower()</text>
</g>
<!-- Node2 -->
<g id="node2" class="node"><title>Node2</title>
<g id="a_node2"><a xlink:href="classphysical_constants.html" target="_top" xlink:title="{physicalConstants\n|# PI\l# eps0\l# mu0\l# M0\l# E0\l# C0\l# IA\l|+ physicalConstants()\l+ info()\l}">
<polygon fill="white" stroke="black" points="5.5,-163 5.5,-297 118.5,-297 118.5,-163 5.5,-163"/>
<text text-anchor="middle" x="62" y="-285" font-family="Helvetica,sans-Serif" font-size="10.00">physicalConstants</text>
<polyline fill="none" stroke="black" points="5.5,-278 118.5,-278 "/>
<text text-anchor="start" x="13.5" y="-266" font-family="Helvetica,sans-Serif" font-size="10.00"># PI</text>
<text text-anchor="start" x="13.5" y="-255" font-family="Helvetica,sans-Serif" font-size="10.00"># eps0</text>
<text text-anchor="start" x="13.5" y="-244" font-family="Helvetica,sans-Serif" font-size="10.00"># mu0</text>
<text text-anchor="start" x="13.5" y="-233" font-family="Helvetica,sans-Serif" font-size="10.00"># M0</text>
<text text-anchor="start" x="13.5" y="-222" font-family="Helvetica,sans-Serif" font-size="10.00"># E0</text>
<text text-anchor="start" x="13.5" y="-211" font-family="Helvetica,sans-Serif" font-size="10.00"># C0</text>
<text text-anchor="start" x="13.5" y="-200" font-family="Helvetica,sans-Serif" font-size="10.00"># IA</text>
<polyline fill="none" stroke="black" points="5.5,-193 118.5,-193 "/>
<text text-anchor="start" x="13.5" y="-181" font-family="Helvetica,sans-Serif" font-size="10.00">+ physicalConstants()</text>
<text text-anchor="start" x="13.5" y="-170" font-family="Helvetica,sans-Serif" font-size="10.00">+ info()</text>
</a>
</g>
</g>
<!-- Node2&#45;&gt;Node1 -->
<g id="edge1" class="edge"><title>Node2&#45;&gt;Node1</title>
<path fill="none" stroke="midnightblue" d="M62,-152.824C62,-143.075 62,-133.199 62,-123.74"/>
<polygon fill="none" stroke="midnightblue" points="58.5001,-152.915 62,-162.915 65.5001,-152.915 58.5001,-152.915"/>
</g>
<!-- Node3 -->
<g id="node3" class="node"><title>Node3</title>
<g id="a_node3"><a xlink:href="structphysical_constants_1_1coefs_xie.html" target="_top" xlink:title="{physicalConstants::\lcoefsXie\n|+ a1\l+ a2\l+ a3\l+ a4\l+ a5\l+ a6\l+ a7\l+ a8\l+ a9\l+ a10\land 9 more...\l|}">
<polygon fill="white" stroke="black" points="10,-347 10,-525 114,-525 114,-347 10,-347"/>
<text text-anchor="start" x="18" y="-513" font-family="Helvetica,sans-Serif" font-size="10.00">physicalConstants::</text>
<text text-anchor="middle" x="62" y="-502" font-family="Helvetica,sans-Serif" font-size="10.00">coefsXie</text>
<polyline fill="none" stroke="black" points="10,-495 114,-495 "/>
<text text-anchor="start" x="18" y="-483" font-family="Helvetica,sans-Serif" font-size="10.00">+ a1</text>
<text text-anchor="start" x="18" y="-472" font-family="Helvetica,sans-Serif" font-size="10.00">+ a2</text>
<text text-anchor="start" x="18" y="-461" font-family="Helvetica,sans-Serif" font-size="10.00">+ a3</text>
<text text-anchor="start" x="18" y="-450" font-family="Helvetica,sans-Serif" font-size="10.00">+ a4</text>
<text text-anchor="start" x="18" y="-439" font-family="Helvetica,sans-Serif" font-size="10.00">+ a5</text>
<text text-anchor="start" x="18" y="-428" font-family="Helvetica,sans-Serif" font-size="10.00">+ a6</text>
<text text-anchor="start" x="18" y="-417" font-family="Helvetica,sans-Serif" font-size="10.00">+ a7</text>
<text text-anchor="start" x="18" y="-406" font-family="Helvetica,sans-Serif" font-size="10.00">+ a8</text>
<text text-anchor="start" x="18" y="-395" font-family="Helvetica,sans-Serif" font-size="10.00">+ a9</text>
<text text-anchor="start" x="18" y="-384" font-family="Helvetica,sans-Serif" font-size="10.00">+ a10</text>
<text text-anchor="start" x="18" y="-373" font-family="Helvetica,sans-Serif" font-size="10.00">and 9 more...</text>
<polyline fill="none" stroke="black" points="10,-366 114,-366 "/>
<text text-anchor="middle" x="62" y="-354" font-family="Helvetica,sans-Serif" font-size="10.00"> </text>
</a>
</g>
</g>
<!-- Node3&#45;&gt;Node2 -->
<g id="edge2" class="edge"><title>Node3&#45;&gt;Node2</title>
<path fill="none" stroke="#404040" d="M62,-346.709C62,-334.272 62,-321.558 62,-309.324"/>
<polygon fill="none" stroke="#404040" points="62.0001,-309.279 58,-303.279 62,-297.279 66,-303.279 62.0001,-309.279"/>
<text text-anchor="middle" x="78.5" y="-319.5" font-family="Helvetica,sans-Serif" font-size="10.00"> #coefs</text>
</g>
</g>
</svg>
