<?xml version="1.0" encoding="UTF-8" standalone="no"?>
<!DOCTYPE svg PUBLIC "-//W3C//DTD SVG 1.1//EN"
 "http://www.w3.org/Graphics/SVG/1.1/DTD/svg11.dtd">
<!-- Generated by graphviz version 2.36.0 (20140111.2315)
 -->
<!-- Title: electronBeam::get_peakCurrent Pages: 1 -->
<svg width="348pt" height="66pt"
 viewBox="0.00 0.00 348.00 66.00" xmlns="http://www.w3.org/2000/svg" xmlns:xlink="http://www.w3.org/1999/xlink">
<g id="graph0" class="graph" transform="scale(1 1) rotate(0) translate(4 62)">
<title>electronBeam::get_peakCurrent</title>
<polygon fill="white" stroke="none" points="-4,4 -4,-62 344,-62 344,4 -4,4"/>
<!-- Node1 -->
<g id="node1" class="node"><title>Node1</title>
<polygon fill="#bfbfbf" stroke="black" points="0.5,-19.5 0.5,-38.5 155.5,-38.5 155.5,-19.5 0.5,-19.5"/>
<text text-anchor="middle" x="78" y="-26.5" font-family="Helvetica,sans-Serif" font-size="10.00">electronBeam::get_peakCurrent</text>
</g>
<!-- Node2 -->
<g id="node2" class="node"><title>Node2</title>
<g id="a_node2"><a xlink:href="class_f_e_l_analysis.html#a2d147c239a45ad1949b56bb743e83cd0" target="_top" xlink:title="FELAnalysis::FELAnalysis">
<polygon fill="white" stroke="black" points="199,-38.5 199,-57.5 333,-57.5 333,-38.5 199,-38.5"/>
<text text-anchor="middle" x="266" y="-45.5" font-family="Helvetica,sans-Serif" font-size="10.00">FELAnalysis::FELAnalysis</text>
</a>
</g>
</g>
<!-- Node1&#45;&gt;Node2 -->
<g id="edge1" class="edge"><title>Node1&#45;&gt;Node2</title>
<path fill="none" stroke="midnightblue" d="M165.858,-37.8726C176.945,-39.0052 188.149,-40.1497 198.836,-41.2413"/>
<polygon fill="midnightblue" stroke="midnightblue" points="166.031,-34.3721 155.727,-36.8377 165.32,-41.3359 166.031,-34.3721"/>
</g>
<!-- Node3 -->
<g id="node3" class="node"><title>Node3</title>
<g id="a_node3"><a xlink:href="class_f_e_l_numerical.html#a70fa680e4c12c15740c265978097e209" target="_top" xlink:title="&lt; class initialization with input parameters ">
<polygon fill="white" stroke="black" points="192.5,-0.5 192.5,-19.5 339.5,-19.5 339.5,-0.5 192.5,-0.5"/>
<text text-anchor="middle" x="266" y="-7.5" font-family="Helvetica,sans-Serif" font-size="10.00">FELNumerical::FELNumerical</text>
</a>
</g>
</g>
<!-- Node1&#45;&gt;Node3 -->
<g id="edge2" class="edge"><title>Node1&#45;&gt;Node3</title>
<path fill="none" stroke="midnightblue" d="M165.728,-20.1407C174.63,-19.2314 183.609,-18.3142 192.336,-17.4226"/>
<polygon fill="midnightblue" stroke="midnightblue" points="165.32,-16.6641 155.727,-21.1623 166.031,-23.6279 165.32,-16.6641"/>
</g>
</g>
</svg>
