<?xml version="1.0" encoding="UTF-8" standalone="no"?>
<!DOCTYPE svg PUBLIC "-//W3C//DTD SVG 1.1//EN"
 "http://www.w3.org/Graphics/SVG/1.1/DTD/svg11.dtd">
<!-- Generated by graphviz version 2.36.0 (20140111.2315)
 -->
<!-- Title: efield::get_amplitude2 Pages: 1 -->
<svg width="374pt" height="28pt"
 viewBox="0.00 0.00 374.00 28.00" xmlns="http://www.w3.org/2000/svg" xmlns:xlink="http://www.w3.org/1999/xlink">
<g id="graph0" class="graph" transform="scale(1 1) rotate(0) translate(4 24)">
<title>efield::get_amplitude2</title>
<polygon fill="white" stroke="none" points="-4,4 -4,-24 370,-24 370,4 -4,4"/>
<!-- Node1 -->
<g id="node1" class="node"><title>Node1</title>
<polygon fill="#bfbfbf" stroke="black" points="0,-0.5 0,-19.5 112,-19.5 112,-0.5 0,-0.5"/>
<text text-anchor="middle" x="56" y="-7.5" font-family="Helvetica,sans-Serif" font-size="10.00">efield::get_amplitude2</text>
</g>
<!-- Node2 -->
<g id="node2" class="node"><title>Node2</title>
<g id="a_node2"><a xlink:href="class_f_e_l_numerical.html#a85fac03f6396978c4f403ca3129b0936" target="_top" xlink:title="&lt; dump numerical simulation results ">
<polygon fill="white" stroke="black" points="148.5,-0.5 148.5,-19.5 291.5,-19.5 291.5,-0.5 148.5,-0.5"/>
<text text-anchor="middle" x="220" y="-7.5" font-family="Helvetica,sans-Serif" font-size="10.00">FELNumerical::dumpResults</text>
</a>
</g>
</g>
<!-- Node1&#45;&gt;Node2 -->
<g id="edge1" class="edge"><title>Node1&#45;&gt;Node2</title>
<path fill="none" stroke="midnightblue" d="M122.564,-10C131.099,-10 139.871,-10 148.483,-10"/>
<polygon fill="midnightblue" stroke="midnightblue" points="122.298,-6.5001 112.298,-10 122.298,-13.5001 122.298,-6.5001"/>
</g>
<!-- Node3 -->
<g id="node3" class="node"><title>Node3</title>
<g id="a_node3"><a xlink:href="main_8cpp.html#a3c04138a5bfe5d72780bb7e82a18e627" target="_top" xlink:title="main">
<polygon fill="white" stroke="black" points="328,-0.5 328,-19.5 366,-19.5 366,-0.5 328,-0.5"/>
<text text-anchor="middle" x="347" y="-7.5" font-family="Helvetica,sans-Serif" font-size="10.00">main</text>
</a>
</g>
</g>
<!-- Node2&#45;&gt;Node3 -->
<g id="edge2" class="edge"><title>Node2&#45;&gt;Node3</title>
<path fill="none" stroke="midnightblue" d="M301.842,-10C311.548,-10 320.607,-10 327.962,-10"/>
<polygon fill="midnightblue" stroke="midnightblue" points="301.537,-6.5001 291.537,-10 301.537,-13.5001 301.537,-6.5001"/>
</g>
</g>
</svg>
