<?xml version="1.0" encoding="UTF-8" standalone="no"?>
<!DOCTYPE svg PUBLIC "-//W3C//DTD SVG 1.1//EN"
 "http://www.w3.org/Graphics/SVG/1.1/DTD/svg11.dtd">
<!-- Generated by graphviz version 2.36.0 (20140111.2315)
 -->
<!-- Title: FELNumerical Pages: 1 -->
<svg width="126pt" height="578pt"
 viewBox="0.00 0.00 126.00 578.00" xmlns="http://www.w3.org/2000/svg" xmlns:xlink="http://www.w3.org/1999/xlink">
<g id="graph0" class="graph" transform="scale(1 1) rotate(0) translate(4 574)">
<title>FELNumerical</title>
<polygon fill="white" stroke="none" points="-4,4 -4,-574 122,-574 122,4 -4,4"/>
<!-- Node1 -->
<g id="node1" class="node"><title>Node1</title>
<polygon fill="#bfbfbf" stroke="black" points="-0.5,-0.5 -0.5,-167.5 118.5,-167.5 118.5,-0.5 -0.5,-0.5"/>
<text text-anchor="middle" x="59" y="-155.5" font-family="Helvetica,sans-Serif" font-size="10.00">FELNumerical</text>
<polyline fill="none" stroke="black" points="-0.5,-148.5 118.5,-148.5 "/>
<text text-anchor="middle" x="59" y="-136.5" font-family="Helvetica,sans-Serif" font-size="10.00"> </text>
<polyline fill="none" stroke="black" points="-0.5,-129.5 118.5,-129.5 "/>
<text text-anchor="start" x="7.5" y="-117.5" font-family="Helvetica,sans-Serif" font-size="10.00">+ FELNumerical()</text>
<text text-anchor="start" x="7.5" y="-106.5" font-family="Helvetica,sans-Serif" font-size="10.00">+ ~FELNumerical()</text>
<text text-anchor="start" x="7.5" y="-95.5" font-family="Helvetica,sans-Serif" font-size="10.00">+ get_npart()</text>
<text text-anchor="start" x="7.5" y="-84.5" font-family="Helvetica,sans-Serif" font-size="10.00">+ get_psi()</text>
<text text-anchor="start" x="7.5" y="-73.5" font-family="Helvetica,sans-Serif" font-size="10.00">+ get_gam()</text>
<text text-anchor="start" x="7.5" y="-62.5" font-family="Helvetica,sans-Serif" font-size="10.00">+ get_maxExAmp()</text>
<text text-anchor="start" x="7.5" y="-51.5" font-family="Helvetica,sans-Serif" font-size="10.00">+ get_maxEyAmp()</text>
<text text-anchor="start" x="7.5" y="-40.5" font-family="Helvetica,sans-Serif" font-size="10.00">+ get_endExAmp()</text>
<text text-anchor="start" x="7.5" y="-29.5" font-family="Helvetica,sans-Serif" font-size="10.00">+ get_endEyAmp()</text>
<text text-anchor="start" x="7.5" y="-18.5" font-family="Helvetica,sans-Serif" font-size="10.00">+ generateDistribution()</text>
<text text-anchor="start" x="7.5" y="-7.5" font-family="Helvetica,sans-Serif" font-size="10.00">and 8 more...</text>
</g>
<!-- Node2 -->
<g id="node2" class="node"><title>Node2</title>
<g id="a_node2"><a xlink:href="classphysical_constants.html" target="_top" xlink:title="{physicalConstants\n|# PI\l# eps0\l# mu0\l# M0\l# E0\l# C0\l# IA\l|+ physicalConstants()\l+ info()\l}">
<polygon fill="white" stroke="black" points="2.5,-207 2.5,-341 115.5,-341 115.5,-207 2.5,-207"/>
<text text-anchor="middle" x="59" y="-329" font-family="Helvetica,sans-Serif" font-size="10.00">physicalConstants</text>
<polyline fill="none" stroke="black" points="2.5,-322 115.5,-322 "/>
<text text-anchor="start" x="10.5" y="-310" font-family="Helvetica,sans-Serif" font-size="10.00"># PI</text>
<text text-anchor="start" x="10.5" y="-299" font-family="Helvetica,sans-Serif" font-size="10.00"># eps0</text>
<text text-anchor="start" x="10.5" y="-288" font-family="Helvetica,sans-Serif" font-size="10.00"># mu0</text>
<text text-anchor="start" x="10.5" y="-277" font-family="Helvetica,sans-Serif" font-size="10.00"># M0</text>
<text text-anchor="start" x="10.5" y="-266" font-family="Helvetica,sans-Serif" font-size="10.00"># E0</text>
<text text-anchor="start" x="10.5" y="-255" font-family="Helvetica,sans-Serif" font-size="10.00"># C0</text>
<text text-anchor="start" x="10.5" y="-244" font-family="Helvetica,sans-Serif" font-size="10.00"># IA</text>
<polyline fill="none" stroke="black" points="2.5,-237 115.5,-237 "/>
<text text-anchor="start" x="10.5" y="-225" font-family="Helvetica,sans-Serif" font-size="10.00">+ physicalConstants()</text>
<text text-anchor="start" x="10.5" y="-214" font-family="Helvetica,sans-Serif" font-size="10.00">+ info()</text>
</a>
</g>
</g>
<!-- Node2&#45;&gt;Node1 -->
<g id="edge1" class="edge"><title>Node2&#45;&gt;Node1</title>
<path fill="none" stroke="midnightblue" d="M59,-196.726C59,-187.165 59,-177.349 59,-167.695"/>
<polygon fill="none" stroke="midnightblue" points="55.5001,-196.983 59,-206.983 62.5001,-196.983 55.5001,-196.983"/>
</g>
<!-- Node3 -->
<g id="node3" class="node"><title>Node3</title>
<g id="a_node3"><a xlink:href="structphysical_constants_1_1coefs_xie.html" target="_top" xlink:title="{physicalConstants::\lcoefsXie\n|+ a1\l+ a2\l+ a3\l+ a4\l+ a5\l+ a6\l+ a7\l+ a8\l+ a9\l+ a10\land 9 more...\l|}">
<polygon fill="white" stroke="black" points="7,-391 7,-569 111,-569 111,-391 7,-391"/>
<text text-anchor="start" x="15" y="-557" font-family="Helvetica,sans-Serif" font-size="10.00">physicalConstants::</text>
<text text-anchor="middle" x="59" y="-546" font-family="Helvetica,sans-Serif" font-size="10.00">coefsXie</text>
<polyline fill="none" stroke="black" points="7,-539 111,-539 "/>
<text text-anchor="start" x="15" y="-527" font-family="Helvetica,sans-Serif" font-size="10.00">+ a1</text>
<text text-anchor="start" x="15" y="-516" font-family="Helvetica,sans-Serif" font-size="10.00">+ a2</text>
<text text-anchor="start" x="15" y="-505" font-family="Helvetica,sans-Serif" font-size="10.00">+ a3</text>
<text text-anchor="start" x="15" y="-494" font-family="Helvetica,sans-Serif" font-size="10.00">+ a4</text>
<text text-anchor="start" x="15" y="-483" font-family="Helvetica,sans-Serif" font-size="10.00">+ a5</text>
<text text-anchor="start" x="15" y="-472" font-family="Helvetica,sans-Serif" font-size="10.00">+ a6</text>
<text text-anchor="start" x="15" y="-461" font-family="Helvetica,sans-Serif" font-size="10.00">+ a7</text>
<text text-anchor="start" x="15" y="-450" font-family="Helvetica,sans-Serif" font-size="10.00">+ a8</text>
<text text-anchor="start" x="15" y="-439" font-family="Helvetica,sans-Serif" font-size="10.00">+ a9</text>
<text text-anchor="start" x="15" y="-428" font-family="Helvetica,sans-Serif" font-size="10.00">+ a10</text>
<text text-anchor="start" x="15" y="-417" font-family="Helvetica,sans-Serif" font-size="10.00">and 9 more...</text>
<polyline fill="none" stroke="black" points="7,-410 111,-410 "/>
<text text-anchor="middle" x="59" y="-398" font-family="Helvetica,sans-Serif" font-size="10.00"> </text>
</a>
</g>
</g>
<!-- Node3&#45;&gt;Node2 -->
<g id="edge2" class="edge"><title>Node3&#45;&gt;Node2</title>
<path fill="none" stroke="#404040" d="M59,-390.709C59,-378.272 59,-365.558 59,-353.324"/>
<polygon fill="none" stroke="#404040" points="59.0001,-353.279 55,-347.279 59,-341.279 63,-347.279 59.0001,-353.279"/>
<text text-anchor="middle" x="75.5" y="-363.5" font-family="Helvetica,sans-Serif" font-size="10.00"> #coefs</text>
</g>
</g>
</svg>
