<?xml version="1.0" encoding="UTF-8" standalone="no"?>
<!DOCTYPE svg PUBLIC "-//W3C//DTD SVG 1.1//EN"
 "http://www.w3.org/Graphics/SVG/1.1/DTD/svg11.dtd">
<!-- Generated by graphviz version 2.36.0 (20140111.2315)
 -->
<!-- Title: undulator::get_field Pages: 1 -->
<svg width="292pt" height="66pt"
 viewBox="0.00 0.00 292.00 66.00" xmlns="http://www.w3.org/2000/svg" xmlns:xlink="http://www.w3.org/1999/xlink">
<g id="graph0" class="graph" transform="scale(1 1) rotate(0) translate(4 62)">
<title>undulator::get_field</title>
<polygon fill="white" stroke="none" points="-4,4 -4,-62 288,-62 288,4 -4,4"/>
<!-- Node1 -->
<g id="node1" class="node"><title>Node1</title>
<polygon fill="#bfbfbf" stroke="black" points="0.5,-19.5 0.5,-38.5 99.5,-38.5 99.5,-19.5 0.5,-19.5"/>
<text text-anchor="middle" x="50" y="-26.5" font-family="Helvetica,sans-Serif" font-size="10.00">undulator::get_field</text>
</g>
<!-- Node2 -->
<g id="node2" class="node"><title>Node2</title>
<g id="a_node2"><a xlink:href="class_f_e_l_analysis.html#a2d147c239a45ad1949b56bb743e83cd0" target="_top" xlink:title="FELAnalysis::FELAnalysis">
<polygon fill="white" stroke="black" points="143,-38.5 143,-57.5 277,-57.5 277,-38.5 143,-38.5"/>
<text text-anchor="middle" x="210" y="-45.5" font-family="Helvetica,sans-Serif" font-size="10.00">FELAnalysis::FELAnalysis</text>
</a>
</g>
</g>
<!-- Node1&#45;&gt;Node2 -->
<g id="edge1" class="edge"><title>Node1&#45;&gt;Node2</title>
<path fill="none" stroke="midnightblue" d="M109.797,-36.0705C120.533,-37.3616 131.804,-38.7169 142.74,-40.032"/>
<polygon fill="midnightblue" stroke="midnightblue" points="110.041,-32.5747 99.6944,-34.8557 109.205,-39.5246 110.041,-32.5747"/>
</g>
<!-- Node3 -->
<g id="node3" class="node"><title>Node3</title>
<g id="a_node3"><a xlink:href="class_f_e_l_numerical.html#a70fa680e4c12c15740c265978097e209" target="_top" xlink:title="&lt; class initialization with input parameters ">
<polygon fill="white" stroke="black" points="136.5,-0.5 136.5,-19.5 283.5,-19.5 283.5,-0.5 136.5,-0.5"/>
<text text-anchor="middle" x="210" y="-7.5" font-family="Helvetica,sans-Serif" font-size="10.00">FELNumerical::FELNumerical</text>
</a>
</g>
</g>
<!-- Node1&#45;&gt;Node3 -->
<g id="edge2" class="edge"><title>Node1&#45;&gt;Node3</title>
<path fill="none" stroke="midnightblue" d="M109.704,-21.9407C118.391,-20.896 127.429,-19.8091 136.359,-18.7354"/>
<polygon fill="midnightblue" stroke="midnightblue" points="109.205,-18.4754 99.6944,-23.1443 110.041,-25.4253 109.205,-18.4754"/>
</g>
</g>
</svg>
