<?xml version="1.0" encoding="UTF-8" standalone="no"?>
<!DOCTYPE svg PUBLIC "-//W3C//DTD SVG 1.1//EN"
 "http://www.w3.org/Graphics/SVG/1.1/DTD/svg11.dtd">
<!-- Generated by graphviz version 2.36.0 (20140111.2315)
 -->
<!-- Title: FELNumerical::FELsolverSingleFrequency1D Pages: 1 -->
<svg width="338pt" height="294pt"
 viewBox="0.00 0.00 338.00 294.00" xmlns="http://www.w3.org/2000/svg" xmlns:xlink="http://www.w3.org/1999/xlink">
<g id="graph0" class="graph" transform="scale(1 1) rotate(0) translate(4 290)">
<title>FELNumerical::FELsolverSingleFrequency1D</title>
<polygon fill="white" stroke="none" points="-4,4 -4,-290 334,-290 334,4 -4,4"/>
<!-- Node1 -->
<g id="node1" class="node"><title>Node1</title>
<polygon fill="#bfbfbf" stroke="black" points="0,-128 0,-158 156,-158 156,-128 0,-128"/>
<text text-anchor="start" x="8" y="-146" font-family="Helvetica,sans-Serif" font-size="10.00">FELNumerical::FELsolverSingle</text>
<text text-anchor="middle" x="78" y="-135" font-family="Helvetica,sans-Serif" font-size="10.00">Frequency1D</text>
</g>
<!-- Node2 -->
<g id="node2" class="node"><title>Node2</title>
<g id="a_node2"><a xlink:href="classefield.html#acd868760a36c819bdddeffc734ddd21d" target="_top" xlink:title="efield::get_real">
<polygon fill="white" stroke="black" points="221,-266.5 221,-285.5 301,-285.5 301,-266.5 221,-266.5"/>
<text text-anchor="middle" x="261" y="-273.5" font-family="Helvetica,sans-Serif" font-size="10.00">efield::get_real</text>
</a>
</g>
</g>
<!-- Node1&#45;&gt;Node2 -->
<g id="edge1" class="edge"><title>Node1&#45;&gt;Node2</title>
<path fill="none" stroke="midnightblue" d="M89.7013,-158.02C107.907,-182.463 147.308,-230.746 192,-257 197.894,-260.462 204.447,-263.318 211.092,-265.667"/>
<polygon fill="midnightblue" stroke="midnightblue" points="210.237,-269.067 220.827,-268.757 212.355,-262.395 210.237,-269.067"/>
</g>
<!-- Node3 -->
<g id="node3" class="node"><title>Node3</title>
<g id="a_node3"><a xlink:href="classefield.html#a532bb6e564552fc3ddd046e591da4a5d" target="_top" xlink:title="efield::get_imag">
<polygon fill="white" stroke="black" points="218,-228.5 218,-247.5 304,-247.5 304,-228.5 218,-228.5"/>
<text text-anchor="middle" x="261" y="-235.5" font-family="Helvetica,sans-Serif" font-size="10.00">efield::get_imag</text>
</a>
</g>
</g>
<!-- Node1&#45;&gt;Node3 -->
<g id="edge2" class="edge"><title>Node1&#45;&gt;Node3</title>
<path fill="none" stroke="midnightblue" d="M97.4774,-158.173C118.985,-175.157 156.149,-202.459 192,-219 197.078,-221.343 202.506,-223.454 207.998,-225.342"/>
<polygon fill="midnightblue" stroke="midnightblue" points="207.3,-228.793 217.89,-228.501 209.429,-222.125 207.3,-228.793"/>
</g>
<!-- Node4 -->
<g id="node4" class="node"><title>Node4</title>
<g id="a_node4"><a xlink:href="methods_8cpp.html#a7ebc760ceffb733e04b5ad7cb8fa703a" target="_top" xlink:title="return &lt;sin(h*psi[])&gt; ">
<polygon fill="white" stroke="black" points="230,-190.5 230,-209.5 292,-209.5 292,-190.5 230,-190.5"/>
<text text-anchor="middle" x="261" y="-197.5" font-family="Helvetica,sans-Serif" font-size="10.00">meancosh</text>
</a>
</g>
</g>
<!-- Node1&#45;&gt;Node4 -->
<g id="edge3" class="edge"><title>Node1&#45;&gt;Node4</title>
<path fill="none" stroke="midnightblue" d="M122.026,-158.054C143.043,-165.258 168.755,-173.849 192,-181 201.034,-183.779 210.795,-186.608 220.026,-189.204"/>
<polygon fill="midnightblue" stroke="midnightblue" points="219.202,-192.608 229.774,-191.917 221.079,-185.864 219.202,-192.608"/>
</g>
<!-- Node5 -->
<g id="node5" class="node"><title>Node5</title>
<g id="a_node5"><a xlink:href="methods_8cpp.html#a9d3b9594d8625cd4d4a7fcf738c2536d" target="_top" xlink:title="METHODS_H_. ">
<polygon fill="white" stroke="black" points="231.5,-152.5 231.5,-171.5 290.5,-171.5 290.5,-152.5 231.5,-152.5"/>
<text text-anchor="middle" x="261" y="-159.5" font-family="Helvetica,sans-Serif" font-size="10.00">meansinh</text>
</a>
</g>
</g>
<!-- Node1&#45;&gt;Node5 -->
<g id="edge4" class="edge"><title>Node1&#45;&gt;Node5</title>
<path fill="none" stroke="midnightblue" d="M156.023,-151.085C178.592,-153.454 202.305,-155.944 221.377,-157.946"/>
<polygon fill="midnightblue" stroke="midnightblue" points="221.147,-161.441 231.458,-159.004 221.878,-154.479 221.147,-161.441"/>
</g>
<!-- Node6 -->
<g id="node6" class="node"><title>Node6</title>
<g id="a_node6"><a xlink:href="class_f_e_l_numerical.html#a07004555a6d926435e5cfe81ea0fce7d" target="_top" xlink:title="FELNumerical::odef3">
<polygon fill="white" stroke="black" points="206.5,-114.5 206.5,-133.5 315.5,-133.5 315.5,-114.5 206.5,-114.5"/>
<text text-anchor="middle" x="261" y="-121.5" font-family="Helvetica,sans-Serif" font-size="10.00">FELNumerical::odef3</text>
</a>
</g>
</g>
<!-- Node1&#45;&gt;Node6 -->
<g id="edge5" class="edge"><title>Node1&#45;&gt;Node6</title>
<path fill="none" stroke="midnightblue" d="M156.023,-134.915C169.385,-133.512 183.148,-132.067 196.112,-130.706"/>
<polygon fill="midnightblue" stroke="midnightblue" points="196.734,-134.16 206.314,-129.636 196.003,-127.199 196.734,-134.16"/>
</g>
<!-- Node7 -->
<g id="node7" class="node"><title>Node7</title>
<g id="a_node7"><a xlink:href="class_f_e_l_numerical.html#ac59b8fd8eb868f25b9e599ab2f99b01e" target="_top" xlink:title="FELNumerical::odef1">
<polygon fill="white" stroke="black" points="206.5,-76.5 206.5,-95.5 315.5,-95.5 315.5,-76.5 206.5,-76.5"/>
<text text-anchor="middle" x="261" y="-83.5" font-family="Helvetica,sans-Serif" font-size="10.00">FELNumerical::odef1</text>
</a>
</g>
</g>
<!-- Node1&#45;&gt;Node7 -->
<g id="edge6" class="edge"><title>Node1&#45;&gt;Node7</title>
<path fill="none" stroke="midnightblue" d="M122.026,-127.946C143.043,-120.742 168.755,-112.151 192,-105 199.332,-102.745 207.142,-100.457 214.759,-98.2866"/>
<polygon fill="midnightblue" stroke="midnightblue" points="215.928,-101.594 224.605,-95.5146 214.031,-94.8557 215.928,-101.594"/>
</g>
<!-- Node8 -->
<g id="node8" class="node"><title>Node8</title>
<g id="a_node8"><a xlink:href="class_f_e_l_numerical.html#a50847862c4edf2851f4422eb3ff68dca" target="_top" xlink:title="FELNumerical::odef2">
<polygon fill="white" stroke="black" points="206.5,-38.5 206.5,-57.5 315.5,-57.5 315.5,-38.5 206.5,-38.5"/>
<text text-anchor="middle" x="261" y="-45.5" font-family="Helvetica,sans-Serif" font-size="10.00">FELNumerical::odef2</text>
</a>
</g>
</g>
<!-- Node1&#45;&gt;Node8 -->
<g id="edge7" class="edge"><title>Node1&#45;&gt;Node8</title>
<path fill="none" stroke="midnightblue" d="M97.4774,-127.827C118.985,-110.843 156.149,-83.5406 192,-67 197.009,-64.6892 202.358,-62.6037 207.772,-60.7357"/>
<polygon fill="midnightblue" stroke="midnightblue" points="209.077,-63.9929 217.531,-57.6065 206.94,-57.3272 209.077,-63.9929"/>
</g>
<!-- Node9 -->
<g id="node9" class="node"><title>Node9</title>
<g id="a_node9"><a xlink:href="class_f_e_l_numerical.html#a9902301071874ffdd433d0f6b52fe711" target="_top" xlink:title="import particle distribution ">
<polygon fill="white" stroke="black" points="192.5,-0.5 192.5,-19.5 329.5,-19.5 329.5,-0.5 192.5,-0.5"/>
<text text-anchor="middle" x="261" y="-7.5" font-family="Helvetica,sans-Serif" font-size="10.00">FELNumerical::dumpParfile</text>
</a>
</g>
</g>
<!-- Node1&#45;&gt;Node9 -->
<g id="edge8" class="edge"><title>Node1&#45;&gt;Node9</title>
<path fill="none" stroke="midnightblue" d="M89.7013,-127.98C107.907,-103.537 147.308,-55.2539 192,-29 195.686,-26.8347 199.63,-24.9068 203.692,-23.1917"/>
<polygon fill="midnightblue" stroke="midnightblue" points="205.198,-26.3646 213.323,-19.5646 202.731,-19.8138 205.198,-26.3646"/>
</g>
</g>
</svg>
