<?xml version="1.0" encoding="UTF-8" standalone="no"?>
<!DOCTYPE svg PUBLIC "-//W3C//DTD SVG 1.1//EN"
 "http://www.w3.org/Graphics/SVG/1.1/DTD/svg11.dtd">
<!-- Generated by graphviz version 2.36.0 (20140111.2315)
 -->
<!-- Title: scanpanel::updateVarlist Pages: 1 -->
<svg width="358pt" height="28pt"
 viewBox="0.00 0.00 358.00 28.00" xmlns="http://www.w3.org/2000/svg" xmlns:xlink="http://www.w3.org/1999/xlink">
<g id="graph0" class="graph" transform="scale(1 1) rotate(0) translate(4 24)">
<title>scanpanel::updateVarlist</title>
<polygon fill="white" stroke="none" points="-4,4 -4,-24 354,-24 354,4 -4,4"/>
<!-- Node1 -->
<g id="node1" class="node"><title>Node1</title>
<polygon fill="#bfbfbf" stroke="black" points="0,-0.5 0,-19.5 124,-19.5 124,-0.5 0,-0.5"/>
<text text-anchor="middle" x="62" y="-7.5" font-family="Helvetica,sans-Serif" font-size="10.00">scanpanel::updateVarlist</text>
</g>
<!-- Node2 -->
<g id="node2" class="node"><title>Node2</title>
<g id="a_node2"><a xlink:href="classscanpanel.html#ad5d03fff058d2903c654c55f101ae852" target="_top" xlink:title="do parameters scan ">
<polygon fill="white" stroke="black" points="160,-0.5 160,-19.5 276,-19.5 276,-0.5 160,-0.5"/>
<text text-anchor="middle" x="218" y="-7.5" font-family="Helvetica,sans-Serif" font-size="10.00">scanpanel::paramScan</text>
</a>
</g>
</g>
<!-- Node1&#45;&gt;Node2 -->
<g id="edge1" class="edge"><title>Node1&#45;&gt;Node2</title>
<path fill="none" stroke="midnightblue" d="M134.31,-10C142.891,-10 151.565,-10 159.906,-10"/>
<polygon fill="midnightblue" stroke="midnightblue" points="134.307,-6.5001 124.307,-10 134.307,-13.5001 134.307,-6.5001"/>
</g>
<!-- Node3 -->
<g id="node3" class="node"><title>Node3</title>
<g id="a_node3"><a xlink:href="main_8cpp.html#a3c04138a5bfe5d72780bb7e82a18e627" target="_top" xlink:title="main">
<polygon fill="white" stroke="black" points="312,-0.5 312,-19.5 350,-19.5 350,-0.5 312,-0.5"/>
<text text-anchor="middle" x="331" y="-7.5" font-family="Helvetica,sans-Serif" font-size="10.00">main</text>
</a>
</g>
</g>
<!-- Node2&#45;&gt;Node3 -->
<g id="edge2" class="edge"><title>Node2&#45;&gt;Node3</title>
<path fill="none" stroke="midnightblue" d="M286.376,-10C295.702,-10 304.558,-10 311.824,-10"/>
<polygon fill="midnightblue" stroke="midnightblue" points="286.126,-6.5001 276.126,-10 286.126,-13.5001 286.126,-6.5001"/>
</g>
</g>
</svg>
