<?xml version="1.0" encoding="UTF-8" standalone="no"?>
<!DOCTYPE svg PUBLIC "-//W3C//DTD SVG 1.1//EN"
 "http://www.w3.org/Graphics/SVG/1.1/DTD/svg11.dtd">
<!-- Generated by graphviz version 2.36.0 (20140111.2315)
 -->
<!-- Title: defaultParams Pages: 1 -->
<svg width="688pt" height="326pt"
 viewBox="0.00 0.00 688.00 326.00" xmlns="http://www.w3.org/2000/svg" xmlns:xlink="http://www.w3.org/1999/xlink">
<g id="graph0" class="graph" transform="scale(1 1) rotate(0) translate(4 322)">
<title>defaultParams</title>
<polygon fill="white" stroke="none" points="-4,4 -4,-322 684,-322 684,4 -4,4"/>
<!-- Node1 -->
<g id="node1" class="node"><title>Node1</title>
<polygon fill="#bfbfbf" stroke="black" points="316.5,-249 316.5,-317 411.5,-317 411.5,-249 316.5,-249"/>
<text text-anchor="middle" x="364" y="-305" font-family="Helvetica,sans-Serif" font-size="10.00">defaultParams</text>
<polyline fill="none" stroke="black" points="316.5,-298 411.5,-298 "/>
<text text-anchor="start" x="324.5" y="-286" font-family="Helvetica,sans-Serif" font-size="10.00"># dparams</text>
<text text-anchor="start" x="324.5" y="-275" font-family="Helvetica,sans-Serif" font-size="10.00"># oparams</text>
<polyline fill="none" stroke="black" points="316.5,-268 411.5,-268 "/>
<text text-anchor="start" x="324.5" y="-256" font-family="Helvetica,sans-Serif" font-size="10.00">+ defaultParams()</text>
</g>
<!-- Node2 -->
<g id="node2" class="node"><title>Node2</title>
<g id="a_node2"><a xlink:href="classcontrolpanel.html" target="_top" xlink:title="{controlpanel\n||+ controlpanel()\l+ controlpanel()\l+ set_npart()\l+ set_method()\l+ set_outfilename()\l+ set_parfilename()\l+ set_disfilename()\l+ set_parflag()\l+ set_disflag()\l+ set_pardelz()\land 9 more...\l}">
<polygon fill="white" stroke="black" points="-0.5,-22.5 -0.5,-189.5 100.5,-189.5 100.5,-22.5 -0.5,-22.5"/>
<text text-anchor="middle" x="50" y="-177.5" font-family="Helvetica,sans-Serif" font-size="10.00">controlpanel</text>
<polyline fill="none" stroke="black" points="-0.5,-170.5 100.5,-170.5 "/>
<text text-anchor="middle" x="50" y="-158.5" font-family="Helvetica,sans-Serif" font-size="10.00"> </text>
<polyline fill="none" stroke="black" points="-0.5,-151.5 100.5,-151.5 "/>
<text text-anchor="start" x="7.5" y="-139.5" font-family="Helvetica,sans-Serif" font-size="10.00">+ controlpanel()</text>
<text text-anchor="start" x="7.5" y="-128.5" font-family="Helvetica,sans-Serif" font-size="10.00">+ controlpanel()</text>
<text text-anchor="start" x="7.5" y="-117.5" font-family="Helvetica,sans-Serif" font-size="10.00">+ set_npart()</text>
<text text-anchor="start" x="7.5" y="-106.5" font-family="Helvetica,sans-Serif" font-size="10.00">+ set_method()</text>
<text text-anchor="start" x="7.5" y="-95.5" font-family="Helvetica,sans-Serif" font-size="10.00">+ set_outfilename()</text>
<text text-anchor="start" x="7.5" y="-84.5" font-family="Helvetica,sans-Serif" font-size="10.00">+ set_parfilename()</text>
<text text-anchor="start" x="7.5" y="-73.5" font-family="Helvetica,sans-Serif" font-size="10.00">+ set_disfilename()</text>
<text text-anchor="start" x="7.5" y="-62.5" font-family="Helvetica,sans-Serif" font-size="10.00">+ set_parflag()</text>
<text text-anchor="start" x="7.5" y="-51.5" font-family="Helvetica,sans-Serif" font-size="10.00">+ set_disflag()</text>
<text text-anchor="start" x="7.5" y="-40.5" font-family="Helvetica,sans-Serif" font-size="10.00">+ set_pardelz()</text>
<text text-anchor="start" x="7.5" y="-29.5" font-family="Helvetica,sans-Serif" font-size="10.00">and 9 more...</text>
</a>
</g>
</g>
<!-- Node1&#45;&gt;Node2 -->
<g id="edge1" class="edge"><title>Node1&#45;&gt;Node2</title>
<path fill="none" stroke="midnightblue" d="M306.09,-278.585C250.621,-272.634 167.137,-256.371 110,-212 101.875,-205.69 94.6614,-197.949 88.309,-189.555"/>
<polygon fill="none" stroke="midnightblue" points="305.812,-282.074 316.109,-279.58 306.504,-275.108 305.812,-282.074"/>
</g>
<!-- Node3 -->
<g id="node3" class="node"><title>Node3</title>
<g id="a_node3"><a xlink:href="classelectron_beam.html" target="_top" xlink:title="{electronBeam\n||+ electronBeam()\l+ electronBeam()\l+ set_centralEnergy()\l+ set_energySpread()\l+ set_emitnx()\l+ set_emitny()\l+ set_peakCurrent()\l+ set_avgBetaFunc()\l+ get_centralEnergy()\l+ get_energySpread()\l+ get_emitnx()\l+ get_emitny()\l+ get_peakCurrent()\l+ get_avgBetaFunc()\l+ info()\l}">
<polygon fill="white" stroke="black" points="119,-0.5 119,-211.5 229,-211.5 229,-0.5 119,-0.5"/>
<text text-anchor="middle" x="174" y="-199.5" font-family="Helvetica,sans-Serif" font-size="10.00">electronBeam</text>
<polyline fill="none" stroke="black" points="119,-192.5 229,-192.5 "/>
<text text-anchor="middle" x="174" y="-180.5" font-family="Helvetica,sans-Serif" font-size="10.00"> </text>
<polyline fill="none" stroke="black" points="119,-173.5 229,-173.5 "/>
<text text-anchor="start" x="127" y="-161.5" font-family="Helvetica,sans-Serif" font-size="10.00">+ electronBeam()</text>
<text text-anchor="start" x="127" y="-150.5" font-family="Helvetica,sans-Serif" font-size="10.00">+ electronBeam()</text>
<text text-anchor="start" x="127" y="-139.5" font-family="Helvetica,sans-Serif" font-size="10.00">+ set_centralEnergy()</text>
<text text-anchor="start" x="127" y="-128.5" font-family="Helvetica,sans-Serif" font-size="10.00">+ set_energySpread()</text>
<text text-anchor="start" x="127" y="-117.5" font-family="Helvetica,sans-Serif" font-size="10.00">+ set_emitnx()</text>
<text text-anchor="start" x="127" y="-106.5" font-family="Helvetica,sans-Serif" font-size="10.00">+ set_emitny()</text>
<text text-anchor="start" x="127" y="-95.5" font-family="Helvetica,sans-Serif" font-size="10.00">+ set_peakCurrent()</text>
<text text-anchor="start" x="127" y="-84.5" font-family="Helvetica,sans-Serif" font-size="10.00">+ set_avgBetaFunc()</text>
<text text-anchor="start" x="127" y="-73.5" font-family="Helvetica,sans-Serif" font-size="10.00">+ get_centralEnergy()</text>
<text text-anchor="start" x="127" y="-62.5" font-family="Helvetica,sans-Serif" font-size="10.00">+ get_energySpread()</text>
<text text-anchor="start" x="127" y="-51.5" font-family="Helvetica,sans-Serif" font-size="10.00">+ get_emitnx()</text>
<text text-anchor="start" x="127" y="-40.5" font-family="Helvetica,sans-Serif" font-size="10.00">+ get_emitny()</text>
<text text-anchor="start" x="127" y="-29.5" font-family="Helvetica,sans-Serif" font-size="10.00">+ get_peakCurrent()</text>
<text text-anchor="start" x="127" y="-18.5" font-family="Helvetica,sans-Serif" font-size="10.00">+ get_avgBetaFunc()</text>
<text text-anchor="start" x="127" y="-7.5" font-family="Helvetica,sans-Serif" font-size="10.00">+ info()</text>
</a>
</g>
</g>
<!-- Node1&#45;&gt;Node3 -->
<g id="edge2" class="edge"><title>Node1&#45;&gt;Node3</title>
<path fill="none" stroke="midnightblue" d="M307.113,-258.243C283.865,-246.648 257.836,-231.053 238,-212 234.921,-209.042 231.932,-205.906 229.038,-202.637"/>
<polygon fill="none" stroke="midnightblue" points="305.677,-261.437 316.203,-262.648 308.73,-255.138 305.677,-261.437"/>
</g>
<!-- Node4 -->
<g id="node4" class="node"><title>Node4</title>
<g id="a_node4"><a xlink:href="class_f_e_lradiation.html" target="_top" xlink:title="{FELradiation\n||+ FELradiation()\l+ FELradiation()\l+ set_wavelength()\l+ get_wavelength()\l+ info()\l}">
<polygon fill="white" stroke="black" points="247,-55.5 247,-156.5 347,-156.5 347,-55.5 247,-55.5"/>
<text text-anchor="middle" x="297" y="-144.5" font-family="Helvetica,sans-Serif" font-size="10.00">FELradiation</text>
<polyline fill="none" stroke="black" points="247,-137.5 347,-137.5 "/>
<text text-anchor="middle" x="297" y="-125.5" font-family="Helvetica,sans-Serif" font-size="10.00"> </text>
<polyline fill="none" stroke="black" points="247,-118.5 347,-118.5 "/>
<text text-anchor="start" x="255" y="-106.5" font-family="Helvetica,sans-Serif" font-size="10.00">+ FELradiation()</text>
<text text-anchor="start" x="255" y="-95.5" font-family="Helvetica,sans-Serif" font-size="10.00">+ FELradiation()</text>
<text text-anchor="start" x="255" y="-84.5" font-family="Helvetica,sans-Serif" font-size="10.00">+ set_wavelength()</text>
<text text-anchor="start" x="255" y="-73.5" font-family="Helvetica,sans-Serif" font-size="10.00">+ get_wavelength()</text>
<text text-anchor="start" x="255" y="-62.5" font-family="Helvetica,sans-Serif" font-size="10.00">+ info()</text>
</a>
</g>
</g>
<!-- Node1&#45;&gt;Node4 -->
<g id="edge3" class="edge"><title>Node1&#45;&gt;Node4</title>
<path fill="none" stroke="midnightblue" d="M347.588,-239.133C338.055,-214.234 326.002,-182.751 316.052,-156.762"/>
<polygon fill="none" stroke="midnightblue" points="344.396,-240.584 351.24,-248.672 350.933,-238.082 344.396,-240.584"/>
</g>
<!-- Node5 -->
<g id="node5" class="node"><title>Node5</title>
<g id="a_node5"><a xlink:href="classscanpanel.html" target="_top" xlink:title="ELEMENTS_H_. ">
<polygon fill="white" stroke="black" points="365.5,-22.5 365.5,-189.5 496.5,-189.5 496.5,-22.5 365.5,-22.5"/>
<text text-anchor="middle" x="431" y="-177.5" font-family="Helvetica,sans-Serif" font-size="10.00">scanpanel</text>
<polyline fill="none" stroke="black" points="365.5,-170.5 496.5,-170.5 "/>
<text text-anchor="middle" x="431" y="-158.5" font-family="Helvetica,sans-Serif" font-size="10.00"> </text>
<polyline fill="none" stroke="black" points="365.5,-151.5 496.5,-151.5 "/>
<text text-anchor="start" x="373.5" y="-139.5" font-family="Helvetica,sans-Serif" font-size="10.00">+ scanpanel()</text>
<text text-anchor="start" x="373.5" y="-128.5" font-family="Helvetica,sans-Serif" font-size="10.00">+ scanpanel()</text>
<text text-anchor="start" x="373.5" y="-117.5" font-family="Helvetica,sans-Serif" font-size="10.00">+ ~scanpanel()</text>
<text text-anchor="start" x="373.5" y="-106.5" font-family="Helvetica,sans-Serif" font-size="10.00">+ checkScanParamIsOK()</text>
<text text-anchor="start" x="373.5" y="-95.5" font-family="Helvetica,sans-Serif" font-size="10.00">+ checkScanSetupIsOK()</text>
<text text-anchor="start" x="373.5" y="-84.5" font-family="Helvetica,sans-Serif" font-size="10.00">+ updateVarlist()</text>
<text text-anchor="start" x="373.5" y="-73.5" font-family="Helvetica,sans-Serif" font-size="10.00">+ set_electronBeam()</text>
<text text-anchor="start" x="373.5" y="-62.5" font-family="Helvetica,sans-Serif" font-size="10.00">+ set_seedfield()</text>
<text text-anchor="start" x="373.5" y="-51.5" font-family="Helvetica,sans-Serif" font-size="10.00">+ set_undulator()</text>
<text text-anchor="start" x="373.5" y="-40.5" font-family="Helvetica,sans-Serif" font-size="10.00">+ set_FELradiation()</text>
<text text-anchor="start" x="373.5" y="-29.5" font-family="Helvetica,sans-Serif" font-size="10.00">and 6 more...</text>
</a>
</g>
</g>
<!-- Node1&#45;&gt;Node5 -->
<g id="edge4" class="edge"><title>Node1&#45;&gt;Node5</title>
<path fill="none" stroke="midnightblue" d="M380.393,-239.183C386.138,-224.177 392.801,-206.774 399.368,-189.622"/>
<polygon fill="none" stroke="midnightblue" points="377.067,-238.082 376.76,-248.672 383.604,-240.584 377.067,-238.082"/>
</g>
<!-- Node6 -->
<g id="node6" class="node"><title>Node6</title>
<g id="a_node6"><a xlink:href="classseedfield.html" target="_top" xlink:title="define element classes. ">
<polygon fill="white" stroke="black" points="514.5,-44.5 514.5,-167.5 585.5,-167.5 585.5,-44.5 514.5,-44.5"/>
<text text-anchor="middle" x="550" y="-155.5" font-family="Helvetica,sans-Serif" font-size="10.00">seedfield</text>
<polyline fill="none" stroke="black" points="514.5,-148.5 585.5,-148.5 "/>
<text text-anchor="middle" x="550" y="-136.5" font-family="Helvetica,sans-Serif" font-size="10.00"> </text>
<polyline fill="none" stroke="black" points="514.5,-129.5 585.5,-129.5 "/>
<text text-anchor="start" x="522.5" y="-117.5" font-family="Helvetica,sans-Serif" font-size="10.00">+ seedfield()</text>
<text text-anchor="start" x="522.5" y="-106.5" font-family="Helvetica,sans-Serif" font-size="10.00">+ seedfield()</text>
<text text-anchor="start" x="522.5" y="-95.5" font-family="Helvetica,sans-Serif" font-size="10.00">+ set_Ex()</text>
<text text-anchor="start" x="522.5" y="-84.5" font-family="Helvetica,sans-Serif" font-size="10.00">+ set_Ey()</text>
<text text-anchor="start" x="522.5" y="-73.5" font-family="Helvetica,sans-Serif" font-size="10.00">+ get_Ex()</text>
<text text-anchor="start" x="522.5" y="-62.5" font-family="Helvetica,sans-Serif" font-size="10.00">+ get_Ey()</text>
<text text-anchor="start" x="522.5" y="-51.5" font-family="Helvetica,sans-Serif" font-size="10.00">+ info()</text>
</a>
</g>
</g>
<!-- Node1&#45;&gt;Node6 -->
<g id="edge5" class="edge"><title>Node1&#45;&gt;Node6</title>
<path fill="none" stroke="midnightblue" d="M421.12,-264.258C449.38,-253.061 482.225,-236.085 505,-212 516.787,-199.535 525.746,-183.506 532.443,-167.744"/>
<polygon fill="none" stroke="midnightblue" points="419.831,-261.003 411.733,-267.835 422.324,-267.544 419.831,-261.003"/>
</g>
<!-- Node7 -->
<g id="node7" class="node"><title>Node7</title>
<g id="a_node7"><a xlink:href="classundulator.html" target="_top" xlink:title="{undulator\n||+ undulator()\l+ undulator()\l+ set_period()\l+ set_field()\l+ set_num()\l+ set_deltz()\l+ get_field()\l+ get_period()\l+ get_num()\l+ get_deltz()\l+ info()\l}">
<polygon fill="white" stroke="black" points="603.5,-22.5 603.5,-189.5 680.5,-189.5 680.5,-22.5 603.5,-22.5"/>
<text text-anchor="middle" x="642" y="-177.5" font-family="Helvetica,sans-Serif" font-size="10.00">undulator</text>
<polyline fill="none" stroke="black" points="603.5,-170.5 680.5,-170.5 "/>
<text text-anchor="middle" x="642" y="-158.5" font-family="Helvetica,sans-Serif" font-size="10.00"> </text>
<polyline fill="none" stroke="black" points="603.5,-151.5 680.5,-151.5 "/>
<text text-anchor="start" x="611.5" y="-139.5" font-family="Helvetica,sans-Serif" font-size="10.00">+ undulator()</text>
<text text-anchor="start" x="611.5" y="-128.5" font-family="Helvetica,sans-Serif" font-size="10.00">+ undulator()</text>
<text text-anchor="start" x="611.5" y="-117.5" font-family="Helvetica,sans-Serif" font-size="10.00">+ set_period()</text>
<text text-anchor="start" x="611.5" y="-106.5" font-family="Helvetica,sans-Serif" font-size="10.00">+ set_field()</text>
<text text-anchor="start" x="611.5" y="-95.5" font-family="Helvetica,sans-Serif" font-size="10.00">+ set_num()</text>
<text text-anchor="start" x="611.5" y="-84.5" font-family="Helvetica,sans-Serif" font-size="10.00">+ set_deltz()</text>
<text text-anchor="start" x="611.5" y="-73.5" font-family="Helvetica,sans-Serif" font-size="10.00">+ get_field()</text>
<text text-anchor="start" x="611.5" y="-62.5" font-family="Helvetica,sans-Serif" font-size="10.00">+ get_period()</text>
<text text-anchor="start" x="611.5" y="-51.5" font-family="Helvetica,sans-Serif" font-size="10.00">+ get_num()</text>
<text text-anchor="start" x="611.5" y="-40.5" font-family="Helvetica,sans-Serif" font-size="10.00">+ get_deltz()</text>
<text text-anchor="start" x="611.5" y="-29.5" font-family="Helvetica,sans-Serif" font-size="10.00">+ info()</text>
</a>
</g>
</g>
<!-- Node1&#45;&gt;Node7 -->
<g id="edge6" class="edge"><title>Node1&#45;&gt;Node7</title>
<path fill="none" stroke="midnightblue" d="M421.968,-277.6C472.76,-270.933 545.801,-254.166 594,-212 601.317,-205.599 607.584,-197.855 612.936,-189.506"/>
<polygon fill="none" stroke="midnightblue" points="421.305,-274.155 411.802,-278.839 422.152,-281.103 421.305,-274.155"/>
</g>
</g>
</svg>
