<?xml version="1.0" encoding="UTF-8" standalone="no"?>
<!DOCTYPE svg PUBLIC "-//W3C//DTD SVG 1.1//EN"
 "http://www.w3.org/Graphics/SVG/1.1/DTD/svg11.dtd">
<!-- Generated by graphviz version 2.36.0 (20140111.2315)
 -->
<!-- Title: constants.h Pages: 1 -->
<svg width="365pt" height="196pt"
 viewBox="0.00 0.00 365.00 196.00" xmlns="http://www.w3.org/2000/svg" xmlns:xlink="http://www.w3.org/1999/xlink">
<g id="graph0" class="graph" transform="scale(1 1) rotate(0) translate(4 192)">
<title>constants.h</title>
<polygon fill="white" stroke="none" points="-4,4 -4,-192 361,-192 361,4 -4,4"/>
<!-- Node1 -->
<g id="node1" class="node"><title>Node1</title>
<polygon fill="#bfbfbf" stroke="black" points="163,-168.5 163,-187.5 231,-187.5 231,-168.5 163,-168.5"/>
<text text-anchor="middle" x="197" y="-175.5" font-family="Helvetica,sans-Serif" font-size="10.00">constants.h</text>
</g>
<!-- Node2 -->
<g id="node2" class="node"><title>Node2</title>
<g id="a_node2"><a xlink:href="constants_8cpp.html" target="_top" xlink:title="constants.cpp">
<polygon fill="white" stroke="black" points="0,-112.5 0,-131.5 78,-131.5 78,-112.5 0,-112.5"/>
<text text-anchor="middle" x="39" y="-119.5" font-family="Helvetica,sans-Serif" font-size="10.00">constants.cpp</text>
</a>
</g>
</g>
<!-- Node1&#45;&gt;Node2 -->
<g id="edge1" class="edge"><title>Node1&#45;&gt;Node2</title>
<path fill="none" stroke="midnightblue" d="M162.392,-165.172C132.641,-155.004 90.4529,-140.585 63.9184,-131.516"/>
<polygon fill="midnightblue" stroke="midnightblue" points="161.37,-168.521 171.964,-168.444 163.634,-161.898 161.37,-168.521"/>
</g>
<!-- Node3 -->
<g id="node3" class="node"><title>Node3</title>
<g id="a_node3"><a xlink:href="elements_8h.html" target="_top" xlink:title="elements.h">
<polygon fill="white" stroke="black" points="134.5,-112.5 134.5,-131.5 199.5,-131.5 199.5,-112.5 134.5,-112.5"/>
<text text-anchor="middle" x="167" y="-119.5" font-family="Helvetica,sans-Serif" font-size="10.00">elements.h</text>
</a>
</g>
</g>
<!-- Node1&#45;&gt;Node3 -->
<g id="edge2" class="edge"><title>Node1&#45;&gt;Node3</title>
<path fill="none" stroke="midnightblue" d="M187.153,-159.275C182.025,-150.045 175.984,-139.17 171.862,-131.751"/>
<polygon fill="midnightblue" stroke="midnightblue" points="184.13,-161.041 192.046,-168.083 190.249,-157.642 184.13,-161.041"/>
</g>
<!-- Node4 -->
<g id="node4" class="node"><title>Node4</title>
<g id="a_node4"><a xlink:href="elements_8cpp.html" target="_top" xlink:title="elements.cpp">
<polygon fill="white" stroke="black" points="186.5,-0.5 186.5,-19.5 261.5,-19.5 261.5,-0.5 186.5,-0.5"/>
<text text-anchor="middle" x="224" y="-7.5" font-family="Helvetica,sans-Serif" font-size="10.00">elements.cpp</text>
</a>
</g>
</g>
<!-- Node1&#45;&gt;Node4 -->
<g id="edge14" class="edge"><title>Node1&#45;&gt;Node4</title>
<path fill="none" stroke="midnightblue" d="M213.28,-161.078C230.943,-142.554 258.082,-110.124 269,-76 271.709,-67.5339 272.402,-64.2123 269,-56 262.573,-40.4846 247.914,-27.5295 237.064,-19.5641"/>
<polygon fill="midnightblue" stroke="midnightblue" points="210.651,-158.76 206.144,-168.349 215.647,-163.664 210.651,-158.76"/>
</g>
<!-- Node5 -->
<g id="node5" class="node"><title>Node5</title>
<g id="a_node5"><a xlink:href="readinput_8h.html" target="_top" xlink:title="readinput.h">
<polygon fill="white" stroke="black" points="195.5,-56.5 195.5,-75.5 260.5,-75.5 260.5,-56.5 195.5,-56.5"/>
<text text-anchor="middle" x="228" y="-63.5" font-family="Helvetica,sans-Serif" font-size="10.00">readinput.h</text>
</a>
</g>
</g>
<!-- Node1&#45;&gt;Node5 -->
<g id="edge13" class="edge"><title>Node1&#45;&gt;Node5</title>
<path fill="none" stroke="midnightblue" d="M202.165,-158.674C208.942,-134.625 220.563,-93.3881 225.579,-75.5914"/>
<polygon fill="midnightblue" stroke="midnightblue" points="198.776,-157.794 199.433,-168.368 205.514,-159.693 198.776,-157.794"/>
</g>
<!-- Node7 -->
<g id="node7" class="node"><title>Node7</title>
<g id="a_node7"><a xlink:href="readinput_8cpp.html" target="_top" xlink:title="readinput.cpp">
<polygon fill="white" stroke="black" points="282.5,-0.5 282.5,-19.5 357.5,-19.5 357.5,-0.5 282.5,-0.5"/>
<text text-anchor="middle" x="320" y="-7.5" font-family="Helvetica,sans-Serif" font-size="10.00">readinput.cpp</text>
</a>
</g>
</g>
<!-- Node1&#45;&gt;Node7 -->
<g id="edge16" class="edge"><title>Node1&#45;&gt;Node7</title>
<path fill="none" stroke="midnightblue" d="M221.44,-163.138C233.837,-155.213 248.458,-144.39 259,-132 289.946,-95.6266 310.17,-40.8544 317.218,-19.7343"/>
<polygon fill="midnightblue" stroke="midnightblue" points="219.592,-160.166 212.897,-168.378 223.252,-166.133 219.592,-160.166"/>
</g>
<!-- Node8 -->
<g id="node8" class="node"><title>Node8</title>
<g id="a_node8"><a xlink:href="methods_8h.html" target="_top" xlink:title="methods.h">
<polygon fill="white" stroke="black" points="39,-56.5 39,-75.5 101,-75.5 101,-56.5 39,-56.5"/>
<text text-anchor="middle" x="70" y="-63.5" font-family="Helvetica,sans-Serif" font-size="10.00">methods.h</text>
</a>
</g>
</g>
<!-- Node1&#45;&gt;Node8 -->
<g id="edge15" class="edge"><title>Node1&#45;&gt;Node8</title>
<path fill="none" stroke="midnightblue" d="M171.82,-163.492C157.652,-155.309 140.044,-144.127 126,-132 105.482,-114.283 85.8336,-88.904 76.1891,-75.7125"/>
<polygon fill="midnightblue" stroke="midnightblue" points="170.13,-166.558 180.561,-168.417 173.566,-160.459 170.13,-166.558"/>
</g>
<!-- Node3&#45;&gt;Node4 -->
<g id="edge3" class="edge"><title>Node3&#45;&gt;Node4</title>
<path fill="none" stroke="midnightblue" d="M170.734,-102.204C173.878,-88.7949 179.137,-70.6236 187,-56 194.568,-41.9249 206.888,-28.0824 215.212,-19.5468"/>
<polygon fill="midnightblue" stroke="midnightblue" points="167.273,-101.651 168.58,-112.164 174.115,-103.13 167.273,-101.651"/>
</g>
<!-- Node3&#45;&gt;Node5 -->
<g id="edge4" class="edge"><title>Node3&#45;&gt;Node5</title>
<path fill="none" stroke="midnightblue" d="M184.467,-105.537C195.344,-95.9087 208.944,-83.8694 218.021,-75.8339"/>
<polygon fill="midnightblue" stroke="midnightblue" points="181.968,-103.075 176.801,-112.324 186.608,-108.316 181.968,-103.075"/>
</g>
<!-- Node6 -->
<g id="node6" class="node"><title>Node6</title>
<g id="a_node6"><a xlink:href="main_8cpp.html" target="_top" xlink:title="main.cpp">
<polygon fill="white" stroke="black" points="105,-0.5 105,-19.5 161,-19.5 161,-0.5 105,-0.5"/>
<text text-anchor="middle" x="133" y="-7.5" font-family="Helvetica,sans-Serif" font-size="10.00">main.cpp</text>
</a>
</g>
</g>
<!-- Node3&#45;&gt;Node6 -->
<g id="edge12" class="edge"><title>Node3&#45;&gt;Node6</title>
<path fill="none" stroke="midnightblue" d="M161.309,-102.753C158.761,-94.5729 155.724,-84.8043 153,-76 146.788,-55.9229 139.545,-32.3406 135.709,-19.8341"/>
<polygon fill="midnightblue" stroke="midnightblue" points="157.991,-103.87 164.308,-112.376 164.674,-101.787 157.991,-103.87"/>
</g>
<!-- Node3&#45;&gt;Node8 -->
<g id="edge8" class="edge"><title>Node3&#45;&gt;Node8</title>
<path fill="none" stroke="midnightblue" d="M142.665,-107.453C124.757,-97.4835 100.946,-84.2279 85.5461,-75.6545"/>
<polygon fill="midnightblue" stroke="midnightblue" points="140.975,-110.518 151.415,-112.324 144.38,-104.402 140.975,-110.518"/>
</g>
<!-- Node5&#45;&gt;Node4 -->
<g id="edge5" class="edge"><title>Node5&#45;&gt;Node4</title>
<path fill="none" stroke="midnightblue" d="M226.6,-46.1005C225.936,-37.1357 225.175,-26.8579 224.648,-19.7511"/>
<polygon fill="midnightblue" stroke="midnightblue" points="223.11,-46.3689 227.339,-56.083 230.091,-45.8517 223.11,-46.3689"/>
</g>
<!-- Node5&#45;&gt;Node6 -->
<g id="edge6" class="edge"><title>Node5&#45;&gt;Node6</title>
<path fill="none" stroke="midnightblue" d="M203.682,-51.1774C186.201,-41.2407 163.17,-28.1492 148.226,-19.6545"/>
<polygon fill="midnightblue" stroke="midnightblue" points="202.313,-54.425 212.737,-56.324 205.773,-48.3395 202.313,-54.425"/>
</g>
<!-- Node5&#45;&gt;Node7 -->
<g id="edge7" class="edge"><title>Node5&#45;&gt;Node7</title>
<path fill="none" stroke="midnightblue" d="M251.55,-51.1774C268.479,-41.2407 290.783,-28.1492 305.255,-19.6545"/>
<polygon fill="midnightblue" stroke="midnightblue" points="249.634,-48.2435 242.781,-56.324 253.177,-54.2804 249.634,-48.2435"/>
</g>
<!-- Node8&#45;&gt;Node4 -->
<g id="edge9" class="edge"><title>Node8&#45;&gt;Node4</title>
<path fill="none" stroke="midnightblue" d="M104.111,-53.0392C133.087,-42.8786 173.962,-28.5457 199.712,-19.5164"/>
<polygon fill="midnightblue" stroke="midnightblue" points="102.68,-49.8317 94.4018,-56.4435 104.997,-56.4373 102.68,-49.8317"/>
</g>
<!-- Node8&#45;&gt;Node6 -->
<g id="edge10" class="edge"><title>Node8&#45;&gt;Node6</title>
<path fill="none" stroke="midnightblue" d="M88.0399,-49.5372C99.2731,-39.9087 113.319,-27.8694 122.694,-19.8339"/>
<polygon fill="midnightblue" stroke="midnightblue" points="85.4368,-47.1586 80.122,-56.324 89.9924,-52.4734 85.4368,-47.1586"/>
</g>
<!-- Node9 -->
<g id="node9" class="node"><title>Node9</title>
<g id="a_node9"><a xlink:href="methods_8cpp.html" target="_top" xlink:title="methods.cpp">
<polygon fill="white" stroke="black" points="13.5,-0.5 13.5,-19.5 86.5,-19.5 86.5,-0.5 13.5,-0.5"/>
<text text-anchor="middle" x="50" y="-7.5" font-family="Helvetica,sans-Serif" font-size="10.00">methods.cpp</text>
</a>
</g>
</g>
<!-- Node8&#45;&gt;Node9 -->
<g id="edge11" class="edge"><title>Node8&#45;&gt;Node9</title>
<path fill="none" stroke="midnightblue" d="M63.2184,-46.6897C59.8478,-37.589 55.9312,-27.0141 53.2411,-19.7511"/>
<polygon fill="midnightblue" stroke="midnightblue" points="59.9421,-47.9211 66.6974,-56.083 66.5063,-45.4899 59.9421,-47.9211"/>
</g>
</g>
</svg>
