<?xml version="1.0" encoding="UTF-8" standalone="no"?>
<!DOCTYPE svg PUBLIC "-//W3C//DTD SVG 1.1//EN"
 "http://www.w3.org/Graphics/SVG/1.1/DTD/svg11.dtd">
<!-- Generated by graphviz version 2.36.0 (20140111.2315)
 -->
<!-- Title: elements.cpp Pages: 1 -->
<svg width="664pt" height="252pt"
 viewBox="0.00 0.00 664.00 252.00" xmlns="http://www.w3.org/2000/svg" xmlns:xlink="http://www.w3.org/1999/xlink">
<g id="graph0" class="graph" transform="scale(1 1) rotate(0) translate(4 248)">
<title>elements.cpp</title>
<polygon fill="white" stroke="none" points="-4,4 -4,-248 660,-248 660,4 -4,4"/>
<!-- Node1 -->
<g id="node1" class="node"><title>Node1</title>
<polygon fill="#bfbfbf" stroke="black" points="342.5,-224.5 342.5,-243.5 417.5,-243.5 417.5,-224.5 342.5,-224.5"/>
<text text-anchor="middle" x="380" y="-231.5" font-family="Helvetica,sans-Serif" font-size="10.00">elements.cpp</text>
</g>
<!-- Node2 -->
<g id="node2" class="node"><title>Node2</title>
<g id="a_node2"><a xlink:href="elements_8h.html" target="_top" xlink:title="elements.h">
<polygon fill="white" stroke="black" points="118.5,-112.5 118.5,-131.5 183.5,-131.5 183.5,-112.5 118.5,-112.5"/>
<text text-anchor="middle" x="151" y="-119.5" font-family="Helvetica,sans-Serif" font-size="10.00">elements.h</text>
</a>
</g>
</g>
<!-- Node1&#45;&gt;Node2 -->
<g id="edge1" class="edge"><title>Node1&#45;&gt;Node2</title>
<path fill="none" stroke="midnightblue" d="M348.927,-224.459C322.259,-216.594 283.156,-203.772 251,-188 221.336,-173.45 189.802,-151.786 170.253,-137.529"/>
<polygon fill="midnightblue" stroke="midnightblue" points="172.286,-134.679 162.164,-131.551 168.126,-140.309 172.286,-134.679"/>
</g>
<!-- Node4 -->
<g id="node4" class="node"><title>Node4</title>
<polygon fill="white" stroke="#bfbfbf" points="346.5,-56.5 346.5,-75.5 381.5,-75.5 381.5,-56.5 346.5,-56.5"/>
<text text-anchor="middle" x="364" y="-63.5" font-family="Helvetica,sans-Serif" font-size="10.00">map</text>
</g>
<!-- Node1&#45;&gt;Node4 -->
<g id="edge23" class="edge"><title>Node1&#45;&gt;Node4</title>
<path fill="none" stroke="midnightblue" d="M379.14,-224.075C376.621,-197.945 369.225,-121.211 365.791,-85.577"/>
<polygon fill="midnightblue" stroke="midnightblue" points="369.269,-85.1862 364.826,-75.5681 362.301,-85.8578 369.269,-85.1862"/>
</g>
<!-- Node5 -->
<g id="node5" class="node"><title>Node5</title>
<g id="a_node5"><a xlink:href="constants_8h.html" target="_top" xlink:title="constants.h">
<polygon fill="white" stroke="black" points="0,-56.5 0,-75.5 68,-75.5 68,-56.5 0,-56.5"/>
<text text-anchor="middle" x="34" y="-63.5" font-family="Helvetica,sans-Serif" font-size="10.00">constants.h</text>
</a>
</g>
</g>
<!-- Node1&#45;&gt;Node5 -->
<g id="edge13" class="edge"><title>Node1&#45;&gt;Node5</title>
<path fill="none" stroke="midnightblue" d="M342.488,-233.862C288.307,-233.585 186.386,-227.254 111,-188 80.0581,-171.888 74.275,-161.716 56,-132 47.126,-117.571 41.3228,-99.1182 37.9168,-85.5628"/>
<polygon fill="midnightblue" stroke="midnightblue" points="41.2599,-84.4833 35.6047,-75.524 34.4384,-86.0544 41.2599,-84.4833"/>
</g>
<!-- Node7 -->
<g id="node7" class="node"><title>Node7</title>
<g id="a_node7"><a xlink:href="readinput_8h.html" target="_top" xlink:title="readinput.h">
<polygon fill="white" stroke="black" points="260.5,-168.5 260.5,-187.5 325.5,-187.5 325.5,-168.5 260.5,-168.5"/>
<text text-anchor="middle" x="293" y="-175.5" font-family="Helvetica,sans-Serif" font-size="10.00">readinput.h</text>
</a>
</g>
</g>
<!-- Node1&#45;&gt;Node7 -->
<g id="edge7" class="edge"><title>Node1&#45;&gt;Node7</title>
<path fill="none" stroke="midnightblue" d="M366.022,-224.324C352.45,-215.9 331.62,-202.971 315.675,-193.074"/>
<polygon fill="midnightblue" stroke="midnightblue" points="317.286,-189.954 306.943,-187.655 313.594,-195.902 317.286,-189.954"/>
</g>
<!-- Node9 -->
<g id="node9" class="node"><title>Node9</title>
<g id="a_node9"><a xlink:href="methods_8h.html" target="_top" xlink:title="methods.h">
<polygon fill="white" stroke="black" points="120,-168.5 120,-187.5 182,-187.5 182,-168.5 120,-168.5"/>
<text text-anchor="middle" x="151" y="-175.5" font-family="Helvetica,sans-Serif" font-size="10.00">methods.h</text>
</a>
</g>
</g>
<!-- Node1&#45;&gt;Node9 -->
<g id="edge14" class="edge"><title>Node1&#45;&gt;Node9</title>
<path fill="none" stroke="midnightblue" d="M343.714,-224.444C302.499,-214.725 235.385,-198.899 192.225,-188.721"/>
<polygon fill="midnightblue" stroke="midnightblue" points="192.869,-185.277 182.332,-186.388 191.262,-192.09 192.869,-185.277"/>
</g>
<!-- Node10 -->
<g id="node10" class="node"><title>Node10</title>
<polygon fill="white" stroke="#bfbfbf" points="408,-168.5 408,-187.5 452,-187.5 452,-168.5 408,-168.5"/>
<text text-anchor="middle" x="430" y="-175.5" font-family="Helvetica,sans-Serif" font-size="10.00">cmath</text>
</g>
<!-- Node1&#45;&gt;Node10 -->
<g id="edge19" class="edge"><title>Node1&#45;&gt;Node10</title>
<path fill="none" stroke="midnightblue" d="M388.256,-224.083C395.465,-216.298 406.11,-204.801 414.846,-195.367"/>
<polygon fill="midnightblue" stroke="midnightblue" points="417.671,-197.467 421.897,-187.751 412.535,-192.711 417.671,-197.467"/>
</g>
<!-- Node11 -->
<g id="node11" class="node"><title>Node11</title>
<polygon fill="white" stroke="#bfbfbf" points="470.5,-168.5 470.5,-187.5 515.5,-187.5 515.5,-168.5 470.5,-168.5"/>
<text text-anchor="middle" x="493" y="-175.5" font-family="Helvetica,sans-Serif" font-size="10.00">cstdlib</text>
</g>
<!-- Node1&#45;&gt;Node11 -->
<g id="edge20" class="edge"><title>Node1&#45;&gt;Node11</title>
<path fill="none" stroke="midnightblue" d="M397.905,-224.444C416.254,-215.675 445.005,-201.935 466.094,-191.858"/>
<polygon fill="midnightblue" stroke="midnightblue" points="467.665,-194.986 475.179,-187.516 464.647,-188.67 467.665,-194.986"/>
</g>
<!-- Node12 -->
<g id="node12" class="node"><title>Node12</title>
<polygon fill="white" stroke="#bfbfbf" points="534,-168.5 534,-187.5 588,-187.5 588,-168.5 534,-168.5"/>
<text text-anchor="middle" x="561" y="-175.5" font-family="Helvetica,sans-Serif" font-size="10.00">iostream</text>
</g>
<!-- Node1&#45;&gt;Node12 -->
<g id="edge21" class="edge"><title>Node1&#45;&gt;Node12</title>
<path fill="none" stroke="midnightblue" d="M408.68,-224.444C439.98,-215.105 490.18,-200.129 524.324,-189.942"/>
<polygon fill="midnightblue" stroke="midnightblue" points="525.35,-193.288 533.932,-187.075 523.349,-186.581 525.35,-193.288"/>
</g>
<!-- Node13 -->
<g id="node13" class="node"><title>Node13</title>
<polygon fill="white" stroke="#bfbfbf" points="606,-168.5 606,-187.5 656,-187.5 656,-168.5 606,-168.5"/>
<text text-anchor="middle" x="631" y="-175.5" font-family="Helvetica,sans-Serif" font-size="10.00">iomanip</text>
</g>
<!-- Node1&#45;&gt;Node13 -->
<g id="edge22" class="edge"><title>Node1&#45;&gt;Node13</title>
<path fill="none" stroke="midnightblue" d="M417.771,-225.813C459.138,-217.8 527.657,-204.11 595.748,-188.2"/>
<polygon fill="midnightblue" stroke="midnightblue" points="596.855,-191.535 605.787,-185.837 595.251,-184.721 596.855,-191.535"/>
</g>
<!-- Node3 -->
<g id="node3" class="node"><title>Node3</title>
<polygon fill="white" stroke="#bfbfbf" points="97.5,-0.5 97.5,-19.5 138.5,-19.5 138.5,-0.5 97.5,-0.5"/>
<text text-anchor="middle" x="118" y="-7.5" font-family="Helvetica,sans-Serif" font-size="10.00">string</text>
</g>
<!-- Node2&#45;&gt;Node3 -->
<g id="edge2" class="edge"><title>Node2&#45;&gt;Node3</title>
<path fill="none" stroke="midnightblue" d="M148.411,-112.368C143.061,-94.5366 130.689,-53.2953 123.482,-29.2717"/>
<polygon fill="midnightblue" stroke="midnightblue" points="126.803,-28.1639 120.577,-19.5914 120.099,-30.1754 126.803,-28.1639"/>
</g>
<!-- Node2&#45;&gt;Node4 -->
<g id="edge3" class="edge"><title>Node2&#45;&gt;Node4</title>
<path fill="none" stroke="midnightblue" d="M183.814,-112.681C225.717,-102.058 297.471,-83.8666 336.594,-73.9479"/>
<polygon fill="midnightblue" stroke="midnightblue" points="337.651,-77.2908 346.484,-71.4406 335.931,-70.5054 337.651,-77.2908"/>
</g>
<!-- Node2&#45;&gt;Node5 -->
<g id="edge4" class="edge"><title>Node2&#45;&gt;Node5</title>
<path fill="none" stroke="midnightblue" d="M132.461,-112.444C113.377,-103.636 83.4251,-89.8116 61.5643,-79.722"/>
<polygon fill="midnightblue" stroke="midnightblue" points="62.9986,-76.5292 52.4523,-75.5164 60.0651,-82.8849 62.9986,-76.5292"/>
</g>
<!-- Node5&#45;&gt;Node3 -->
<g id="edge6" class="edge"><title>Node5&#45;&gt;Node3</title>
<path fill="none" stroke="midnightblue" d="M47.4961,-56.324C60.5996,-47.9002 80.7119,-34.9709 96.1069,-25.0741"/>
<polygon fill="midnightblue" stroke="midnightblue" points="98.0183,-28.0063 104.537,-19.6545 94.233,-22.118 98.0183,-28.0063"/>
</g>
<!-- Node6 -->
<g id="node6" class="node"><title>Node6</title>
<polygon fill="white" stroke="#bfbfbf" points="12,-0.5 12,-19.5 56,-19.5 56,-0.5 12,-0.5"/>
<text text-anchor="middle" x="34" y="-7.5" font-family="Helvetica,sans-Serif" font-size="10.00">vector</text>
</g>
<!-- Node5&#45;&gt;Node6 -->
<g id="edge5" class="edge"><title>Node5&#45;&gt;Node6</title>
<path fill="none" stroke="midnightblue" d="M34,-56.083C34,-49.0059 34,-38.8611 34,-29.9865"/>
<polygon fill="midnightblue" stroke="midnightblue" points="37.5001,-29.751 34,-19.7511 30.5001,-29.7511 37.5001,-29.751"/>
</g>
<!-- Node7&#45;&gt;Node2 -->
<g id="edge11" class="edge"><title>Node7&#45;&gt;Node2</title>
<path fill="none" stroke="midnightblue" d="M270.5,-168.444C246.923,-159.478 209.678,-145.314 183.036,-135.183"/>
<polygon fill="midnightblue" stroke="midnightblue" points="183.986,-131.8 173.395,-131.516 181.498,-138.342 183.986,-131.8"/>
</g>
<!-- Node7&#45;&gt;Node3 -->
<g id="edge8" class="edge"><title>Node7&#45;&gt;Node3</title>
<path fill="none" stroke="midnightblue" d="M294.031,-168.191C295.127,-154.874 295.378,-129.333 284,-112 251.796,-62.9425 186.71,-33.9199 148.299,-20.356"/>
<polygon fill="midnightblue" stroke="midnightblue" points="149.277,-16.992 138.683,-17.0867 147.024,-23.6194 149.277,-16.992"/>
</g>
<!-- Node7&#45;&gt;Node4 -->
<g id="edge10" class="edge"><title>Node7&#45;&gt;Node4</title>
<path fill="none" stroke="midnightblue" d="M301.8,-168.249C310.23,-159.562 322.969,-145.611 332,-132 341.877,-117.114 350.644,-98.7375 356.493,-85.3262"/>
<polygon fill="midnightblue" stroke="midnightblue" points="359.851,-86.3701 360.523,-75.7966 353.404,-83.6434 359.851,-86.3701"/>
</g>
<!-- Node7&#45;&gt;Node5 -->
<g id="edge12" class="edge"><title>Node7&#45;&gt;Node5</title>
<path fill="none" stroke="midnightblue" d="M291.294,-168.273C288.043,-154.102 279.561,-126.242 261,-112 232.944,-90.4714 136.129,-77.2719 78.3891,-71.1268"/>
<polygon fill="midnightblue" stroke="midnightblue" points="78.3951,-67.6088 68.0879,-70.0611 77.6746,-74.5717 78.3951,-67.6088"/>
</g>
<!-- Node8 -->
<g id="node8" class="node"><title>Node8</title>
<polygon fill="white" stroke="#bfbfbf" points="202,-112.5 202,-131.5 252,-131.5 252,-112.5 202,-112.5"/>
<text text-anchor="middle" x="227" y="-119.5" font-family="Helvetica,sans-Serif" font-size="10.00">fstream</text>
</g>
<!-- Node7&#45;&gt;Node8 -->
<g id="edge9" class="edge"><title>Node7&#45;&gt;Node8</title>
<path fill="none" stroke="midnightblue" d="M282.396,-168.324C272.544,-160.263 257.649,-148.077 245.785,-138.369"/>
<polygon fill="midnightblue" stroke="midnightblue" points="247.753,-135.457 237.797,-131.834 243.32,-140.875 247.753,-135.457"/>
</g>
<!-- Node9&#45;&gt;Node2 -->
<g id="edge16" class="edge"><title>Node9&#45;&gt;Node2</title>
<path fill="none" stroke="midnightblue" d="M151,-168.083C151,-161.006 151,-150.861 151,-141.986"/>
<polygon fill="midnightblue" stroke="midnightblue" points="154.5,-141.751 151,-131.751 147.5,-141.751 154.5,-141.751"/>
</g>
<!-- Node9&#45;&gt;Node3 -->
<g id="edge18" class="edge"><title>Node9&#45;&gt;Node3</title>
<path fill="none" stroke="midnightblue" d="M138.786,-168.236C128.646,-160.143 114.957,-147.112 109,-132 95.4686,-97.6706 104.669,-53.6676 111.828,-29.3032"/>
<polygon fill="midnightblue" stroke="midnightblue" points="115.22,-30.1855 114.885,-19.596 108.543,-28.0831 115.22,-30.1855"/>
</g>
<!-- Node9&#45;&gt;Node5 -->
<g id="edge15" class="edge"><title>Node9&#45;&gt;Node5</title>
<path fill="none" stroke="midnightblue" d="M131.493,-168.389C115.307,-160.564 92.3714,-147.836 76,-132 61.8571,-118.32 50.1503,-99.0188 42.721,-85.0055"/>
<polygon fill="midnightblue" stroke="midnightblue" points="45.7418,-83.2239 38.0936,-75.8921 39.5003,-86.3931 45.7418,-83.2239"/>
</g>
<!-- Node9&#45;&gt;Node8 -->
<g id="edge17" class="edge"><title>Node9&#45;&gt;Node8</title>
<path fill="none" stroke="midnightblue" d="M163.211,-168.324C174.776,-160.107 192.375,-147.602 206.161,-137.807"/>
<polygon fill="midnightblue" stroke="midnightblue" points="208.443,-140.479 214.567,-131.834 204.388,-134.773 208.443,-140.479"/>
</g>
</g>
</svg>
