<?xml version="1.0" encoding="UTF-8" standalone="no"?>
<!DOCTYPE svg PUBLIC "-//W3C//DTD SVG 1.1//EN"
 "http://www.w3.org/Graphics/SVG/1.1/DTD/svg11.dtd">
<!-- Generated by graphviz version 2.36.0 (20140111.2315)
 -->
<!-- Title: elements.h Pages: 1 -->
<svg width="340pt" height="140pt"
 viewBox="0.00 0.00 340.00 140.00" xmlns="http://www.w3.org/2000/svg" xmlns:xlink="http://www.w3.org/1999/xlink">
<g id="graph0" class="graph" transform="scale(1 1) rotate(0) translate(4 136)">
<title>elements.h</title>
<polygon fill="white" stroke="none" points="-4,4 -4,-136 336,-136 336,4 -4,4"/>
<!-- Node1 -->
<g id="node1" class="node"><title>Node1</title>
<polygon fill="#bfbfbf" stroke="black" points="128.5,-112.5 128.5,-131.5 193.5,-131.5 193.5,-112.5 128.5,-112.5"/>
<text text-anchor="middle" x="161" y="-119.5" font-family="Helvetica,sans-Serif" font-size="10.00">elements.h</text>
</g>
<!-- Node2 -->
<g id="node2" class="node"><title>Node2</title>
<g id="a_node2"><a xlink:href="elements_8cpp.html" target="_top" xlink:title="elements.cpp">
<polygon fill="white" stroke="black" points="-0.5,-0.5 -0.5,-19.5 74.5,-19.5 74.5,-0.5 -0.5,-0.5"/>
<text text-anchor="middle" x="37" y="-7.5" font-family="Helvetica,sans-Serif" font-size="10.00">elements.cpp</text>
</a>
</g>
</g>
<!-- Node1&#45;&gt;Node2 -->
<g id="edge1" class="edge"><title>Node1&#45;&gt;Node2</title>
<path fill="none" stroke="midnightblue" d="M129.715,-107.983C113.651,-100.276 94.4703,-89.3922 80,-76 61.7283,-59.0895 47.5083,-32.9088 40.9549,-19.5197"/>
<polygon fill="midnightblue" stroke="midnightblue" points="128.697,-111.367 139.245,-112.365 131.622,-105.007 128.697,-111.367"/>
</g>
<!-- Node3 -->
<g id="node3" class="node"><title>Node3</title>
<g id="a_node3"><a xlink:href="readinput_8h.html" target="_top" xlink:title="readinput.h">
<polygon fill="white" stroke="black" points="169.5,-56.5 169.5,-75.5 234.5,-75.5 234.5,-56.5 169.5,-56.5"/>
<text text-anchor="middle" x="202" y="-63.5" font-family="Helvetica,sans-Serif" font-size="10.00">readinput.h</text>
</a>
</g>
</g>
<!-- Node1&#45;&gt;Node3 -->
<g id="edge2" class="edge"><title>Node1&#45;&gt;Node3</title>
<path fill="none" stroke="midnightblue" d="M174.017,-103.855C181.117,-94.5048 189.604,-83.3265 195.356,-75.7511"/>
<polygon fill="midnightblue" stroke="midnightblue" points="171.03,-102.002 167.77,-112.083 176.605,-106.235 171.03,-102.002"/>
</g>
<!-- Node4 -->
<g id="node4" class="node"><title>Node4</title>
<g id="a_node4"><a xlink:href="main_8cpp.html" target="_top" xlink:title="main.cpp">
<polygon fill="white" stroke="black" points="184,-0.5 184,-19.5 240,-19.5 240,-0.5 184,-0.5"/>
<text text-anchor="middle" x="212" y="-7.5" font-family="Helvetica,sans-Serif" font-size="10.00">main.cpp</text>
</a>
</g>
</g>
<!-- Node1&#45;&gt;Node4 -->
<g id="edge10" class="edge"><title>Node1&#45;&gt;Node4</title>
<path fill="none" stroke="midnightblue" d="M202.365,-108.496C217.933,-101.552 234.027,-91.1601 243,-76 254.463,-56.6339 234.48,-32.3663 221.605,-19.6643"/>
<polygon fill="midnightblue" stroke="midnightblue" points="200.752,-105.373 192.809,-112.385 203.39,-111.857 200.752,-105.373"/>
</g>
<!-- Node6 -->
<g id="node6" class="node"><title>Node6</title>
<g id="a_node6"><a xlink:href="methods_8h.html" target="_top" xlink:title="methods.h">
<polygon fill="white" stroke="black" points="89,-56.5 89,-75.5 151,-75.5 151,-56.5 89,-56.5"/>
<text text-anchor="middle" x="120" y="-63.5" font-family="Helvetica,sans-Serif" font-size="10.00">methods.h</text>
</a>
</g>
</g>
<!-- Node1&#45;&gt;Node6 -->
<g id="edge6" class="edge"><title>Node1&#45;&gt;Node6</title>
<path fill="none" stroke="midnightblue" d="M147.983,-103.855C140.883,-94.5048 132.396,-83.3265 126.644,-75.7511"/>
<polygon fill="midnightblue" stroke="midnightblue" points="145.395,-106.235 154.23,-112.083 150.97,-102.002 145.395,-106.235"/>
</g>
<!-- Node3&#45;&gt;Node2 -->
<g id="edge3" class="edge"><title>Node3&#45;&gt;Node2</title>
<path fill="none" stroke="midnightblue" d="M166.264,-53.3044C135.173,-43.1294 90.8529,-28.6246 63.0224,-19.5164"/>
<polygon fill="midnightblue" stroke="midnightblue" points="165.263,-56.6595 175.855,-56.4435 167.44,-50.0067 165.263,-56.6595"/>
</g>
<!-- Node3&#45;&gt;Node4 -->
<g id="edge4" class="edge"><title>Node3&#45;&gt;Node4</title>
<path fill="none" stroke="midnightblue" d="M205.5,-46.1005C207.16,-37.1357 209.063,-26.8579 210.379,-19.7511"/>
<polygon fill="midnightblue" stroke="midnightblue" points="202.031,-45.6128 203.651,-56.083 208.914,-46.8875 202.031,-45.6128"/>
</g>
<!-- Node5 -->
<g id="node5" class="node"><title>Node5</title>
<g id="a_node5"><a xlink:href="readinput_8cpp.html" target="_top" xlink:title="readinput.cpp">
<polygon fill="white" stroke="black" points="257.5,-0.5 257.5,-19.5 332.5,-19.5 332.5,-0.5 257.5,-0.5"/>
<text text-anchor="middle" x="295" y="-7.5" font-family="Helvetica,sans-Serif" font-size="10.00">readinput.cpp</text>
</a>
</g>
</g>
<!-- Node3&#45;&gt;Node5 -->
<g id="edge5" class="edge"><title>Node3&#45;&gt;Node5</title>
<path fill="none" stroke="midnightblue" d="M225.806,-51.1774C242.919,-41.2407 265.465,-28.1492 280.095,-19.6545"/>
<polygon fill="midnightblue" stroke="midnightblue" points="223.832,-48.2758 216.942,-56.324 227.347,-54.3293 223.832,-48.2758"/>
</g>
<!-- Node6&#45;&gt;Node2 -->
<g id="edge7" class="edge"><title>Node6&#45;&gt;Node2</title>
<path fill="none" stroke="midnightblue" d="M97.9007,-50.6221C82.7382,-40.7574 63.1172,-27.9919 50.3023,-19.6545"/>
<polygon fill="midnightblue" stroke="midnightblue" points="96.3738,-53.8042 106.665,-56.324 100.191,-47.9367 96.3738,-53.8042"/>
</g>
<!-- Node6&#45;&gt;Node4 -->
<g id="edge8" class="edge"><title>Node6&#45;&gt;Node4</title>
<path fill="none" stroke="midnightblue" d="M143.55,-51.1774C160.479,-41.2407 182.783,-28.1492 197.255,-19.6545"/>
<polygon fill="midnightblue" stroke="midnightblue" points="141.634,-48.2435 134.781,-56.324 145.177,-54.2804 141.634,-48.2435"/>
</g>
<!-- Node7 -->
<g id="node7" class="node"><title>Node7</title>
<g id="a_node7"><a xlink:href="methods_8cpp.html" target="_top" xlink:title="methods.cpp">
<polygon fill="white" stroke="black" points="92.5,-0.5 92.5,-19.5 165.5,-19.5 165.5,-0.5 92.5,-0.5"/>
<text text-anchor="middle" x="129" y="-7.5" font-family="Helvetica,sans-Serif" font-size="10.00">methods.cpp</text>
</a>
</g>
</g>
<!-- Node6&#45;&gt;Node7 -->
<g id="edge9" class="edge"><title>Node6&#45;&gt;Node7</title>
<path fill="none" stroke="midnightblue" d="M123.15,-46.1005C124.644,-37.1357 126.357,-26.8579 127.541,-19.7511"/>
<polygon fill="midnightblue" stroke="midnightblue" points="119.678,-45.6436 121.486,-56.083 126.583,-46.7945 119.678,-45.6436"/>
</g>
</g>
</svg>
