<?xml version="1.0" encoding="UTF-8" standalone="no"?>
<!DOCTYPE svg PUBLIC "-//W3C//DTD SVG 1.1//EN"
 "http://www.w3.org/Graphics/SVG/1.1/DTD/svg11.dtd">
<!-- Generated by graphviz version 2.36.0 (20140111.2315)
 -->
<!-- Title: meancosh Pages: 1 -->
<svg width="488pt" height="53pt"
 viewBox="0.00 0.00 488.00 53.00" xmlns="http://www.w3.org/2000/svg" xmlns:xlink="http://www.w3.org/1999/xlink">
<g id="graph0" class="graph" transform="scale(1 1) rotate(0) translate(4 49)">
<title>meancosh</title>
<polygon fill="white" stroke="none" points="-4,4 -4,-49 484,-49 484,4 -4,4"/>
<!-- Node1 -->
<g id="node1" class="node"><title>Node1</title>
<polygon fill="#bfbfbf" stroke="black" points="0,-6.5 0,-25.5 62,-25.5 62,-6.5 0,-6.5"/>
<text text-anchor="middle" x="31" y="-13.5" font-family="Helvetica,sans-Serif" font-size="10.00">meancosh</text>
</g>
<!-- Node2 -->
<g id="node2" class="node"><title>Node2</title>
<g id="a_node2"><a xlink:href="class_f_e_l_numerical.html#acf164cc84fbe47c386ec672d1a62d43e" target="_top" xlink:title="functions defined for ODE solver ">
<polygon fill="white" stroke="black" points="98,-1 98,-31 254,-31 254,-1 98,-1"/>
<text text-anchor="start" x="106" y="-19" font-family="Helvetica,sans-Serif" font-size="10.00">FELNumerical::FELsolverSingle</text>
<text text-anchor="middle" x="176" y="-8" font-family="Helvetica,sans-Serif" font-size="10.00">Frequency1D</text>
</a>
</g>
</g>
<!-- Node1&#45;&gt;Node2 -->
<g id="edge1" class="edge"><title>Node1&#45;&gt;Node2</title>
<path fill="none" stroke="midnightblue" d="M72.4566,-16C80.4801,-16 89.1509,-16 97.9343,-16"/>
<polygon fill="midnightblue" stroke="midnightblue" points="72.3267,-12.5001 62.3266,-16 72.3266,-19.5001 72.3267,-12.5001"/>
</g>
<!-- Node3 -->
<g id="node3" class="node"><title>Node3</title>
<g id="a_node3"><a xlink:href="classscanpanel.html#ad5d03fff058d2903c654c55f101ae852" target="_top" xlink:title="do parameters scan ">
<polygon fill="white" stroke="black" points="290,-25.5 290,-44.5 406,-44.5 406,-25.5 290,-25.5"/>
<text text-anchor="middle" x="348" y="-32.5" font-family="Helvetica,sans-Serif" font-size="10.00">scanpanel::paramScan</text>
</a>
</g>
</g>
<!-- Node2&#45;&gt;Node3 -->
<g id="edge2" class="edge"><title>Node2&#45;&gt;Node3</title>
<path fill="none" stroke="midnightblue" d="M264.226,-25.7488C272.908,-26.7191 281.559,-27.686 289.816,-28.6088"/>
<polygon fill="midnightblue" stroke="midnightblue" points="264.369,-22.243 254.042,-24.6105 263.591,-29.1997 264.369,-22.243"/>
</g>
<!-- Node4 -->
<g id="node4" class="node"><title>Node4</title>
<g id="a_node4"><a xlink:href="main_8cpp.html#a3c04138a5bfe5d72780bb7e82a18e627" target="_top" xlink:title="main">
<polygon fill="white" stroke="black" points="442,-6.5 442,-25.5 480,-25.5 480,-6.5 442,-6.5"/>
<text text-anchor="middle" x="461" y="-13.5" font-family="Helvetica,sans-Serif" font-size="10.00">main</text>
</a>
</g>
</g>
<!-- Node2&#45;&gt;Node4 -->
<g id="edge4" class="edge"><title>Node2&#45;&gt;Node4</title>
<path fill="none" stroke="midnightblue" d="M264.656,-16C327.467,-16 406.914,-16 441.975,-16"/>
<polygon fill="midnightblue" stroke="midnightblue" points="264.331,-12.5001 254.331,-16 264.331,-19.5001 264.331,-12.5001"/>
</g>
<!-- Node3&#45;&gt;Node4 -->
<g id="edge3" class="edge"><title>Node3&#45;&gt;Node4</title>
<path fill="none" stroke="midnightblue" d="M414.813,-23.7347C424.699,-22.0425 434.133,-20.4277 441.799,-19.1155"/>
<polygon fill="midnightblue" stroke="midnightblue" points="414.091,-20.3073 404.825,-25.4443 415.272,-27.2069 414.091,-20.3073"/>
</g>
</g>
</svg>
