<?xml version="1.0" encoding="UTF-8" standalone="no"?>
<!DOCTYPE svg PUBLIC "-//W3C//DTD SVG 1.1//EN"
 "http://www.w3.org/Graphics/SVG/1.1/DTD/svg11.dtd">
<!-- Generated by graphviz version 2.36.0 (20140111.2315)
 -->
<!-- Title: meansinh Pages: 1 -->
<svg width="486pt" height="53pt"
 viewBox="0.00 0.00 486.00 53.00" xmlns="http://www.w3.org/2000/svg" xmlns:xlink="http://www.w3.org/1999/xlink">
<g id="graph0" class="graph" transform="scale(1 1) rotate(0) translate(4 49)">
<title>meansinh</title>
<polygon fill="white" stroke="none" points="-4,4 -4,-49 482,-49 482,4 -4,4"/>
<!-- Node1 -->
<g id="node1" class="node"><title>Node1</title>
<polygon fill="#bfbfbf" stroke="black" points="0.5,-6.5 0.5,-25.5 59.5,-25.5 59.5,-6.5 0.5,-6.5"/>
<text text-anchor="middle" x="30" y="-13.5" font-family="Helvetica,sans-Serif" font-size="10.00">meansinh</text>
</g>
<!-- Node2 -->
<g id="node2" class="node"><title>Node2</title>
<g id="a_node2"><a xlink:href="class_f_e_l_numerical.html#acf164cc84fbe47c386ec672d1a62d43e" target="_top" xlink:title="functions defined for ODE solver ">
<polygon fill="white" stroke="black" points="96,-1 96,-31 252,-31 252,-1 96,-1"/>
<text text-anchor="start" x="104" y="-19" font-family="Helvetica,sans-Serif" font-size="10.00">FELNumerical::FELsolverSingle</text>
<text text-anchor="middle" x="174" y="-8" font-family="Helvetica,sans-Serif" font-size="10.00">Frequency1D</text>
</a>
</g>
</g>
<!-- Node1&#45;&gt;Node2 -->
<g id="edge1" class="edge"><title>Node1&#45;&gt;Node2</title>
<path fill="none" stroke="midnightblue" d="M69.9435,-16C78.0547,-16 86.8724,-16 95.822,-16"/>
<polygon fill="midnightblue" stroke="midnightblue" points="69.7359,-12.5001 59.7358,-16 69.7358,-19.5001 69.7359,-12.5001"/>
</g>
<!-- Node3 -->
<g id="node3" class="node"><title>Node3</title>
<g id="a_node3"><a xlink:href="classscanpanel.html#ad5d03fff058d2903c654c55f101ae852" target="_top" xlink:title="do parameters scan ">
<polygon fill="white" stroke="black" points="288,-25.5 288,-44.5 404,-44.5 404,-25.5 288,-25.5"/>
<text text-anchor="middle" x="346" y="-32.5" font-family="Helvetica,sans-Serif" font-size="10.00">scanpanel::paramScan</text>
</a>
</g>
</g>
<!-- Node2&#45;&gt;Node3 -->
<g id="edge2" class="edge"><title>Node2&#45;&gt;Node3</title>
<path fill="none" stroke="midnightblue" d="M262.226,-25.7488C270.908,-26.7191 279.559,-27.686 287.816,-28.6088"/>
<polygon fill="midnightblue" stroke="midnightblue" points="262.369,-22.243 252.042,-24.6105 261.591,-29.1997 262.369,-22.243"/>
</g>
<!-- Node4 -->
<g id="node4" class="node"><title>Node4</title>
<g id="a_node4"><a xlink:href="main_8cpp.html#a3c04138a5bfe5d72780bb7e82a18e627" target="_top" xlink:title="main">
<polygon fill="white" stroke="black" points="440,-6.5 440,-25.5 478,-25.5 478,-6.5 440,-6.5"/>
<text text-anchor="middle" x="459" y="-13.5" font-family="Helvetica,sans-Serif" font-size="10.00">main</text>
</a>
</g>
</g>
<!-- Node2&#45;&gt;Node4 -->
<g id="edge4" class="edge"><title>Node2&#45;&gt;Node4</title>
<path fill="none" stroke="midnightblue" d="M262.656,-16C325.467,-16 404.914,-16 439.975,-16"/>
<polygon fill="midnightblue" stroke="midnightblue" points="262.331,-12.5001 252.331,-16 262.331,-19.5001 262.331,-12.5001"/>
</g>
<!-- Node3&#45;&gt;Node4 -->
<g id="edge3" class="edge"><title>Node3&#45;&gt;Node4</title>
<path fill="none" stroke="midnightblue" d="M412.813,-23.7347C422.699,-22.0425 432.133,-20.4277 439.799,-19.1155"/>
<polygon fill="midnightblue" stroke="midnightblue" points="412.091,-20.3073 402.825,-25.4443 413.272,-27.2069 412.091,-20.3073"/>
</g>
</g>
</svg>
