<?xml version="1.0" encoding="UTF-8" standalone="no"?>
<!DOCTYPE svg PUBLIC "-//W3C//DTD SVG 1.1//EN"
 "http://www.w3.org/Graphics/SVG/1.1/DTD/svg11.dtd">
<!-- Generated by graphviz version 2.36.0 (20140111.2315)
 -->
<!-- Title: readinput.cpp Pages: 1 -->
<svg width="541pt" height="252pt"
 viewBox="0.00 0.00 541.09 252.00" xmlns="http://www.w3.org/2000/svg" xmlns:xlink="http://www.w3.org/1999/xlink">
<g id="graph0" class="graph" transform="scale(1 1) rotate(0) translate(4 248)">
<title>readinput.cpp</title>
<polygon fill="white" stroke="none" points="-4,4 -4,-248 537.088,-248 537.088,4 -4,4"/>
<!-- Node1 -->
<g id="node1" class="node"><title>Node1</title>
<polygon fill="#bfbfbf" stroke="black" points="300.588,-224.5 300.588,-243.5 375.588,-243.5 375.588,-224.5 300.588,-224.5"/>
<text text-anchor="middle" x="338.088" y="-231.5" font-family="Helvetica,sans-Serif" font-size="10.00">readinput.cpp</text>
</g>
<!-- Node2 -->
<g id="node2" class="node"><title>Node2</title>
<g id="a_node2"><a xlink:href="readinput_8h.html" target="_top" xlink:title="readinput.h">
<polygon fill="white" stroke="black" points="87.5884,-168.5 87.5884,-187.5 152.588,-187.5 152.588,-168.5 87.5884,-168.5"/>
<text text-anchor="middle" x="120.088" y="-175.5" font-family="Helvetica,sans-Serif" font-size="10.00">readinput.h</text>
</a>
</g>
</g>
<!-- Node1&#45;&gt;Node2 -->
<g id="edge1" class="edge"><title>Node1&#45;&gt;Node2</title>
<path fill="none" stroke="midnightblue" d="M303.546,-224.444C265.28,-214.965 203.564,-199.678 162.422,-189.486"/>
<polygon fill="midnightblue" stroke="midnightblue" points="163.237,-186.083 152.689,-187.075 161.554,-192.877 163.237,-186.083"/>
</g>
<!-- Node7 -->
<g id="node7" class="node"><title>Node7</title>
<g id="a_node7"><a xlink:href="constants_8h.html" target="_top" xlink:title="constants.h">
<polygon fill="white" stroke="black" points="178.088,-56.5 178.088,-75.5 246.088,-75.5 246.088,-56.5 178.088,-56.5"/>
<text text-anchor="middle" x="212.088" y="-63.5" font-family="Helvetica,sans-Serif" font-size="10.00">constants.h</text>
</a>
</g>
</g>
<!-- Node1&#45;&gt;Node7 -->
<g id="edge12" class="edge"><title>Node1&#45;&gt;Node7</title>
<path fill="none" stroke="midnightblue" d="M319.338,-224.409C304.163,-216.677 283.084,-204.069 269.088,-188 241.986,-156.884 225.045,-110.663 217.217,-85.3003"/>
<polygon fill="midnightblue" stroke="midnightblue" points="220.521,-84.1305 214.337,-75.5276 213.807,-86.1092 220.521,-84.1305"/>
</g>
<!-- Node9 -->
<g id="node9" class="node"><title>Node9</title>
<polygon fill="white" stroke="#bfbfbf" points="278.088,-168.5 278.088,-187.5 328.088,-187.5 328.088,-168.5 278.088,-168.5"/>
<text text-anchor="middle" x="303.088" y="-175.5" font-family="Helvetica,sans-Serif" font-size="10.00">iomanip</text>
</g>
<!-- Node1&#45;&gt;Node9 -->
<g id="edge13" class="edge"><title>Node1&#45;&gt;Node9</title>
<path fill="none" stroke="midnightblue" d="M332.309,-224.083C327.416,-216.534 320.261,-205.495 314.256,-196.23"/>
<polygon fill="midnightblue" stroke="midnightblue" points="317.136,-194.239 308.76,-187.751 311.262,-198.046 317.136,-194.239"/>
</g>
<!-- Node10 -->
<g id="node10" class="node"><title>Node10</title>
<polygon fill="white" stroke="#bfbfbf" points="346.088,-168.5 346.088,-187.5 400.088,-187.5 400.088,-168.5 346.088,-168.5"/>
<text text-anchor="middle" x="373.088" y="-175.5" font-family="Helvetica,sans-Serif" font-size="10.00">iostream</text>
</g>
<!-- Node1&#45;&gt;Node10 -->
<g id="edge14" class="edge"><title>Node1&#45;&gt;Node10</title>
<path fill="none" stroke="midnightblue" d="M343.868,-224.083C348.761,-216.534 355.916,-205.495 361.921,-196.23"/>
<polygon fill="midnightblue" stroke="midnightblue" points="364.914,-198.046 367.416,-187.751 359.04,-194.239 364.914,-198.046"/>
</g>
<!-- Node11 -->
<g id="node11" class="node"><title>Node11</title>
<polygon fill="white" stroke="#bfbfbf" points="418.088,-168.5 418.088,-187.5 470.088,-187.5 470.088,-168.5 418.088,-168.5"/>
<text text-anchor="middle" x="444.088" y="-175.5" font-family="Helvetica,sans-Serif" font-size="10.00">sstream</text>
</g>
<!-- Node1&#45;&gt;Node11 -->
<g id="edge15" class="edge"><title>Node1&#45;&gt;Node11</title>
<path fill="none" stroke="midnightblue" d="M355.119,-224.324C372.118,-215.664 398.464,-202.242 418.081,-192.249"/>
<polygon fill="midnightblue" stroke="midnightblue" points="419.778,-195.312 427.1,-187.655 416.601,-189.075 419.778,-195.312"/>
</g>
<!-- Node12 -->
<g id="node12" class="node"><title>Node12</title>
<polygon fill="white" stroke="#bfbfbf" points="488.588,-168.5 488.588,-187.5 533.588,-187.5 533.588,-168.5 488.588,-168.5"/>
<text text-anchor="middle" x="511.088" y="-175.5" font-family="Helvetica,sans-Serif" font-size="10.00">cstdlib</text>
</g>
<!-- Node1&#45;&gt;Node12 -->
<g id="edge16" class="edge"><title>Node1&#45;&gt;Node12</title>
<path fill="none" stroke="midnightblue" d="M365.501,-224.444C396.193,-214.863 445.896,-199.349 478.538,-189.16"/>
<polygon fill="midnightblue" stroke="midnightblue" points="479.987,-192.374 488.49,-186.054 477.902,-185.692 479.987,-192.374"/>
</g>
<!-- Node3 -->
<g id="node3" class="node"><title>Node3</title>
<polygon fill="white" stroke="#bfbfbf" points="129.588,-0.5 129.588,-19.5 170.588,-19.5 170.588,-0.5 129.588,-0.5"/>
<text text-anchor="middle" x="150.088" y="-7.5" font-family="Helvetica,sans-Serif" font-size="10.00">string</text>
</g>
<!-- Node2&#45;&gt;Node3 -->
<g id="edge2" class="edge"><title>Node2&#45;&gt;Node3</title>
<path fill="none" stroke="midnightblue" d="M87.534,-172.719C47.2141,-165.782 -14.1817,-148.943 3.08838,-112 25.5624,-63.9253 83.8304,-34.9522 119.893,-21.0516"/>
<polygon fill="midnightblue" stroke="midnightblue" points="121.261,-24.2774 129.427,-17.5273 118.834,-17.7116 121.261,-24.2774"/>
</g>
<!-- Node4 -->
<g id="node4" class="node"><title>Node4</title>
<polygon fill="white" stroke="#bfbfbf" points="12.0884,-112.5 12.0884,-131.5 62.0884,-131.5 62.0884,-112.5 12.0884,-112.5"/>
<text text-anchor="middle" x="37.0884" y="-119.5" font-family="Helvetica,sans-Serif" font-size="10.00">fstream</text>
</g>
<!-- Node2&#45;&gt;Node4 -->
<g id="edge3" class="edge"><title>Node2&#45;&gt;Node4</title>
<path fill="none" stroke="midnightblue" d="M106.753,-168.324C93.9264,-159.979 74.3034,-147.212 59.1486,-137.352"/>
<polygon fill="midnightblue" stroke="midnightblue" points="60.6815,-134.174 50.3907,-131.655 56.8641,-140.042 60.6815,-134.174"/>
</g>
<!-- Node5 -->
<g id="node5" class="node"><title>Node5</title>
<polygon fill="white" stroke="#bfbfbf" points="79.5884,-56.5 79.5884,-75.5 114.588,-75.5 114.588,-56.5 79.5884,-56.5"/>
<text text-anchor="middle" x="97.0884" y="-63.5" font-family="Helvetica,sans-Serif" font-size="10.00">map</text>
</g>
<!-- Node2&#45;&gt;Node5 -->
<g id="edge4" class="edge"><title>Node2&#45;&gt;Node5</title>
<path fill="none" stroke="midnightblue" d="M117.833,-168.407C115.499,-159.376 111.819,-144.74 109.088,-132 105.777,-116.552 102.557,-98.9212 100.287,-85.9224"/>
<polygon fill="midnightblue" stroke="midnightblue" points="103.702,-85.1262 98.5593,-75.8632 96.803,-86.3114 103.702,-85.1262"/>
</g>
<!-- Node6 -->
<g id="node6" class="node"><title>Node6</title>
<g id="a_node6"><a xlink:href="elements_8h.html" target="_top" xlink:title="elements.h">
<polygon fill="white" stroke="black" points="118.588,-112.5 118.588,-131.5 183.588,-131.5 183.588,-112.5 118.588,-112.5"/>
<text text-anchor="middle" x="151.088" y="-119.5" font-family="Helvetica,sans-Serif" font-size="10.00">elements.h</text>
</a>
</g>
</g>
<!-- Node2&#45;&gt;Node6 -->
<g id="edge5" class="edge"><title>Node2&#45;&gt;Node6</title>
<path fill="none" stroke="midnightblue" d="M125.207,-168.083C129.496,-160.613 135.747,-149.724 141.031,-140.52"/>
<polygon fill="midnightblue" stroke="midnightblue" points="144.121,-142.166 146.065,-131.751 138.05,-138.681 144.121,-142.166"/>
</g>
<!-- Node2&#45;&gt;Node7 -->
<g id="edge11" class="edge"><title>Node2&#45;&gt;Node7</title>
<path fill="none" stroke="midnightblue" d="M141.945,-168.36C157.988,-160.964 179.152,-148.829 192.088,-132 202.422,-118.557 207.455,-99.7413 209.884,-85.8113"/>
<polygon fill="midnightblue" stroke="midnightblue" points="213.352,-86.282 211.324,-75.8831 206.424,-85.277 213.352,-86.282"/>
</g>
<!-- Node6&#45;&gt;Node3 -->
<g id="edge6" class="edge"><title>Node6&#45;&gt;Node3</title>
<path fill="none" stroke="midnightblue" d="M151.01,-112.368C150.849,-94.617 150.476,-53.6664 150.257,-29.5974"/>
<polygon fill="midnightblue" stroke="midnightblue" points="153.757,-29.5592 150.166,-19.5914 146.758,-29.6229 153.757,-29.5592"/>
</g>
<!-- Node6&#45;&gt;Node5 -->
<g id="edge7" class="edge"><title>Node6&#45;&gt;Node5</title>
<path fill="none" stroke="midnightblue" d="M142.171,-112.083C134.308,-104.22 122.657,-92.5688 113.17,-83.0813"/>
<polygon fill="midnightblue" stroke="midnightblue" points="115.385,-80.3473 105.839,-75.7511 110.436,-85.2971 115.385,-80.3473"/>
</g>
<!-- Node6&#45;&gt;Node7 -->
<g id="edge8" class="edge"><title>Node6&#45;&gt;Node7</title>
<path fill="none" stroke="midnightblue" d="M160.889,-112.324C169.906,-104.341 183.494,-92.3128 194.406,-82.6529"/>
<polygon fill="midnightblue" stroke="midnightblue" points="196.942,-85.083 202.109,-75.8339 192.302,-79.8416 196.942,-85.083"/>
</g>
<!-- Node7&#45;&gt;Node3 -->
<g id="edge10" class="edge"><title>Node7&#45;&gt;Node3</title>
<path fill="none" stroke="midnightblue" d="M202.127,-56.324C192.962,-48.3414 179.151,-36.3128 168.06,-26.6529"/>
<polygon fill="midnightblue" stroke="midnightblue" points="170.071,-23.7624 160.231,-19.8339 165.473,-29.041 170.071,-23.7624"/>
</g>
<!-- Node8 -->
<g id="node8" class="node"><title>Node8</title>
<polygon fill="white" stroke="#bfbfbf" points="190.088,-0.5 190.088,-19.5 234.088,-19.5 234.088,-0.5 190.088,-0.5"/>
<text text-anchor="middle" x="212.088" y="-7.5" font-family="Helvetica,sans-Serif" font-size="10.00">vector</text>
</g>
<!-- Node7&#45;&gt;Node8 -->
<g id="edge9" class="edge"><title>Node7&#45;&gt;Node8</title>
<path fill="none" stroke="midnightblue" d="M212.088,-56.083C212.088,-49.0059 212.088,-38.8611 212.088,-29.9865"/>
<polygon fill="midnightblue" stroke="midnightblue" points="215.588,-29.751 212.088,-19.7511 208.588,-29.7511 215.588,-29.751"/>
</g>
</g>
</svg>
