<?xml version="1.0" encoding="UTF-8" standalone="no"?>
<!DOCTYPE svg PUBLIC "-//W3C//DTD SVG 1.1//EN"
 "http://www.w3.org/Graphics/SVG/1.1/DTD/svg11.dtd">
<!-- Generated by graphviz version 2.36.0 (20140111.2315)
 -->
<!-- Title: readinput.h Pages: 1 -->
<svg width="248pt" height="84pt"
 viewBox="0.00 0.00 248.00 84.00" xmlns="http://www.w3.org/2000/svg" xmlns:xlink="http://www.w3.org/1999/xlink">
<g id="graph0" class="graph" transform="scale(1 1) rotate(0) translate(4 80)">
<title>readinput.h</title>
<polygon fill="white" stroke="none" points="-4,4 -4,-80 244,-80 244,4 -4,4"/>
<!-- Node1 -->
<g id="node1" class="node"><title>Node1</title>
<polygon fill="#bfbfbf" stroke="black" points="87.5,-56.5 87.5,-75.5 152.5,-75.5 152.5,-56.5 87.5,-56.5"/>
<text text-anchor="middle" x="120" y="-63.5" font-family="Helvetica,sans-Serif" font-size="10.00">readinput.h</text>
</g>
<!-- Node2 -->
<g id="node2" class="node"><title>Node2</title>
<g id="a_node2"><a xlink:href="elements_8cpp.html" target="_top" xlink:title="elements.cpp">
<polygon fill="white" stroke="black" points="-0.5,-0.5 -0.5,-19.5 74.5,-19.5 74.5,-0.5 -0.5,-0.5"/>
<text text-anchor="middle" x="37" y="-7.5" font-family="Helvetica,sans-Serif" font-size="10.00">elements.cpp</text>
</a>
</g>
</g>
<!-- Node1&#45;&gt;Node2 -->
<g id="edge1" class="edge"><title>Node1&#45;&gt;Node2</title>
<path fill="none" stroke="midnightblue" d="M97.9007,-50.6221C82.7382,-40.7574 63.1172,-27.9919 50.3023,-19.6545"/>
<polygon fill="midnightblue" stroke="midnightblue" points="96.3738,-53.8042 106.665,-56.324 100.191,-47.9367 96.3738,-53.8042"/>
</g>
<!-- Node3 -->
<g id="node3" class="node"><title>Node3</title>
<g id="a_node3"><a xlink:href="main_8cpp.html" target="_top" xlink:title="main.cpp">
<polygon fill="white" stroke="black" points="92,-0.5 92,-19.5 148,-19.5 148,-0.5 92,-0.5"/>
<text text-anchor="middle" x="120" y="-7.5" font-family="Helvetica,sans-Serif" font-size="10.00">main.cpp</text>
</a>
</g>
</g>
<!-- Node1&#45;&gt;Node3 -->
<g id="edge2" class="edge"><title>Node1&#45;&gt;Node3</title>
<path fill="none" stroke="midnightblue" d="M120,-45.8045C120,-36.9102 120,-26.7798 120,-19.7511"/>
<polygon fill="midnightblue" stroke="midnightblue" points="116.5,-46.083 120,-56.083 123.5,-46.083 116.5,-46.083"/>
</g>
<!-- Node4 -->
<g id="node4" class="node"><title>Node4</title>
<g id="a_node4"><a xlink:href="readinput_8cpp.html" target="_top" xlink:title="readinput.cpp">
<polygon fill="white" stroke="black" points="165.5,-0.5 165.5,-19.5 240.5,-19.5 240.5,-0.5 165.5,-0.5"/>
<text text-anchor="middle" x="203" y="-7.5" font-family="Helvetica,sans-Serif" font-size="10.00">readinput.cpp</text>
</a>
</g>
</g>
<!-- Node1&#45;&gt;Node4 -->
<g id="edge3" class="edge"><title>Node1&#45;&gt;Node4</title>
<path fill="none" stroke="midnightblue" d="M142.099,-50.6221C157.262,-40.7574 176.883,-27.9919 189.698,-19.6545"/>
<polygon fill="midnightblue" stroke="midnightblue" points="139.809,-47.9367 133.335,-56.324 143.626,-53.8042 139.809,-47.9367"/>
</g>
</g>
</svg>
