<?xml version="1.0" encoding="UTF-8" standalone="no"?>
<!DOCTYPE svg PUBLIC "-//W3C//DTD SVG 1.1//EN"
 "http://www.w3.org/Graphics/SVG/1.1/DTD/svg11.dtd">
<!-- Generated by graphviz version 2.36.0 (20140111.2315)
 -->
<!-- Title: scanpanel::paramScan Pages: 1 -->
<svg width="732pt" height="525pt"
 viewBox="0.00 0.00 732.00 525.00" xmlns="http://www.w3.org/2000/svg" xmlns:xlink="http://www.w3.org/1999/xlink">
<g id="graph0" class="graph" transform="scale(1 1) rotate(0) translate(4 521)">
<title>scanpanel::paramScan</title>
<polygon fill="white" stroke="none" points="-4,4 -4,-521 728,-521 728,4 -4,4"/>
<!-- Node1 -->
<g id="node1" class="node"><title>Node1</title>
<polygon fill="#bfbfbf" stroke="black" points="0,-139.5 0,-158.5 116,-158.5 116,-139.5 0,-139.5"/>
<text text-anchor="middle" x="58" y="-146.5" font-family="Helvetica,sans-Serif" font-size="10.00">scanpanel::paramScan</text>
</g>
<!-- Node2 -->
<g id="node2" class="node"><title>Node2</title>
<g id="a_node2"><a xlink:href="classscanpanel.html#abcd398fda4ec23590821fb7fa391f8eb" target="_top" xlink:title="check scan setup, return 1 if all the parameters are OK, or 0 and exit(1); ">
<polygon fill="white" stroke="black" points="156,-342.5 156,-361.5 320,-361.5 320,-342.5 156,-342.5"/>
<text text-anchor="middle" x="238" y="-349.5" font-family="Helvetica,sans-Serif" font-size="10.00">scanpanel::checkScanSetupIsOK</text>
</a>
</g>
</g>
<!-- Node1&#45;&gt;Node2 -->
<g id="edge1" class="edge"><title>Node1&#45;&gt;Node2</title>
<path fill="none" stroke="midnightblue" d="M67.1502,-158.588C83.2533,-177.503 120.333,-220.924 152,-257 176.036,-284.383 204.312,-315.837 221.433,-334.8"/>
<polygon fill="midnightblue" stroke="midnightblue" points="218.949,-337.272 228.251,-342.344 224.143,-332.578 218.949,-337.272"/>
</g>
<!-- Node4 -->
<g id="node4" class="node"><title>Node4</title>
<g id="a_node4"><a xlink:href="classscanpanel.html#a1338695a9884249cea3397a4f75c4fe5" target="_top" xlink:title="update varlist read from external namelist file ">
<polygon fill="white" stroke="black" points="176,-228.5 176,-247.5 300,-247.5 300,-228.5 176,-228.5"/>
<text text-anchor="middle" x="238" y="-235.5" font-family="Helvetica,sans-Serif" font-size="10.00">scanpanel::updateVarlist</text>
</a>
</g>
</g>
<!-- Node1&#45;&gt;Node4 -->
<g id="edge3" class="edge"><title>Node1&#45;&gt;Node4</title>
<path fill="none" stroke="midnightblue" d="M78.0491,-158.525C109.416,-174.208 172.1,-205.55 208.679,-223.839"/>
<polygon fill="midnightblue" stroke="midnightblue" points="207.309,-227.068 217.819,-228.409 210.44,-220.807 207.309,-227.068"/>
</g>
<!-- Node20 -->
<g id="node20" class="node"><title>Node20</title>
<g id="a_node20"><a xlink:href="class_f_e_l_numerical.html#a9cc9dab3886a4812336e4ca796c8259d" target="_top" xlink:title="parameters initialization for numerical calculation ">
<polygon fill="white" stroke="black" points="152,-158.5 152,-177.5 324,-177.5 324,-158.5 152,-158.5"/>
<text text-anchor="middle" x="238" y="-165.5" font-family="Helvetica,sans-Serif" font-size="10.00">FELNumerical::generateDistribution</text>
</a>
</g>
</g>
<!-- Node1&#45;&gt;Node20 -->
<g id="edge19" class="edge"><title>Node1&#45;&gt;Node20</title>
<path fill="none" stroke="midnightblue" d="M116.3,-155.116C124.481,-155.99 133.074,-156.907 141.746,-157.832"/>
<polygon fill="midnightblue" stroke="midnightblue" points="141.628,-161.34 151.943,-158.921 142.371,-154.379 141.628,-161.34"/>
</g>
<!-- Node22 -->
<g id="node22" class="node"><title>Node22</title>
<g id="a_node22"><a xlink:href="class_f_e_l_numerical.html#af73b446c5426faf40905db128fc5c589" target="_top" xlink:title="FELNumerical::initParams">
<polygon fill="white" stroke="black" points="172.5,-120.5 172.5,-139.5 303.5,-139.5 303.5,-120.5 172.5,-120.5"/>
<text text-anchor="middle" x="238" y="-127.5" font-family="Helvetica,sans-Serif" font-size="10.00">FELNumerical::initParams</text>
</a>
</g>
</g>
<!-- Node1&#45;&gt;Node22 -->
<g id="edge21" class="edge"><title>Node1&#45;&gt;Node22</title>
<path fill="none" stroke="midnightblue" d="M116.3,-142.884C130.973,-141.317 146.968,-139.61 162.373,-137.966"/>
<polygon fill="midnightblue" stroke="midnightblue" points="162.82,-141.438 172.392,-136.896 162.077,-134.478 162.82,-141.438"/>
</g>
<!-- Node23 -->
<g id="node23" class="node"><title>Node23</title>
<g id="a_node23"><a xlink:href="class_f_e_l_numerical.html#af05bd3696e590e70e830489d92546dcd" target="_top" xlink:title="functions defined for ODE solver ">
<polygon fill="white" stroke="black" points="160,-71 160,-101 316,-101 316,-71 160,-71"/>
<text text-anchor="start" x="168" y="-89" font-family="Helvetica,sans-Serif" font-size="10.00">FELNumerical::FELsolverSingle</text>
<text text-anchor="middle" x="238" y="-78" font-family="Helvetica,sans-Serif" font-size="10.00">Frequency1D</text>
</a>
</g>
</g>
<!-- Node1&#45;&gt;Node23 -->
<g id="edge22" class="edge"><title>Node1&#45;&gt;Node23</title>
<path fill="none" stroke="midnightblue" d="M80.5574,-139.461C99.2544,-131.364 127.144,-119.708 152,-111 158.787,-108.622 165.929,-106.279 173.071,-104.038"/>
<polygon fill="midnightblue" stroke="midnightblue" points="174.249,-107.337 182.777,-101.05 172.19,-100.647 174.249,-107.337"/>
</g>
<!-- Node28 -->
<g id="node28" class="node"><title>Node28</title>
<g id="a_node28"><a xlink:href="class_f_e_l_numerical.html#aff125b90006edd7fe4b19adbbfacda92" target="_top" xlink:title="FELNumerical::get_maxExAmp">
<polygon fill="white" stroke="black" points="160.5,-32.5 160.5,-51.5 315.5,-51.5 315.5,-32.5 160.5,-32.5"/>
<text text-anchor="middle" x="238" y="-39.5" font-family="Helvetica,sans-Serif" font-size="10.00">FELNumerical::get_maxExAmp</text>
</a>
</g>
</g>
<!-- Node1&#45;&gt;Node28 -->
<g id="edge27" class="edge"><title>Node1&#45;&gt;Node28</title>
<path fill="none" stroke="midnightblue" d="M66.2432,-139.295C80.4991,-120.933 114.124,-81.1465 152,-61 156.474,-58.6201 161.234,-56.5376 166.128,-54.7156"/>
<polygon fill="midnightblue" stroke="midnightblue" points="167.292,-58.0167 175.664,-51.5229 165.07,-51.3788 167.292,-58.0167"/>
</g>
<!-- Node3 -->
<g id="node3" class="node"><title>Node3</title>
<g id="a_node3"><a xlink:href="classscanpanel.html#af24e52f96205d0d15988bb13ba8427ff" target="_top" xlink:title="check if scan parameter (string) setup is OK, return 1 if is OK, or 0; ">
<polygon fill="white" stroke="black" points="360.5,-399.5 360.5,-418.5 527.5,-418.5 527.5,-399.5 360.5,-399.5"/>
<text text-anchor="middle" x="444" y="-406.5" font-family="Helvetica,sans-Serif" font-size="10.00">scanpanel::checkScanParamIsOK</text>
</a>
</g>
</g>
<!-- Node2&#45;&gt;Node3 -->
<g id="edge2" class="edge"><title>Node2&#45;&gt;Node3</title>
<path fill="none" stroke="midnightblue" d="M267.173,-361.545C291.578,-369.645 327.91,-381.303 360,-390 369.213,-392.497 379.058,-394.943 388.632,-397.205"/>
<polygon fill="midnightblue" stroke="midnightblue" points="387.939,-400.637 398.471,-399.49 389.522,-393.819 387.939,-400.637"/>
</g>
<!-- Node5 -->
<g id="node5" class="node"><title>Node5</title>
<g id="a_node5"><a xlink:href="readinput_8cpp.html#aa8e009615e0c90278ea678ee0b8bbfc7" target="_top" xlink:title="convert double into string ">
<polygon fill="white" stroke="black" points="421,-361.5 421,-380.5 467,-380.5 467,-361.5 421,-361.5"/>
<text text-anchor="middle" x="444" y="-368.5" font-family="Helvetica,sans-Serif" font-size="10.00">dbl2str</text>
</a>
</g>
</g>
<!-- Node4&#45;&gt;Node5 -->
<g id="edge4" class="edge"><title>Node4&#45;&gt;Node5</title>
<path fill="none" stroke="midnightblue" d="M246.269,-247.742C263.417,-269.984 308.823,-324.681 360,-352 375.618,-360.337 394.789,-365.032 410.77,-367.668"/>
<polygon fill="midnightblue" stroke="midnightblue" points="410.342,-371.142 420.742,-369.12 411.351,-364.215 410.342,-371.142"/>
</g>
<!-- Node6 -->
<g id="node6" class="node"><title>Node6</title>
<g id="a_node6"><a xlink:href="classscanpanel.html#a892cbc5c1eeafa7be9d8ddecaee3d68e" target="_top" xlink:title="scanpanel::set_electronBeam">
<polygon fill="white" stroke="black" points="371,-323.5 371,-342.5 517,-342.5 517,-323.5 371,-323.5"/>
<text text-anchor="middle" x="444" y="-330.5" font-family="Helvetica,sans-Serif" font-size="10.00">scanpanel::set_electronBeam</text>
</a>
</g>
</g>
<!-- Node4&#45;&gt;Node6 -->
<g id="edge5" class="edge"><title>Node4&#45;&gt;Node6</title>
<path fill="none" stroke="midnightblue" d="M259.683,-247.632C296.051,-264.568 371.557,-299.73 413.427,-319.228"/>
<polygon fill="midnightblue" stroke="midnightblue" points="412.022,-322.435 422.565,-323.484 414.978,-316.089 412.022,-322.435"/>
</g>
<!-- Node13 -->
<g id="node13" class="node"><title>Node13</title>
<g id="a_node13"><a xlink:href="classscanpanel.html#a039ed64a56edba772f36f872d65c61d0" target="_top" xlink:title="scanpanel::set_undulator">
<polygon fill="white" stroke="black" points="381.5,-228.5 381.5,-247.5 506.5,-247.5 506.5,-228.5 381.5,-228.5"/>
<text text-anchor="middle" x="444" y="-235.5" font-family="Helvetica,sans-Serif" font-size="10.00">scanpanel::set_undulator</text>
</a>
</g>
</g>
<!-- Node4&#45;&gt;Node13 -->
<g id="edge12" class="edge"><title>Node4&#45;&gt;Node13</title>
<path fill="none" stroke="midnightblue" d="M300.207,-238C322.596,-238 348.125,-238 371.345,-238"/>
<polygon fill="midnightblue" stroke="midnightblue" points="371.484,-241.5 381.484,-238 371.484,-234.5 371.484,-241.5"/>
</g>
<!-- Node18 -->
<g id="node18" class="node"><title>Node18</title>
<g id="a_node18"><a xlink:href="classscanpanel.html#ae742a13334bed97f6e39d4dca1be16a1" target="_top" xlink:title="scanpanel::set_FELradiation">
<polygon fill="white" stroke="black" points="374,-190.5 374,-209.5 514,-209.5 514,-190.5 374,-190.5"/>
<text text-anchor="middle" x="444" y="-197.5" font-family="Helvetica,sans-Serif" font-size="10.00">scanpanel::set_FELradiation</text>
</a>
</g>
</g>
<!-- Node4&#45;&gt;Node18 -->
<g id="edge17" class="edge"><title>Node4&#45;&gt;Node18</title>
<path fill="none" stroke="midnightblue" d="M290.214,-228.46C317.981,-223.288 352.489,-216.86 381.681,-211.422"/>
<polygon fill="midnightblue" stroke="midnightblue" points="382.574,-214.816 391.764,-209.544 381.293,-207.934 382.574,-214.816"/>
</g>
<!-- Node7 -->
<g id="node7" class="node"><title>Node7</title>
<g id="a_node7"><a xlink:href="classelectron_beam.html#a787d3e61816281618f284ef3bb2e1ebb" target="_top" xlink:title="beam energy, $$ ">
<polygon fill="white" stroke="black" points="578.5,-487 578.5,-517 709.5,-517 709.5,-487 578.5,-487"/>
<text text-anchor="start" x="586.5" y="-505" font-family="Helvetica,sans-Serif" font-size="10.00">electronBeam::set_central</text>
<text text-anchor="middle" x="644" y="-494" font-family="Helvetica,sans-Serif" font-size="10.00">Energy</text>
</a>
</g>
</g>
<!-- Node6&#45;&gt;Node7 -->
<g id="edge6" class="edge"><title>Node6&#45;&gt;Node7</title>
<path fill="none" stroke="midnightblue" d="M514.577,-342.671C519.468,-345.172 524.027,-348.241 528,-352 569.996,-391.733 523.656,-435.59 564,-477 565.801,-478.848 567.737,-480.56 569.781,-482.146"/>
<polygon fill="midnightblue" stroke="midnightblue" points="567.864,-485.075 578.139,-487.658 571.718,-479.231 567.864,-485.075"/>
</g>
<!-- Node8 -->
<g id="node8" class="node"><title>Node8</title>
<g id="a_node8"><a xlink:href="classelectron_beam.html#a7e4cff020876ed5b43499b60ad1822cd" target="_top" xlink:title="rms energy spread, $$ ">
<polygon fill="white" stroke="black" points="578.5,-438 578.5,-468 709.5,-468 709.5,-438 578.5,-438"/>
<text text-anchor="start" x="586.5" y="-456" font-family="Helvetica,sans-Serif" font-size="10.00">electronBeam::set_energy</text>
<text text-anchor="middle" x="644" y="-445" font-family="Helvetica,sans-Serif" font-size="10.00">Spread</text>
</a>
</g>
</g>
<!-- Node6&#45;&gt;Node8 -->
<g id="edge7" class="edge"><title>Node6&#45;&gt;Node8</title>
<path fill="none" stroke="midnightblue" d="M512.297,-342.663C517.934,-345.137 523.275,-348.204 528,-352 557.139,-375.406 535.838,-403.427 564,-428 565.944,-429.697 568.004,-431.278 570.153,-432.752"/>
<polygon fill="midnightblue" stroke="midnightblue" points="568.451,-435.813 578.834,-437.924 572.034,-429.799 568.451,-435.813"/>
</g>
<!-- Node9 -->
<g id="node9" class="node"><title>Node9</title>
<g id="a_node9"><a xlink:href="classelectron_beam.html#a9e750f50d228ef648b6b607afac44c77" target="_top" xlink:title="normalized emittance in x ">
<polygon fill="white" stroke="black" points="578.5,-399.5 578.5,-418.5 709.5,-418.5 709.5,-399.5 578.5,-399.5"/>
<text text-anchor="middle" x="644" y="-406.5" font-family="Helvetica,sans-Serif" font-size="10.00">electronBeam::set_emitnx</text>
</a>
</g>
</g>
<!-- Node6&#45;&gt;Node9 -->
<g id="edge8" class="edge"><title>Node6&#45;&gt;Node9</title>
<path fill="none" stroke="midnightblue" d="M505.965,-342.567C513.652,-345.025 521.196,-348.116 528,-352 548.204,-363.534 543.86,-378.355 564,-390 567.883,-392.245 572.02,-394.226 576.289,-395.973"/>
<polygon fill="midnightblue" stroke="midnightblue" points="575.2,-399.301 585.794,-399.436 577.597,-392.724 575.2,-399.301"/>
</g>
<!-- Node10 -->
<g id="node10" class="node"><title>Node10</title>
<g id="a_node10"><a xlink:href="classelectron_beam.html#aacb24d39f88c45a62e5fbd5516e43bfb" target="_top" xlink:title="normalized emittance in y ">
<polygon fill="white" stroke="black" points="578.5,-361.5 578.5,-380.5 709.5,-380.5 709.5,-361.5 578.5,-361.5"/>
<text text-anchor="middle" x="644" y="-368.5" font-family="Helvetica,sans-Serif" font-size="10.00">electronBeam::set_emitny</text>
</a>
</g>
</g>
<!-- Node6&#45;&gt;Node10 -->
<g id="edge9" class="edge"><title>Node6&#45;&gt;Node10</title>
<path fill="none" stroke="midnightblue" d="M494.708,-342.54C521.541,-347.69 554.859,-354.084 583.113,-359.506"/>
<polygon fill="midnightblue" stroke="midnightblue" points="582.791,-363.009 593.271,-361.456 584.11,-356.134 582.791,-363.009"/>
</g>
<!-- Node11 -->
<g id="node11" class="node"><title>Node11</title>
<g id="a_node11"><a xlink:href="classelectron_beam.html#a1e6b08af9247eca49c00af3d3c57cd6f" target="_top" xlink:title="peak current, [A] ">
<polygon fill="white" stroke="black" points="566.5,-323.5 566.5,-342.5 721.5,-342.5 721.5,-323.5 566.5,-323.5"/>
<text text-anchor="middle" x="644" y="-330.5" font-family="Helvetica,sans-Serif" font-size="10.00">electronBeam::set_peakCurrent</text>
</a>
</g>
</g>
<!-- Node6&#45;&gt;Node11 -->
<g id="edge10" class="edge"><title>Node6&#45;&gt;Node11</title>
<path fill="none" stroke="midnightblue" d="M517.043,-333C529.694,-333 542.98,-333 555.987,-333"/>
<polygon fill="midnightblue" stroke="midnightblue" points="556.341,-336.5 566.341,-333 556.341,-329.5 556.341,-336.5"/>
</g>
<!-- Node12 -->
<g id="node12" class="node"><title>Node12</title>
<g id="a_node12"><a xlink:href="classelectron_beam.html#a3c9af6b4b9f079eb078200ac4c91812f" target="_top" xlink:title="average beta function, [m] ">
<polygon fill="white" stroke="black" points="564.5,-285.5 564.5,-304.5 723.5,-304.5 723.5,-285.5 564.5,-285.5"/>
<text text-anchor="middle" x="644" y="-292.5" font-family="Helvetica,sans-Serif" font-size="10.00">electronBeam::set_avgBetaFunc</text>
</a>
</g>
</g>
<!-- Node6&#45;&gt;Node12 -->
<g id="edge11" class="edge"><title>Node6&#45;&gt;Node12</title>
<path fill="none" stroke="midnightblue" d="M494.708,-323.46C521.541,-318.31 554.859,-311.916 583.113,-306.494"/>
<polygon fill="midnightblue" stroke="midnightblue" points="584.11,-309.866 593.271,-304.544 582.791,-302.991 584.11,-309.866"/>
</g>
<!-- Node14 -->
<g id="node14" class="node"><title>Node14</title>
<g id="a_node14"><a xlink:href="classundulator.html#a7a27a3ad42f9d826929d68e04105c7f1" target="_top" xlink:title="peak magnetic field, [T] ">
<polygon fill="white" stroke="black" points="594.5,-247.5 594.5,-266.5 693.5,-266.5 693.5,-247.5 594.5,-247.5"/>
<text text-anchor="middle" x="644" y="-254.5" font-family="Helvetica,sans-Serif" font-size="10.00">undulator::set_field</text>
</a>
</g>
</g>
<!-- Node13&#45;&gt;Node14 -->
<g id="edge13" class="edge"><title>Node13&#45;&gt;Node14</title>
<path fill="none" stroke="midnightblue" d="M506.563,-243.908C531.297,-246.281 559.686,-249.005 584.142,-251.352"/>
<polygon fill="midnightblue" stroke="midnightblue" points="584.071,-254.861 594.36,-252.332 584.74,-247.893 584.071,-254.861"/>
</g>
<!-- Node15 -->
<g id="node15" class="node"><title>Node15</title>
<g id="a_node15"><a xlink:href="classundulator.html#a9e87429b74fd3e518da8b64ba7f5dc3e" target="_top" xlink:title="period length, [m] ">
<polygon fill="white" stroke="black" points="590.5,-209.5 590.5,-228.5 697.5,-228.5 697.5,-209.5 590.5,-209.5"/>
<text text-anchor="middle" x="644" y="-216.5" font-family="Helvetica,sans-Serif" font-size="10.00">undulator::set_period</text>
</a>
</g>
</g>
<!-- Node13&#45;&gt;Node15 -->
<g id="edge14" class="edge"><title>Node13&#45;&gt;Node15</title>
<path fill="none" stroke="midnightblue" d="M506.563,-232.092C530,-229.843 556.719,-227.28 580.263,-225.02"/>
<polygon fill="midnightblue" stroke="midnightblue" points="580.866,-228.479 590.486,-224.039 580.197,-221.511 580.866,-228.479"/>
</g>
<!-- Node16 -->
<g id="node16" class="node"><title>Node16</title>
<g id="a_node16"><a xlink:href="classundulator.html#ac2a1d4ec90aa751762c3e8cb6b99e439" target="_top" xlink:title="integration steps per period ">
<polygon fill="white" stroke="black" points="591.5,-171.5 591.5,-190.5 696.5,-190.5 696.5,-171.5 591.5,-171.5"/>
<text text-anchor="middle" x="644" y="-178.5" font-family="Helvetica,sans-Serif" font-size="10.00">undulator::set_nstep</text>
</a>
</g>
</g>
<!-- Node13&#45;&gt;Node16 -->
<g id="edge15" class="edge"><title>Node13&#45;&gt;Node16</title>
<path fill="none" stroke="midnightblue" d="M496.532,-228.402C507.09,-225.826 518.022,-222.703 528,-219 544.962,-212.706 547.073,-206.387 564,-200 570.714,-197.466 577.88,-195.189 585.053,-193.167"/>
<polygon fill="midnightblue" stroke="midnightblue" points="586.036,-196.527 594.796,-190.567 584.231,-189.764 586.036,-196.527"/>
</g>
<!-- Node17 -->
<g id="node17" class="node"><title>Node17</title>
<g id="a_node17"><a xlink:href="classundulator.html#ab7da54eee638d6b1fbe9fba7abf68310" target="_top" xlink:title="total period number ">
<polygon fill="white" stroke="black" points="594,-133.5 594,-152.5 694,-152.5 694,-133.5 594,-133.5"/>
<text text-anchor="middle" x="644" y="-140.5" font-family="Helvetica,sans-Serif" font-size="10.00">undulator::set_num</text>
</a>
</g>
</g>
<!-- Node13&#45;&gt;Node17 -->
<g id="edge16" class="edge"><title>Node13&#45;&gt;Node17</title>
<path fill="none" stroke="midnightblue" d="M506.74,-229.648C514.303,-226.996 521.607,-223.528 528,-219 552.451,-201.682 539.644,-179.452 564,-162 569.991,-157.707 576.828,-154.375 583.915,-151.79"/>
<polygon fill="midnightblue" stroke="midnightblue" points="585.196,-155.056 593.679,-148.709 583.089,-148.381 585.196,-155.056"/>
</g>
<!-- Node19 -->
<g id="node19" class="node"><title>Node19</title>
<g id="a_node19"><a xlink:href="class_f_e_lradiation.html#a05d0489861b497819884e81019c546ca" target="_top" xlink:title="central wavelength, [m] ">
<polygon fill="white" stroke="black" points="571,-95.5 571,-114.5 717,-114.5 717,-95.5 571,-95.5"/>
<text text-anchor="middle" x="644" y="-102.5" font-family="Helvetica,sans-Serif" font-size="10.00">FELradiation::set_wavelength</text>
</a>
</g>
</g>
<!-- Node18&#45;&gt;Node19 -->
<g id="edge18" class="edge"><title>Node18&#45;&gt;Node19</title>
<path fill="none" stroke="midnightblue" d="M510.145,-190.391C516.487,-187.925 522.572,-184.845 528,-181 552.451,-163.682 539.644,-141.452 564,-124 566.695,-122.069 569.56,-120.333 572.543,-118.771"/>
<polygon fill="midnightblue" stroke="midnightblue" points="574.116,-121.901 581.787,-114.592 571.233,-115.522 574.116,-121.901"/>
</g>
<!-- Node21 -->
<g id="node21" class="node"><title>Node21</title>
<g id="a_node21"><a xlink:href="methods_8cpp.html#a2096e6ed7535e8e7125cfb93687b8891" target="_top" xlink:title="return the abs of average of a exp(double) array, i.e. &lt;exp(&#45;1i*h*psi)&gt; ">
<polygon fill="white" stroke="black" points="415.5,-152.5 415.5,-171.5 472.5,-171.5 472.5,-152.5 415.5,-152.5"/>
<text text-anchor="middle" x="444" y="-159.5" font-family="Helvetica,sans-Serif" font-size="10.00">normrand</text>
</a>
</g>
</g>
<!-- Node20&#45;&gt;Node21 -->
<g id="edge20" class="edge"><title>Node20&#45;&gt;Node21</title>
<path fill="none" stroke="midnightblue" d="M324.037,-165.499C352.162,-164.672 382.058,-163.792 404.844,-163.122"/>
<polygon fill="midnightblue" stroke="midnightblue" points="405.207,-166.613 415.1,-162.821 405.001,-159.616 405.207,-166.613"/>
</g>
<!-- Node24 -->
<g id="node24" class="node"><title>Node24</title>
<g id="a_node24"><a xlink:href="methods_8cpp.html#ab666508c8a9676400c002d7f74ad7f8d" target="_top" xlink:title="METHODS_H_. ">
<polygon fill="white" stroke="black" points="413,-114.5 413,-133.5 475,-133.5 475,-114.5 413,-114.5"/>
<text text-anchor="middle" x="444" y="-121.5" font-family="Helvetica,sans-Serif" font-size="10.00">meanexph</text>
</a>
</g>
</g>
<!-- Node23&#45;&gt;Node24 -->
<g id="edge23" class="edge"><title>Node23&#45;&gt;Node24</title>
<path fill="none" stroke="midnightblue" d="M316.124,-100.366C345.643,-105.865 378.123,-111.915 402.83,-116.517"/>
<polygon fill="midnightblue" stroke="midnightblue" points="402.439,-120.005 412.911,-118.395 403.721,-113.123 402.439,-120.005"/>
</g>
<!-- Node25 -->
<g id="node25" class="node"><title>Node25</title>
<g id="a_node25"><a xlink:href="class_f_e_l_numerical.html#a98b323d8cec0f07d129408b4aff1ae5d" target="_top" xlink:title="dump numerical simulation results ">
<polygon fill="white" stroke="black" points="389.5,-76.5 389.5,-95.5 498.5,-95.5 498.5,-76.5 389.5,-76.5"/>
<text text-anchor="middle" x="444" y="-83.5" font-family="Helvetica,sans-Serif" font-size="10.00">FELNumerical::odef3</text>
</a>
</g>
</g>
<!-- Node23&#45;&gt;Node25 -->
<g id="edge24" class="edge"><title>Node23&#45;&gt;Node25</title>
<path fill="none" stroke="midnightblue" d="M316.124,-86C336.877,-86 359.094,-86 379.045,-86"/>
<polygon fill="midnightblue" stroke="midnightblue" points="379.251,-89.5001 389.251,-86 379.251,-82.5001 379.251,-89.5001"/>
</g>
<!-- Node26 -->
<g id="node26" class="node"><title>Node26</title>
<g id="a_node26"><a xlink:href="class_f_e_l_numerical.html#a7c1664a08d8c091b8399a6cf040abdc3" target="_top" xlink:title="FELNumerical::odef1">
<polygon fill="white" stroke="black" points="389.5,-38.5 389.5,-57.5 498.5,-57.5 498.5,-38.5 389.5,-38.5"/>
<text text-anchor="middle" x="444" y="-45.5" font-family="Helvetica,sans-Serif" font-size="10.00">FELNumerical::odef1</text>
</a>
</g>
</g>
<!-- Node23&#45;&gt;Node26 -->
<g id="edge25" class="edge"><title>Node23&#45;&gt;Node26</title>
<path fill="none" stroke="midnightblue" d="M316.124,-71.6338C337.844,-67.588 361.166,-63.2436 381.816,-59.397"/>
<polygon fill="midnightblue" stroke="midnightblue" points="382.53,-62.8244 391.72,-57.5522 381.248,-55.9427 382.53,-62.8244"/>
</g>
<!-- Node27 -->
<g id="node27" class="node"><title>Node27</title>
<g id="a_node27"><a xlink:href="class_f_e_l_numerical.html#a50847862c4edf2851f4422eb3ff68dca" target="_top" xlink:title="FELNumerical::odef2">
<polygon fill="white" stroke="black" points="389.5,-0.5 389.5,-19.5 498.5,-19.5 498.5,-0.5 389.5,-0.5"/>
<text text-anchor="middle" x="444" y="-7.5" font-family="Helvetica,sans-Serif" font-size="10.00">FELNumerical::odef2</text>
</a>
</g>
</g>
<!-- Node23&#45;&gt;Node27 -->
<g id="edge26" class="edge"><title>Node23&#45;&gt;Node27</title>
<path fill="none" stroke="midnightblue" d="M302.026,-70.9004C309.639,-68.0855 317.14,-64.8046 324,-61 342.721,-50.6178 340.971,-38.8064 360,-29 366.092,-25.8607 372.699,-23.2353 379.435,-21.0407"/>
<polygon fill="midnightblue" stroke="midnightblue" points="380.746,-24.3034 389.352,-18.1238 378.771,-17.5879 380.746,-24.3034"/>
</g>
</g>
</svg>
