<?xml version="1.0" encoding="UTF-8" standalone="no"?>
<!DOCTYPE svg PUBLIC "-//W3C//DTD SVG 1.1//EN"
 "http://www.w3.org/Graphics/SVG/1.1/DTD/svg11.dtd">
<!-- Generated by graphviz version 2.36.0 (20140111.2315)
 -->
<!-- Title: scanpanel::set_undulator Pages: 1 -->
<svg width="278pt" height="142pt"
 viewBox="0.00 0.00 278.00 142.00" xmlns="http://www.w3.org/2000/svg" xmlns:xlink="http://www.w3.org/1999/xlink">
<g id="graph0" class="graph" transform="scale(1 1) rotate(0) translate(4 138)">
<title>scanpanel::set_undulator</title>
<polygon fill="white" stroke="none" points="-4,4 -4,-138 274,-138 274,4 -4,4"/>
<!-- Node1 -->
<g id="node1" class="node"><title>Node1</title>
<polygon fill="#bfbfbf" stroke="black" points="0.5,-57.5 0.5,-76.5 125.5,-76.5 125.5,-57.5 0.5,-57.5"/>
<text text-anchor="middle" x="63" y="-64.5" font-family="Helvetica,sans-Serif" font-size="10.00">scanpanel::set_undulator</text>
</g>
<!-- Node2 -->
<g id="node2" class="node"><title>Node2</title>
<g id="a_node2"><a xlink:href="classundulator.html#a7a27a3ad42f9d826929d68e04105c7f1" target="_top" xlink:title="peak magnetic field, [T] ">
<polygon fill="white" stroke="black" points="166.5,-114.5 166.5,-133.5 265.5,-133.5 265.5,-114.5 166.5,-114.5"/>
<text text-anchor="middle" x="216" y="-121.5" font-family="Helvetica,sans-Serif" font-size="10.00">undulator::set_field</text>
</a>
</g>
</g>
<!-- Node1&#45;&gt;Node2 -->
<g id="edge1" class="edge"><title>Node1&#45;&gt;Node2</title>
<path fill="none" stroke="midnightblue" d="M88.0984,-76.5429C107.895,-84.3346 136.696,-95.5603 162,-105 167.266,-106.964 172.84,-109.005 178.319,-110.988"/>
<polygon fill="midnightblue" stroke="midnightblue" points="177.394,-114.375 187.989,-114.468 179.764,-107.789 177.394,-114.375"/>
</g>
<!-- Node3 -->
<g id="node3" class="node"><title>Node3</title>
<g id="a_node3"><a xlink:href="classundulator.html#a9e87429b74fd3e518da8b64ba7f5dc3e" target="_top" xlink:title="period length, [m] ">
<polygon fill="white" stroke="black" points="162.5,-76.5 162.5,-95.5 269.5,-95.5 269.5,-76.5 162.5,-76.5"/>
<text text-anchor="middle" x="216" y="-83.5" font-family="Helvetica,sans-Serif" font-size="10.00">undulator::set_period</text>
</a>
</g>
</g>
<!-- Node1&#45;&gt;Node3 -->
<g id="edge2" class="edge"><title>Node1&#45;&gt;Node3</title>
<path fill="none" stroke="midnightblue" d="M125.853,-74.7828C134.517,-75.873 143.429,-76.9944 152.112,-78.0869"/>
<polygon fill="midnightblue" stroke="midnightblue" points="151.812,-81.5767 162.171,-79.3526 152.686,-74.6315 151.812,-81.5767"/>
</g>
<!-- Node4 -->
<g id="node4" class="node"><title>Node4</title>
<g id="a_node4"><a xlink:href="classundulator.html#ac2a1d4ec90aa751762c3e8cb6b99e439" target="_top" xlink:title="integration steps per period ">
<polygon fill="white" stroke="black" points="163.5,-38.5 163.5,-57.5 268.5,-57.5 268.5,-38.5 163.5,-38.5"/>
<text text-anchor="middle" x="216" y="-45.5" font-family="Helvetica,sans-Serif" font-size="10.00">undulator::set_nstep</text>
</a>
</g>
</g>
<!-- Node1&#45;&gt;Node4 -->
<g id="edge3" class="edge"><title>Node1&#45;&gt;Node4</title>
<path fill="none" stroke="midnightblue" d="M125.853,-59.2172C134.848,-58.0854 144.11,-56.9199 153.106,-55.788"/>
<polygon fill="midnightblue" stroke="midnightblue" points="153.635,-59.2491 163.12,-54.5279 152.761,-52.3038 153.635,-59.2491"/>
</g>
<!-- Node5 -->
<g id="node5" class="node"><title>Node5</title>
<g id="a_node5"><a xlink:href="classundulator.html#ab7da54eee638d6b1fbe9fba7abf68310" target="_top" xlink:title="total period number ">
<polygon fill="white" stroke="black" points="166,-0.5 166,-19.5 266,-19.5 266,-0.5 166,-0.5"/>
<text text-anchor="middle" x="216" y="-7.5" font-family="Helvetica,sans-Serif" font-size="10.00">undulator::set_num</text>
</a>
</g>
</g>
<!-- Node1&#45;&gt;Node5 -->
<g id="edge4" class="edge"><title>Node1&#45;&gt;Node5</title>
<path fill="none" stroke="midnightblue" d="M88.0984,-57.4571C107.895,-49.6654 136.696,-38.4397 162,-29 167.266,-27.0355 172.84,-24.995 178.319,-23.0116"/>
<polygon fill="midnightblue" stroke="midnightblue" points="179.764,-26.2112 187.989,-19.5322 177.394,-19.6246 179.764,-26.2112"/>
</g>
</g>
</svg>
