<?xml version="1.0" encoding="UTF-8" standalone="no"?>
<!DOCTYPE svg PUBLIC "-//W3C//DTD SVG 1.1//EN"
 "http://www.w3.org/Graphics/SVG/1.1/DTD/svg11.dtd">
<!-- Generated by graphviz version 2.36.0 (20140111.2315)
 -->
<!-- Title: FELNumerical::FELNumerical Pages: 1 -->
<svg width="352pt" height="507pt"
 viewBox="0.00 0.00 352.00 507.00" xmlns="http://www.w3.org/2000/svg" xmlns:xlink="http://www.w3.org/1999/xlink">
<g id="graph0" class="graph" transform="scale(1 1) rotate(0) translate(4 503)">
<title>FELNumerical::FELNumerical</title>
<polygon fill="white" stroke="none" points="-4,4 -4,-503 348,-503 348,4 -4,4"/>
<!-- Node1 -->
<g id="node1" class="node"><title>Node1</title>
<polygon fill="#bfbfbf" stroke="black" points="0.5,-228.5 0.5,-247.5 147.5,-247.5 147.5,-228.5 0.5,-228.5"/>
<text text-anchor="middle" x="74" y="-235.5" font-family="Helvetica,sans-Serif" font-size="10.00">FELNumerical::FELNumerical</text>
</g>
<!-- Node2 -->
<g id="node2" class="node"><title>Node2</title>
<g id="a_node2"><a xlink:href="classseedfield.html#a526e43c433b5bdeb828842da735ae462" target="_top" xlink:title="seedfield::get_Ex">
<polygon fill="white" stroke="black" points="218,-479.5 218,-498.5 310,-498.5 310,-479.5 218,-479.5"/>
<text text-anchor="middle" x="264" y="-486.5" font-family="Helvetica,sans-Serif" font-size="10.00">seedfield::get_Ex</text>
</a>
</g>
</g>
<!-- Node1&#45;&gt;Node2 -->
<g id="edge1" class="edge"><title>Node1&#45;&gt;Node2</title>
<path fill="none" stroke="midnightblue" d="M76.521,-247.767C82.6318,-283.568 108.797,-408.712 184,-470 190.912,-475.633 199.227,-479.643 207.831,-482.487"/>
<polygon fill="midnightblue" stroke="midnightblue" points="207.035,-485.899 217.609,-485.228 208.924,-479.159 207.035,-485.899"/>
</g>
<!-- Node3 -->
<g id="node3" class="node"><title>Node3</title>
<g id="a_node3"><a xlink:href="classseedfield.html#a104f721e6ec9337f4727b36e313a44ec" target="_top" xlink:title="seedfield::get_Ey">
<polygon fill="white" stroke="black" points="218,-441.5 218,-460.5 310,-460.5 310,-441.5 218,-441.5"/>
<text text-anchor="middle" x="264" y="-448.5" font-family="Helvetica,sans-Serif" font-size="10.00">seedfield::get_Ey</text>
</a>
</g>
</g>
<!-- Node1&#45;&gt;Node3 -->
<g id="edge2" class="edge"><title>Node1&#45;&gt;Node3</title>
<path fill="none" stroke="midnightblue" d="M77.5546,-247.843C86.3586,-279.731 118.558,-381.011 184,-431 191.107,-436.429 199.521,-440.396 208.163,-443.292"/>
<polygon fill="midnightblue" stroke="midnightblue" points="207.38,-446.71 217.959,-446.128 209.327,-439.986 207.38,-446.71"/>
</g>
<!-- Node4 -->
<g id="node4" class="node"><title>Node4</title>
<g id="a_node4"><a xlink:href="classelectron_beam.html#afe29e0f5432af0a901d1040750d9e30a" target="_top" xlink:title="electronBeam::get_central\lEnergy">
<polygon fill="white" stroke="black" points="198.5,-392 198.5,-422 329.5,-422 329.5,-392 198.5,-392"/>
<text text-anchor="start" x="206.5" y="-410" font-family="Helvetica,sans-Serif" font-size="10.00">electronBeam::get_central</text>
<text text-anchor="middle" x="264" y="-399" font-family="Helvetica,sans-Serif" font-size="10.00">Energy</text>
</a>
</g>
</g>
<!-- Node1&#45;&gt;Node4 -->
<g id="edge3" class="edge"><title>Node1&#45;&gt;Node4</title>
<path fill="none" stroke="midnightblue" d="M79.6236,-247.693C92.435,-273.521 130.976,-344.57 184,-382 186.703,-383.908 189.558,-385.675 192.516,-387.311"/>
<polygon fill="midnightblue" stroke="midnightblue" points="191.135,-390.533 201.649,-391.835 194.242,-384.26 191.135,-390.533"/>
</g>
<!-- Node5 -->
<g id="node5" class="node"><title>Node5</title>
<g id="a_node5"><a xlink:href="classelectron_beam.html#a9bd9fc55effd4ed222652cfd9e9123c1" target="_top" xlink:title="electronBeam::get_energy\lSpread">
<polygon fill="white" stroke="black" points="198.5,-343 198.5,-373 329.5,-373 329.5,-343 198.5,-343"/>
<text text-anchor="start" x="206.5" y="-361" font-family="Helvetica,sans-Serif" font-size="10.00">electronBeam::get_energy</text>
<text text-anchor="middle" x="264" y="-350" font-family="Helvetica,sans-Serif" font-size="10.00">Spread</text>
</a>
</g>
</g>
<!-- Node1&#45;&gt;Node5 -->
<g id="edge4" class="edge"><title>Node1&#45;&gt;Node5</title>
<path fill="none" stroke="midnightblue" d="M83.3472,-247.529C100.417,-266.457 141.32,-309.032 184,-333 187.916,-335.199 192.051,-337.233 196.295,-339.111"/>
<polygon fill="midnightblue" stroke="midnightblue" points="195.134,-342.417 205.714,-342.973 197.789,-335.941 195.134,-342.417"/>
</g>
<!-- Node6 -->
<g id="node6" class="node"><title>Node6</title>
<g id="a_node6"><a xlink:href="classelectron_beam.html#a1ea62fb4f103eece7f7f0226a18a6d33" target="_top" xlink:title="electronBeam::get_emitnx">
<polygon fill="white" stroke="black" points="198.5,-304.5 198.5,-323.5 329.5,-323.5 329.5,-304.5 198.5,-304.5"/>
<text text-anchor="middle" x="264" y="-311.5" font-family="Helvetica,sans-Serif" font-size="10.00">electronBeam::get_emitnx</text>
</a>
</g>
</g>
<!-- Node1&#45;&gt;Node6 -->
<g id="edge5" class="edge"><title>Node1&#45;&gt;Node6</title>
<path fill="none" stroke="midnightblue" d="M90.3228,-247.566C110.922,-260.057 149.01,-281.873 184,-295 190.719,-297.521 197.888,-299.79 205.062,-301.808"/>
<polygon fill="midnightblue" stroke="midnightblue" points="204.242,-305.212 214.806,-304.405 206.045,-298.448 204.242,-305.212"/>
</g>
<!-- Node7 -->
<g id="node7" class="node"><title>Node7</title>
<g id="a_node7"><a xlink:href="classelectron_beam.html#aae0c806c3fc1fcd56296a7e3d11cb0e1" target="_top" xlink:title="electronBeam::get_avgBetaFunc">
<polygon fill="white" stroke="black" points="184.5,-266.5 184.5,-285.5 343.5,-285.5 343.5,-266.5 184.5,-266.5"/>
<text text-anchor="middle" x="264" y="-273.5" font-family="Helvetica,sans-Serif" font-size="10.00">electronBeam::get_avgBetaFunc</text>
</a>
</g>
</g>
<!-- Node1&#45;&gt;Node7 -->
<g id="edge6" class="edge"><title>Node1&#45;&gt;Node7</title>
<path fill="none" stroke="midnightblue" d="M122.44,-247.589C147.808,-252.716 179.227,-259.067 205.923,-264.463"/>
<polygon fill="midnightblue" stroke="midnightblue" points="205.406,-267.929 215.901,-266.48 206.792,-261.068 205.406,-267.929"/>
</g>
<!-- Node8 -->
<g id="node8" class="node"><title>Node8</title>
<g id="a_node8"><a xlink:href="classundulator.html#a717066050ec371b8bb7704168cd118b6" target="_top" xlink:title="undulator::get_period">
<polygon fill="white" stroke="black" points="210.5,-228.5 210.5,-247.5 317.5,-247.5 317.5,-228.5 210.5,-228.5"/>
<text text-anchor="middle" x="264" y="-235.5" font-family="Helvetica,sans-Serif" font-size="10.00">undulator::get_period</text>
</a>
</g>
</g>
<!-- Node1&#45;&gt;Node8 -->
<g id="edge7" class="edge"><title>Node1&#45;&gt;Node8</title>
<path fill="none" stroke="midnightblue" d="M147.686,-238C164.97,-238 183.27,-238 200.076,-238"/>
<polygon fill="midnightblue" stroke="midnightblue" points="200.325,-241.5 210.325,-238 200.325,-234.5 200.325,-241.5"/>
</g>
<!-- Node9 -->
<g id="node9" class="node"><title>Node9</title>
<g id="a_node9"><a xlink:href="classundulator.html#a9cdaa82744819744efb5eaa12ed28b92" target="_top" xlink:title="undulator::get_field">
<polygon fill="white" stroke="black" points="214.5,-190.5 214.5,-209.5 313.5,-209.5 313.5,-190.5 214.5,-190.5"/>
<text text-anchor="middle" x="264" y="-197.5" font-family="Helvetica,sans-Serif" font-size="10.00">undulator::get_field</text>
</a>
</g>
</g>
<!-- Node1&#45;&gt;Node9 -->
<g id="edge8" class="edge"><title>Node1&#45;&gt;Node9</title>
<path fill="none" stroke="midnightblue" d="M122.44,-228.411C147.808,-223.284 179.227,-216.933 205.923,-211.537"/>
<polygon fill="midnightblue" stroke="midnightblue" points="206.792,-214.932 215.901,-209.52 205.406,-208.071 206.792,-214.932"/>
</g>
<!-- Node10 -->
<g id="node10" class="node"><title>Node10</title>
<g id="a_node10"><a xlink:href="classundulator.html#a1286211155e889bf88c26ee76bd4455f" target="_top" xlink:title="undulator::get_nstep">
<polygon fill="white" stroke="black" points="211.5,-152.5 211.5,-171.5 316.5,-171.5 316.5,-152.5 211.5,-152.5"/>
<text text-anchor="middle" x="264" y="-159.5" font-family="Helvetica,sans-Serif" font-size="10.00">undulator::get_nstep</text>
</a>
</g>
</g>
<!-- Node1&#45;&gt;Node10 -->
<g id="edge9" class="edge"><title>Node1&#45;&gt;Node10</title>
<path fill="none" stroke="midnightblue" d="M90.3228,-228.434C110.922,-215.943 149.01,-194.127 184,-181 190.719,-178.479 197.888,-176.21 205.062,-174.192"/>
<polygon fill="midnightblue" stroke="midnightblue" points="206.045,-177.552 214.806,-171.595 204.242,-170.788 206.045,-177.552"/>
</g>
<!-- Node11 -->
<g id="node11" class="node"><title>Node11</title>
<g id="a_node11"><a xlink:href="classundulator.html#aaa0c6986ca659e596400dcd41f5c871f" target="_top" xlink:title="undulator::get_num">
<polygon fill="white" stroke="black" points="214,-114.5 214,-133.5 314,-133.5 314,-114.5 214,-114.5"/>
<text text-anchor="middle" x="264" y="-121.5" font-family="Helvetica,sans-Serif" font-size="10.00">undulator::get_num</text>
</a>
</g>
</g>
<!-- Node1&#45;&gt;Node11 -->
<g id="edge10" class="edge"><title>Node1&#45;&gt;Node11</title>
<path fill="none" stroke="midnightblue" d="M83.2079,-228.213C100.027,-208.819 140.502,-165.45 184,-143 190.148,-139.827 196.84,-137.172 203.642,-134.954"/>
<polygon fill="midnightblue" stroke="midnightblue" points="205.035,-138.192 213.636,-132.006 203.054,-131.478 205.035,-138.192"/>
</g>
<!-- Node12 -->
<g id="node12" class="node"><title>Node12</title>
<g id="a_node12"><a xlink:href="classelectron_beam.html#a7ece1e5a5fd4ca224a6b1104f14b3c8f" target="_top" xlink:title="electronBeam::get_peakCurrent">
<polygon fill="white" stroke="black" points="186.5,-76.5 186.5,-95.5 341.5,-95.5 341.5,-76.5 186.5,-76.5"/>
<text text-anchor="middle" x="264" y="-83.5" font-family="Helvetica,sans-Serif" font-size="10.00">electronBeam::get_peakCurrent</text>
</a>
</g>
</g>
<!-- Node1&#45;&gt;Node12 -->
<g id="edge11" class="edge"><title>Node1&#45;&gt;Node12</title>
<path fill="none" stroke="midnightblue" d="M80.0811,-228.139C93.4454,-203.242 132.152,-137.516 184,-105 187.398,-102.869 191.017,-100.976 194.764,-99.2964"/>
<polygon fill="midnightblue" stroke="midnightblue" points="196.272,-102.464 204.293,-95.5423 193.706,-95.9515 196.272,-102.464"/>
</g>
<!-- Node13 -->
<g id="node13" class="node"><title>Node13</title>
<g id="a_node13"><a xlink:href="class_f_e_lradiation.html#a5be822c35edae96fc72449a6b8a34852" target="_top" xlink:title="FELradiation::get_wavelength">
<polygon fill="white" stroke="black" points="191,-38.5 191,-57.5 337,-57.5 337,-38.5 191,-38.5"/>
<text text-anchor="middle" x="264" y="-45.5" font-family="Helvetica,sans-Serif" font-size="10.00">FELradiation::get_wavelength</text>
</a>
</g>
</g>
<!-- Node1&#45;&gt;Node13 -->
<g id="edge12" class="edge"><title>Node1&#45;&gt;Node13</title>
<path fill="none" stroke="midnightblue" d="M78.1684,-228.423C88.3627,-199.17 123.241,-110.346 184,-67 186.699,-65.0748 189.568,-63.3429 192.553,-61.7851"/>
<polygon fill="midnightblue" stroke="midnightblue" points="194.125,-64.9155 201.803,-57.6147 191.248,-58.5341 194.125,-64.9155"/>
</g>
<!-- Node14 -->
<g id="node14" class="node"><title>Node14</title>
<g id="a_node14"><a xlink:href="classcontrolpanel.html#a9dd767a92ae72829a03eaf39129deca1" target="_top" xlink:title="controlpanel::get_npart">
<polygon fill="white" stroke="black" points="206,-0.5 206,-19.5 322,-19.5 322,-0.5 206,-0.5"/>
<text text-anchor="middle" x="264" y="-7.5" font-family="Helvetica,sans-Serif" font-size="10.00">controlpanel::get_npart</text>
</a>
</g>
</g>
<!-- Node1&#45;&gt;Node14 -->
<g id="edge13" class="edge"><title>Node1&#45;&gt;Node14</title>
<path fill="none" stroke="midnightblue" d="M77.0494,-228.272C84.6312,-194.793 114.335,-83.4081 184,-29 187.829,-26.0099 192.057,-23.4804 196.508,-21.3417"/>
<polygon fill="midnightblue" stroke="midnightblue" points="197.983,-24.5194 205.9,-17.4784 195.32,-18.0457 197.983,-24.5194"/>
</g>
</g>
</svg>
