<?xml version="1.0" encoding="UTF-8" standalone="no"?>
<!DOCTYPE svg PUBLIC "-//W3C//DTD SVG 1.1//EN"
 "http://www.w3.org/Graphics/SVG/1.1/DTD/svg11.dtd">
<!-- Generated by graphviz version 2.36.0 (20140111.2315)
 -->
<!-- Title: controlpanel Pages: 1 -->
<svg width="102pt" height="216pt"
 viewBox="0.00 0.00 102.00 216.00" xmlns="http://www.w3.org/2000/svg" xmlns:xlink="http://www.w3.org/1999/xlink">
<g id="graph0" class="graph" transform="scale(1 1) rotate(0) translate(4 212)">
<title>controlpanel</title>
<polygon fill="white" stroke="none" points="-4,4 -4,-212 98,-212 98,4 -4,4"/>
<!-- Node1 -->
<g id="node1" class="node"><title>Node1</title>
<polygon fill="#bfbfbf" stroke="black" points="5,-0.5 5,-101.5 89,-101.5 89,-0.5 5,-0.5"/>
<text text-anchor="middle" x="47" y="-89.5" font-family="Helvetica,sans-Serif" font-size="10.00">controlpanel</text>
<polyline fill="none" stroke="black" points="5,-82.5 89,-82.5 "/>
<text text-anchor="middle" x="47" y="-70.5" font-family="Helvetica,sans-Serif" font-size="10.00"> </text>
<polyline fill="none" stroke="black" points="5,-63.5 89,-63.5 "/>
<text text-anchor="start" x="13" y="-51.5" font-family="Helvetica,sans-Serif" font-size="10.00">+ controlpanel()</text>
<text text-anchor="start" x="13" y="-40.5" font-family="Helvetica,sans-Serif" font-size="10.00">+ controlpanel()</text>
<text text-anchor="start" x="13" y="-29.5" font-family="Helvetica,sans-Serif" font-size="10.00">+ set_npart()</text>
<text text-anchor="start" x="13" y="-18.5" font-family="Helvetica,sans-Serif" font-size="10.00">+ get_npart()</text>
<text text-anchor="start" x="13" y="-7.5" font-family="Helvetica,sans-Serif" font-size="10.00">+ info()</text>
</g>
<!-- Node2 -->
<g id="node2" class="node"><title>Node2</title>
<g id="a_node2"><a xlink:href="classdefault_params.html" target="_top" xlink:title="CONSTANTS_H_. ">
<polygon fill="white" stroke="black" points="-0.5,-139 -0.5,-207 94.5,-207 94.5,-139 -0.5,-139"/>
<text text-anchor="middle" x="47" y="-195" font-family="Helvetica,sans-Serif" font-size="10.00">defaultParams</text>
<polyline fill="none" stroke="black" points="-0.5,-188 94.5,-188 "/>
<text text-anchor="start" x="7.5" y="-176" font-family="Helvetica,sans-Serif" font-size="10.00"># dparams</text>
<text text-anchor="start" x="7.5" y="-165" font-family="Helvetica,sans-Serif" font-size="10.00"># oparams</text>
<polyline fill="none" stroke="black" points="-0.5,-158 94.5,-158 "/>
<text text-anchor="start" x="7.5" y="-146" font-family="Helvetica,sans-Serif" font-size="10.00">+ defaultParams()</text>
</a>
</g>
</g>
<!-- Node2&#45;&gt;Node1 -->
<g id="edge1" class="edge"><title>Node2&#45;&gt;Node1</title>
<path fill="none" stroke="midnightblue" d="M47,-128.831C47,-120.01 47,-110.661 47,-101.636"/>
<polygon fill="none" stroke="midnightblue" points="43.5001,-128.892 47,-138.892 50.5001,-128.892 43.5001,-128.892"/>
</g>
</g>
</svg>
