<?xml version="1.0" encoding="UTF-8" standalone="no"?>
<!DOCTYPE svg PUBLIC "-//W3C//DTD SVG 1.1//EN"
 "http://www.w3.org/Graphics/SVG/1.1/DTD/svg11.dtd">
<!-- Generated by graphviz version 2.36.0 (20140111.2315)
 -->
<!-- Title: scanpanel Pages: 1 -->
<svg width="291pt" height="522pt"
 viewBox="0.00 0.00 291.00 522.00" xmlns="http://www.w3.org/2000/svg" xmlns:xlink="http://www.w3.org/1999/xlink">
<g id="graph0" class="graph" transform="scale(1 1) rotate(0) translate(4 518)">
<title>scanpanel</title>
<polygon fill="white" stroke="none" points="-4,4 -4,-518 287,-518 287,4 -4,4"/>
<!-- Node1 -->
<g id="node1" class="node"><title>Node1</title>
<polygon fill="#bfbfbf" stroke="black" points="79.5,-1 79.5,-201 210.5,-201 210.5,-1 79.5,-1"/>
<text text-anchor="middle" x="145" y="-189" font-family="Helvetica,sans-Serif" font-size="10.00">scanpanel</text>
<polyline fill="none" stroke="black" points="79.5,-182 210.5,-182 "/>
<text text-anchor="middle" x="145" y="-170" font-family="Helvetica,sans-Serif" font-size="10.00"> </text>
<polyline fill="none" stroke="black" points="79.5,-163 210.5,-163 "/>
<text text-anchor="start" x="87.5" y="-151" font-family="Helvetica,sans-Serif" font-size="10.00">+ scanpanel()</text>
<text text-anchor="start" x="87.5" y="-140" font-family="Helvetica,sans-Serif" font-size="10.00">+ scanpanel()</text>
<text text-anchor="start" x="87.5" y="-129" font-family="Helvetica,sans-Serif" font-size="10.00">+ ~scanpanel()</text>
<text text-anchor="start" x="87.5" y="-118" font-family="Helvetica,sans-Serif" font-size="10.00">+ checkScanParamIsOK()</text>
<text text-anchor="start" x="87.5" y="-107" font-family="Helvetica,sans-Serif" font-size="10.00">+ checkScanSetupIsOK()</text>
<text text-anchor="start" x="87.5" y="-96" font-family="Helvetica,sans-Serif" font-size="10.00">+ updateVarlist()</text>
<text text-anchor="start" x="87.5" y="-85" font-family="Helvetica,sans-Serif" font-size="10.00">+ set_electronBeam()</text>
<text text-anchor="start" x="87.5" y="-74" font-family="Helvetica,sans-Serif" font-size="10.00">+ set_seedfield()</text>
<text text-anchor="start" x="87.5" y="-63" font-family="Helvetica,sans-Serif" font-size="10.00">+ set_undulator()</text>
<text text-anchor="start" x="87.5" y="-52" font-family="Helvetica,sans-Serif" font-size="10.00">+ set_FELradiation()</text>
<text text-anchor="start" x="87.5" y="-41" font-family="Helvetica,sans-Serif" font-size="10.00">+ paramScan()</text>
<text text-anchor="start" x="87.5" y="-30" font-family="Helvetica,sans-Serif" font-size="10.00">+ dumpdata()</text>
<text text-anchor="start" x="87.5" y="-19" font-family="Helvetica,sans-Serif" font-size="10.00">+ info()</text>
<text text-anchor="start" x="87.5" y="-8" font-family="Helvetica,sans-Serif" font-size="10.00">+ get_scanflag()</text>
</g>
<!-- Node2 -->
<g id="node2" class="node"><title>Node2</title>
<g id="a_node2"><a xlink:href="classdefault_params.html" target="_top" xlink:title="CONSTANTS_H_. ">
<polygon fill="white" stroke="black" points="97.5,-240.5 97.5,-297.5 192.5,-297.5 192.5,-240.5 97.5,-240.5"/>
<text text-anchor="middle" x="145" y="-285.5" font-family="Helvetica,sans-Serif" font-size="10.00">defaultParams</text>
<polyline fill="none" stroke="black" points="97.5,-278.5 192.5,-278.5 "/>
<text text-anchor="middle" x="145" y="-266.5" font-family="Helvetica,sans-Serif" font-size="10.00"> </text>
<polyline fill="none" stroke="black" points="97.5,-259.5 192.5,-259.5 "/>
<text text-anchor="start" x="105.5" y="-247.5" font-family="Helvetica,sans-Serif" font-size="10.00">+ defaultParams()</text>
</a>
</g>
</g>
<!-- Node2&#45;&gt;Node1 -->
<g id="edge1" class="edge"><title>Node2&#45;&gt;Node1</title>
<path fill="none" stroke="midnightblue" d="M145,-229.962C145,-221.124 145,-211.313 145,-201.166"/>
<polygon fill="none" stroke="midnightblue" points="141.5,-230.215 145,-240.215 148.5,-230.215 141.5,-230.215"/>
</g>
<!-- Node3 -->
<g id="node3" class="node"><title>Node3</title>
<g id="a_node3"><a xlink:href="structdefault_params_1_1otherparams.html" target="_top" xlink:title="{defaultParams::otherparams\n|+ allowedScanParams\l+ allowedObjeParams\l|}">
<polygon fill="white" stroke="black" points="0,-396 0,-464 140,-464 140,-396 0,-396"/>
<text text-anchor="middle" x="70" y="-452" font-family="Helvetica,sans-Serif" font-size="10.00">defaultParams::otherparams</text>
<polyline fill="none" stroke="black" points="0,-445 140,-445 "/>
<text text-anchor="start" x="8" y="-433" font-family="Helvetica,sans-Serif" font-size="10.00">+ allowedScanParams</text>
<text text-anchor="start" x="8" y="-422" font-family="Helvetica,sans-Serif" font-size="10.00">+ allowedObjeParams</text>
<polyline fill="none" stroke="black" points="0,-415 140,-415 "/>
<text text-anchor="middle" x="70" y="-403" font-family="Helvetica,sans-Serif" font-size="10.00"> </text>
</a>
</g>
</g>
<!-- Node3&#45;&gt;Node2 -->
<g id="edge2" class="edge"><title>Node3&#45;&gt;Node2</title>
<path fill="none" stroke="#404040" d="M85.7225,-395.668C97.6584,-370.364 114.099,-335.51 126.639,-308.926"/>
<polygon fill="none" stroke="#404040" points="126.803,-308.578 125.745,-301.445 131.922,-297.725 132.98,-304.858 126.803,-308.578"/>
<text text-anchor="middle" x="146" y="-319.5" font-family="Helvetica,sans-Serif" font-size="10.00"> #oparams</text>
</g>
<!-- Node4 -->
<g id="node4" class="node"><title>Node4</title>
<g id="a_node4"><a xlink:href="structdefault_params_1_1paramlist.html" target="_top" xlink:title="&lt; paramlist: structure of default input parameters list ">
<polygon fill="white" stroke="black" points="158.5,-346.5 158.5,-513.5 283.5,-513.5 283.5,-346.5 158.5,-346.5"/>
<text text-anchor="middle" x="221" y="-501.5" font-family="Helvetica,sans-Serif" font-size="10.00">defaultParams::paramlist</text>
<polyline fill="none" stroke="black" points="158.5,-494.5 283.5,-494.5 "/>
<text text-anchor="start" x="166.5" y="-482.5" font-family="Helvetica,sans-Serif" font-size="10.00">+ seedEx</text>
<text text-anchor="start" x="166.5" y="-471.5" font-family="Helvetica,sans-Serif" font-size="10.00">+ seedEy</text>
<text text-anchor="start" x="166.5" y="-460.5" font-family="Helvetica,sans-Serif" font-size="10.00">+ undulatorField</text>
<text text-anchor="start" x="166.5" y="-449.5" font-family="Helvetica,sans-Serif" font-size="10.00">+ undulatorPeriod</text>
<text text-anchor="start" x="166.5" y="-438.5" font-family="Helvetica,sans-Serif" font-size="10.00">+ undulatorNstep</text>
<text text-anchor="start" x="166.5" y="-427.5" font-family="Helvetica,sans-Serif" font-size="10.00">+ undulatorNum</text>
<text text-anchor="start" x="166.5" y="-416.5" font-family="Helvetica,sans-Serif" font-size="10.00">+ electronAvgBetaFunc</text>
<text text-anchor="start" x="166.5" y="-405.5" font-family="Helvetica,sans-Serif" font-size="10.00">+ electronCentralEnergy</text>
<text text-anchor="start" x="166.5" y="-394.5" font-family="Helvetica,sans-Serif" font-size="10.00">+ electronEnergySpread</text>
<text text-anchor="start" x="166.5" y="-383.5" font-family="Helvetica,sans-Serif" font-size="10.00">+ electronEmitnx</text>
<text text-anchor="start" x="166.5" y="-372.5" font-family="Helvetica,sans-Serif" font-size="10.00">and 11 more...</text>
<polyline fill="none" stroke="black" points="158.5,-365.5 283.5,-365.5 "/>
<text text-anchor="middle" x="221" y="-353.5" font-family="Helvetica,sans-Serif" font-size="10.00"> </text>
</a>
</g>
</g>
<!-- Node4&#45;&gt;Node2 -->
<g id="edge3" class="edge"><title>Node4&#45;&gt;Node2</title>
<path fill="none" stroke="#404040" d="M187.506,-346.272C182.855,-335.973 177.964,-325.671 173,-316 171.703,-313.474 170.32,-310.899 168.889,-308.323"/>
<polygon fill="none" stroke="#404040" points="168.841,-308.24 162.376,-305.046 162.837,-297.85 169.302,-301.044 168.841,-308.24"/>
<text text-anchor="middle" x="202" y="-319.5" font-family="Helvetica,sans-Serif" font-size="10.00"> #dparams</text>
</g>
</g>
</svg>
