<?xml version="1.0" encoding="UTF-8" standalone="no"?>
<!DOCTYPE svg PUBLIC "-//W3C//DTD SVG 1.1//EN"
 "http://www.w3.org/Graphics/SVG/1.1/DTD/svg11.dtd">
<!-- Generated by graphviz version 2.36.0 (20140111.2315)
 -->
<!-- Title: electronBeam Pages: 1 -->
<!--zoomable 532 -->
<svg id="main" version="1.1" xmlns="http://www.w3.org/2000/svg" xmlns:xlink="http://www.w3.org/1999/xlink" xml:space="preserve" onload="init(evt)">
<style type="text/css"><![CDATA[
.edge:hover path { stroke: red; }
.edge:hover polygon { stroke: red; fill: red; }
]]></style>
<script type="text/javascript"><![CDATA[
var edges = document.getElementsByTagName('g');
if (edges && edges.length) {
  for (var i=0;i<edges.length;i++) {
    if (edges[i].id.substr(0,4)=='edge') {
      edges[i].setAttribute('class','edge');
    }
  }
}
]]></script>
        <defs>
                <circle id="rim" cx="0" cy="0" r="7"/>
                <circle id="rim2" cx="0" cy="0" r="3.5"/>
                <g id="zoomPlus">
                        <use xlink:href="#rim" fill="#404040">
                                <set attributeName="fill" to="#808080" begin="zoomplus.mouseover" end="zoomplus.mouseout"/>
                        </use>
                        <path d="M-4,0h8M0,-4v8" fill="none" stroke="white" stroke-width="1.5" pointer-events="none"/>
                </g>
                <g id="zoomMin">
                        <use xlink:href="#rim" fill="#404040">
                                <set attributeName="fill" to="#808080" begin="zoomminus.mouseover" end="zoomminus.mouseout"/>
                        </use>
                        <path d="M-4,0h8" fill="none" stroke="white" stroke-width="1.5" pointer-events="none"/>
                </g>
                <g id="dirArrow">
                        <path fill="none" stroke="white" stroke-width="1.5" d="M0,-3.0v7 M-2.5,-0.5L0,-3.0L2.5,-0.5"/>
                </g>
               <g id="resetDef">
                       <use xlink:href="#rim2" fill="#404040">
                               <set attributeName="fill" to="#808080" begin="reset.mouseover" end="reset.mouseout"/>
                       </use>
               </g>
        </defs>

<script type="text/javascript">
var viewWidth = 291;
var viewHeight = 532;
var sectionId = 'dynsection-1';
</script>
<script xlink:href="svgpan.js"/>
<svg id="graph" class="graph">
<g id="viewport">
<title>electronBeam</title>
<polygon fill="white" stroke="none" points="-4,4 -4,-528 287,-528 287,4 -4,4"/>
<!-- Node1 -->
<g id="node1" class="node"><title>Node1</title>
<polygon fill="#bfbfbf" stroke="black" points="90,-0.5 90,-211.5 200,-211.5 200,-0.5 90,-0.5"/>
<text text-anchor="middle" x="145" y="-199.5" font-family="Helvetica,sans-Serif" font-size="10.00">electronBeam</text>
<polyline fill="none" stroke="black" points="90,-192.5 200,-192.5 "/>
<text text-anchor="middle" x="145" y="-180.5" font-family="Helvetica,sans-Serif" font-size="10.00"> </text>
<polyline fill="none" stroke="black" points="90,-173.5 200,-173.5 "/>
<text text-anchor="start" x="98" y="-161.5" font-family="Helvetica,sans-Serif" font-size="10.00">+ electronBeam()</text>
<text text-anchor="start" x="98" y="-150.5" font-family="Helvetica,sans-Serif" font-size="10.00">+ electronBeam()</text>
<text text-anchor="start" x="98" y="-139.5" font-family="Helvetica,sans-Serif" font-size="10.00">+ set_centralEnergy()</text>
<text text-anchor="start" x="98" y="-128.5" font-family="Helvetica,sans-Serif" font-size="10.00">+ set_energySpread()</text>
<text text-anchor="start" x="98" y="-117.5" font-family="Helvetica,sans-Serif" font-size="10.00">+ set_emitnx()</text>
<text text-anchor="start" x="98" y="-106.5" font-family="Helvetica,sans-Serif" font-size="10.00">+ set_emitny()</text>
<text text-anchor="start" x="98" y="-95.5" font-family="Helvetica,sans-Serif" font-size="10.00">+ set_peakCurrent()</text>
<text text-anchor="start" x="98" y="-84.5" font-family="Helvetica,sans-Serif" font-size="10.00">+ set_avgBetaFunc()</text>
<text text-anchor="start" x="98" y="-73.5" font-family="Helvetica,sans-Serif" font-size="10.00">+ get_centralEnergy()</text>
<text text-anchor="start" x="98" y="-62.5" font-family="Helvetica,sans-Serif" font-size="10.00">+ get_energySpread()</text>
<text text-anchor="start" x="98" y="-51.5" font-family="Helvetica,sans-Serif" font-size="10.00">+ get_emitnx()</text>
<text text-anchor="start" x="98" y="-40.5" font-family="Helvetica,sans-Serif" font-size="10.00">+ get_emitny()</text>
<text text-anchor="start" x="98" y="-29.5" font-family="Helvetica,sans-Serif" font-size="10.00">+ get_peakCurrent()</text>
<text text-anchor="start" x="98" y="-18.5" font-family="Helvetica,sans-Serif" font-size="10.00">+ get_avgBetaFunc()</text>
<text text-anchor="start" x="98" y="-7.5" font-family="Helvetica,sans-Serif" font-size="10.00">+ info()</text>
</g>
<!-- Node2 -->
<g id="node2" class="node"><title>Node2</title>
<g id="a_node2"><a xlink:href="classdefault_params.html" target="_top" xlink:title="CONSTANTS_H_. ">
<polygon fill="white" stroke="black" points="97.5,-250.5 97.5,-307.5 192.5,-307.5 192.5,-250.5 97.5,-250.5"/>
<text text-anchor="middle" x="145" y="-295.5" font-family="Helvetica,sans-Serif" font-size="10.00">defaultParams</text>
<polyline fill="none" stroke="black" points="97.5,-288.5 192.5,-288.5 "/>
<text text-anchor="middle" x="145" y="-276.5" font-family="Helvetica,sans-Serif" font-size="10.00"> </text>
<polyline fill="none" stroke="black" points="97.5,-269.5 192.5,-269.5 "/>
<text text-anchor="start" x="105.5" y="-257.5" font-family="Helvetica,sans-Serif" font-size="10.00">+ defaultParams()</text>
</a>
</g>
</g>
<!-- Node2&#45;&gt;Node1 -->
<g id="edge1" class="edge"><title>Node2&#45;&gt;Node1</title>
<path fill="none" stroke="midnightblue" d="M145,-240.07C145,-231.387 145,-221.744 145,-211.73"/>
<polygon fill="none" stroke="midnightblue" points="141.5,-240.145 145,-250.145 148.5,-240.145 141.5,-240.145"/>
</g>
<!-- Node3 -->
<g id="node3" class="node"><title>Node3</title>
<g id="a_node3"><a xlink:href="structdefault_params_1_1otherparams.html" target="_top" xlink:title="{defaultParams::otherparams\n|+ allowedScanParams\l+ allowedObjeParams\l|}">
<polygon fill="white" stroke="black" points="0,-406 0,-474 140,-474 140,-406 0,-406"/>
<text text-anchor="middle" x="70" y="-462" font-family="Helvetica,sans-Serif" font-size="10.00">defaultParams::otherparams</text>
<polyline fill="none" stroke="black" points="0,-455 140,-455 "/>
<text text-anchor="start" x="8" y="-443" font-family="Helvetica,sans-Serif" font-size="10.00">+ allowedScanParams</text>
<text text-anchor="start" x="8" y="-432" font-family="Helvetica,sans-Serif" font-size="10.00">+ allowedObjeParams</text>
<polyline fill="none" stroke="black" points="0,-425 140,-425 "/>
<text text-anchor="middle" x="70" y="-413" font-family="Helvetica,sans-Serif" font-size="10.00"> </text>
</a>
</g>
</g>
<!-- Node3&#45;&gt;Node2 -->
<g id="edge2" class="edge"><title>Node3&#45;&gt;Node2</title>
<path fill="none" stroke="#404040" d="M85.7225,-405.668C97.6584,-380.364 114.099,-345.51 126.639,-318.926"/>
<polygon fill="none" stroke="#404040" points="126.803,-318.578 125.745,-311.445 131.922,-307.725 132.98,-314.858 126.803,-318.578"/>
<text text-anchor="middle" x="146" y="-329.5" font-family="Helvetica,sans-Serif" font-size="10.00"> #oparams</text>
</g>
<!-- Node4 -->
<g id="node4" class="node"><title>Node4</title>
<g id="a_node4"><a xlink:href="structdefault_params_1_1paramlist.html" target="_top" xlink:title="&lt; paramlist: structure of default input parameters list ">
<polygon fill="white" stroke="black" points="158.5,-356.5 158.5,-523.5 283.5,-523.5 283.5,-356.5 158.5,-356.5"/>
<text text-anchor="middle" x="221" y="-511.5" font-family="Helvetica,sans-Serif" font-size="10.00">defaultParams::paramlist</text>
<polyline fill="none" stroke="black" points="158.5,-504.5 283.5,-504.5 "/>
<text text-anchor="start" x="166.5" y="-492.5" font-family="Helvetica,sans-Serif" font-size="10.00">+ seedEx</text>
<text text-anchor="start" x="166.5" y="-481.5" font-family="Helvetica,sans-Serif" font-size="10.00">+ seedEy</text>
<text text-anchor="start" x="166.5" y="-470.5" font-family="Helvetica,sans-Serif" font-size="10.00">+ undulatorField</text>
<text text-anchor="start" x="166.5" y="-459.5" font-family="Helvetica,sans-Serif" font-size="10.00">+ undulatorPeriod</text>
<text text-anchor="start" x="166.5" y="-448.5" font-family="Helvetica,sans-Serif" font-size="10.00">+ undulatorNstep</text>
<text text-anchor="start" x="166.5" y="-437.5" font-family="Helvetica,sans-Serif" font-size="10.00">+ undulatorNum</text>
<text text-anchor="start" x="166.5" y="-426.5" font-family="Helvetica,sans-Serif" font-size="10.00">+ electronAvgBetaFunc</text>
<text text-anchor="start" x="166.5" y="-415.5" font-family="Helvetica,sans-Serif" font-size="10.00">+ electronCentralEnergy</text>
<text text-anchor="start" x="166.5" y="-404.5" font-family="Helvetica,sans-Serif" font-size="10.00">+ electronEnergySpread</text>
<text text-anchor="start" x="166.5" y="-393.5" font-family="Helvetica,sans-Serif" font-size="10.00">+ electronEmitnx</text>
<text text-anchor="start" x="166.5" y="-382.5" font-family="Helvetica,sans-Serif" font-size="10.00">and 11 more...</text>
<polyline fill="none" stroke="black" points="158.5,-375.5 283.5,-375.5 "/>
<text text-anchor="middle" x="221" y="-363.5" font-family="Helvetica,sans-Serif" font-size="10.00"> </text>
</a>
</g>
</g>
<!-- Node4&#45;&gt;Node2 -->
<g id="edge3" class="edge"><title>Node4&#45;&gt;Node2</title>
<path fill="none" stroke="#404040" d="M187.506,-356.272C182.855,-345.973 177.964,-335.671 173,-326 171.703,-323.474 170.32,-320.899 168.889,-318.323"/>
<polygon fill="none" stroke="#404040" points="168.841,-318.24 162.376,-315.046 162.837,-307.85 169.302,-311.044 168.841,-318.24"/>
<text text-anchor="middle" x="202" y="-329.5" font-family="Helvetica,sans-Serif" font-size="10.00"> #dparams</text>
</g>
</g>
</svg>
        <g id="navigator" transform="translate(0 0)" fill="#404254">
                <rect fill="#f2f5e9" fill-opacity="0.5" stroke="#606060" stroke-width=".5" x="0" y="0" width="60" height="60"/>
                <use id="zoomplus" xlink:href="#zoomPlus" x="17" y="9" onmousedown="handleZoom(evt,'in')"/>
                <use id="zoomminus" xlink:href="#zoomMin" x="42" y="9" onmousedown="handleZoom(evt,'out')"/>
                <use id="reset" xlink:href="#resetDef" x="30" y="36" onmousedown="handleReset()"/>
                <g id="arrowUp" xlink:href="#dirArrow" transform="translate(30 24)" onmousedown="handlePan(0,-1)">
                  <use xlink:href="#rim" fill="#404040">
                        <set attributeName="fill" to="#808080" begin="arrowUp.mouseover" end="arrowUp.mouseout"/>
                  </use>
                  <path fill="none" stroke="white" stroke-width="1.5" d="M0,-3.0v7 M-2.5,-0.5L0,-3.0L2.5,-0.5"/>
                </g>
                <g id="arrowRight" xlink:href="#dirArrow" transform="rotate(90) translate(36 -43)" onmousedown="handlePan(1,0)">
                  <use xlink:href="#rim" fill="#404040">
                        <set attributeName="fill" to="#808080" begin="arrowRight.mouseover" end="arrowRight.mouseout"/>
                  </use>
                  <path fill="none" stroke="white" stroke-width="1.5" d="M0,-3.0v7 M-2.5,-0.5L0,-3.0L2.5,-0.5"/>
                </g>
                <g id="arrowDown" xlink:href="#dirArrow" transform="rotate(180) translate(-30 -48)" onmousedown="handlePan(0,1)">
                  <use xlink:href="#rim" fill="#404040">
                        <set attributeName="fill" to="#808080" begin="arrowDown.mouseover" end="arrowDown.mouseout"/>
                  </use>
                  <path fill="none" stroke="white" stroke-width="1.5" d="M0,-3.0v7 M-2.5,-0.5L0,-3.0L2.5,-0.5"/>
                </g>
                <g id="arrowLeft" xlink:href="#dirArrow" transform="rotate(270) translate(-36 17)" onmousedown="handlePan(-1,0)">
                  <use xlink:href="#rim" fill="#404040">
                        <set attributeName="fill" to="#808080" begin="arrowLeft.mouseover" end="arrowLeft.mouseout"/>
                  </use>
                  <path fill="none" stroke="white" stroke-width="1.5" d="M0,-3.0v7 M-2.5,-0.5L0,-3.0L2.5,-0.5"/>
                </g>
        </g>
        <svg viewBox="0 0 15 15" width="100%" height="30px" preserveAspectRatio="xMaxYMin meet">
         <g id="arrow_out" transform="scale(0.3 0.3)">
          <a xlink:href="classelectron_beam__coll__graph_org.svg" target="_base">
           <rect id="button" ry="5" rx="5" y="6" x="6" height="38" width="38"
                fill="#f2f5e9" fill-opacity="0.5" stroke="#606060" stroke-width="1.0"/>
           <path id="arrow"
             d="M 11.500037,31.436501 C 11.940474,20.09759 22.043105,11.32322 32.158766,21.979434 L 37.068811,17.246167 C 37.068811,17.246167 37.088388,32 37.088388,32 L 22.160133,31.978069 C 22.160133,31.978069 26.997745,27.140456 26.997745,27.140456 C 18.528582,18.264221 13.291696,25.230495 11.500037,31.436501 z"
             style="fill:#404040;"/>
          </a>
         </g>
        </svg>
</svg>
