<?xml version="1.0" encoding="UTF-8" standalone="no"?>
<!DOCTYPE svg PUBLIC "-//W3C//DTD SVG 1.1//EN"
 "http://www.w3.org/Graphics/SVG/1.1/DTD/svg11.dtd">
<!-- Generated by graphviz version 2.36.0 (20140111.2315)
 -->
<!-- Title: defaultParams Pages: 1 -->
<svg width="671pt" height="326pt"
 viewBox="0.00 0.00 671.00 326.00" xmlns="http://www.w3.org/2000/svg" xmlns:xlink="http://www.w3.org/1999/xlink">
<g id="graph0" class="graph" transform="scale(1 1) rotate(0) translate(4 322)">
<title>defaultParams</title>
<polygon fill="white" stroke="none" points="-4,4 -4,-322 667,-322 667,4 -4,4"/>
<!-- Node1 -->
<g id="node1" class="node"><title>Node1</title>
<polygon fill="#bfbfbf" stroke="black" points="299.5,-249 299.5,-317 394.5,-317 394.5,-249 299.5,-249"/>
<text text-anchor="middle" x="347" y="-305" font-family="Helvetica,sans-Serif" font-size="10.00">defaultParams</text>
<polyline fill="none" stroke="black" points="299.5,-298 394.5,-298 "/>
<text text-anchor="start" x="307.5" y="-286" font-family="Helvetica,sans-Serif" font-size="10.00"># dparams</text>
<text text-anchor="start" x="307.5" y="-275" font-family="Helvetica,sans-Serif" font-size="10.00"># oparams</text>
<polyline fill="none" stroke="black" points="299.5,-268 394.5,-268 "/>
<text text-anchor="start" x="307.5" y="-256" font-family="Helvetica,sans-Serif" font-size="10.00">+ defaultParams()</text>
</g>
<!-- Node2 -->
<g id="node2" class="node"><title>Node2</title>
<g id="a_node2"><a xlink:href="classcontrolpanel.html" target="_top" xlink:title="{controlpanel\n||+ controlpanel()\l+ controlpanel()\l+ set_npart()\l+ get_npart()\l+ info()\l}">
<polygon fill="white" stroke="black" points="0,-55.5 0,-156.5 84,-156.5 84,-55.5 0,-55.5"/>
<text text-anchor="middle" x="42" y="-144.5" font-family="Helvetica,sans-Serif" font-size="10.00">controlpanel</text>
<polyline fill="none" stroke="black" points="0,-137.5 84,-137.5 "/>
<text text-anchor="middle" x="42" y="-125.5" font-family="Helvetica,sans-Serif" font-size="10.00"> </text>
<polyline fill="none" stroke="black" points="0,-118.5 84,-118.5 "/>
<text text-anchor="start" x="8" y="-106.5" font-family="Helvetica,sans-Serif" font-size="10.00">+ controlpanel()</text>
<text text-anchor="start" x="8" y="-95.5" font-family="Helvetica,sans-Serif" font-size="10.00">+ controlpanel()</text>
<text text-anchor="start" x="8" y="-84.5" font-family="Helvetica,sans-Serif" font-size="10.00">+ set_npart()</text>
<text text-anchor="start" x="8" y="-73.5" font-family="Helvetica,sans-Serif" font-size="10.00">+ get_npart()</text>
<text text-anchor="start" x="8" y="-62.5" font-family="Helvetica,sans-Serif" font-size="10.00">+ info()</text>
</a>
</g>
</g>
<!-- Node1&#45;&gt;Node2 -->
<g id="edge1" class="edge"><title>Node1&#45;&gt;Node2</title>
<path fill="none" stroke="midnightblue" d="M288.924,-279.46C232.96,-274.172 148.785,-258.397 93,-212 75.8609,-197.745 64.0345,-176.354 56.1197,-156.592"/>
<polygon fill="none" stroke="midnightblue" points="288.769,-282.959 299.032,-280.33 289.369,-275.985 288.769,-282.959"/>
</g>
<!-- Node3 -->
<g id="node3" class="node"><title>Node3</title>
<g id="a_node3"><a xlink:href="classelectron_beam.html" target="_top" xlink:title="{electronBeam\n||+ electronBeam()\l+ electronBeam()\l+ set_centralEnergy()\l+ set_energySpread()\l+ set_emitnx()\l+ set_emitny()\l+ set_peakCurrent()\l+ set_avgBetaFunc()\l+ get_centralEnergy()\l+ get_energySpread()\l+ get_emitnx()\l+ get_emitny()\l+ get_peakCurrent()\l+ get_avgBetaFunc()\l+ info()\l}">
<polygon fill="white" stroke="black" points="102,-0.5 102,-211.5 212,-211.5 212,-0.5 102,-0.5"/>
<text text-anchor="middle" x="157" y="-199.5" font-family="Helvetica,sans-Serif" font-size="10.00">electronBeam</text>
<polyline fill="none" stroke="black" points="102,-192.5 212,-192.5 "/>
<text text-anchor="middle" x="157" y="-180.5" font-family="Helvetica,sans-Serif" font-size="10.00"> </text>
<polyline fill="none" stroke="black" points="102,-173.5 212,-173.5 "/>
<text text-anchor="start" x="110" y="-161.5" font-family="Helvetica,sans-Serif" font-size="10.00">+ electronBeam()</text>
<text text-anchor="start" x="110" y="-150.5" font-family="Helvetica,sans-Serif" font-size="10.00">+ electronBeam()</text>
<text text-anchor="start" x="110" y="-139.5" font-family="Helvetica,sans-Serif" font-size="10.00">+ set_centralEnergy()</text>
<text text-anchor="start" x="110" y="-128.5" font-family="Helvetica,sans-Serif" font-size="10.00">+ set_energySpread()</text>
<text text-anchor="start" x="110" y="-117.5" font-family="Helvetica,sans-Serif" font-size="10.00">+ set_emitnx()</text>
<text text-anchor="start" x="110" y="-106.5" font-family="Helvetica,sans-Serif" font-size="10.00">+ set_emitny()</text>
<text text-anchor="start" x="110" y="-95.5" font-family="Helvetica,sans-Serif" font-size="10.00">+ set_peakCurrent()</text>
<text text-anchor="start" x="110" y="-84.5" font-family="Helvetica,sans-Serif" font-size="10.00">+ set_avgBetaFunc()</text>
<text text-anchor="start" x="110" y="-73.5" font-family="Helvetica,sans-Serif" font-size="10.00">+ get_centralEnergy()</text>
<text text-anchor="start" x="110" y="-62.5" font-family="Helvetica,sans-Serif" font-size="10.00">+ get_energySpread()</text>
<text text-anchor="start" x="110" y="-51.5" font-family="Helvetica,sans-Serif" font-size="10.00">+ get_emitnx()</text>
<text text-anchor="start" x="110" y="-40.5" font-family="Helvetica,sans-Serif" font-size="10.00">+ get_emitny()</text>
<text text-anchor="start" x="110" y="-29.5" font-family="Helvetica,sans-Serif" font-size="10.00">+ get_peakCurrent()</text>
<text text-anchor="start" x="110" y="-18.5" font-family="Helvetica,sans-Serif" font-size="10.00">+ get_avgBetaFunc()</text>
<text text-anchor="start" x="110" y="-7.5" font-family="Helvetica,sans-Serif" font-size="10.00">+ info()</text>
</a>
</g>
</g>
<!-- Node1&#45;&gt;Node3 -->
<g id="edge2" class="edge"><title>Node1&#45;&gt;Node3</title>
<path fill="none" stroke="midnightblue" d="M290.113,-258.243C266.865,-246.648 240.836,-231.053 221,-212 217.921,-209.042 214.932,-205.906 212.038,-202.637"/>
<polygon fill="none" stroke="midnightblue" points="288.677,-261.437 299.203,-262.648 291.73,-255.138 288.677,-261.437"/>
</g>
<!-- Node4 -->
<g id="node4" class="node"><title>Node4</title>
<g id="a_node4"><a xlink:href="class_f_e_lradiation.html" target="_top" xlink:title="{FELradiation\n||+ FELradiation()\l+ FELradiation()\l+ set_wavelength()\l+ get_wavelength()\l+ info()\l}">
<polygon fill="white" stroke="black" points="230,-55.5 230,-156.5 330,-156.5 330,-55.5 230,-55.5"/>
<text text-anchor="middle" x="280" y="-144.5" font-family="Helvetica,sans-Serif" font-size="10.00">FELradiation</text>
<polyline fill="none" stroke="black" points="230,-137.5 330,-137.5 "/>
<text text-anchor="middle" x="280" y="-125.5" font-family="Helvetica,sans-Serif" font-size="10.00"> </text>
<polyline fill="none" stroke="black" points="230,-118.5 330,-118.5 "/>
<text text-anchor="start" x="238" y="-106.5" font-family="Helvetica,sans-Serif" font-size="10.00">+ FELradiation()</text>
<text text-anchor="start" x="238" y="-95.5" font-family="Helvetica,sans-Serif" font-size="10.00">+ FELradiation()</text>
<text text-anchor="start" x="238" y="-84.5" font-family="Helvetica,sans-Serif" font-size="10.00">+ set_wavelength()</text>
<text text-anchor="start" x="238" y="-73.5" font-family="Helvetica,sans-Serif" font-size="10.00">+ get_wavelength()</text>
<text text-anchor="start" x="238" y="-62.5" font-family="Helvetica,sans-Serif" font-size="10.00">+ info()</text>
</a>
</g>
</g>
<!-- Node1&#45;&gt;Node4 -->
<g id="edge3" class="edge"><title>Node1&#45;&gt;Node4</title>
<path fill="none" stroke="midnightblue" d="M330.588,-239.133C321.055,-214.234 309.002,-182.751 299.052,-156.762"/>
<polygon fill="none" stroke="midnightblue" points="327.396,-240.584 334.24,-248.672 333.933,-238.082 327.396,-240.584"/>
</g>
<!-- Node5 -->
<g id="node5" class="node"><title>Node5</title>
<g id="a_node5"><a xlink:href="classscanpanel.html" target="_top" xlink:title="ELEMENTS_H_. ">
<polygon fill="white" stroke="black" points="348.5,-6 348.5,-206 479.5,-206 479.5,-6 348.5,-6"/>
<text text-anchor="middle" x="414" y="-194" font-family="Helvetica,sans-Serif" font-size="10.00">scanpanel</text>
<polyline fill="none" stroke="black" points="348.5,-187 479.5,-187 "/>
<text text-anchor="middle" x="414" y="-175" font-family="Helvetica,sans-Serif" font-size="10.00"> </text>
<polyline fill="none" stroke="black" points="348.5,-168 479.5,-168 "/>
<text text-anchor="start" x="356.5" y="-156" font-family="Helvetica,sans-Serif" font-size="10.00">+ scanpanel()</text>
<text text-anchor="start" x="356.5" y="-145" font-family="Helvetica,sans-Serif" font-size="10.00">+ scanpanel()</text>
<text text-anchor="start" x="356.5" y="-134" font-family="Helvetica,sans-Serif" font-size="10.00">+ ~scanpanel()</text>
<text text-anchor="start" x="356.5" y="-123" font-family="Helvetica,sans-Serif" font-size="10.00">+ checkScanParamIsOK()</text>
<text text-anchor="start" x="356.5" y="-112" font-family="Helvetica,sans-Serif" font-size="10.00">+ checkScanSetupIsOK()</text>
<text text-anchor="start" x="356.5" y="-101" font-family="Helvetica,sans-Serif" font-size="10.00">+ updateVarlist()</text>
<text text-anchor="start" x="356.5" y="-90" font-family="Helvetica,sans-Serif" font-size="10.00">+ set_electronBeam()</text>
<text text-anchor="start" x="356.5" y="-79" font-family="Helvetica,sans-Serif" font-size="10.00">+ set_seedfield()</text>
<text text-anchor="start" x="356.5" y="-68" font-family="Helvetica,sans-Serif" font-size="10.00">+ set_undulator()</text>
<text text-anchor="start" x="356.5" y="-57" font-family="Helvetica,sans-Serif" font-size="10.00">+ set_FELradiation()</text>
<text text-anchor="start" x="356.5" y="-46" font-family="Helvetica,sans-Serif" font-size="10.00">+ paramScan()</text>
<text text-anchor="start" x="356.5" y="-35" font-family="Helvetica,sans-Serif" font-size="10.00">+ dumpdata()</text>
<text text-anchor="start" x="356.5" y="-24" font-family="Helvetica,sans-Serif" font-size="10.00">+ info()</text>
<text text-anchor="start" x="356.5" y="-13" font-family="Helvetica,sans-Serif" font-size="10.00">+ get_scanflag()</text>
</a>
</g>
</g>
<!-- Node1&#45;&gt;Node5 -->
<g id="edge4" class="edge"><title>Node1&#45;&gt;Node5</title>
<path fill="none" stroke="midnightblue" d="M363.359,-239.272C367.259,-229.085 371.584,-217.789 376.015,-206.216"/>
<polygon fill="none" stroke="midnightblue" points="360.067,-238.082 359.76,-248.672 366.604,-240.584 360.067,-238.082"/>
</g>
<!-- Node6 -->
<g id="node6" class="node"><title>Node6</title>
<g id="a_node6"><a xlink:href="classseedfield.html" target="_top" xlink:title="define element classes. ">
<polygon fill="white" stroke="black" points="497.5,-44.5 497.5,-167.5 568.5,-167.5 568.5,-44.5 497.5,-44.5"/>
<text text-anchor="middle" x="533" y="-155.5" font-family="Helvetica,sans-Serif" font-size="10.00">seedfield</text>
<polyline fill="none" stroke="black" points="497.5,-148.5 568.5,-148.5 "/>
<text text-anchor="middle" x="533" y="-136.5" font-family="Helvetica,sans-Serif" font-size="10.00"> </text>
<polyline fill="none" stroke="black" points="497.5,-129.5 568.5,-129.5 "/>
<text text-anchor="start" x="505.5" y="-117.5" font-family="Helvetica,sans-Serif" font-size="10.00">+ seedfield()</text>
<text text-anchor="start" x="505.5" y="-106.5" font-family="Helvetica,sans-Serif" font-size="10.00">+ seedfield()</text>
<text text-anchor="start" x="505.5" y="-95.5" font-family="Helvetica,sans-Serif" font-size="10.00">+ set_Ex()</text>
<text text-anchor="start" x="505.5" y="-84.5" font-family="Helvetica,sans-Serif" font-size="10.00">+ set_Ey()</text>
<text text-anchor="start" x="505.5" y="-73.5" font-family="Helvetica,sans-Serif" font-size="10.00">+ get_Ex()</text>
<text text-anchor="start" x="505.5" y="-62.5" font-family="Helvetica,sans-Serif" font-size="10.00">+ get_Ey()</text>
<text text-anchor="start" x="505.5" y="-51.5" font-family="Helvetica,sans-Serif" font-size="10.00">+ info()</text>
</a>
</g>
</g>
<!-- Node1&#45;&gt;Node6 -->
<g id="edge5" class="edge"><title>Node1&#45;&gt;Node6</title>
<path fill="none" stroke="midnightblue" d="M404.12,-264.258C432.38,-253.061 465.225,-236.085 488,-212 499.787,-199.535 508.746,-183.506 515.443,-167.744"/>
<polygon fill="none" stroke="midnightblue" points="402.831,-261.003 394.733,-267.835 405.324,-267.544 402.831,-261.003"/>
</g>
<!-- Node7 -->
<g id="node7" class="node"><title>Node7</title>
<g id="a_node7"><a xlink:href="classundulator.html" target="_top" xlink:title="{undulator\n||+ undulator()\l+ undulator()\l+ set_period()\l+ set_field()\l+ set_num()\l+ set_nstep()\l+ get_field()\l+ get_period()\l+ get_num()\l+ get_nstep()\l+ info()\l}">
<polygon fill="white" stroke="black" points="586.5,-22.5 586.5,-189.5 663.5,-189.5 663.5,-22.5 586.5,-22.5"/>
<text text-anchor="middle" x="625" y="-177.5" font-family="Helvetica,sans-Serif" font-size="10.00">undulator</text>
<polyline fill="none" stroke="black" points="586.5,-170.5 663.5,-170.5 "/>
<text text-anchor="middle" x="625" y="-158.5" font-family="Helvetica,sans-Serif" font-size="10.00"> </text>
<polyline fill="none" stroke="black" points="586.5,-151.5 663.5,-151.5 "/>
<text text-anchor="start" x="594.5" y="-139.5" font-family="Helvetica,sans-Serif" font-size="10.00">+ undulator()</text>
<text text-anchor="start" x="594.5" y="-128.5" font-family="Helvetica,sans-Serif" font-size="10.00">+ undulator()</text>
<text text-anchor="start" x="594.5" y="-117.5" font-family="Helvetica,sans-Serif" font-size="10.00">+ set_period()</text>
<text text-anchor="start" x="594.5" y="-106.5" font-family="Helvetica,sans-Serif" font-size="10.00">+ set_field()</text>
<text text-anchor="start" x="594.5" y="-95.5" font-family="Helvetica,sans-Serif" font-size="10.00">+ set_num()</text>
<text text-anchor="start" x="594.5" y="-84.5" font-family="Helvetica,sans-Serif" font-size="10.00">+ set_nstep()</text>
<text text-anchor="start" x="594.5" y="-73.5" font-family="Helvetica,sans-Serif" font-size="10.00">+ get_field()</text>
<text text-anchor="start" x="594.5" y="-62.5" font-family="Helvetica,sans-Serif" font-size="10.00">+ get_period()</text>
<text text-anchor="start" x="594.5" y="-51.5" font-family="Helvetica,sans-Serif" font-size="10.00">+ get_num()</text>
<text text-anchor="start" x="594.5" y="-40.5" font-family="Helvetica,sans-Serif" font-size="10.00">+ get_nstep()</text>
<text text-anchor="start" x="594.5" y="-29.5" font-family="Helvetica,sans-Serif" font-size="10.00">+ info()</text>
</a>
</g>
</g>
<!-- Node1&#45;&gt;Node7 -->
<g id="edge6" class="edge"><title>Node1&#45;&gt;Node7</title>
<path fill="none" stroke="midnightblue" d="M404.968,-277.6C455.76,-270.933 528.801,-254.166 577,-212 584.317,-205.599 590.584,-197.855 595.936,-189.506"/>
<polygon fill="none" stroke="midnightblue" points="404.305,-274.155 394.802,-278.839 405.152,-281.103 404.305,-274.155"/>
</g>
</g>
</svg>
