<?xml version="1.0" encoding="UTF-8" standalone="no"?>
<!DOCTYPE svg PUBLIC "-//W3C//DTD SVG 1.1//EN"
 "http://www.w3.org/Graphics/SVG/1.1/DTD/svg11.dtd">
<!-- Generated by graphviz version 2.36.0 (20140111.2315)
 -->
<!-- Title: seedfield Pages: 1 -->
<svg width="291pt" height="444pt"
 viewBox="0.00 0.00 291.00 444.00" xmlns="http://www.w3.org/2000/svg" xmlns:xlink="http://www.w3.org/1999/xlink">
<g id="graph0" class="graph" transform="scale(1 1) rotate(0) translate(4 440)">
<title>seedfield</title>
<polygon fill="white" stroke="none" points="-4,4 -4,-440 287,-440 287,4 -4,4"/>
<!-- Node1 -->
<g id="node1" class="node"><title>Node1</title>
<polygon fill="#bfbfbf" stroke="black" points="109.5,-0.5 109.5,-123.5 180.5,-123.5 180.5,-0.5 109.5,-0.5"/>
<text text-anchor="middle" x="145" y="-111.5" font-family="Helvetica,sans-Serif" font-size="10.00">seedfield</text>
<polyline fill="none" stroke="black" points="109.5,-104.5 180.5,-104.5 "/>
<text text-anchor="middle" x="145" y="-92.5" font-family="Helvetica,sans-Serif" font-size="10.00"> </text>
<polyline fill="none" stroke="black" points="109.5,-85.5 180.5,-85.5 "/>
<text text-anchor="start" x="117.5" y="-73.5" font-family="Helvetica,sans-Serif" font-size="10.00">+ seedfield()</text>
<text text-anchor="start" x="117.5" y="-62.5" font-family="Helvetica,sans-Serif" font-size="10.00">+ seedfield()</text>
<text text-anchor="start" x="117.5" y="-51.5" font-family="Helvetica,sans-Serif" font-size="10.00">+ set_Ex()</text>
<text text-anchor="start" x="117.5" y="-40.5" font-family="Helvetica,sans-Serif" font-size="10.00">+ set_Ey()</text>
<text text-anchor="start" x="117.5" y="-29.5" font-family="Helvetica,sans-Serif" font-size="10.00">+ get_Ex()</text>
<text text-anchor="start" x="117.5" y="-18.5" font-family="Helvetica,sans-Serif" font-size="10.00">+ get_Ey()</text>
<text text-anchor="start" x="117.5" y="-7.5" font-family="Helvetica,sans-Serif" font-size="10.00">+ info()</text>
</g>
<!-- Node2 -->
<g id="node2" class="node"><title>Node2</title>
<g id="a_node2"><a xlink:href="classdefault_params.html" target="_top" xlink:title="CONSTANTS_H_. ">
<polygon fill="white" stroke="black" points="97.5,-162.5 97.5,-219.5 192.5,-219.5 192.5,-162.5 97.5,-162.5"/>
<text text-anchor="middle" x="145" y="-207.5" font-family="Helvetica,sans-Serif" font-size="10.00">defaultParams</text>
<polyline fill="none" stroke="black" points="97.5,-200.5 192.5,-200.5 "/>
<text text-anchor="middle" x="145" y="-188.5" font-family="Helvetica,sans-Serif" font-size="10.00"> </text>
<polyline fill="none" stroke="black" points="97.5,-181.5 192.5,-181.5 "/>
<text text-anchor="start" x="105.5" y="-169.5" font-family="Helvetica,sans-Serif" font-size="10.00">+ defaultParams()</text>
</a>
</g>
</g>
<!-- Node2&#45;&gt;Node1 -->
<g id="edge1" class="edge"><title>Node2&#45;&gt;Node1</title>
<path fill="none" stroke="midnightblue" d="M145,-152.283C145,-143.252 145,-133.384 145,-123.607"/>
<polygon fill="none" stroke="midnightblue" points="141.5,-152.443 145,-162.443 148.5,-152.443 141.5,-152.443"/>
</g>
<!-- Node3 -->
<g id="node3" class="node"><title>Node3</title>
<g id="a_node3"><a xlink:href="structdefault_params_1_1otherparams.html" target="_top" xlink:title="{defaultParams::otherparams\n|+ allowedScanParams\l+ allowedObjeParams\l|}">
<polygon fill="white" stroke="black" points="0,-318 0,-386 140,-386 140,-318 0,-318"/>
<text text-anchor="middle" x="70" y="-374" font-family="Helvetica,sans-Serif" font-size="10.00">defaultParams::otherparams</text>
<polyline fill="none" stroke="black" points="0,-367 140,-367 "/>
<text text-anchor="start" x="8" y="-355" font-family="Helvetica,sans-Serif" font-size="10.00">+ allowedScanParams</text>
<text text-anchor="start" x="8" y="-344" font-family="Helvetica,sans-Serif" font-size="10.00">+ allowedObjeParams</text>
<polyline fill="none" stroke="black" points="0,-337 140,-337 "/>
<text text-anchor="middle" x="70" y="-325" font-family="Helvetica,sans-Serif" font-size="10.00"> </text>
</a>
</g>
</g>
<!-- Node3&#45;&gt;Node2 -->
<g id="edge2" class="edge"><title>Node3&#45;&gt;Node2</title>
<path fill="none" stroke="#404040" d="M85.7225,-317.668C97.6584,-292.364 114.099,-257.51 126.639,-230.926"/>
<polygon fill="none" stroke="#404040" points="126.803,-230.578 125.745,-223.445 131.922,-219.725 132.98,-226.858 126.803,-230.578"/>
<text text-anchor="middle" x="146" y="-241.5" font-family="Helvetica,sans-Serif" font-size="10.00"> #oparams</text>
</g>
<!-- Node4 -->
<g id="node4" class="node"><title>Node4</title>
<g id="a_node4"><a xlink:href="structdefault_params_1_1paramlist.html" target="_top" xlink:title="&lt; paramlist: structure of default input parameters list ">
<polygon fill="white" stroke="black" points="158.5,-268.5 158.5,-435.5 283.5,-435.5 283.5,-268.5 158.5,-268.5"/>
<text text-anchor="middle" x="221" y="-423.5" font-family="Helvetica,sans-Serif" font-size="10.00">defaultParams::paramlist</text>
<polyline fill="none" stroke="black" points="158.5,-416.5 283.5,-416.5 "/>
<text text-anchor="start" x="166.5" y="-404.5" font-family="Helvetica,sans-Serif" font-size="10.00">+ seedEx</text>
<text text-anchor="start" x="166.5" y="-393.5" font-family="Helvetica,sans-Serif" font-size="10.00">+ seedEy</text>
<text text-anchor="start" x="166.5" y="-382.5" font-family="Helvetica,sans-Serif" font-size="10.00">+ undulatorField</text>
<text text-anchor="start" x="166.5" y="-371.5" font-family="Helvetica,sans-Serif" font-size="10.00">+ undulatorPeriod</text>
<text text-anchor="start" x="166.5" y="-360.5" font-family="Helvetica,sans-Serif" font-size="10.00">+ undulatorNstep</text>
<text text-anchor="start" x="166.5" y="-349.5" font-family="Helvetica,sans-Serif" font-size="10.00">+ undulatorNum</text>
<text text-anchor="start" x="166.5" y="-338.5" font-family="Helvetica,sans-Serif" font-size="10.00">+ electronAvgBetaFunc</text>
<text text-anchor="start" x="166.5" y="-327.5" font-family="Helvetica,sans-Serif" font-size="10.00">+ electronCentralEnergy</text>
<text text-anchor="start" x="166.5" y="-316.5" font-family="Helvetica,sans-Serif" font-size="10.00">+ electronEnergySpread</text>
<text text-anchor="start" x="166.5" y="-305.5" font-family="Helvetica,sans-Serif" font-size="10.00">+ electronEmitnx</text>
<text text-anchor="start" x="166.5" y="-294.5" font-family="Helvetica,sans-Serif" font-size="10.00">and 11 more...</text>
<polyline fill="none" stroke="black" points="158.5,-287.5 283.5,-287.5 "/>
<text text-anchor="middle" x="221" y="-275.5" font-family="Helvetica,sans-Serif" font-size="10.00"> </text>
</a>
</g>
</g>
<!-- Node4&#45;&gt;Node2 -->
<g id="edge3" class="edge"><title>Node4&#45;&gt;Node2</title>
<path fill="none" stroke="#404040" d="M187.506,-268.272C182.855,-257.973 177.964,-247.671 173,-238 171.703,-235.474 170.32,-232.899 168.889,-230.323"/>
<polygon fill="none" stroke="#404040" points="168.841,-230.24 162.376,-227.046 162.837,-219.85 169.302,-223.044 168.841,-230.24"/>
<text text-anchor="middle" x="202" y="-241.5" font-family="Helvetica,sans-Serif" font-size="10.00"> #dparams</text>
</g>
</g>
</svg>
