<?xml version="1.0" encoding="UTF-8" standalone="no"?>
<!DOCTYPE svg PUBLIC "-//W3C//DTD SVG 1.1//EN"
 "http://www.w3.org/Graphics/SVG/1.1/DTD/svg11.dtd">
<!-- Generated by graphviz version 2.36.0 (20140111.2315)
 -->
<!-- Title: FELNumerical::FELsolverSingleFrequency1D Pages: 1 -->
<svg width="310pt" height="142pt"
 viewBox="0.00 0.00 310.00 142.00" xmlns="http://www.w3.org/2000/svg" xmlns:xlink="http://www.w3.org/1999/xlink">
<g id="graph0" class="graph" transform="scale(1 1) rotate(0) translate(4 138)">
<title>FELNumerical::FELsolverSingleFrequency1D</title>
<polygon fill="white" stroke="none" points="-4,4 -4,-138 306,-138 306,4 -4,4"/>
<!-- Node1 -->
<g id="node1" class="node"><title>Node1</title>
<polygon fill="#bfbfbf" stroke="black" points="0,-52 0,-82 156,-82 156,-52 0,-52"/>
<text text-anchor="start" x="8" y="-70" font-family="Helvetica,sans-Serif" font-size="10.00">FELNumerical::FELsolverSingle</text>
<text text-anchor="middle" x="78" y="-59" font-family="Helvetica,sans-Serif" font-size="10.00">Frequency1D</text>
</g>
<!-- Node2 -->
<g id="node2" class="node"><title>Node2</title>
<g id="a_node2"><a xlink:href="methods_8cpp.html#ab666508c8a9676400c002d7f74ad7f8d" target="_top" xlink:title="METHODS_H_. ">
<polygon fill="white" stroke="black" points="216,-114.5 216,-133.5 278,-133.5 278,-114.5 216,-114.5"/>
<text text-anchor="middle" x="247" y="-121.5" font-family="Helvetica,sans-Serif" font-size="10.00">meanexph</text>
</a>
</g>
</g>
<!-- Node1&#45;&gt;Node2 -->
<g id="edge1" class="edge"><title>Node1&#45;&gt;Node2</title>
<path fill="none" stroke="midnightblue" d="M123.314,-82.1253C149.845,-91.1805 183.2,-102.565 208.433,-111.178"/>
<polygon fill="midnightblue" stroke="midnightblue" points="207.422,-114.531 218.016,-114.449 209.683,-107.906 207.422,-114.531"/>
</g>
<!-- Node3 -->
<g id="node3" class="node"><title>Node3</title>
<g id="a_node3"><a xlink:href="class_f_e_l_numerical.html#a98b323d8cec0f07d129408b4aff1ae5d" target="_top" xlink:title="dump numerical simulation results ">
<polygon fill="white" stroke="black" points="192.5,-76.5 192.5,-95.5 301.5,-95.5 301.5,-76.5 192.5,-76.5"/>
<text text-anchor="middle" x="247" y="-83.5" font-family="Helvetica,sans-Serif" font-size="10.00">FELNumerical::odef3</text>
</a>
</g>
</g>
<!-- Node1&#45;&gt;Node3 -->
<g id="edge2" class="edge"><title>Node1&#45;&gt;Node3</title>
<path fill="none" stroke="midnightblue" d="M156.145,-75.777C164.773,-76.7586 173.492,-77.7505 181.93,-78.7106"/>
<polygon fill="midnightblue" stroke="midnightblue" points="181.728,-82.2101 192.059,-79.863 182.519,-75.2549 181.728,-82.2101"/>
</g>
<!-- Node4 -->
<g id="node4" class="node"><title>Node4</title>
<g id="a_node4"><a xlink:href="class_f_e_l_numerical.html#a7c1664a08d8c091b8399a6cf040abdc3" target="_top" xlink:title="FELNumerical::odef1">
<polygon fill="white" stroke="black" points="192.5,-38.5 192.5,-57.5 301.5,-57.5 301.5,-38.5 192.5,-38.5"/>
<text text-anchor="middle" x="247" y="-45.5" font-family="Helvetica,sans-Serif" font-size="10.00">FELNumerical::odef1</text>
</a>
</g>
</g>
<!-- Node1&#45;&gt;Node4 -->
<g id="edge3" class="edge"><title>Node1&#45;&gt;Node4</title>
<path fill="none" stroke="midnightblue" d="M156.145,-58.223C164.773,-57.2414 173.492,-56.2495 181.93,-55.2894"/>
<polygon fill="midnightblue" stroke="midnightblue" points="182.519,-58.7451 192.059,-54.137 181.728,-51.7899 182.519,-58.7451"/>
</g>
<!-- Node5 -->
<g id="node5" class="node"><title>Node5</title>
<g id="a_node5"><a xlink:href="class_f_e_l_numerical.html#a50847862c4edf2851f4422eb3ff68dca" target="_top" xlink:title="FELNumerical::odef2">
<polygon fill="white" stroke="black" points="192.5,-0.5 192.5,-19.5 301.5,-19.5 301.5,-0.5 192.5,-0.5"/>
<text text-anchor="middle" x="247" y="-7.5" font-family="Helvetica,sans-Serif" font-size="10.00">FELNumerical::odef2</text>
</a>
</g>
</g>
<!-- Node1&#45;&gt;Node5 -->
<g id="edge4" class="edge"><title>Node1&#45;&gt;Node5</title>
<path fill="none" stroke="midnightblue" d="M123.314,-51.8747C149.845,-42.8195 183.2,-31.4346 208.433,-22.8224"/>
<polygon fill="midnightblue" stroke="midnightblue" points="209.683,-26.0939 218.016,-19.5513 207.422,-19.4692 209.683,-26.0939"/>
</g>
</g>
</svg>
