<?xml version="1.0" encoding="UTF-8" standalone="no"?>
<!DOCTYPE svg PUBLIC "-//W3C//DTD SVG 1.1//EN"
 "http://www.w3.org/Graphics/SVG/1.1/DTD/svg11.dtd">
<!-- Generated by graphviz version 2.36.0 (20140111.2315)
 -->
<!-- Title: FELAnalysis Pages: 1 -->
<svg width="132pt" height="314pt"
 viewBox="0.00 0.00 132.00 314.00" xmlns="http://www.w3.org/2000/svg" xmlns:xlink="http://www.w3.org/1999/xlink">
<g id="graph0" class="graph" transform="scale(1 1) rotate(0) translate(4 310)">
<title>FELAnalysis</title>
<polygon fill="white" stroke="none" points="-4,4 -4,-310 128,-310 128,4 -4,4"/>
<!-- Node1 -->
<g id="node1" class="node"><title>Node1</title>
<polygon fill="#bfbfbf" stroke="black" points="-0.5,-0.5 -0.5,-123.5 124.5,-123.5 124.5,-0.5 -0.5,-0.5"/>
<text text-anchor="middle" x="62" y="-111.5" font-family="Helvetica,sans-Serif" font-size="10.00">FELAnalysis</text>
<polyline fill="none" stroke="black" points="-0.5,-104.5 124.5,-104.5 "/>
<text text-anchor="middle" x="62" y="-92.5" font-family="Helvetica,sans-Serif" font-size="10.00"> </text>
<polyline fill="none" stroke="black" points="-0.5,-85.5 124.5,-85.5 "/>
<text text-anchor="start" x="7.5" y="-73.5" font-family="Helvetica,sans-Serif" font-size="10.00">+ FELAnalysis()</text>
<text text-anchor="start" x="7.5" y="-62.5" font-family="Helvetica,sans-Serif" font-size="10.00">+ ~FELAnalysis()</text>
<text text-anchor="start" x="7.5" y="-51.5" font-family="Helvetica,sans-Serif" font-size="10.00">+ get_FELparameter1D()</text>
<text text-anchor="start" x="7.5" y="-40.5" font-family="Helvetica,sans-Serif" font-size="10.00">+ get_FELparameter3D()</text>
<text text-anchor="start" x="7.5" y="-29.5" font-family="Helvetica,sans-Serif" font-size="10.00">+ get_FELgainlength1D()</text>
<text text-anchor="start" x="7.5" y="-18.5" font-family="Helvetica,sans-Serif" font-size="10.00">+ get_FELgainlength3D()</text>
<text text-anchor="start" x="7.5" y="-7.5" font-family="Helvetica,sans-Serif" font-size="10.00">+ get_FELsatpower()</text>
</g>
<!-- Node2 -->
<g id="node2" class="node"><title>Node2</title>
<g id="a_node2"><a xlink:href="classphysical_constants.html" target="_top" xlink:title="define classes: physical constants and default input parameters. ">
<polygon fill="white" stroke="black" points="5.5,-160.5 5.5,-305.5 118.5,-305.5 118.5,-160.5 5.5,-160.5"/>
<text text-anchor="middle" x="62" y="-293.5" font-family="Helvetica,sans-Serif" font-size="10.00">physicalConstants</text>
<polyline fill="none" stroke="black" points="5.5,-286.5 118.5,-286.5 "/>
<text text-anchor="start" x="13.5" y="-274.5" font-family="Helvetica,sans-Serif" font-size="10.00"># PI</text>
<text text-anchor="start" x="13.5" y="-263.5" font-family="Helvetica,sans-Serif" font-size="10.00"># eps0</text>
<text text-anchor="start" x="13.5" y="-252.5" font-family="Helvetica,sans-Serif" font-size="10.00"># mu0</text>
<text text-anchor="start" x="13.5" y="-241.5" font-family="Helvetica,sans-Serif" font-size="10.00"># M0</text>
<text text-anchor="start" x="13.5" y="-230.5" font-family="Helvetica,sans-Serif" font-size="10.00"># E0</text>
<text text-anchor="start" x="13.5" y="-219.5" font-family="Helvetica,sans-Serif" font-size="10.00"># C0</text>
<text text-anchor="start" x="13.5" y="-208.5" font-family="Helvetica,sans-Serif" font-size="10.00"># IA</text>
<text text-anchor="start" x="13.5" y="-197.5" font-family="Helvetica,sans-Serif" font-size="10.00"># coefs</text>
<polyline fill="none" stroke="black" points="5.5,-190.5 118.5,-190.5 "/>
<text text-anchor="start" x="13.5" y="-178.5" font-family="Helvetica,sans-Serif" font-size="10.00">+ physicalConstants()</text>
<text text-anchor="start" x="13.5" y="-167.5" font-family="Helvetica,sans-Serif" font-size="10.00">+ info()</text>
</a>
</g>
</g>
<!-- Node2&#45;&gt;Node1 -->
<g id="edge1" class="edge"><title>Node2&#45;&gt;Node1</title>
<path fill="none" stroke="midnightblue" d="M62,-150.232C62,-141.254 62,-132.235 62,-123.58"/>
<polygon fill="none" stroke="midnightblue" points="58.5001,-150.329 62,-160.329 65.5001,-150.329 58.5001,-150.329"/>
</g>
</g>
</svg>
