<?xml version="1.0" encoding="UTF-8" standalone="no"?>
<!DOCTYPE svg PUBLIC "-//W3C//DTD SVG 1.1//EN"
 "http://www.w3.org/Graphics/SVG/1.1/DTD/svg11.dtd">
<!-- Generated by graphviz version 2.36.0 (20140111.2315)
 -->
<!-- Title: FELNumerical Pages: 1 -->
<svg width="174pt" height="622pt"
 viewBox="0.00 0.00 174.00 622.00" xmlns="http://www.w3.org/2000/svg" xmlns:xlink="http://www.w3.org/1999/xlink">
<g id="graph0" class="graph" transform="scale(1 1) rotate(0) translate(4 618)">
<title>FELNumerical</title>
<polygon fill="white" stroke="none" points="-4,4 -4,-618 170,-618 170,4 -4,4"/>
<!-- Node1 -->
<g id="node1" class="node"><title>Node1</title>
<polygon fill="#bfbfbf" stroke="black" points="-0.5,-0.5 -0.5,-211.5 166.5,-211.5 166.5,-0.5 -0.5,-0.5"/>
<text text-anchor="middle" x="83" y="-199.5" font-family="Helvetica,sans-Serif" font-size="10.00">FELNumerical</text>
<polyline fill="none" stroke="black" points="-0.5,-192.5 166.5,-192.5 "/>
<text text-anchor="middle" x="83" y="-180.5" font-family="Helvetica,sans-Serif" font-size="10.00"> </text>
<polyline fill="none" stroke="black" points="-0.5,-173.5 166.5,-173.5 "/>
<text text-anchor="start" x="7.5" y="-161.5" font-family="Helvetica,sans-Serif" font-size="10.00">+ FELNumerical()</text>
<text text-anchor="start" x="7.5" y="-150.5" font-family="Helvetica,sans-Serif" font-size="10.00">+ ~FELNumerical()</text>
<text text-anchor="start" x="7.5" y="-139.5" font-family="Helvetica,sans-Serif" font-size="10.00">+ get_npart()</text>
<text text-anchor="start" x="7.5" y="-128.5" font-family="Helvetica,sans-Serif" font-size="10.00">+ get_psi()</text>
<text text-anchor="start" x="7.5" y="-117.5" font-family="Helvetica,sans-Serif" font-size="10.00">+ get_gam()</text>
<text text-anchor="start" x="7.5" y="-106.5" font-family="Helvetica,sans-Serif" font-size="10.00">+ get_maxExAmp()</text>
<text text-anchor="start" x="7.5" y="-95.5" font-family="Helvetica,sans-Serif" font-size="10.00">+ get_maxEyAmp()</text>
<text text-anchor="start" x="7.5" y="-84.5" font-family="Helvetica,sans-Serif" font-size="10.00">+ generateDistribution()</text>
<text text-anchor="start" x="7.5" y="-73.5" font-family="Helvetica,sans-Serif" font-size="10.00">+ initParams()</text>
<text text-anchor="start" x="7.5" y="-62.5" font-family="Helvetica,sans-Serif" font-size="10.00">+ FELsolverSingleFrequency1D0()</text>
<text text-anchor="start" x="7.5" y="-51.5" font-family="Helvetica,sans-Serif" font-size="10.00">+ FELsolverSingleFrequency1D()</text>
<text text-anchor="start" x="7.5" y="-40.5" font-family="Helvetica,sans-Serif" font-size="10.00">+ odef1()</text>
<text text-anchor="start" x="7.5" y="-29.5" font-family="Helvetica,sans-Serif" font-size="10.00">+ odef2()</text>
<text text-anchor="start" x="7.5" y="-18.5" font-family="Helvetica,sans-Serif" font-size="10.00">+ odef3()</text>
<text text-anchor="start" x="7.5" y="-7.5" font-family="Helvetica,sans-Serif" font-size="10.00">+ dumpResults()</text>
</g>
<!-- Node2 -->
<g id="node2" class="node"><title>Node2</title>
<g id="a_node2"><a xlink:href="classphysical_constants.html" target="_top" xlink:title="define classes: physical constants and default input parameters. ">
<polygon fill="white" stroke="black" points="26.5,-251 26.5,-385 139.5,-385 139.5,-251 26.5,-251"/>
<text text-anchor="middle" x="83" y="-373" font-family="Helvetica,sans-Serif" font-size="10.00">physicalConstants</text>
<polyline fill="none" stroke="black" points="26.5,-366 139.5,-366 "/>
<text text-anchor="start" x="34.5" y="-354" font-family="Helvetica,sans-Serif" font-size="10.00"># PI</text>
<text text-anchor="start" x="34.5" y="-343" font-family="Helvetica,sans-Serif" font-size="10.00"># eps0</text>
<text text-anchor="start" x="34.5" y="-332" font-family="Helvetica,sans-Serif" font-size="10.00"># mu0</text>
<text text-anchor="start" x="34.5" y="-321" font-family="Helvetica,sans-Serif" font-size="10.00"># M0</text>
<text text-anchor="start" x="34.5" y="-310" font-family="Helvetica,sans-Serif" font-size="10.00"># E0</text>
<text text-anchor="start" x="34.5" y="-299" font-family="Helvetica,sans-Serif" font-size="10.00"># C0</text>
<text text-anchor="start" x="34.5" y="-288" font-family="Helvetica,sans-Serif" font-size="10.00"># IA</text>
<polyline fill="none" stroke="black" points="26.5,-281 139.5,-281 "/>
<text text-anchor="start" x="34.5" y="-269" font-family="Helvetica,sans-Serif" font-size="10.00">+ physicalConstants()</text>
<text text-anchor="start" x="34.5" y="-258" font-family="Helvetica,sans-Serif" font-size="10.00">+ info()</text>
</a>
</g>
</g>
<!-- Node2&#45;&gt;Node1 -->
<g id="edge1" class="edge"><title>Node2&#45;&gt;Node1</title>
<path fill="none" stroke="midnightblue" d="M83,-240.714C83,-231.243 83,-221.434 83,-211.63"/>
<polygon fill="none" stroke="midnightblue" points="79.5001,-240.843 83,-250.843 86.5001,-240.843 79.5001,-240.843"/>
</g>
<!-- Node3 -->
<g id="node3" class="node"><title>Node3</title>
<g id="a_node3"><a xlink:href="structphysical_constants_1_1coefs_xie.html" target="_top" xlink:title="{physicalConstants::\lcoefsXie\n|+ a1\l+ a2\l+ a3\l+ a4\l+ a5\l+ a6\l+ a7\l+ a8\l+ a9\l+ a10\land 9 more...\l|}">
<polygon fill="white" stroke="black" points="31,-435 31,-613 135,-613 135,-435 31,-435"/>
<text text-anchor="start" x="39" y="-601" font-family="Helvetica,sans-Serif" font-size="10.00">physicalConstants::</text>
<text text-anchor="middle" x="83" y="-590" font-family="Helvetica,sans-Serif" font-size="10.00">coefsXie</text>
<polyline fill="none" stroke="black" points="31,-583 135,-583 "/>
<text text-anchor="start" x="39" y="-571" font-family="Helvetica,sans-Serif" font-size="10.00">+ a1</text>
<text text-anchor="start" x="39" y="-560" font-family="Helvetica,sans-Serif" font-size="10.00">+ a2</text>
<text text-anchor="start" x="39" y="-549" font-family="Helvetica,sans-Serif" font-size="10.00">+ a3</text>
<text text-anchor="start" x="39" y="-538" font-family="Helvetica,sans-Serif" font-size="10.00">+ a4</text>
<text text-anchor="start" x="39" y="-527" font-family="Helvetica,sans-Serif" font-size="10.00">+ a5</text>
<text text-anchor="start" x="39" y="-516" font-family="Helvetica,sans-Serif" font-size="10.00">+ a6</text>
<text text-anchor="start" x="39" y="-505" font-family="Helvetica,sans-Serif" font-size="10.00">+ a7</text>
<text text-anchor="start" x="39" y="-494" font-family="Helvetica,sans-Serif" font-size="10.00">+ a8</text>
<text text-anchor="start" x="39" y="-483" font-family="Helvetica,sans-Serif" font-size="10.00">+ a9</text>
<text text-anchor="start" x="39" y="-472" font-family="Helvetica,sans-Serif" font-size="10.00">+ a10</text>
<text text-anchor="start" x="39" y="-461" font-family="Helvetica,sans-Serif" font-size="10.00">and 9 more...</text>
<polyline fill="none" stroke="black" points="31,-454 135,-454 "/>
<text text-anchor="middle" x="83" y="-442" font-family="Helvetica,sans-Serif" font-size="10.00"> </text>
</a>
</g>
</g>
<!-- Node3&#45;&gt;Node2 -->
<g id="edge2" class="edge"><title>Node3&#45;&gt;Node2</title>
<path fill="none" stroke="#404040" d="M83,-434.709C83,-422.272 83,-409.558 83,-397.324"/>
<polygon fill="none" stroke="#404040" points="83.0001,-397.279 79,-391.279 83,-385.279 87,-391.279 83.0001,-397.279"/>
<text text-anchor="middle" x="99.5" y="-407.5" font-family="Helvetica,sans-Serif" font-size="10.00"> #coefs</text>
</g>
</g>
</svg>
