<?xml version="1.0" encoding="UTF-8" standalone="no"?>
<!DOCTYPE svg PUBLIC "-//W3C//DTD SVG 1.1//EN"
 "http://www.w3.org/Graphics/SVG/1.1/DTD/svg11.dtd">
<!-- Generated by graphviz version 2.36.0 (20140111.2315)
 -->
<!-- Title: FELAnalysis Pages: 1 -->
<!--zoomable 534 -->
<svg id="main" version="1.1" xmlns="http://www.w3.org/2000/svg" xmlns:xlink="http://www.w3.org/1999/xlink" xml:space="preserve" onload="init(evt)">
<style type="text/css"><![CDATA[
.edge:hover path { stroke: red; }
.edge:hover polygon { stroke: red; fill: red; }
]]></style>
<script type="text/javascript"><![CDATA[
var edges = document.getElementsByTagName('g');
if (edges && edges.length) {
  for (var i=0;i<edges.length;i++) {
    if (edges[i].id.substr(0,4)=='edge') {
      edges[i].setAttribute('class','edge');
    }
  }
}
]]></script>
        <defs>
                <circle id="rim" cx="0" cy="0" r="7"/>
                <circle id="rim2" cx="0" cy="0" r="3.5"/>
                <g id="zoomPlus">
                        <use xlink:href="#rim" fill="#404040">
                                <set attributeName="fill" to="#808080" begin="zoomplus.mouseover" end="zoomplus.mouseout"/>
                        </use>
                        <path d="M-4,0h8M0,-4v8" fill="none" stroke="white" stroke-width="1.5" pointer-events="none"/>
                </g>
                <g id="zoomMin">
                        <use xlink:href="#rim" fill="#404040">
                                <set attributeName="fill" to="#808080" begin="zoomminus.mouseover" end="zoomminus.mouseout"/>
                        </use>
                        <path d="M-4,0h8" fill="none" stroke="white" stroke-width="1.5" pointer-events="none"/>
                </g>
                <g id="dirArrow">
                        <path fill="none" stroke="white" stroke-width="1.5" d="M0,-3.0v7 M-2.5,-0.5L0,-3.0L2.5,-0.5"/>
                </g>
               <g id="resetDef">
                       <use xlink:href="#rim2" fill="#404040">
                               <set attributeName="fill" to="#808080" begin="reset.mouseover" end="reset.mouseout"/>
                       </use>
               </g>
        </defs>

<script type="text/javascript">
var viewWidth = 132;
var viewHeight = 534;
var sectionId = 'dynsection-1';
</script>
<script xlink:href="svgpan.js"/>
<svg id="graph" class="graph">
<g id="viewport">
<title>FELAnalysis</title>
<polygon fill="white" stroke="none" points="-4,4 -4,-530 128,-530 128,4 -4,4"/>
<!-- Node1 -->
<g id="node1" class="node"><title>Node1</title>
<polygon fill="#bfbfbf" stroke="black" points="-0.5,-0.5 -0.5,-123.5 124.5,-123.5 124.5,-0.5 -0.5,-0.5"/>
<text text-anchor="middle" x="62" y="-111.5" font-family="Helvetica,sans-Serif" font-size="10.00">FELAnalysis</text>
<polyline fill="none" stroke="black" points="-0.5,-104.5 124.5,-104.5 "/>
<text text-anchor="middle" x="62" y="-92.5" font-family="Helvetica,sans-Serif" font-size="10.00"> </text>
<polyline fill="none" stroke="black" points="-0.5,-85.5 124.5,-85.5 "/>
<text text-anchor="start" x="7.5" y="-73.5" font-family="Helvetica,sans-Serif" font-size="10.00">+ FELAnalysis()</text>
<text text-anchor="start" x="7.5" y="-62.5" font-family="Helvetica,sans-Serif" font-size="10.00">+ ~FELAnalysis()</text>
<text text-anchor="start" x="7.5" y="-51.5" font-family="Helvetica,sans-Serif" font-size="10.00">+ get_FELparameter1D()</text>
<text text-anchor="start" x="7.5" y="-40.5" font-family="Helvetica,sans-Serif" font-size="10.00">+ get_FELparameter3D()</text>
<text text-anchor="start" x="7.5" y="-29.5" font-family="Helvetica,sans-Serif" font-size="10.00">+ get_FELgainlength1D()</text>
<text text-anchor="start" x="7.5" y="-18.5" font-family="Helvetica,sans-Serif" font-size="10.00">+ get_FELgainlength3D()</text>
<text text-anchor="start" x="7.5" y="-7.5" font-family="Helvetica,sans-Serif" font-size="10.00">+ get_FELsatpower()</text>
</g>
<!-- Node2 -->
<g id="node2" class="node"><title>Node2</title>
<g id="a_node2"><a xlink:href="classphysical_constants.html" target="_top" xlink:title="define classes: physical constants and default input parameters. ">
<polygon fill="white" stroke="black" points="5.5,-163 5.5,-297 118.5,-297 118.5,-163 5.5,-163"/>
<text text-anchor="middle" x="62" y="-285" font-family="Helvetica,sans-Serif" font-size="10.00">physicalConstants</text>
<polyline fill="none" stroke="black" points="5.5,-278 118.5,-278 "/>
<text text-anchor="start" x="13.5" y="-266" font-family="Helvetica,sans-Serif" font-size="10.00"># PI</text>
<text text-anchor="start" x="13.5" y="-255" font-family="Helvetica,sans-Serif" font-size="10.00"># eps0</text>
<text text-anchor="start" x="13.5" y="-244" font-family="Helvetica,sans-Serif" font-size="10.00"># mu0</text>
<text text-anchor="start" x="13.5" y="-233" font-family="Helvetica,sans-Serif" font-size="10.00"># M0</text>
<text text-anchor="start" x="13.5" y="-222" font-family="Helvetica,sans-Serif" font-size="10.00"># E0</text>
<text text-anchor="start" x="13.5" y="-211" font-family="Helvetica,sans-Serif" font-size="10.00"># C0</text>
<text text-anchor="start" x="13.5" y="-200" font-family="Helvetica,sans-Serif" font-size="10.00"># IA</text>
<polyline fill="none" stroke="black" points="5.5,-193 118.5,-193 "/>
<text text-anchor="start" x="13.5" y="-181" font-family="Helvetica,sans-Serif" font-size="10.00">+ physicalConstants()</text>
<text text-anchor="start" x="13.5" y="-170" font-family="Helvetica,sans-Serif" font-size="10.00">+ info()</text>
</a>
</g>
</g>
<!-- Node2&#45;&gt;Node1 -->
<g id="edge1" class="edge"><title>Node2&#45;&gt;Node1</title>
<path fill="none" stroke="midnightblue" d="M62,-152.824C62,-143.075 62,-133.199 62,-123.74"/>
<polygon fill="none" stroke="midnightblue" points="58.5001,-152.915 62,-162.915 65.5001,-152.915 58.5001,-152.915"/>
</g>
<!-- Node3 -->
<g id="node3" class="node"><title>Node3</title>
<g id="a_node3"><a xlink:href="structphysical_constants_1_1coefs_xie.html" target="_top" xlink:title="{physicalConstants::\lcoefsXie\n|+ a1\l+ a2\l+ a3\l+ a4\l+ a5\l+ a6\l+ a7\l+ a8\l+ a9\l+ a10\land 9 more...\l|}">
<polygon fill="white" stroke="black" points="10,-347 10,-525 114,-525 114,-347 10,-347"/>
<text text-anchor="start" x="18" y="-513" font-family="Helvetica,sans-Serif" font-size="10.00">physicalConstants::</text>
<text text-anchor="middle" x="62" y="-502" font-family="Helvetica,sans-Serif" font-size="10.00">coefsXie</text>
<polyline fill="none" stroke="black" points="10,-495 114,-495 "/>
<text text-anchor="start" x="18" y="-483" font-family="Helvetica,sans-Serif" font-size="10.00">+ a1</text>
<text text-anchor="start" x="18" y="-472" font-family="Helvetica,sans-Serif" font-size="10.00">+ a2</text>
<text text-anchor="start" x="18" y="-461" font-family="Helvetica,sans-Serif" font-size="10.00">+ a3</text>
<text text-anchor="start" x="18" y="-450" font-family="Helvetica,sans-Serif" font-size="10.00">+ a4</text>
<text text-anchor="start" x="18" y="-439" font-family="Helvetica,sans-Serif" font-size="10.00">+ a5</text>
<text text-anchor="start" x="18" y="-428" font-family="Helvetica,sans-Serif" font-size="10.00">+ a6</text>
<text text-anchor="start" x="18" y="-417" font-family="Helvetica,sans-Serif" font-size="10.00">+ a7</text>
<text text-anchor="start" x="18" y="-406" font-family="Helvetica,sans-Serif" font-size="10.00">+ a8</text>
<text text-anchor="start" x="18" y="-395" font-family="Helvetica,sans-Serif" font-size="10.00">+ a9</text>
<text text-anchor="start" x="18" y="-384" font-family="Helvetica,sans-Serif" font-size="10.00">+ a10</text>
<text text-anchor="start" x="18" y="-373" font-family="Helvetica,sans-Serif" font-size="10.00">and 9 more...</text>
<polyline fill="none" stroke="black" points="10,-366 114,-366 "/>
<text text-anchor="middle" x="62" y="-354" font-family="Helvetica,sans-Serif" font-size="10.00"> </text>
</a>
</g>
</g>
<!-- Node3&#45;&gt;Node2 -->
<g id="edge2" class="edge"><title>Node3&#45;&gt;Node2</title>
<path fill="none" stroke="#404040" d="M62,-346.709C62,-334.272 62,-321.558 62,-309.324"/>
<polygon fill="none" stroke="#404040" points="62.0001,-309.279 58,-303.279 62,-297.279 66,-303.279 62.0001,-309.279"/>
<text text-anchor="middle" x="78.5" y="-319.5" font-family="Helvetica,sans-Serif" font-size="10.00"> #coefs</text>
</g>
</g>
</svg>
        <g id="navigator" transform="translate(0 0)" fill="#404254">
                <rect fill="#f2f5e9" fill-opacity="0.5" stroke="#606060" stroke-width=".5" x="0" y="0" width="60" height="60"/>
                <use id="zoomplus" xlink:href="#zoomPlus" x="17" y="9" onmousedown="handleZoom(evt,'in')"/>
                <use id="zoomminus" xlink:href="#zoomMin" x="42" y="9" onmousedown="handleZoom(evt,'out')"/>
                <use id="reset" xlink:href="#resetDef" x="30" y="36" onmousedown="handleReset()"/>
                <g id="arrowUp" xlink:href="#dirArrow" transform="translate(30 24)" onmousedown="handlePan(0,-1)">
                  <use xlink:href="#rim" fill="#404040">
                        <set attributeName="fill" to="#808080" begin="arrowUp.mouseover" end="arrowUp.mouseout"/>
                  </use>
                  <path fill="none" stroke="white" stroke-width="1.5" d="M0,-3.0v7 M-2.5,-0.5L0,-3.0L2.5,-0.5"/>
                </g>
                <g id="arrowRight" xlink:href="#dirArrow" transform="rotate(90) translate(36 -43)" onmousedown="handlePan(1,0)">
                  <use xlink:href="#rim" fill="#404040">
                        <set attributeName="fill" to="#808080" begin="arrowRight.mouseover" end="arrowRight.mouseout"/>
                  </use>
                  <path fill="none" stroke="white" stroke-width="1.5" d="M0,-3.0v7 M-2.5,-0.5L0,-3.0L2.5,-0.5"/>
                </g>
                <g id="arrowDown" xlink:href="#dirArrow" transform="rotate(180) translate(-30 -48)" onmousedown="handlePan(0,1)">
                  <use xlink:href="#rim" fill="#404040">
                        <set attributeName="fill" to="#808080" begin="arrowDown.mouseover" end="arrowDown.mouseout"/>
                  </use>
                  <path fill="none" stroke="white" stroke-width="1.5" d="M0,-3.0v7 M-2.5,-0.5L0,-3.0L2.5,-0.5"/>
                </g>
                <g id="arrowLeft" xlink:href="#dirArrow" transform="rotate(270) translate(-36 17)" onmousedown="handlePan(-1,0)">
                  <use xlink:href="#rim" fill="#404040">
                        <set attributeName="fill" to="#808080" begin="arrowLeft.mouseover" end="arrowLeft.mouseout"/>
                  </use>
                  <path fill="none" stroke="white" stroke-width="1.5" d="M0,-3.0v7 M-2.5,-0.5L0,-3.0L2.5,-0.5"/>
                </g>
        </g>
        <svg viewBox="0 0 15 15" width="100%" height="30px" preserveAspectRatio="xMaxYMin meet">
         <g id="arrow_out" transform="scale(0.3 0.3)">
          <a xlink:href="class_f_e_l_analysis__coll__graph_org.svg" target="_base">
           <rect id="button" ry="5" rx="5" y="6" x="6" height="38" width="38"
                fill="#f2f5e9" fill-opacity="0.5" stroke="#606060" stroke-width="1.0"/>
           <path id="arrow"
             d="M 11.500037,31.436501 C 11.940474,20.09759 22.043105,11.32322 32.158766,21.979434 L 37.068811,17.246167 C 37.068811,17.246167 37.088388,32 37.088388,32 L 22.160133,31.978069 C 22.160133,31.978069 26.997745,27.140456 26.997745,27.140456 C 18.528582,18.264221 13.291696,25.230495 11.500037,31.436501 z"
             style="fill:#404040;"/>
          </a>
         </g>
        </svg>
</svg>
