<?xml version="1.0" encoding="UTF-8" standalone="no"?>
<!DOCTYPE svg PUBLIC "-//W3C//DTD SVG 1.1//EN"
 "http://www.w3.org/Graphics/SVG/1.1/DTD/svg11.dtd">
<!-- Generated by graphviz version 2.36.0 (20140111.2315)
 -->
<!-- Title: FELradiation Pages: 1 -->
<svg width="291pt" height="422pt"
 viewBox="0.00 0.00 291.00 422.00" xmlns="http://www.w3.org/2000/svg" xmlns:xlink="http://www.w3.org/1999/xlink">
<g id="graph0" class="graph" transform="scale(1 1) rotate(0) translate(4 418)">
<title>FELradiation</title>
<polygon fill="white" stroke="none" points="-4,4 -4,-418 287,-418 287,4 -4,4"/>
<!-- Node1 -->
<g id="node1" class="node"><title>Node1</title>
<polygon fill="#bfbfbf" stroke="black" points="95,-0.5 95,-101.5 195,-101.5 195,-0.5 95,-0.5"/>
<text text-anchor="middle" x="145" y="-89.5" font-family="Helvetica,sans-Serif" font-size="10.00">FELradiation</text>
<polyline fill="none" stroke="black" points="95,-82.5 195,-82.5 "/>
<text text-anchor="middle" x="145" y="-70.5" font-family="Helvetica,sans-Serif" font-size="10.00"> </text>
<polyline fill="none" stroke="black" points="95,-63.5 195,-63.5 "/>
<text text-anchor="start" x="103" y="-51.5" font-family="Helvetica,sans-Serif" font-size="10.00">+ FELradiation()</text>
<text text-anchor="start" x="103" y="-40.5" font-family="Helvetica,sans-Serif" font-size="10.00">+ FELradiation()</text>
<text text-anchor="start" x="103" y="-29.5" font-family="Helvetica,sans-Serif" font-size="10.00">+ set_wavelength()</text>
<text text-anchor="start" x="103" y="-18.5" font-family="Helvetica,sans-Serif" font-size="10.00">+ get_wavelength()</text>
<text text-anchor="start" x="103" y="-7.5" font-family="Helvetica,sans-Serif" font-size="10.00">+ info()</text>
</g>
<!-- Node2 -->
<g id="node2" class="node"><title>Node2</title>
<g id="a_node2"><a xlink:href="classdefault_params.html" target="_top" xlink:title="CONSTANTS_H_. ">
<polygon fill="white" stroke="black" points="97.5,-140.5 97.5,-197.5 192.5,-197.5 192.5,-140.5 97.5,-140.5"/>
<text text-anchor="middle" x="145" y="-185.5" font-family="Helvetica,sans-Serif" font-size="10.00">defaultParams</text>
<polyline fill="none" stroke="black" points="97.5,-178.5 192.5,-178.5 "/>
<text text-anchor="middle" x="145" y="-166.5" font-family="Helvetica,sans-Serif" font-size="10.00"> </text>
<polyline fill="none" stroke="black" points="97.5,-159.5 192.5,-159.5 "/>
<text text-anchor="start" x="105.5" y="-147.5" font-family="Helvetica,sans-Serif" font-size="10.00">+ defaultParams()</text>
</a>
</g>
</g>
<!-- Node2&#45;&gt;Node1 -->
<g id="edge1" class="edge"><title>Node2&#45;&gt;Node1</title>
<path fill="none" stroke="midnightblue" d="M145,-130.025C145,-121.004 145,-111.246 145,-101.786"/>
<polygon fill="none" stroke="midnightblue" points="141.5,-130.215 145,-140.215 148.5,-130.215 141.5,-130.215"/>
</g>
<!-- Node3 -->
<g id="node3" class="node"><title>Node3</title>
<g id="a_node3"><a xlink:href="structdefault_params_1_1otherparams.html" target="_top" xlink:title="{defaultParams::otherparams\n|+ allowedScanParams\l+ allowedObjeParams\l|}">
<polygon fill="white" stroke="black" points="0,-296 0,-364 140,-364 140,-296 0,-296"/>
<text text-anchor="middle" x="70" y="-352" font-family="Helvetica,sans-Serif" font-size="10.00">defaultParams::otherparams</text>
<polyline fill="none" stroke="black" points="0,-345 140,-345 "/>
<text text-anchor="start" x="8" y="-333" font-family="Helvetica,sans-Serif" font-size="10.00">+ allowedScanParams</text>
<text text-anchor="start" x="8" y="-322" font-family="Helvetica,sans-Serif" font-size="10.00">+ allowedObjeParams</text>
<polyline fill="none" stroke="black" points="0,-315 140,-315 "/>
<text text-anchor="middle" x="70" y="-303" font-family="Helvetica,sans-Serif" font-size="10.00"> </text>
</a>
</g>
</g>
<!-- Node3&#45;&gt;Node2 -->
<g id="edge2" class="edge"><title>Node3&#45;&gt;Node2</title>
<path fill="none" stroke="#404040" d="M85.7225,-295.668C97.6584,-270.364 114.099,-235.51 126.639,-208.926"/>
<polygon fill="none" stroke="#404040" points="126.803,-208.578 125.745,-201.445 131.922,-197.725 132.98,-204.858 126.803,-208.578"/>
<text text-anchor="middle" x="146" y="-219.5" font-family="Helvetica,sans-Serif" font-size="10.00"> #oparams</text>
</g>
<!-- Node4 -->
<g id="node4" class="node"><title>Node4</title>
<g id="a_node4"><a xlink:href="structdefault_params_1_1paramlist.html" target="_top" xlink:title="&lt; paramlist: structure of default input parameters list ">
<polygon fill="white" stroke="black" points="158.5,-246.5 158.5,-413.5 283.5,-413.5 283.5,-246.5 158.5,-246.5"/>
<text text-anchor="middle" x="221" y="-401.5" font-family="Helvetica,sans-Serif" font-size="10.00">defaultParams::paramlist</text>
<polyline fill="none" stroke="black" points="158.5,-394.5 283.5,-394.5 "/>
<text text-anchor="start" x="166.5" y="-382.5" font-family="Helvetica,sans-Serif" font-size="10.00">+ seedEx</text>
<text text-anchor="start" x="166.5" y="-371.5" font-family="Helvetica,sans-Serif" font-size="10.00">+ seedEy</text>
<text text-anchor="start" x="166.5" y="-360.5" font-family="Helvetica,sans-Serif" font-size="10.00">+ undulatorField</text>
<text text-anchor="start" x="166.5" y="-349.5" font-family="Helvetica,sans-Serif" font-size="10.00">+ undulatorPeriod</text>
<text text-anchor="start" x="166.5" y="-338.5" font-family="Helvetica,sans-Serif" font-size="10.00">+ undulatorNstep</text>
<text text-anchor="start" x="166.5" y="-327.5" font-family="Helvetica,sans-Serif" font-size="10.00">+ undulatorNum</text>
<text text-anchor="start" x="166.5" y="-316.5" font-family="Helvetica,sans-Serif" font-size="10.00">+ electronAvgBetaFunc</text>
<text text-anchor="start" x="166.5" y="-305.5" font-family="Helvetica,sans-Serif" font-size="10.00">+ electronCentralEnergy</text>
<text text-anchor="start" x="166.5" y="-294.5" font-family="Helvetica,sans-Serif" font-size="10.00">+ electronEnergySpread</text>
<text text-anchor="start" x="166.5" y="-283.5" font-family="Helvetica,sans-Serif" font-size="10.00">+ electronEmitnx</text>
<text text-anchor="start" x="166.5" y="-272.5" font-family="Helvetica,sans-Serif" font-size="10.00">and 11 more...</text>
<polyline fill="none" stroke="black" points="158.5,-265.5 283.5,-265.5 "/>
<text text-anchor="middle" x="221" y="-253.5" font-family="Helvetica,sans-Serif" font-size="10.00"> </text>
</a>
</g>
</g>
<!-- Node4&#45;&gt;Node2 -->
<g id="edge3" class="edge"><title>Node4&#45;&gt;Node2</title>
<path fill="none" stroke="#404040" d="M187.506,-246.272C182.855,-235.973 177.964,-225.671 173,-216 171.703,-213.474 170.32,-210.899 168.889,-208.323"/>
<polygon fill="none" stroke="#404040" points="168.841,-208.24 162.376,-205.046 162.837,-197.85 169.302,-201.044 168.841,-208.24"/>
<text text-anchor="middle" x="202" y="-219.5" font-family="Helvetica,sans-Serif" font-size="10.00"> #dparams</text>
</g>
</g>
</svg>
