<?xml version="1.0" encoding="UTF-8" standalone="no"?>
<!DOCTYPE svg PUBLIC "-//W3C//DTD SVG 1.1//EN"
 "http://www.w3.org/Graphics/SVG/1.1/DTD/svg11.dtd">
<!-- Generated by graphviz version 2.36.0 (20140111.2315)
 -->
<!-- Title: scanpanel::updateVarlist Pages: 1 -->
<!--zoomable 430 -->
<svg id="main" version="1.1" xmlns="http://www.w3.org/2000/svg" xmlns:xlink="http://www.w3.org/1999/xlink" xml:space="preserve" onload="init(evt)">
<style type="text/css"><![CDATA[
.edge:hover path { stroke: red; }
.edge:hover polygon { stroke: red; fill: red; }
]]></style>
<script type="text/javascript"><![CDATA[
var edges = document.getElementsByTagName('g');
if (edges && edges.length) {
  for (var i=0;i<edges.length;i++) {
    if (edges[i].id.substr(0,4)=='edge') {
      edges[i].setAttribute('class','edge');
    }
  }
}
]]></script>
        <defs>
                <circle id="rim" cx="0" cy="0" r="7"/>
                <circle id="rim2" cx="0" cy="0" r="3.5"/>
                <g id="zoomPlus">
                        <use xlink:href="#rim" fill="#404040">
                                <set attributeName="fill" to="#808080" begin="zoomplus.mouseover" end="zoomplus.mouseout"/>
                        </use>
                        <path d="M-4,0h8M0,-4v8" fill="none" stroke="white" stroke-width="1.5" pointer-events="none"/>
                </g>
                <g id="zoomMin">
                        <use xlink:href="#rim" fill="#404040">
                                <set attributeName="fill" to="#808080" begin="zoomminus.mouseover" end="zoomminus.mouseout"/>
                        </use>
                        <path d="M-4,0h8" fill="none" stroke="white" stroke-width="1.5" pointer-events="none"/>
                </g>
                <g id="dirArrow">
                        <path fill="none" stroke="white" stroke-width="1.5" d="M0,-3.0v7 M-2.5,-0.5L0,-3.0L2.5,-0.5"/>
                </g>
               <g id="resetDef">
                       <use xlink:href="#rim2" fill="#404040">
                               <set attributeName="fill" to="#808080" begin="reset.mouseover" end="reset.mouseout"/>
                       </use>
               </g>
        </defs>

<script type="text/javascript">
var viewWidth = 510;
var viewHeight = 430;
var sectionId = 'dynsection-8';
</script>
<script xlink:href="svgpan.js"/>
<svg id="graph" class="graph">
<g id="viewport">
<title>scanpanel::updateVarlist</title>
<polygon fill="white" stroke="none" points="-4,4 -4,-426 506,-426 506,4 -4,4"/>
<!-- Node1 -->
<g id="node1" class="node"><title>Node1</title>
<polygon fill="#bfbfbf" stroke="black" points="0,-180.5 0,-199.5 124,-199.5 124,-180.5 0,-180.5"/>
<text text-anchor="middle" x="62" y="-187.5" font-family="Helvetica,sans-Serif" font-size="10.00">scanpanel::updateVarlist</text>
</g>
<!-- Node2 -->
<g id="node2" class="node"><title>Node2</title>
<g id="a_node2"><a xlink:href="readinput_8cpp.html#aa8e009615e0c90278ea678ee0b8bbfc7" target="_top" xlink:title="convert double into string ">
<polygon fill="white" stroke="black" points="210,-285.5 210,-304.5 256,-304.5 256,-285.5 210,-285.5"/>
<text text-anchor="middle" x="233" y="-292.5" font-family="Helvetica,sans-Serif" font-size="10.00">dbl2str</text>
</a>
</g>
</g>
<!-- Node1&#45;&gt;Node2 -->
<g id="edge1" class="edge"><title>Node1&#45;&gt;Node2</title>
<path fill="none" stroke="midnightblue" d="M71.0139,-199.612C86.3912,-217.425 121.907,-255.599 160,-276 172.32,-282.598 187.073,-287.012 200.009,-289.909"/>
<polygon fill="midnightblue" stroke="midnightblue" points="199.415,-293.36 209.912,-291.921 200.809,-286.5 199.415,-293.36"/>
</g>
<!-- Node3 -->
<g id="node3" class="node"><title>Node3</title>
<g id="a_node3"><a xlink:href="classscanpanel.html#a892cbc5c1eeafa7be9d8ddecaee3d68e" target="_top" xlink:title="scanpanel::set_electronBeam">
<polygon fill="white" stroke="black" points="160,-247.5 160,-266.5 306,-266.5 306,-247.5 160,-247.5"/>
<text text-anchor="middle" x="233" y="-254.5" font-family="Helvetica,sans-Serif" font-size="10.00">scanpanel::set_electronBeam</text>
</a>
</g>
</g>
<!-- Node1&#45;&gt;Node3 -->
<g id="edge2" class="edge"><title>Node1&#45;&gt;Node3</title>
<path fill="none" stroke="midnightblue" d="M87.2136,-199.599C116.329,-211.142 165.368,-230.584 198.202,-243.601"/>
<polygon fill="midnightblue" stroke="midnightblue" points="197.245,-246.986 207.831,-247.418 199.825,-240.479 197.245,-246.986"/>
</g>
<!-- Node10 -->
<g id="node10" class="node"><title>Node10</title>
<g id="a_node10"><a xlink:href="classscanpanel.html#a039ed64a56edba772f36f872d65c61d0" target="_top" xlink:title="scanpanel::set_undulator">
<polygon fill="white" stroke="black" points="170.5,-114.5 170.5,-133.5 295.5,-133.5 295.5,-114.5 170.5,-114.5"/>
<text text-anchor="middle" x="233" y="-121.5" font-family="Helvetica,sans-Serif" font-size="10.00">scanpanel::set_undulator</text>
</a>
</g>
</g>
<!-- Node1&#45;&gt;Node10 -->
<g id="edge9" class="edge"><title>Node1&#45;&gt;Node10</title>
<path fill="none" stroke="midnightblue" d="M87.5741,-180.403C116.694,-169.031 165.377,-150.018 198.075,-137.249"/>
<polygon fill="midnightblue" stroke="midnightblue" points="199.629,-140.399 207.67,-133.501 197.082,-133.879 199.629,-140.399"/>
</g>
<!-- Node15 -->
<g id="node15" class="node"><title>Node15</title>
<g id="a_node15"><a xlink:href="classscanpanel.html#ae742a13334bed97f6e39d4dca1be16a1" target="_top" xlink:title="scanpanel::set_FELradiation">
<polygon fill="white" stroke="black" points="163,-38.5 163,-57.5 303,-57.5 303,-38.5 163,-38.5"/>
<text text-anchor="middle" x="233" y="-45.5" font-family="Helvetica,sans-Serif" font-size="10.00">scanpanel::set_FELradiation</text>
</a>
</g>
</g>
<!-- Node1&#45;&gt;Node15 -->
<g id="edge14" class="edge"><title>Node1&#45;&gt;Node15</title>
<path fill="none" stroke="midnightblue" d="M73.614,-180.389C91.2954,-164.449 128.002,-131.658 160,-105 176.94,-90.8872 196.59,-75.3876 211.078,-64.1183"/>
<polygon fill="midnightblue" stroke="midnightblue" points="213.601,-66.5907 219.361,-57.6984 209.313,-61.0579 213.601,-66.5907"/>
</g>
<!-- Node4 -->
<g id="node4" class="node"><title>Node4</title>
<g id="a_node4"><a xlink:href="classelectron_beam.html#a787d3e61816281618f284ef3bb2e1ebb" target="_top" xlink:title="beam energy, $$ ">
<polygon fill="white" stroke="black" points="356.5,-392 356.5,-422 487.5,-422 487.5,-392 356.5,-392"/>
<text text-anchor="start" x="364.5" y="-410" font-family="Helvetica,sans-Serif" font-size="10.00">electronBeam::set_central</text>
<text text-anchor="middle" x="422" y="-399" font-family="Helvetica,sans-Serif" font-size="10.00">Energy</text>
</a>
</g>
</g>
<!-- Node3&#45;&gt;Node4 -->
<g id="edge3" class="edge"><title>Node3&#45;&gt;Node4</title>
<path fill="none" stroke="midnightblue" d="M291.793,-266.526C296.984,-269.012 301.841,-272.12 306,-276 342.381,-309.94 306.453,-347.188 342,-382 343.844,-383.805 345.817,-385.481 347.892,-387.035"/>
<polygon fill="midnightblue" stroke="midnightblue" points="346.038,-390.004 356.347,-392.451 349.814,-384.11 346.038,-390.004"/>
</g>
<!-- Node5 -->
<g id="node5" class="node"><title>Node5</title>
<g id="a_node5"><a xlink:href="classelectron_beam.html#a7e4cff020876ed5b43499b60ad1822cd" target="_top" xlink:title="rms energy spread, $$ ">
<polygon fill="white" stroke="black" points="356.5,-343 356.5,-373 487.5,-373 487.5,-343 356.5,-343"/>
<text text-anchor="start" x="364.5" y="-361" font-family="Helvetica,sans-Serif" font-size="10.00">electronBeam::set_energy</text>
<text text-anchor="middle" x="422" y="-350" font-family="Helvetica,sans-Serif" font-size="10.00">Spread</text>
</a>
</g>
</g>
<!-- Node3&#45;&gt;Node5 -->
<g id="edge4" class="edge"><title>Node3&#45;&gt;Node5</title>
<path fill="none" stroke="midnightblue" d="M288.338,-266.538C294.627,-269.001 300.683,-272.101 306,-276 330.162,-293.719 318.274,-314.701 342,-333 344.428,-334.872 346.999,-336.606 349.672,-338.212"/>
<polygon fill="midnightblue" stroke="midnightblue" points="348.039,-341.307 358.511,-342.915 351.327,-335.128 348.039,-341.307"/>
</g>
<!-- Node6 -->
<g id="node6" class="node"><title>Node6</title>
<g id="a_node6"><a xlink:href="classelectron_beam.html#a9e750f50d228ef648b6b607afac44c77" target="_top" xlink:title="normalized emittance in x ">
<polygon fill="white" stroke="black" points="356.5,-304.5 356.5,-323.5 487.5,-323.5 487.5,-304.5 356.5,-304.5"/>
<text text-anchor="middle" x="422" y="-311.5" font-family="Helvetica,sans-Serif" font-size="10.00">electronBeam::set_emitnx</text>
</a>
</g>
</g>
<!-- Node3&#45;&gt;Node6 -->
<g id="edge5" class="edge"><title>Node3&#45;&gt;Node6</title>
<path fill="none" stroke="midnightblue" d="M276.774,-266.573C286.517,-269.224 296.726,-272.383 306,-276 322.855,-282.573 325.073,-288.613 342,-295 348.714,-297.534 355.88,-299.811 363.053,-301.833"/>
<polygon fill="midnightblue" stroke="midnightblue" points="362.231,-305.236 372.796,-304.433 364.036,-298.473 362.231,-305.236"/>
</g>
<!-- Node7 -->
<g id="node7" class="node"><title>Node7</title>
<g id="a_node7"><a xlink:href="classelectron_beam.html#aacb24d39f88c45a62e5fbd5516e43bfb" target="_top" xlink:title="normalized emittance in y ">
<polygon fill="white" stroke="black" points="356.5,-266.5 356.5,-285.5 487.5,-285.5 487.5,-266.5 356.5,-266.5"/>
<text text-anchor="middle" x="422" y="-273.5" font-family="Helvetica,sans-Serif" font-size="10.00">electronBeam::set_emitny</text>
</a>
</g>
</g>
<!-- Node3&#45;&gt;Node7 -->
<g id="edge6" class="edge"><title>Node3&#45;&gt;Node7</title>
<path fill="none" stroke="midnightblue" d="M306.032,-264.319C319.232,-265.66 333.035,-267.062 346.311,-268.411"/>
<polygon fill="midnightblue" stroke="midnightblue" points="346.039,-271.902 356.342,-269.43 346.747,-264.937 346.039,-271.902"/>
</g>
<!-- Node8 -->
<g id="node8" class="node"><title>Node8</title>
<g id="a_node8"><a xlink:href="classelectron_beam.html#a1e6b08af9247eca49c00af3d3c57cd6f" target="_top" xlink:title="peak current, [A] ">
<polygon fill="white" stroke="black" points="344.5,-228.5 344.5,-247.5 499.5,-247.5 499.5,-228.5 344.5,-228.5"/>
<text text-anchor="middle" x="422" y="-235.5" font-family="Helvetica,sans-Serif" font-size="10.00">electronBeam::set_peakCurrent</text>
</a>
</g>
</g>
<!-- Node3&#45;&gt;Node8 -->
<g id="edge7" class="edge"><title>Node3&#45;&gt;Node8</title>
<path fill="none" stroke="midnightblue" d="M306.032,-249.681C315.25,-248.745 324.762,-247.778 334.184,-246.821"/>
<polygon fill="midnightblue" stroke="midnightblue" points="334.758,-250.281 344.353,-245.788 334.05,-243.317 334.758,-250.281"/>
</g>
<!-- Node9 -->
<g id="node9" class="node"><title>Node9</title>
<g id="a_node9"><a xlink:href="classelectron_beam.html#a3c9af6b4b9f079eb078200ac4c91812f" target="_top" xlink:title="average beta function, [m] ">
<polygon fill="white" stroke="black" points="342.5,-190.5 342.5,-209.5 501.5,-209.5 501.5,-190.5 342.5,-190.5"/>
<text text-anchor="middle" x="422" y="-197.5" font-family="Helvetica,sans-Serif" font-size="10.00">electronBeam::set_avgBetaFunc</text>
</a>
</g>
</g>
<!-- Node3&#45;&gt;Node9 -->
<g id="edge8" class="edge"><title>Node3&#45;&gt;Node9</title>
<path fill="none" stroke="midnightblue" d="M259.075,-247.356C280.813,-239.194 313.215,-227.501 342,-219 350.355,-216.532 359.276,-214.15 368.005,-211.954"/>
<polygon fill="midnightblue" stroke="midnightblue" points="368.862,-215.348 377.737,-209.561 367.19,-208.551 368.862,-215.348"/>
</g>
<!-- Node11 -->
<g id="node11" class="node"><title>Node11</title>
<g id="a_node11"><a xlink:href="classundulator.html#a7a27a3ad42f9d826929d68e04105c7f1" target="_top" xlink:title="peak magnetic field, [T] ">
<polygon fill="white" stroke="black" points="372.5,-152.5 372.5,-171.5 471.5,-171.5 471.5,-152.5 372.5,-152.5"/>
<text text-anchor="middle" x="422" y="-159.5" font-family="Helvetica,sans-Serif" font-size="10.00">undulator::set_field</text>
</a>
</g>
</g>
<!-- Node10&#45;&gt;Node11 -->
<g id="edge10" class="edge"><title>Node10&#45;&gt;Node11</title>
<path fill="none" stroke="midnightblue" d="M281.188,-133.589C306.42,-138.716 337.673,-145.067 364.227,-150.463"/>
<polygon fill="midnightblue" stroke="midnightblue" points="363.655,-153.918 374.151,-152.48 365.049,-147.059 363.655,-153.918"/>
</g>
<!-- Node12 -->
<g id="node12" class="node"><title>Node12</title>
<g id="a_node12"><a xlink:href="classundulator.html#a9e87429b74fd3e518da8b64ba7f5dc3e" target="_top" xlink:title="period length, [m] ">
<polygon fill="white" stroke="black" points="368.5,-114.5 368.5,-133.5 475.5,-133.5 475.5,-114.5 368.5,-114.5"/>
<text text-anchor="middle" x="422" y="-121.5" font-family="Helvetica,sans-Serif" font-size="10.00">undulator::set_period</text>
</a>
</g>
</g>
<!-- Node10&#45;&gt;Node12 -->
<g id="edge11" class="edge"><title>Node10&#45;&gt;Node12</title>
<path fill="none" stroke="midnightblue" d="M295.749,-124C315.862,-124 338.199,-124 358.376,-124"/>
<polygon fill="midnightblue" stroke="midnightblue" points="358.396,-127.5 368.396,-124 358.396,-120.5 358.396,-127.5"/>
</g>
<!-- Node13 -->
<g id="node13" class="node"><title>Node13</title>
<g id="a_node13"><a xlink:href="classundulator.html#ac2a1d4ec90aa751762c3e8cb6b99e439" target="_top" xlink:title="integration steps per period ">
<polygon fill="white" stroke="black" points="369.5,-76.5 369.5,-95.5 474.5,-95.5 474.5,-76.5 369.5,-76.5"/>
<text text-anchor="middle" x="422" y="-83.5" font-family="Helvetica,sans-Serif" font-size="10.00">undulator::set_nstep</text>
</a>
</g>
</g>
<!-- Node10&#45;&gt;Node13 -->
<g id="edge12" class="edge"><title>Node10&#45;&gt;Node13</title>
<path fill="none" stroke="midnightblue" d="M281.188,-114.411C306.42,-109.284 337.673,-102.933 364.227,-97.5368"/>
<polygon fill="midnightblue" stroke="midnightblue" points="365.049,-100.941 374.151,-95.5201 363.655,-94.0816 365.049,-100.941"/>
</g>
<!-- Node14 -->
<g id="node14" class="node"><title>Node14</title>
<g id="a_node14"><a xlink:href="classundulator.html#ab7da54eee638d6b1fbe9fba7abf68310" target="_top" xlink:title="total period number ">
<polygon fill="white" stroke="black" points="372,-38.5 372,-57.5 472,-57.5 472,-38.5 372,-38.5"/>
<text text-anchor="middle" x="422" y="-45.5" font-family="Helvetica,sans-Serif" font-size="10.00">undulator::set_num</text>
</a>
</g>
</g>
<!-- Node10&#45;&gt;Node14 -->
<g id="edge13" class="edge"><title>Node10&#45;&gt;Node14</title>
<path fill="none" stroke="midnightblue" d="M249.169,-114.426C269.565,-101.925 307.287,-80.0987 342,-67 348.714,-64.4663 355.88,-62.1893 363.053,-60.167"/>
<polygon fill="midnightblue" stroke="midnightblue" points="364.036,-63.5271 372.796,-57.567 362.231,-56.7638 364.036,-63.5271"/>
</g>
<!-- Node16 -->
<g id="node16" class="node"><title>Node16</title>
<g id="a_node16"><a xlink:href="class_f_e_lradiation.html#a05d0489861b497819884e81019c546ca" target="_top" xlink:title="central wavelength, [m] ">
<polygon fill="white" stroke="black" points="349,-0.5 349,-19.5 495,-19.5 495,-0.5 349,-0.5"/>
<text text-anchor="middle" x="422" y="-7.5" font-family="Helvetica,sans-Serif" font-size="10.00">FELradiation::set_wavelength</text>
</a>
</g>
</g>
<!-- Node15&#45;&gt;Node16 -->
<g id="edge15" class="edge"><title>Node15&#45;&gt;Node16</title>
<path fill="none" stroke="midnightblue" d="M281.188,-38.411C306.42,-33.2835 337.673,-26.9328 364.227,-21.5368"/>
<polygon fill="midnightblue" stroke="midnightblue" points="365.049,-24.9414 374.151,-19.5201 363.655,-18.0816 365.049,-24.9414"/>
</g>
</g>
</svg>
        <g id="navigator" transform="translate(0 0)" fill="#404254">
                <rect fill="#f2f5e9" fill-opacity="0.5" stroke="#606060" stroke-width=".5" x="0" y="0" width="60" height="60"/>
                <use id="zoomplus" xlink:href="#zoomPlus" x="17" y="9" onmousedown="handleZoom(evt,'in')"/>
                <use id="zoomminus" xlink:href="#zoomMin" x="42" y="9" onmousedown="handleZoom(evt,'out')"/>
                <use id="reset" xlink:href="#resetDef" x="30" y="36" onmousedown="handleReset()"/>
                <g id="arrowUp" xlink:href="#dirArrow" transform="translate(30 24)" onmousedown="handlePan(0,-1)">
                  <use xlink:href="#rim" fill="#404040">
                        <set attributeName="fill" to="#808080" begin="arrowUp.mouseover" end="arrowUp.mouseout"/>
                  </use>
                  <path fill="none" stroke="white" stroke-width="1.5" d="M0,-3.0v7 M-2.5,-0.5L0,-3.0L2.5,-0.5"/>
                </g>
                <g id="arrowRight" xlink:href="#dirArrow" transform="rotate(90) translate(36 -43)" onmousedown="handlePan(1,0)">
                  <use xlink:href="#rim" fill="#404040">
                        <set attributeName="fill" to="#808080" begin="arrowRight.mouseover" end="arrowRight.mouseout"/>
                  </use>
                  <path fill="none" stroke="white" stroke-width="1.5" d="M0,-3.0v7 M-2.5,-0.5L0,-3.0L2.5,-0.5"/>
                </g>
                <g id="arrowDown" xlink:href="#dirArrow" transform="rotate(180) translate(-30 -48)" onmousedown="handlePan(0,1)">
                  <use xlink:href="#rim" fill="#404040">
                        <set attributeName="fill" to="#808080" begin="arrowDown.mouseover" end="arrowDown.mouseout"/>
                  </use>
                  <path fill="none" stroke="white" stroke-width="1.5" d="M0,-3.0v7 M-2.5,-0.5L0,-3.0L2.5,-0.5"/>
                </g>
                <g id="arrowLeft" xlink:href="#dirArrow" transform="rotate(270) translate(-36 17)" onmousedown="handlePan(-1,0)">
                  <use xlink:href="#rim" fill="#404040">
                        <set attributeName="fill" to="#808080" begin="arrowLeft.mouseover" end="arrowLeft.mouseout"/>
                  </use>
                  <path fill="none" stroke="white" stroke-width="1.5" d="M0,-3.0v7 M-2.5,-0.5L0,-3.0L2.5,-0.5"/>
                </g>
        </g>
        <svg viewBox="0 0 15 15" width="100%" height="30px" preserveAspectRatio="xMaxYMin meet">
         <g id="arrow_out" transform="scale(0.3 0.3)">
          <a xlink:href="classscanpanel_a1338695a9884249cea3397a4f75c4fe5_cgraph_org.svg" target="_base">
           <rect id="button" ry="5" rx="5" y="6" x="6" height="38" width="38"
                fill="#f2f5e9" fill-opacity="0.5" stroke="#606060" stroke-width="1.0"/>
           <path id="arrow"
             d="M 11.500037,31.436501 C 11.940474,20.09759 22.043105,11.32322 32.158766,21.979434 L 37.068811,17.246167 C 37.068811,17.246167 37.088388,32 37.088388,32 L 22.160133,31.978069 C 22.160133,31.978069 26.997745,27.140456 26.997745,27.140456 C 18.528582,18.264221 13.291696,25.230495 11.500037,31.436501 z"
             style="fill:#404040;"/>
          </a>
         </g>
        </svg>
</svg>
