<?xml version="1.0" encoding="UTF-8" standalone="no"?>
<!DOCTYPE svg PUBLIC "-//W3C//DTD SVG 1.1//EN"
 "http://www.w3.org/Graphics/SVG/1.1/DTD/svg11.dtd">
<!-- Generated by graphviz version 2.36.0 (20140111.2315)
 -->
<!-- Title: constants.cpp Pages: 1 -->
<svg width="241pt" height="140pt"
 viewBox="0.00 0.00 241.00 140.00" xmlns="http://www.w3.org/2000/svg" xmlns:xlink="http://www.w3.org/1999/xlink">
<g id="graph0" class="graph" transform="scale(1 1) rotate(0) translate(4 136)">
<title>constants.cpp</title>
<polygon fill="white" stroke="none" points="-4,4 -4,-136 237,-136 237,4 -4,4"/>
<!-- Node1 -->
<g id="node1" class="node"><title>Node1</title>
<polygon fill="#bfbfbf" stroke="black" points="99,-112.5 99,-131.5 177,-131.5 177,-112.5 99,-112.5"/>
<text text-anchor="middle" x="138" y="-119.5" font-family="Helvetica,sans-Serif" font-size="10.00">constants.cpp</text>
</g>
<!-- Node2 -->
<g id="node2" class="node"><title>Node2</title>
<g id="a_node2"><a xlink:href="constants_8h.html" target="_top" xlink:title="constants.h">
<polygon fill="white" stroke="black" points="25,-56.5 25,-75.5 93,-75.5 93,-56.5 25,-56.5"/>
<text text-anchor="middle" x="59" y="-63.5" font-family="Helvetica,sans-Serif" font-size="10.00">constants.h</text>
</a>
</g>
</g>
<!-- Node1&#45;&gt;Node2 -->
<g id="edge1" class="edge"><title>Node1&#45;&gt;Node2</title>
<path fill="none" stroke="midnightblue" d="M125.307,-112.324C113.099,-103.979 94.4215,-91.2122 79.9971,-81.3524"/>
<polygon fill="midnightblue" stroke="midnightblue" points="81.892,-78.4082 71.6612,-75.6545 77.9418,-84.1871 81.892,-78.4082"/>
</g>
<!-- Node5 -->
<g id="node5" class="node"><title>Node5</title>
<polygon fill="white" stroke="#bfbfbf" points="111,-56.5 111,-75.5 165,-75.5 165,-56.5 111,-56.5"/>
<text text-anchor="middle" x="138" y="-63.5" font-family="Helvetica,sans-Serif" font-size="10.00">iostream</text>
</g>
<!-- Node1&#45;&gt;Node5 -->
<g id="edge4" class="edge"><title>Node1&#45;&gt;Node5</title>
<path fill="none" stroke="midnightblue" d="M138,-112.083C138,-105.006 138,-94.8611 138,-85.9865"/>
<polygon fill="midnightblue" stroke="midnightblue" points="141.5,-85.751 138,-75.7511 134.5,-85.7511 141.5,-85.751"/>
</g>
<!-- Node6 -->
<g id="node6" class="node"><title>Node6</title>
<polygon fill="white" stroke="#bfbfbf" points="183,-56.5 183,-75.5 233,-75.5 233,-56.5 183,-56.5"/>
<text text-anchor="middle" x="208" y="-63.5" font-family="Helvetica,sans-Serif" font-size="10.00">iomanip</text>
</g>
<!-- Node1&#45;&gt;Node6 -->
<g id="edge5" class="edge"><title>Node1&#45;&gt;Node6</title>
<path fill="none" stroke="midnightblue" d="M149.247,-112.324C159.797,-104.185 175.801,-91.8395 188.442,-82.0874"/>
<polygon fill="midnightblue" stroke="midnightblue" points="190.769,-84.7132 196.549,-75.8339 186.493,-79.1707 190.769,-84.7132"/>
</g>
<!-- Node3 -->
<g id="node3" class="node"><title>Node3</title>
<polygon fill="white" stroke="#bfbfbf" points="-0.5,-0.5 -0.5,-19.5 52.5,-19.5 52.5,-0.5 -0.5,-0.5"/>
<text text-anchor="middle" x="26" y="-7.5" font-family="Helvetica,sans-Serif" font-size="10.00">complex</text>
</g>
<!-- Node2&#45;&gt;Node3 -->
<g id="edge2" class="edge"><title>Node2&#45;&gt;Node3</title>
<path fill="none" stroke="midnightblue" d="M53.5507,-56.083C48.9855,-48.6127 42.3316,-37.7244 36.7066,-28.5199"/>
<polygon fill="midnightblue" stroke="midnightblue" points="39.5489,-26.4588 31.3479,-19.7511 33.5759,-30.109 39.5489,-26.4588"/>
</g>
<!-- Node4 -->
<g id="node4" class="node"><title>Node4</title>
<polygon fill="white" stroke="#bfbfbf" points="71,-0.5 71,-19.5 115,-19.5 115,-0.5 71,-0.5"/>
<text text-anchor="middle" x="93" y="-7.5" font-family="Helvetica,sans-Serif" font-size="10.00">vector</text>
</g>
<!-- Node2&#45;&gt;Node4 -->
<g id="edge3" class="edge"><title>Node2&#45;&gt;Node4</title>
<path fill="none" stroke="midnightblue" d="M64.6144,-56.083C69.3674,-48.5341 76.3181,-37.4948 82.1516,-28.2298"/>
<polygon fill="midnightblue" stroke="midnightblue" points="85.1237,-30.0783 87.4901,-19.7511 79.2001,-26.3486 85.1237,-30.0783"/>
</g>
</g>
</svg>
