<?xml version="1.0" encoding="UTF-8" standalone="no"?>
<!DOCTYPE svg PUBLIC "-//W3C//DTD SVG 1.1//EN"
 "http://www.w3.org/Graphics/SVG/1.1/DTD/svg11.dtd">
<!-- Generated by graphviz version 2.36.0 (20140111.2315)
 -->
<!-- Title: constants.h Pages: 1 -->
<svg width="335pt" height="196pt"
 viewBox="0.00 0.00 335.00 196.00" xmlns="http://www.w3.org/2000/svg" xmlns:xlink="http://www.w3.org/1999/xlink">
<g id="graph0" class="graph" transform="scale(1 1) rotate(0) translate(4 192)">
<title>constants.h</title>
<polygon fill="white" stroke="none" points="-4,4 -4,-192 331,-192 331,4 -4,4"/>
<!-- Node1 -->
<g id="node1" class="node"><title>Node1</title>
<polygon fill="#bfbfbf" stroke="black" points="104,-168.5 104,-187.5 172,-187.5 172,-168.5 104,-168.5"/>
<text text-anchor="middle" x="138" y="-175.5" font-family="Helvetica,sans-Serif" font-size="10.00">constants.h</text>
</g>
<!-- Node2 -->
<g id="node2" class="node"><title>Node2</title>
<g id="a_node2"><a xlink:href="constants_8cpp.html" target="_top" xlink:title="constants.cpp">
<polygon fill="white" stroke="black" points="0,-112.5 0,-131.5 78,-131.5 78,-112.5 0,-112.5"/>
<text text-anchor="middle" x="39" y="-119.5" font-family="Helvetica,sans-Serif" font-size="10.00">constants.cpp</text>
</a>
</g>
</g>
<!-- Node1&#45;&gt;Node2 -->
<g id="edge1" class="edge"><title>Node1&#45;&gt;Node2</title>
<path fill="none" stroke="midnightblue" d="M113.163,-163.453C94.8864,-153.483 70.5844,-140.228 54.8666,-131.655"/>
<polygon fill="midnightblue" stroke="midnightblue" points="111.639,-166.608 122.094,-168.324 114.991,-160.463 111.639,-166.608"/>
</g>
<!-- Node3 -->
<g id="node3" class="node"><title>Node3</title>
<g id="a_node3"><a xlink:href="elements_8h.html" target="_top" xlink:title="elements.h">
<polygon fill="white" stroke="black" points="137.5,-112.5 137.5,-131.5 202.5,-131.5 202.5,-112.5 137.5,-112.5"/>
<text text-anchor="middle" x="170" y="-119.5" font-family="Helvetica,sans-Serif" font-size="10.00">elements.h</text>
</a>
</g>
</g>
<!-- Node1&#45;&gt;Node3 -->
<g id="edge2" class="edge"><title>Node1&#45;&gt;Node3</title>
<path fill="none" stroke="midnightblue" d="M148.504,-159.275C153.973,-150.045 160.418,-139.17 164.814,-131.751"/>
<polygon fill="midnightblue" stroke="midnightblue" points="145.371,-157.696 143.284,-168.083 151.393,-161.264 145.371,-157.696"/>
</g>
<!-- Node4 -->
<g id="node4" class="node"><title>Node4</title>
<g id="a_node4"><a xlink:href="elements_8cpp.html" target="_top" xlink:title="elements.cpp">
<polygon fill="white" stroke="black" points="87.5,-0.5 87.5,-19.5 162.5,-19.5 162.5,-0.5 87.5,-0.5"/>
<text text-anchor="middle" x="125" y="-7.5" font-family="Helvetica,sans-Serif" font-size="10.00">elements.cpp</text>
</a>
</g>
</g>
<!-- Node1&#45;&gt;Node4 -->
<g id="edge9" class="edge"><title>Node1&#45;&gt;Node4</title>
<path fill="none" stroke="midnightblue" d="M133.605,-158.581C131.856,-150.477 130.02,-140.815 129,-132 124.143,-90.0331 124.447,-39.3744 124.802,-19.5441"/>
<polygon fill="midnightblue" stroke="midnightblue" points="130.217,-159.467 135.851,-168.44 137.042,-157.912 130.217,-159.467"/>
</g>
<!-- Node5 -->
<g id="node5" class="node"><title>Node5</title>
<g id="a_node5"><a xlink:href="methods_8h.html" target="_top" xlink:title="methods.h">
<polygon fill="white" stroke="black" points="210,-56.5 210,-75.5 272,-75.5 272,-56.5 210,-56.5"/>
<text text-anchor="middle" x="241" y="-63.5" font-family="Helvetica,sans-Serif" font-size="10.00">methods.h</text>
</a>
</g>
</g>
<!-- Node1&#45;&gt;Node5 -->
<g id="edge10" class="edge"><title>Node1&#45;&gt;Node5</title>
<path fill="none" stroke="midnightblue" d="M167.67,-163.823C182.203,-156.196 199.089,-145.433 211,-132 226.007,-115.075 234.839,-89.362 238.691,-75.911"/>
<polygon fill="midnightblue" stroke="midnightblue" points="165.922,-160.784 158.536,-168.379 169.047,-167.047 165.922,-160.784"/>
</g>
<!-- Node3&#45;&gt;Node4 -->
<g id="edge3" class="edge"><title>Node3&#45;&gt;Node4</title>
<path fill="none" stroke="midnightblue" d="M162.636,-102.998C152.817,-78.9968 135.828,-37.4683 128.515,-19.5914"/>
<polygon fill="midnightblue" stroke="midnightblue" points="159.443,-104.438 166.469,-112.368 165.922,-101.788 159.443,-104.438"/>
</g>
<!-- Node3&#45;&gt;Node5 -->
<g id="edge4" class="edge"><title>Node3&#45;&gt;Node5</title>
<path fill="none" stroke="midnightblue" d="M189.59,-106.101C202.368,-96.3824 218.613,-84.0269 229.385,-75.8339"/>
<polygon fill="midnightblue" stroke="midnightblue" points="187.248,-103.484 181.407,-112.324 191.486,-109.056 187.248,-103.484"/>
</g>
<!-- Node6 -->
<g id="node6" class="node"><title>Node6</title>
<g id="a_node6"><a xlink:href="main_8cpp.html" target="_top" xlink:title="main.cpp">
<polygon fill="white" stroke="black" points="180,-0.5 180,-19.5 236,-19.5 236,-0.5 180,-0.5"/>
<text text-anchor="middle" x="208" y="-7.5" font-family="Helvetica,sans-Serif" font-size="10.00">main.cpp</text>
</a>
</g>
</g>
<!-- Node3&#45;&gt;Node6 -->
<g id="edge8" class="edge"><title>Node3&#45;&gt;Node6</title>
<path fill="none" stroke="midnightblue" d="M176.331,-102.674C184.639,-78.6248 198.884,-37.3881 205.032,-19.5914"/>
<polygon fill="midnightblue" stroke="midnightblue" points="172.939,-101.774 172.982,-112.368 179.555,-104.059 172.939,-101.774"/>
</g>
<!-- Node5&#45;&gt;Node4 -->
<g id="edge5" class="edge"><title>Node5&#45;&gt;Node4</title>
<path fill="none" stroke="midnightblue" d="M213.28,-52.096C191.608,-42.0073 162.098,-28.2697 143.295,-19.5164"/>
<polygon fill="midnightblue" stroke="midnightblue" points="212.077,-55.3962 222.619,-56.4435 215.031,-49.0501 212.077,-55.3962"/>
</g>
<!-- Node5&#45;&gt;Node6 -->
<g id="edge6" class="edge"><title>Node5&#45;&gt;Node6</title>
<path fill="none" stroke="midnightblue" d="M230.168,-47.2747C224.528,-38.0454 217.882,-27.1703 213.348,-19.7511"/>
<polygon fill="midnightblue" stroke="midnightblue" points="227.35,-49.3753 235.551,-56.083 233.323,-45.7251 227.35,-49.3753"/>
</g>
<!-- Node7 -->
<g id="node7" class="node"><title>Node7</title>
<g id="a_node7"><a xlink:href="methods_8cpp.html" target="_top" xlink:title="methods.cpp">
<polygon fill="white" stroke="black" points="254.5,-0.5 254.5,-19.5 327.5,-19.5 327.5,-0.5 254.5,-0.5"/>
<text text-anchor="middle" x="291" y="-7.5" font-family="Helvetica,sans-Serif" font-size="10.00">methods.cpp</text>
</a>
</g>
</g>
<!-- Node5&#45;&gt;Node7 -->
<g id="edge7" class="edge"><title>Node5&#45;&gt;Node7</title>
<path fill="none" stroke="midnightblue" d="M256.076,-48.7175C264.889,-39.1997 275.666,-27.5608 282.897,-19.7511"/>
<polygon fill="midnightblue" stroke="midnightblue" points="253.482,-46.3674 249.256,-56.083 258.619,-51.1233 253.482,-46.3674"/>
</g>
</g>
</svg>
