<?xml version="1.0" encoding="UTF-8" standalone="no"?>
<!DOCTYPE svg PUBLIC "-//W3C//DTD SVG 1.1//EN"
 "http://www.w3.org/Graphics/SVG/1.1/DTD/svg11.dtd">
<!-- Generated by graphviz version 2.36.0 (20140111.2315)
 -->
<!-- Title: constants.h Pages: 1 -->
<svg width="123pt" height="84pt"
 viewBox="0.00 0.00 123.00 84.00" xmlns="http://www.w3.org/2000/svg" xmlns:xlink="http://www.w3.org/1999/xlink">
<g id="graph0" class="graph" transform="scale(1 1) rotate(0) translate(4 80)">
<title>constants.h</title>
<polygon fill="white" stroke="none" points="-4,4 -4,-80 119,-80 119,4 -4,4"/>
<!-- Node1 -->
<g id="node1" class="node"><title>Node1</title>
<polygon fill="#bfbfbf" stroke="black" points="25,-56.5 25,-75.5 93,-75.5 93,-56.5 25,-56.5"/>
<text text-anchor="middle" x="59" y="-63.5" font-family="Helvetica,sans-Serif" font-size="10.00">constants.h</text>
</g>
<!-- Node2 -->
<g id="node2" class="node"><title>Node2</title>
<polygon fill="white" stroke="#bfbfbf" points="-0.5,-0.5 -0.5,-19.5 52.5,-19.5 52.5,-0.5 -0.5,-0.5"/>
<text text-anchor="middle" x="26" y="-7.5" font-family="Helvetica,sans-Serif" font-size="10.00">complex</text>
</g>
<!-- Node1&#45;&gt;Node2 -->
<g id="edge1" class="edge"><title>Node1&#45;&gt;Node2</title>
<path fill="none" stroke="midnightblue" d="M53.5507,-56.083C48.9855,-48.6127 42.3316,-37.7244 36.7066,-28.5199"/>
<polygon fill="midnightblue" stroke="midnightblue" points="39.5489,-26.4588 31.3479,-19.7511 33.5759,-30.109 39.5489,-26.4588"/>
</g>
<!-- Node3 -->
<g id="node3" class="node"><title>Node3</title>
<polygon fill="white" stroke="#bfbfbf" points="71,-0.5 71,-19.5 115,-19.5 115,-0.5 71,-0.5"/>
<text text-anchor="middle" x="93" y="-7.5" font-family="Helvetica,sans-Serif" font-size="10.00">vector</text>
</g>
<!-- Node1&#45;&gt;Node3 -->
<g id="edge2" class="edge"><title>Node1&#45;&gt;Node3</title>
<path fill="none" stroke="midnightblue" d="M64.6144,-56.083C69.3674,-48.5341 76.3181,-37.4948 82.1516,-28.2298"/>
<polygon fill="midnightblue" stroke="midnightblue" points="85.1237,-30.0783 87.4901,-19.7511 79.2001,-26.3486 85.1237,-30.0783"/>
</g>
</g>
</svg>
