<?xml version="1.0" encoding="UTF-8" standalone="no"?>
<!DOCTYPE svg PUBLIC "-//W3C//DTD SVG 1.1//EN"
 "http://www.w3.org/Graphics/SVG/1.1/DTD/svg11.dtd">
<!-- Generated by graphviz version 2.36.0 (20140111.2315)
 -->
<!-- Title: elements.h Pages: 1 -->
<svg width="227pt" height="140pt"
 viewBox="0.00 0.00 227.00 140.00" xmlns="http://www.w3.org/2000/svg" xmlns:xlink="http://www.w3.org/1999/xlink">
<g id="graph0" class="graph" transform="scale(1 1) rotate(0) translate(4 136)">
<title>elements.h</title>
<polygon fill="white" stroke="none" points="-4,4 -4,-136 223,-136 223,4 -4,4"/>
<!-- Node1 -->
<g id="node1" class="node"><title>Node1</title>
<polygon fill="#bfbfbf" stroke="black" points="59.5,-112.5 59.5,-131.5 124.5,-131.5 124.5,-112.5 59.5,-112.5"/>
<text text-anchor="middle" x="92" y="-119.5" font-family="Helvetica,sans-Serif" font-size="10.00">elements.h</text>
</g>
<!-- Node2 -->
<g id="node2" class="node"><title>Node2</title>
<polygon fill="white" stroke="#bfbfbf" points="-0.5,-56.5 -0.5,-75.5 40.5,-75.5 40.5,-56.5 -0.5,-56.5"/>
<text text-anchor="middle" x="20" y="-63.5" font-family="Helvetica,sans-Serif" font-size="10.00">string</text>
</g>
<!-- Node1&#45;&gt;Node2 -->
<g id="edge1" class="edge"><title>Node1&#45;&gt;Node2</title>
<path fill="none" stroke="midnightblue" d="M80.432,-112.324C69.5798,-104.185 53.1193,-91.8395 40.1166,-82.0874"/>
<polygon fill="midnightblue" stroke="midnightblue" points="41.8786,-79.0339 31.7785,-75.8339 37.6785,-84.6339 41.8786,-79.0339"/>
</g>
<!-- Node3 -->
<g id="node3" class="node"><title>Node3</title>
<polygon fill="white" stroke="#bfbfbf" points="66.5,-0.5 66.5,-19.5 119.5,-19.5 119.5,-0.5 66.5,-0.5"/>
<text text-anchor="middle" x="93" y="-7.5" font-family="Helvetica,sans-Serif" font-size="10.00">complex</text>
</g>
<!-- Node1&#45;&gt;Node3 -->
<g id="edge2" class="edge"><title>Node1&#45;&gt;Node3</title>
<path fill="none" stroke="midnightblue" d="M90.8023,-112.171C89.2557,-99.6697 86.8871,-76.094 88,-56 88.4786,-47.358 89.4705,-37.8252 90.4456,-29.7666"/>
<polygon fill="midnightblue" stroke="midnightblue" points="93.9484,-29.969 91.7575,-19.6032 87.006,-29.0728 93.9484,-29.969"/>
</g>
<!-- Node4 -->
<g id="node4" class="node"><title>Node4</title>
<polygon fill="white" stroke="#bfbfbf" points="97.5,-56.5 97.5,-75.5 132.5,-75.5 132.5,-56.5 97.5,-56.5"/>
<text text-anchor="middle" x="115" y="-63.5" font-family="Helvetica,sans-Serif" font-size="10.00">map</text>
</g>
<!-- Node1&#45;&gt;Node4 -->
<g id="edge3" class="edge"><title>Node1&#45;&gt;Node4</title>
<path fill="none" stroke="midnightblue" d="M95.798,-112.083C98.9128,-104.77 103.423,-94.1814 107.289,-85.1034"/>
<polygon fill="midnightblue" stroke="midnightblue" points="110.574,-86.3229 111.273,-75.7511 104.134,-83.5798 110.574,-86.3229"/>
</g>
<!-- Node5 -->
<g id="node5" class="node"><title>Node5</title>
<g id="a_node5"><a xlink:href="constants_8h.html" target="_top" xlink:title="constants.h">
<polygon fill="white" stroke="black" points="151,-56.5 151,-75.5 219,-75.5 219,-56.5 151,-56.5"/>
<text text-anchor="middle" x="185" y="-63.5" font-family="Helvetica,sans-Serif" font-size="10.00">constants.h</text>
</a>
</g>
</g>
<!-- Node1&#45;&gt;Node5 -->
<g id="edge4" class="edge"><title>Node1&#45;&gt;Node5</title>
<path fill="none" stroke="midnightblue" d="M106.942,-112.324C121.585,-103.822 144.134,-90.7288 161.238,-80.7975"/>
<polygon fill="midnightblue" stroke="midnightblue" points="163.205,-83.7027 170.095,-75.6545 159.69,-77.6491 163.205,-83.7027"/>
</g>
<!-- Node5&#45;&gt;Node3 -->
<g id="edge5" class="edge"><title>Node5&#45;&gt;Node3</title>
<path fill="none" stroke="midnightblue" d="M170.219,-56.324C155.733,-47.8215 133.427,-34.7288 116.507,-24.7975"/>
<polygon fill="midnightblue" stroke="midnightblue" points="118.141,-21.6981 107.745,-19.6545 114.597,-27.735 118.141,-21.6981"/>
</g>
<!-- Node6 -->
<g id="node6" class="node"><title>Node6</title>
<polygon fill="white" stroke="#bfbfbf" points="163,-0.5 163,-19.5 207,-19.5 207,-0.5 163,-0.5"/>
<text text-anchor="middle" x="185" y="-7.5" font-family="Helvetica,sans-Serif" font-size="10.00">vector</text>
</g>
<!-- Node5&#45;&gt;Node6 -->
<g id="edge6" class="edge"><title>Node5&#45;&gt;Node6</title>
<path fill="none" stroke="midnightblue" d="M185,-56.083C185,-49.0059 185,-38.8611 185,-29.9865"/>
<polygon fill="midnightblue" stroke="midnightblue" points="188.5,-29.751 185,-19.7511 181.5,-29.7511 188.5,-29.751"/>
</g>
</g>
</svg>
