<?xml version="1.0" encoding="UTF-8" standalone="no"?>
<!DOCTYPE svg PUBLIC "-//W3C//DTD SVG 1.1//EN"
 "http://www.w3.org/Graphics/SVG/1.1/DTD/svg11.dtd">
<!-- Generated by graphviz version 2.36.0 (20140111.2315)
 -->
<!-- Title: elements.h Pages: 1 -->
<svg width="248pt" height="140pt"
 viewBox="0.00 0.00 248.00 140.00" xmlns="http://www.w3.org/2000/svg" xmlns:xlink="http://www.w3.org/1999/xlink">
<g id="graph0" class="graph" transform="scale(1 1) rotate(0) translate(4 136)">
<title>elements.h</title>
<polygon fill="white" stroke="none" points="-4,4 -4,-136 244,-136 244,4 -4,4"/>
<!-- Node1 -->
<g id="node1" class="node"><title>Node1</title>
<polygon fill="#bfbfbf" stroke="black" points="96.5,-112.5 96.5,-131.5 161.5,-131.5 161.5,-112.5 96.5,-112.5"/>
<text text-anchor="middle" x="129" y="-119.5" font-family="Helvetica,sans-Serif" font-size="10.00">elements.h</text>
</g>
<!-- Node2 -->
<g id="node2" class="node"><title>Node2</title>
<g id="a_node2"><a xlink:href="elements_8cpp.html" target="_top" xlink:title="elements.cpp">
<polygon fill="white" stroke="black" points="-0.5,-0.5 -0.5,-19.5 74.5,-19.5 74.5,-0.5 -0.5,-0.5"/>
<text text-anchor="middle" x="37" y="-7.5" font-family="Helvetica,sans-Serif" font-size="10.00">elements.cpp</text>
</a>
</g>
</g>
<!-- Node1&#45;&gt;Node2 -->
<g id="edge1" class="edge"><title>Node1&#45;&gt;Node2</title>
<path fill="none" stroke="midnightblue" d="M114.259,-104.827C106.614,-96.3373 97.1884,-85.7079 89,-76 72.2284,-56.116 53.3339,-32.0589 43.5934,-19.5274"/>
<polygon fill="midnightblue" stroke="midnightblue" points="111.891,-107.426 121.197,-112.49 117.08,-102.728 111.891,-107.426"/>
</g>
<!-- Node3 -->
<g id="node3" class="node"><title>Node3</title>
<g id="a_node3"><a xlink:href="methods_8h.html" target="_top" xlink:title="methods.h">
<polygon fill="white" stroke="black" points="98,-56.5 98,-75.5 160,-75.5 160,-56.5 98,-56.5"/>
<text text-anchor="middle" x="129" y="-63.5" font-family="Helvetica,sans-Serif" font-size="10.00">methods.h</text>
</a>
</g>
</g>
<!-- Node1&#45;&gt;Node3 -->
<g id="edge2" class="edge"><title>Node1&#45;&gt;Node3</title>
<path fill="none" stroke="midnightblue" d="M129,-101.805C129,-92.9102 129,-82.7798 129,-75.7511"/>
<polygon fill="midnightblue" stroke="midnightblue" points="125.5,-102.083 129,-112.083 132.5,-102.083 125.5,-102.083"/>
</g>
<!-- Node4 -->
<g id="node4" class="node"><title>Node4</title>
<g id="a_node4"><a xlink:href="main_8cpp.html" target="_top" xlink:title="main.cpp">
<polygon fill="white" stroke="black" points="184,-0.5 184,-19.5 240,-19.5 240,-0.5 184,-0.5"/>
<text text-anchor="middle" x="212" y="-7.5" font-family="Helvetica,sans-Serif" font-size="10.00">main.cpp</text>
</a>
</g>
</g>
<!-- Node1&#45;&gt;Node4 -->
<g id="edge6" class="edge"><title>Node1&#45;&gt;Node4</title>
<path fill="none" stroke="midnightblue" d="M143.931,-104.726C151.406,-96.3444 160.447,-85.8416 168,-76 182.934,-56.5412 198.62,-32.3114 206.617,-19.6398"/>
<polygon fill="midnightblue" stroke="midnightblue" points="141.197,-102.531 137.091,-112.298 146.392,-107.223 141.197,-102.531"/>
</g>
<!-- Node3&#45;&gt;Node2 -->
<g id="edge3" class="edge"><title>Node3&#45;&gt;Node2</title>
<path fill="none" stroke="midnightblue" d="M105.45,-51.1774C88.5211,-41.2407 66.2172,-28.1492 51.7447,-19.6545"/>
<polygon fill="midnightblue" stroke="midnightblue" points="103.823,-54.2804 114.219,-56.324 107.366,-48.2435 103.823,-54.2804"/>
</g>
<!-- Node3&#45;&gt;Node4 -->
<g id="edge4" class="edge"><title>Node3&#45;&gt;Node4</title>
<path fill="none" stroke="midnightblue" d="M151.099,-50.6221C166.262,-40.7574 185.883,-27.9919 198.698,-19.6545"/>
<polygon fill="midnightblue" stroke="midnightblue" points="148.809,-47.9367 142.335,-56.324 152.626,-53.8042 148.809,-47.9367"/>
</g>
<!-- Node5 -->
<g id="node5" class="node"><title>Node5</title>
<g id="a_node5"><a xlink:href="methods_8cpp.html" target="_top" xlink:title="methods.cpp">
<polygon fill="white" stroke="black" points="92.5,-0.5 92.5,-19.5 165.5,-19.5 165.5,-0.5 92.5,-0.5"/>
<text text-anchor="middle" x="129" y="-7.5" font-family="Helvetica,sans-Serif" font-size="10.00">methods.cpp</text>
</a>
</g>
</g>
<!-- Node3&#45;&gt;Node5 -->
<g id="edge5" class="edge"><title>Node3&#45;&gt;Node5</title>
<path fill="none" stroke="midnightblue" d="M129,-45.8045C129,-36.9102 129,-26.7798 129,-19.7511"/>
<polygon fill="midnightblue" stroke="midnightblue" points="125.5,-46.083 129,-56.083 132.5,-46.083 125.5,-46.083"/>
</g>
</g>
</svg>
