<?xml version="1.0" encoding="UTF-8" standalone="no"?>
<!DOCTYPE svg PUBLIC "-//W3C//DTD SVG 1.1//EN"
 "http://www.w3.org/Graphics/SVG/1.1/DTD/svg11.dtd">
<!-- Generated by graphviz version 2.36.0 (20140111.2315)
 -->
<!-- Title: main.cpp Pages: 1 -->
<svg width="517pt" height="252pt"
 viewBox="0.00 0.00 517.00 252.00" xmlns="http://www.w3.org/2000/svg" xmlns:xlink="http://www.w3.org/1999/xlink">
<g id="graph0" class="graph" transform="scale(1 1) rotate(0) translate(4 248)">
<title>main.cpp</title>
<polygon fill="white" stroke="none" points="-4,4 -4,-248 513,-248 513,4 -4,4"/>
<!-- Node1 -->
<g id="node1" class="node"><title>Node1</title>
<polygon fill="#bfbfbf" stroke="black" points="246,-224.5 246,-243.5 302,-243.5 302,-224.5 246,-224.5"/>
<text text-anchor="middle" x="274" y="-231.5" font-family="Helvetica,sans-Serif" font-size="10.00">main.cpp</text>
</g>
<!-- Node2 -->
<g id="node2" class="node"><title>Node2</title>
<g id="a_node2"><a xlink:href="readinput_8h.html" target="_top" xlink:title="readinput.h">
<polygon fill="white" stroke="black" points="102.5,-168.5 102.5,-187.5 167.5,-187.5 167.5,-168.5 102.5,-168.5"/>
<text text-anchor="middle" x="135" y="-175.5" font-family="Helvetica,sans-Serif" font-size="10.00">readinput.h</text>
</a>
</g>
</g>
<!-- Node1&#45;&gt;Node2 -->
<g id="edge1" class="edge"><title>Node1&#45;&gt;Node2</title>
<path fill="none" stroke="midnightblue" d="M251.975,-224.444C228.896,-215.478 192.438,-201.314 166.359,-191.183"/>
<polygon fill="midnightblue" stroke="midnightblue" points="167.511,-187.875 156.922,-187.516 164.976,-194.4 167.511,-187.875"/>
</g>
<!-- Node4 -->
<g id="node4" class="node"><title>Node4</title>
<polygon fill="white" stroke="#bfbfbf" points="0,-112.5 0,-131.5 50,-131.5 50,-112.5 0,-112.5"/>
<text text-anchor="middle" x="25" y="-119.5" font-family="Helvetica,sans-Serif" font-size="10.00">fstream</text>
</g>
<!-- Node1&#45;&gt;Node4 -->
<g id="edge20" class="edge"><title>Node1&#45;&gt;Node4</title>
<path fill="none" stroke="midnightblue" d="M245.696,-230.507C208.615,-226.26 142.498,-215.251 93,-188 70.7555,-175.753 50.4476,-154.405 37.9295,-139.529"/>
<polygon fill="midnightblue" stroke="midnightblue" points="40.5312,-137.181 31.5035,-131.636 35.1027,-141.601 40.5312,-137.181"/>
</g>
<!-- Node7 -->
<g id="node7" class="node"><title>Node7</title>
<g id="a_node7"><a xlink:href="elements_8h.html" target="_top" xlink:title="elements.h">
<polygon fill="white" stroke="black" points="182.5,-112.5 182.5,-131.5 247.5,-131.5 247.5,-112.5 182.5,-112.5"/>
<text text-anchor="middle" x="215" y="-119.5" font-family="Helvetica,sans-Serif" font-size="10.00">elements.h</text>
</a>
</g>
</g>
<!-- Node1&#45;&gt;Node7 -->
<g id="edge12" class="edge"><title>Node1&#45;&gt;Node7</title>
<path fill="none" stroke="midnightblue" d="M264.073,-224.296C255.023,-215.856 241.896,-202.267 234,-188 225.994,-173.535 221.05,-155.348 218.22,-141.893"/>
<polygon fill="midnightblue" stroke="midnightblue" points="221.625,-141.06 216.32,-131.889 214.748,-142.367 221.625,-141.06"/>
</g>
<!-- Node9 -->
<g id="node9" class="node"><title>Node9</title>
<g id="a_node9"><a xlink:href="methods_8h.html" target="_top" xlink:title="methods.h">
<polygon fill="white" stroke="black" points="243,-168.5 243,-187.5 305,-187.5 305,-168.5 243,-168.5"/>
<text text-anchor="middle" x="274" y="-175.5" font-family="Helvetica,sans-Serif" font-size="10.00">methods.h</text>
</a>
</g>
</g>
<!-- Node1&#45;&gt;Node9 -->
<g id="edge13" class="edge"><title>Node1&#45;&gt;Node9</title>
<path fill="none" stroke="midnightblue" d="M274,-224.083C274,-217.006 274,-206.861 274,-197.986"/>
<polygon fill="midnightblue" stroke="midnightblue" points="277.5,-197.751 274,-187.751 270.5,-197.751 277.5,-197.751"/>
</g>
<!-- Node10 -->
<g id="node10" class="node"><title>Node10</title>
<polygon fill="white" stroke="#bfbfbf" points="323.5,-168.5 323.5,-187.5 368.5,-187.5 368.5,-168.5 323.5,-168.5"/>
<text text-anchor="middle" x="346" y="-175.5" font-family="Helvetica,sans-Serif" font-size="10.00">cstdlib</text>
</g>
<!-- Node1&#45;&gt;Node10 -->
<g id="edge18" class="edge"><title>Node1&#45;&gt;Node10</title>
<path fill="none" stroke="midnightblue" d="M285.568,-224.324C296.42,-216.185 312.881,-203.839 325.883,-194.087"/>
<polygon fill="midnightblue" stroke="midnightblue" points="328.321,-196.634 334.221,-187.834 324.121,-191.034 328.321,-196.634"/>
</g>
<!-- Node11 -->
<g id="node11" class="node"><title>Node11</title>
<polygon fill="white" stroke="#bfbfbf" points="387,-168.5 387,-187.5 441,-187.5 441,-168.5 387,-168.5"/>
<text text-anchor="middle" x="414" y="-175.5" font-family="Helvetica,sans-Serif" font-size="10.00">iostream</text>
</g>
<!-- Node1&#45;&gt;Node11 -->
<g id="edge19" class="edge"><title>Node1&#45;&gt;Node11</title>
<path fill="none" stroke="midnightblue" d="M296.183,-224.444C319.428,-215.478 356.149,-201.314 382.415,-191.183"/>
<polygon fill="midnightblue" stroke="midnightblue" points="383.85,-194.381 391.92,-187.516 381.331,-187.85 383.85,-194.381"/>
</g>
<!-- Node12 -->
<g id="node12" class="node"><title>Node12</title>
<polygon fill="white" stroke="#bfbfbf" points="459,-168.5 459,-187.5 509,-187.5 509,-168.5 459,-168.5"/>
<text text-anchor="middle" x="484" y="-175.5" font-family="Helvetica,sans-Serif" font-size="10.00">iomanip</text>
</g>
<!-- Node1&#45;&gt;Node12 -->
<g id="edge21" class="edge"><title>Node1&#45;&gt;Node12</title>
<path fill="none" stroke="midnightblue" d="M302.062,-225.903C334.912,-217.578 391.214,-203.257 448.76,-188.308"/>
<polygon fill="midnightblue" stroke="midnightblue" points="449.958,-191.612 458.755,-185.708 448.196,-184.838 449.958,-191.612"/>
</g>
<!-- Node3 -->
<g id="node3" class="node"><title>Node3</title>
<polygon fill="white" stroke="#bfbfbf" points="159.5,-56.5 159.5,-75.5 200.5,-75.5 200.5,-56.5 159.5,-56.5"/>
<text text-anchor="middle" x="180" y="-63.5" font-family="Helvetica,sans-Serif" font-size="10.00">string</text>
</g>
<!-- Node2&#45;&gt;Node3 -->
<g id="edge2" class="edge"><title>Node2&#45;&gt;Node3</title>
<path fill="none" stroke="midnightblue" d="M138.531,-168.368C145.859,-150.456 162.85,-108.923 172.658,-84.9482"/>
<polygon fill="midnightblue" stroke="midnightblue" points="175.938,-86.1721 176.485,-75.5914 169.46,-83.5217 175.938,-86.1721"/>
</g>
<!-- Node2&#45;&gt;Node4 -->
<g id="edge3" class="edge"><title>Node2&#45;&gt;Node4</title>
<path fill="none" stroke="midnightblue" d="M117.327,-168.324C99.6059,-159.625 72.0968,-146.12 51.7116,-136.113"/>
<polygon fill="midnightblue" stroke="midnightblue" points="53.1486,-132.919 42.6295,-131.655 50.0639,-139.203 53.1486,-132.919"/>
</g>
<!-- Node5 -->
<g id="node5" class="node"><title>Node5</title>
<polygon fill="white" stroke="#bfbfbf" points="106.5,-56.5 106.5,-75.5 141.5,-75.5 141.5,-56.5 106.5,-56.5"/>
<text text-anchor="middle" x="124" y="-63.5" font-family="Helvetica,sans-Serif" font-size="10.00">map</text>
</g>
<!-- Node2&#45;&gt;Node5 -->
<g id="edge4" class="edge"><title>Node2&#45;&gt;Node5</title>
<path fill="none" stroke="midnightblue" d="M134.137,-168.368C132.362,-150.617 128.267,-109.666 125.86,-85.5974"/>
<polygon fill="midnightblue" stroke="midnightblue" points="129.337,-85.1935 124.859,-75.5914 122.372,-85.8901 129.337,-85.1935"/>
</g>
<!-- Node6 -->
<g id="node6" class="node"><title>Node6</title>
<polygon fill="white" stroke="#bfbfbf" points="233.5,-0.5 233.5,-19.5 286.5,-19.5 286.5,-0.5 233.5,-0.5"/>
<text text-anchor="middle" x="260" y="-7.5" font-family="Helvetica,sans-Serif" font-size="10.00">complex</text>
</g>
<!-- Node2&#45;&gt;Node6 -->
<g id="edge5" class="edge"><title>Node2&#45;&gt;Node6</title>
<path fill="none" stroke="midnightblue" d="M127.565,-168.475C110.077,-147.355 69.7908,-91.7388 97,-56 112.238,-35.9856 180.118,-22.6019 223.333,-15.9402"/>
<polygon fill="midnightblue" stroke="midnightblue" points="224.1,-19.3645 233.476,-14.4296 223.069,-12.4409 224.1,-19.3645"/>
</g>
<!-- Node2&#45;&gt;Node7 -->
<g id="edge6" class="edge"><title>Node2&#45;&gt;Node7</title>
<path fill="none" stroke="midnightblue" d="M147.853,-168.324C160.216,-159.979 179.13,-147.212 193.737,-137.352"/>
<polygon fill="midnightblue" stroke="midnightblue" points="195.848,-140.15 202.179,-131.655 191.932,-134.348 195.848,-140.15"/>
</g>
<!-- Node7&#45;&gt;Node3 -->
<g id="edge7" class="edge"><title>Node7&#45;&gt;Node3</title>
<path fill="none" stroke="midnightblue" d="M209.22,-112.083C204.328,-104.534 197.173,-93.4948 191.167,-84.2298"/>
<polygon fill="midnightblue" stroke="midnightblue" points="194.048,-82.239 185.672,-75.7511 188.174,-86.0463 194.048,-82.239"/>
</g>
<!-- Node7&#45;&gt;Node5 -->
<g id="edge9" class="edge"><title>Node7&#45;&gt;Node5</title>
<path fill="none" stroke="midnightblue" d="M200.379,-112.324C186.051,-103.822 163.987,-90.7288 147.251,-80.7975"/>
<polygon fill="midnightblue" stroke="midnightblue" points="148.97,-77.7478 138.584,-75.6545 145.398,-83.7677 148.97,-77.7478"/>
</g>
<!-- Node7&#45;&gt;Node6 -->
<g id="edge8" class="edge"><title>Node7&#45;&gt;Node6</title>
<path fill="none" stroke="midnightblue" d="M218.531,-112.368C225.859,-94.4563 242.85,-52.9233 252.658,-28.9482"/>
<polygon fill="midnightblue" stroke="midnightblue" points="255.938,-30.1721 256.485,-19.5914 249.46,-27.5217 255.938,-30.1721"/>
</g>
<!-- Node8 -->
<g id="node8" class="node"><title>Node8</title>
<g id="a_node8"><a xlink:href="constants_8h.html" target="_top" xlink:title="constants.h">
<polygon fill="white" stroke="black" points="257,-56.5 257,-75.5 325,-75.5 325,-56.5 257,-56.5"/>
<text text-anchor="middle" x="291" y="-63.5" font-family="Helvetica,sans-Serif" font-size="10.00">constants.h</text>
</a>
</g>
</g>
<!-- Node7&#45;&gt;Node8 -->
<g id="edge10" class="edge"><title>Node7&#45;&gt;Node8</title>
<path fill="none" stroke="midnightblue" d="M227.211,-112.324C238.776,-104.107 256.375,-91.6017 270.161,-81.8069"/>
<polygon fill="midnightblue" stroke="midnightblue" points="272.443,-84.4791 278.567,-75.8339 268.388,-78.7729 272.443,-84.4791"/>
</g>
<!-- Node8&#45;&gt;Node6 -->
<g id="edge11" class="edge"><title>Node8&#45;&gt;Node6</title>
<path fill="none" stroke="midnightblue" d="M285.881,-56.083C281.592,-48.6127 275.342,-37.7244 270.058,-28.5199"/>
<polygon fill="midnightblue" stroke="midnightblue" points="273.038,-26.6811 265.024,-19.7511 266.967,-30.1662 273.038,-26.6811"/>
</g>
<!-- Node9&#45;&gt;Node3 -->
<g id="edge17" class="edge"><title>Node9&#45;&gt;Node3</title>
<path fill="none" stroke="midnightblue" d="M273.604,-168.089C272.585,-154.638 268.951,-128.924 256,-112 244.347,-96.7724 225.945,-85.6842 210.167,-78.3248"/>
<polygon fill="midnightblue" stroke="midnightblue" points="211.332,-75.0141 200.767,-74.2206 208.531,-81.4294 211.332,-75.0141"/>
</g>
<!-- Node9&#45;&gt;Node6 -->
<g id="edge16" class="edge"><title>Node9&#45;&gt;Node6</title>
<path fill="none" stroke="midnightblue" d="M284.317,-168.333C306.937,-148.245 357.099,-97.0814 334,-56 325.718,-41.2706 310.447,-30.8013 295.918,-23.6902"/>
<polygon fill="midnightblue" stroke="midnightblue" points="297.116,-20.3915 286.559,-19.4912 294.25,-26.7781 297.116,-20.3915"/>
</g>
<!-- Node9&#45;&gt;Node7 -->
<g id="edge15" class="edge"><title>Node9&#45;&gt;Node7</title>
<path fill="none" stroke="midnightblue" d="M264.521,-168.324C255.799,-160.341 242.657,-148.313 232.102,-138.653"/>
<polygon fill="midnightblue" stroke="midnightblue" points="234.392,-136.004 224.652,-131.834 229.666,-141.167 234.392,-136.004"/>
</g>
<!-- Node9&#45;&gt;Node8 -->
<g id="edge14" class="edge"><title>Node9&#45;&gt;Node8</title>
<path fill="none" stroke="midnightblue" d="M278.069,-168.27C281.983,-159.37 287.644,-145.056 290,-132 292.759,-116.709 292.84,-99.066 292.325,-86.0229"/>
<polygon fill="midnightblue" stroke="midnightblue" points="295.813,-85.7132 291.771,-75.9196 288.824,-86.0961 295.813,-85.7132"/>
</g>
</g>
</svg>
