<?xml version="1.0" encoding="UTF-8" standalone="no"?>
<!DOCTYPE svg PUBLIC "-//W3C//DTD SVG 1.1//EN"
 "http://www.w3.org/Graphics/SVG/1.1/DTD/svg11.dtd">
<!-- Generated by graphviz version 2.36.0 (20140111.2315)
 -->
<!-- Title: main.cpp Pages: 1 -->
<svg width="450pt" height="252pt"
 viewBox="0.00 0.00 450.00 252.00" xmlns="http://www.w3.org/2000/svg" xmlns:xlink="http://www.w3.org/1999/xlink">
<g id="graph0" class="graph" transform="scale(1 1) rotate(0) translate(4 248)">
<title>main.cpp</title>
<polygon fill="white" stroke="none" points="-4,4 -4,-248 446,-248 446,4 -4,4"/>
<!-- Node1 -->
<g id="node1" class="node"><title>Node1</title>
<polygon fill="#bfbfbf" stroke="black" points="179,-224.5 179,-243.5 235,-243.5 235,-224.5 179,-224.5"/>
<text text-anchor="middle" x="207" y="-231.5" font-family="Helvetica,sans-Serif" font-size="10.00">main.cpp</text>
</g>
<!-- Node2 -->
<g id="node2" class="node"><title>Node2</title>
<g id="a_node2"><a xlink:href="readinput_8h.html" target="_top" xlink:title="readinput.h">
<polygon fill="white" stroke="black" points="52.5,-112.5 52.5,-131.5 117.5,-131.5 117.5,-112.5 52.5,-112.5"/>
<text text-anchor="middle" x="85" y="-119.5" font-family="Helvetica,sans-Serif" font-size="10.00">readinput.h</text>
</a>
</g>
</g>
<!-- Node1&#45;&gt;Node2 -->
<g id="edge1" class="edge"><title>Node1&#45;&gt;Node2</title>
<path fill="none" stroke="midnightblue" d="M197.427,-224.368C176.848,-205.814 128.158,-161.913 102.122,-138.438"/>
<polygon fill="midnightblue" stroke="midnightblue" points="104.299,-135.688 94.5287,-131.591 99.6118,-140.887 104.299,-135.688"/>
</g>
<!-- Node4 -->
<g id="node4" class="node"><title>Node4</title>
<polygon fill="white" stroke="#bfbfbf" points="0,-56.5 0,-75.5 50,-75.5 50,-56.5 0,-56.5"/>
<text text-anchor="middle" x="25" y="-63.5" font-family="Helvetica,sans-Serif" font-size="10.00">fstream</text>
</g>
<!-- Node1&#45;&gt;Node4 -->
<g id="edge20" class="edge"><title>Node1&#45;&gt;Node4</title>
<path fill="none" stroke="midnightblue" d="M182.021,-224.463C145.781,-210.773 79.0283,-180.424 43,-132 33.0616,-118.642 28.6103,-100.071 26.6168,-86.1982"/>
<polygon fill="midnightblue" stroke="midnightblue" points="30.0506,-85.4134 25.4537,-75.8678 23.0946,-86.1966 30.0506,-85.4134"/>
</g>
<!-- Node7 -->
<g id="node7" class="node"><title>Node7</title>
<g id="a_node7"><a xlink:href="elements_8h.html" target="_top" xlink:title="elements.h">
<polygon fill="white" stroke="black" points="174.5,-112.5 174.5,-131.5 239.5,-131.5 239.5,-112.5 174.5,-112.5"/>
<text text-anchor="middle" x="207" y="-119.5" font-family="Helvetica,sans-Serif" font-size="10.00">elements.h</text>
</a>
</g>
</g>
<!-- Node1&#45;&gt;Node7 -->
<g id="edge6" class="edge"><title>Node1&#45;&gt;Node7</title>
<path fill="none" stroke="midnightblue" d="M195.295,-224.311C180.726,-212.347 158.712,-189.798 167,-168 171.335,-156.598 180.031,-146.239 188.21,-138.343"/>
<polygon fill="midnightblue" stroke="midnightblue" points="190.642,-140.863 195.734,-131.573 185.959,-135.66 190.642,-140.863"/>
</g>
<!-- Node10 -->
<g id="node10" class="node"><title>Node10</title>
<g id="a_node10"><a xlink:href="methods_8h.html" target="_top" xlink:title="methods.h">
<polygon fill="white" stroke="black" points="176,-168.5 176,-187.5 238,-187.5 238,-168.5 176,-168.5"/>
<text text-anchor="middle" x="207" y="-175.5" font-family="Helvetica,sans-Serif" font-size="10.00">methods.h</text>
</a>
</g>
</g>
<!-- Node1&#45;&gt;Node10 -->
<g id="edge13" class="edge"><title>Node1&#45;&gt;Node10</title>
<path fill="none" stroke="midnightblue" d="M207,-224.083C207,-217.006 207,-206.861 207,-197.986"/>
<polygon fill="midnightblue" stroke="midnightblue" points="210.5,-197.751 207,-187.751 203.5,-197.751 210.5,-197.751"/>
</g>
<!-- Node11 -->
<g id="node11" class="node"><title>Node11</title>
<polygon fill="white" stroke="#bfbfbf" points="256.5,-168.5 256.5,-187.5 301.5,-187.5 301.5,-168.5 256.5,-168.5"/>
<text text-anchor="middle" x="279" y="-175.5" font-family="Helvetica,sans-Serif" font-size="10.00">cstdlib</text>
</g>
<!-- Node1&#45;&gt;Node11 -->
<g id="edge18" class="edge"><title>Node1&#45;&gt;Node11</title>
<path fill="none" stroke="midnightblue" d="M218.568,-224.324C229.42,-216.185 245.881,-203.839 258.883,-194.087"/>
<polygon fill="midnightblue" stroke="midnightblue" points="261.321,-196.634 267.221,-187.834 257.121,-191.034 261.321,-196.634"/>
</g>
<!-- Node12 -->
<g id="node12" class="node"><title>Node12</title>
<polygon fill="white" stroke="#bfbfbf" points="320,-168.5 320,-187.5 374,-187.5 374,-168.5 320,-168.5"/>
<text text-anchor="middle" x="347" y="-175.5" font-family="Helvetica,sans-Serif" font-size="10.00">iostream</text>
</g>
<!-- Node1&#45;&gt;Node12 -->
<g id="edge19" class="edge"><title>Node1&#45;&gt;Node12</title>
<path fill="none" stroke="midnightblue" d="M229.183,-224.444C252.428,-215.478 289.149,-201.314 315.415,-191.183"/>
<polygon fill="midnightblue" stroke="midnightblue" points="316.85,-194.381 324.92,-187.516 314.331,-187.85 316.85,-194.381"/>
</g>
<!-- Node13 -->
<g id="node13" class="node"><title>Node13</title>
<polygon fill="white" stroke="#bfbfbf" points="392,-168.5 392,-187.5 442,-187.5 442,-168.5 392,-168.5"/>
<text text-anchor="middle" x="417" y="-175.5" font-family="Helvetica,sans-Serif" font-size="10.00">iomanip</text>
</g>
<!-- Node1&#45;&gt;Node13 -->
<g id="edge21" class="edge"><title>Node1&#45;&gt;Node13</title>
<path fill="none" stroke="midnightblue" d="M235.062,-225.903C267.912,-217.578 324.214,-203.257 381.76,-188.308"/>
<polygon fill="midnightblue" stroke="midnightblue" points="382.958,-191.612 391.755,-185.708 381.196,-184.838 382.958,-191.612"/>
</g>
<!-- Node3 -->
<g id="node3" class="node"><title>Node3</title>
<polygon fill="white" stroke="#bfbfbf" points="160.5,-56.5 160.5,-75.5 201.5,-75.5 201.5,-56.5 160.5,-56.5"/>
<text text-anchor="middle" x="181" y="-63.5" font-family="Helvetica,sans-Serif" font-size="10.00">string</text>
</g>
<!-- Node2&#45;&gt;Node3 -->
<g id="edge2" class="edge"><title>Node2&#45;&gt;Node3</title>
<path fill="none" stroke="midnightblue" d="M100.424,-112.324C115.54,-103.822 138.815,-90.7288 156.471,-80.7975"/>
<polygon fill="midnightblue" stroke="midnightblue" points="158.614,-83.6077 165.614,-75.6545 155.183,-77.5066 158.614,-83.6077"/>
</g>
<!-- Node2&#45;&gt;Node4 -->
<g id="edge3" class="edge"><title>Node2&#45;&gt;Node4</title>
<path fill="none" stroke="midnightblue" d="M75.36,-112.324C66.4904,-104.341 53.1253,-92.3128 42.3921,-82.6529"/>
<polygon fill="midnightblue" stroke="midnightblue" points="44.5898,-79.922 34.8154,-75.8339 39.907,-85.1251 44.5898,-79.922"/>
</g>
<!-- Node5 -->
<g id="node5" class="node"><title>Node5</title>
<polygon fill="white" stroke="#bfbfbf" points="107.5,-56.5 107.5,-75.5 142.5,-75.5 142.5,-56.5 107.5,-56.5"/>
<text text-anchor="middle" x="125" y="-63.5" font-family="Helvetica,sans-Serif" font-size="10.00">map</text>
</g>
<!-- Node2&#45;&gt;Node5 -->
<g id="edge4" class="edge"><title>Node2&#45;&gt;Node5</title>
<path fill="none" stroke="midnightblue" d="M91.6052,-112.083C97.2552,-104.455 105.545,-93.2645 112.451,-83.9408"/>
<polygon fill="midnightblue" stroke="midnightblue" points="115.378,-85.87 118.518,-75.7511 109.753,-81.7034 115.378,-85.87"/>
</g>
<!-- Node6 -->
<g id="node6" class="node"><title>Node6</title>
<polygon fill="white" stroke="#bfbfbf" points="219.5,-0.5 219.5,-19.5 272.5,-19.5 272.5,-0.5 219.5,-0.5"/>
<text text-anchor="middle" x="246" y="-7.5" font-family="Helvetica,sans-Serif" font-size="10.00">complex</text>
</g>
<!-- Node2&#45;&gt;Node6 -->
<g id="edge5" class="edge"><title>Node2&#45;&gt;Node6</title>
<path fill="none" stroke="midnightblue" d="M84.1312,-112.19C83.2835,-98.403 83.7766,-71.6869 98,-56 126.16,-24.9423 175.009,-15.029 208.845,-12.0214"/>
<polygon fill="midnightblue" stroke="midnightblue" points="209.535,-15.4807 219.257,-11.2695 209.031,-8.49887 209.535,-15.4807"/>
</g>
<!-- Node7&#45;&gt;Node3 -->
<g id="edge7" class="edge"><title>Node7&#45;&gt;Node3</title>
<path fill="none" stroke="midnightblue" d="M202.707,-112.083C199.148,-104.691 193.978,-93.9533 189.576,-84.8111"/>
<polygon fill="midnightblue" stroke="midnightblue" points="192.705,-83.2427 185.213,-75.7511 186.398,-86.2795 192.705,-83.2427"/>
</g>
<!-- Node7&#45;&gt;Node5 -->
<g id="edge9" class="edge"><title>Node7&#45;&gt;Node5</title>
<path fill="none" stroke="midnightblue" d="M193.825,-112.324C181.153,-103.979 161.767,-91.2122 146.794,-81.3524"/>
<polygon fill="midnightblue" stroke="midnightblue" points="148.419,-78.2313 138.142,-75.6545 144.569,-84.0776 148.419,-78.2313"/>
</g>
<!-- Node7&#45;&gt;Node6 -->
<g id="edge8" class="edge"><title>Node7&#45;&gt;Node6</title>
<path fill="none" stroke="midnightblue" d="M210.06,-112.368C216.382,-94.5366 231.004,-53.2953 239.522,-29.2717"/>
<polygon fill="midnightblue" stroke="midnightblue" points="242.911,-30.1862 242.954,-19.5914 236.313,-27.847 242.911,-30.1862"/>
</g>
<!-- Node8 -->
<g id="node8" class="node"><title>Node8</title>
<g id="a_node8"><a xlink:href="constants_8h.html" target="_top" xlink:title="constants.h">
<polygon fill="white" stroke="black" points="296,-56.5 296,-75.5 364,-75.5 364,-56.5 296,-56.5"/>
<text text-anchor="middle" x="330" y="-63.5" font-family="Helvetica,sans-Serif" font-size="10.00">constants.h</text>
</a>
</g>
</g>
<!-- Node7&#45;&gt;Node8 -->
<g id="edge10" class="edge"><title>Node7&#45;&gt;Node8</title>
<path fill="none" stroke="midnightblue" d="M226.49,-112.444C246.642,-103.596 278.323,-89.6875 301.331,-79.5865"/>
<polygon fill="midnightblue" stroke="midnightblue" points="302.852,-82.7411 310.601,-75.5164 300.038,-76.3316 302.852,-82.7411"/>
</g>
<!-- Node8&#45;&gt;Node6 -->
<g id="edge11" class="edge"><title>Node8&#45;&gt;Node6</title>
<path fill="none" stroke="midnightblue" d="M316.504,-56.324C303.4,-47.9002 283.288,-34.9709 267.893,-25.0741"/>
<polygon fill="midnightblue" stroke="midnightblue" points="269.767,-22.118 259.463,-19.6545 265.982,-28.0063 269.767,-22.118"/>
</g>
<!-- Node9 -->
<g id="node9" class="node"><title>Node9</title>
<polygon fill="white" stroke="#bfbfbf" points="308,-0.5 308,-19.5 352,-19.5 352,-0.5 308,-0.5"/>
<text text-anchor="middle" x="330" y="-7.5" font-family="Helvetica,sans-Serif" font-size="10.00">vector</text>
</g>
<!-- Node8&#45;&gt;Node9 -->
<g id="edge12" class="edge"><title>Node8&#45;&gt;Node9</title>
<path fill="none" stroke="midnightblue" d="M330,-56.083C330,-49.0059 330,-38.8611 330,-29.9865"/>
<polygon fill="midnightblue" stroke="midnightblue" points="333.5,-29.751 330,-19.7511 326.5,-29.7511 333.5,-29.751"/>
</g>
<!-- Node10&#45;&gt;Node3 -->
<g id="edge17" class="edge"><title>Node10&#45;&gt;Node3</title>
<path fill="none" stroke="midnightblue" d="M194.786,-168.236C184.646,-160.143 170.957,-147.112 165,-132 158.887,-116.492 164.647,-97.9559 170.895,-84.6541"/>
<polygon fill="midnightblue" stroke="midnightblue" points="174.074,-86.1266 175.579,-75.6391 167.862,-82.8992 174.074,-86.1266"/>
</g>
<!-- Node10&#45;&gt;Node6 -->
<g id="edge16" class="edge"><title>Node10&#45;&gt;Node6</title>
<path fill="none" stroke="midnightblue" d="M218.541,-168.49C228.479,-160.379 242.122,-147.178 248,-132 261.23,-97.8347 255.508,-54.0698 250.515,-29.6365"/>
<polygon fill="midnightblue" stroke="midnightblue" points="253.868,-28.5955 248.275,-19.5975 247.036,-30.1196 253.868,-28.5955"/>
</g>
<!-- Node10&#45;&gt;Node7 -->
<g id="edge15" class="edge"><title>Node10&#45;&gt;Node7</title>
<path fill="none" stroke="midnightblue" d="M207,-168.083C207,-161.006 207,-150.861 207,-141.986"/>
<polygon fill="midnightblue" stroke="midnightblue" points="210.5,-141.751 207,-131.751 203.5,-141.751 210.5,-141.751"/>
</g>
<!-- Node10&#45;&gt;Node8 -->
<g id="edge14" class="edge"><title>Node10&#45;&gt;Node8</title>
<path fill="none" stroke="midnightblue" d="M225.619,-168.439C241.68,-160.476 264.918,-147.522 282,-132 297.353,-118.05 310.985,-98.5277 319.761,-84.5255"/>
<polygon fill="midnightblue" stroke="midnightblue" points="322.83,-86.2152 325.023,-75.8498 316.845,-82.5851 322.83,-86.2152"/>
</g>
</g>
</svg>
