<?xml version="1.0" encoding="UTF-8" standalone="no"?>
<!DOCTYPE svg PUBLIC "-//W3C//DTD SVG 1.1//EN"
 "http://www.w3.org/Graphics/SVG/1.1/DTD/svg11.dtd">
<!-- Generated by graphviz version 2.36.0 (20140111.2315)
 -->
<!-- Title: main Pages: 1 -->
<svg width="862pt" height="705pt"
 viewBox="0.00 0.00 862.00 705.00" xmlns="http://www.w3.org/2000/svg" xmlns:xlink="http://www.w3.org/1999/xlink">
<g id="graph0" class="graph" transform="scale(1 1) rotate(0) translate(4 701)">
<title>main</title>
<polygon fill="white" stroke="none" points="-4,4 -4,-701 858,-701 858,4 -4,4"/>
<!-- Node1 -->
<g id="node1" class="node"><title>Node1</title>
<polygon fill="#bfbfbf" stroke="black" points="0,-430.5 0,-449.5 38,-449.5 38,-430.5 0,-430.5"/>
<text text-anchor="middle" x="19" y="-437.5" font-family="Helvetica,sans-Serif" font-size="10.00">main</text>
</g>
<!-- Node2 -->
<g id="node2" class="node"><title>Node2</title>
<g id="a_node2"><a xlink:href="readinput_8cpp.html#a7aca6ded447d93acc99b708101b02474" target="_top" xlink:title="get variable names and values from infile ">
<polygon fill="white" stroke="black" points="136,-677.5 136,-696.5 184,-696.5 184,-677.5 136,-677.5"/>
<text text-anchor="middle" x="160" y="-684.5" font-family="Helvetica,sans-Serif" font-size="10.00">getfield</text>
</a>
</g>
</g>
<!-- Node1&#45;&gt;Node2 -->
<g id="edge1" class="edge"><title>Node1&#45;&gt;Node2</title>
<path fill="none" stroke="midnightblue" d="M20.9312,-449.582C24.9336,-488.78 41.9432,-636.346 74,-668 87.3655,-681.198 107.773,-686.061 125.242,-687.571"/>
<polygon fill="midnightblue" stroke="midnightblue" points="125.479,-691.088 135.65,-688.122 125.849,-684.098 125.479,-691.088"/>
</g>
<!-- Node4 -->
<g id="node4" class="node"><title>Node4</title>
<g id="a_node4"><a xlink:href="class_f_e_l_analysis.html#a3d57f8722f6857ddfc69af70dc859883" target="_top" xlink:title="FELAnalysis::get_FELgainlength1D">
<polygon fill="white" stroke="black" points="74,-639.5 74,-658.5 246,-658.5 246,-639.5 74,-639.5"/>
<text text-anchor="middle" x="160" y="-646.5" font-family="Helvetica,sans-Serif" font-size="10.00">FELAnalysis::get_FELgainlength1D</text>
</a>
</g>
</g>
<!-- Node1&#45;&gt;Node4 -->
<g id="edge3" class="edge"><title>Node1&#45;&gt;Node4</title>
<path fill="none" stroke="midnightblue" d="M19.5756,-449.595C18.7601,-480.695 20.6508,-579.608 74,-630 75.484,-631.402 77.0479,-632.708 78.679,-633.926"/>
<polygon fill="midnightblue" stroke="midnightblue" points="76.996,-637.001 87.3377,-639.303 80.6889,-631.054 76.996,-637.001"/>
</g>
<!-- Node5 -->
<g id="node5" class="node"><title>Node5</title>
<g id="a_node5"><a xlink:href="class_f_e_l_analysis.html#aacb949332e6dabc56d89f0112172d592" target="_top" xlink:title="FELAnalysis::get_FELgainlength3D">
<polygon fill="white" stroke="black" points="74,-601.5 74,-620.5 246,-620.5 246,-601.5 74,-601.5"/>
<text text-anchor="middle" x="160" y="-608.5" font-family="Helvetica,sans-Serif" font-size="10.00">FELAnalysis::get_FELgainlength3D</text>
</a>
</g>
</g>
<!-- Node1&#45;&gt;Node5 -->
<g id="edge4" class="edge"><title>Node1&#45;&gt;Node5</title>
<path fill="none" stroke="midnightblue" d="M20.3609,-449.566C21.917,-476.443 30.1779,-553.201 74,-592 75.7477,-593.547 77.5938,-594.977 79.5199,-596.298"/>
<polygon fill="midnightblue" stroke="midnightblue" points="78.0082,-599.466 88.4218,-601.418 81.4982,-593.398 78.0082,-599.466"/>
</g>
<!-- Node6 -->
<g id="node6" class="node"><title>Node6</title>
<g id="a_node6"><a xlink:href="class_f_e_l_analysis.html#a5054d6cfaa029179a59a57da6f7fa534" target="_top" xlink:title="FELAnalysis::get_FELparameter1D">
<polygon fill="white" stroke="black" points="74.5,-563.5 74.5,-582.5 245.5,-582.5 245.5,-563.5 74.5,-563.5"/>
<text text-anchor="middle" x="160" y="-570.5" font-family="Helvetica,sans-Serif" font-size="10.00">FELAnalysis::get_FELparameter1D</text>
</a>
</g>
</g>
<!-- Node1&#45;&gt;Node6 -->
<g id="edge5" class="edge"><title>Node1&#45;&gt;Node6</title>
<path fill="none" stroke="midnightblue" d="M21.6447,-449.72C25.9343,-471.915 39.6115,-526.522 74,-554 76.1946,-555.754 78.5184,-557.353 80.941,-558.811"/>
<polygon fill="midnightblue" stroke="midnightblue" points="79.5947,-562.053 90.091,-563.495 82.7847,-555.823 79.5947,-562.053"/>
</g>
<!-- Node7 -->
<g id="node7" class="node"><title>Node7</title>
<g id="a_node7"><a xlink:href="class_f_e_l_analysis.html#a699ee610569c4ae190a8d7e7bbe3662a" target="_top" xlink:title="FELAnalysis::get_FELparameter3D">
<polygon fill="white" stroke="black" points="74.5,-525.5 74.5,-544.5 245.5,-544.5 245.5,-525.5 74.5,-525.5"/>
<text text-anchor="middle" x="160" y="-532.5" font-family="Helvetica,sans-Serif" font-size="10.00">FELAnalysis::get_FELparameter3D</text>
</a>
</g>
</g>
<!-- Node1&#45;&gt;Node7 -->
<g id="edge6" class="edge"><title>Node1&#45;&gt;Node7</title>
<path fill="none" stroke="midnightblue" d="M24.0414,-449.674C31.4131,-466.066 48.6554,-499.159 74,-516 76.9872,-517.985 80.1506,-519.765 83.4317,-521.361"/>
<polygon fill="midnightblue" stroke="midnightblue" points="82.3693,-524.712 92.9424,-525.391 85.1002,-518.267 82.3693,-524.712"/>
</g>
<!-- Node8 -->
<g id="node8" class="node"><title>Node8</title>
<g id="a_node8"><a xlink:href="class_f_e_l_analysis.html#a60263dc0f1003875f02d30a88f635673" target="_top" xlink:title="FELAnalysis::get_FELsatpower">
<polygon fill="white" stroke="black" points="82.5,-487.5 82.5,-506.5 237.5,-506.5 237.5,-487.5 82.5,-487.5"/>
<text text-anchor="middle" x="160" y="-494.5" font-family="Helvetica,sans-Serif" font-size="10.00">FELAnalysis::get_FELsatpower</text>
</a>
</g>
</g>
<!-- Node1&#45;&gt;Node8 -->
<g id="edge7" class="edge"><title>Node1&#45;&gt;Node8</title>
<path fill="none" stroke="midnightblue" d="M33.6387,-449.785C44.2281,-457.017 59.5018,-466.666 74,-473 84.4333,-477.558 95.9649,-481.491 107.08,-484.778"/>
<polygon fill="midnightblue" stroke="midnightblue" points="106.127,-488.146 116.703,-487.5 108.033,-481.41 106.127,-488.146"/>
</g>
<!-- Node9 -->
<g id="node9" class="node"><title>Node9</title>
<g id="a_node9"><a xlink:href="class_f_e_l_numerical.html#a9cc9dab3886a4812336e4ca796c8259d" target="_top" xlink:title="parameters initialization for numerical calculation ">
<polygon fill="white" stroke="black" points="282,-452.5 282,-471.5 454,-471.5 454,-452.5 282,-452.5"/>
<text text-anchor="middle" x="368" y="-459.5" font-family="Helvetica,sans-Serif" font-size="10.00">FELNumerical::generateDistribution</text>
</a>
</g>
</g>
<!-- Node1&#45;&gt;Node9 -->
<g id="edge8" class="edge"><title>Node1&#45;&gt;Node9</title>
<path fill="none" stroke="midnightblue" d="M38.4812,-441.87C48.9042,-442.884 62.1704,-444.109 74,-445 139.906,-449.962 214.247,-454.26 271.555,-457.293"/>
<polygon fill="midnightblue" stroke="midnightblue" points="271.518,-460.796 281.688,-457.825 271.886,-453.805 271.518,-460.796"/>
</g>
<!-- Node11 -->
<g id="node11" class="node"><title>Node11</title>
<g id="a_node11"><a xlink:href="class_f_e_l_numerical.html#af73b446c5426faf40905db128fc5c589" target="_top" xlink:title="FELNumerical::initParams">
<polygon fill="white" stroke="black" points="302.5,-414.5 302.5,-433.5 433.5,-433.5 433.5,-414.5 302.5,-414.5"/>
<text text-anchor="middle" x="368" y="-421.5" font-family="Helvetica,sans-Serif" font-size="10.00">FELNumerical::initParams</text>
</a>
</g>
</g>
<!-- Node1&#45;&gt;Node11 -->
<g id="edge10" class="edge"><title>Node1&#45;&gt;Node11</title>
<path fill="none" stroke="midnightblue" d="M38.1677,-439.162C84.7529,-437.014 210.538,-431.214 292.339,-427.443"/>
<polygon fill="midnightblue" stroke="midnightblue" points="292.508,-430.939 302.336,-426.982 292.185,-423.946 292.508,-430.939"/>
</g>
<!-- Node12 -->
<g id="node12" class="node"><title>Node12</title>
<g id="a_node12"><a xlink:href="class_f_e_l_numerical.html#af05bd3696e590e70e830489d92546dcd" target="_top" xlink:title="functions defined for ODE solver ">
<polygon fill="white" stroke="black" points="290,-365 290,-395 446,-395 446,-365 290,-365"/>
<text text-anchor="start" x="298" y="-383" font-family="Helvetica,sans-Serif" font-size="10.00">FELNumerical::FELsolverSingle</text>
<text text-anchor="middle" x="368" y="-372" font-family="Helvetica,sans-Serif" font-size="10.00">Frequency1D</text>
</a>
</g>
</g>
<!-- Node1&#45;&gt;Node12 -->
<g id="edge11" class="edge"><title>Node1&#45;&gt;Node12</title>
<path fill="none" stroke="midnightblue" d="M38.36,-434.317C48.7452,-431.25 62.0139,-427.576 74,-425 142.611,-410.256 221.262,-398.452 279.79,-390.638"/>
<polygon fill="midnightblue" stroke="midnightblue" points="280.285,-394.103 289.739,-389.322 279.367,-387.164 280.285,-394.103"/>
</g>
<!-- Node17 -->
<g id="node17" class="node"><title>Node17</title>
<g id="a_node17"><a xlink:href="class_f_e_l_numerical.html#a85fac03f6396978c4f403ca3129b0936" target="_top" xlink:title="FELNumerical::dumpResults">
<polygon fill="white" stroke="black" points="88.5,-259.5 88.5,-278.5 231.5,-278.5 231.5,-259.5 88.5,-259.5"/>
<text text-anchor="middle" x="160" y="-266.5" font-family="Helvetica,sans-Serif" font-size="10.00">FELNumerical::dumpResults</text>
</a>
</g>
</g>
<!-- Node1&#45;&gt;Node17 -->
<g id="edge16" class="edge"><title>Node1&#45;&gt;Node17</title>
<path fill="none" stroke="midnightblue" d="M20.607,-430.486C22.791,-404.451 32.5052,-331.422 74,-293 78.3247,-288.996 83.267,-285.653 88.5438,-282.863"/>
<polygon fill="midnightblue" stroke="midnightblue" points="90.058,-286.019 97.6904,-278.67 87.1414,-279.655 90.058,-286.019"/>
</g>
<!-- Node18 -->
<g id="node18" class="node"><title>Node18</title>
<g id="a_node18"><a xlink:href="classscanpanel.html#ad4c00a34e9d2be38b1a3e01ed2eb907a" target="_top" xlink:title="scanpanel::info">
<polygon fill="white" stroke="black" points="326.5,-174.5 326.5,-193.5 409.5,-193.5 409.5,-174.5 326.5,-174.5"/>
<text text-anchor="middle" x="368" y="-181.5" font-family="Helvetica,sans-Serif" font-size="10.00">scanpanel::info</text>
</a>
</g>
</g>
<!-- Node1&#45;&gt;Node18 -->
<g id="edge17" class="edge"><title>Node1&#45;&gt;Node18</title>
<path fill="none" stroke="midnightblue" d="M21.64,-430.274C25.9197,-408.066 39.5775,-353.436 74,-326 135.221,-277.205 183.414,-335.032 246,-288 272.712,-267.927 257.459,-244.676 282,-222 293.575,-211.304 308.663,-203.244 322.909,-197.362"/>
<polygon fill="midnightblue" stroke="midnightblue" points="324.511,-200.496 332.583,-193.633 321.993,-193.964 324.511,-200.496"/>
</g>
<!-- Node20 -->
<g id="node20" class="node"><title>Node20</title>
<g id="a_node20"><a xlink:href="classscanpanel.html#aa9124426cac480f9b9bc103b1941717d" target="_top" xlink:title="scanpanel::get_scanflag">
<polygon fill="white" stroke="black" points="99,-221.5 99,-240.5 221,-240.5 221,-221.5 99,-221.5"/>
<text text-anchor="middle" x="160" y="-228.5" font-family="Helvetica,sans-Serif" font-size="10.00">scanpanel::get_scanflag</text>
</a>
</g>
</g>
<!-- Node1&#45;&gt;Node20 -->
<g id="edge19" class="edge"><title>Node1&#45;&gt;Node20</title>
<path fill="none" stroke="midnightblue" d="M19.5756,-430.405C18.7601,-399.305 20.6508,-300.392 74,-250 78.4365,-245.809 83.5868,-242.468 89.1156,-239.812"/>
<polygon fill="midnightblue" stroke="midnightblue" points="90.7399,-242.931 98.7182,-235.96 88.134,-236.435 90.7399,-242.931"/>
</g>
<!-- Node21 -->
<g id="node21" class="node"><title>Node21</title>
<g id="a_node21"><a xlink:href="classscanpanel.html#ad5d03fff058d2903c654c55f101ae852" target="_top" xlink:title="do parameters scan ">
<polygon fill="white" stroke="black" points="102,-335.5 102,-354.5 218,-354.5 218,-335.5 102,-335.5"/>
<text text-anchor="middle" x="160" y="-342.5" font-family="Helvetica,sans-Serif" font-size="10.00">scanpanel::paramScan</text>
</a>
</g>
</g>
<!-- Node1&#45;&gt;Node21 -->
<g id="edge20" class="edge"><title>Node1&#45;&gt;Node21</title>
<path fill="none" stroke="midnightblue" d="M24.8227,-430.117C32.8555,-414.701 50.4479,-385.04 74,-369 80.5053,-364.57 87.819,-360.951 95.3554,-357.997"/>
<polygon fill="midnightblue" stroke="midnightblue" points="96.7129,-361.229 104.977,-354.599 94.3818,-354.629 96.7129,-361.229"/>
</g>
<!-- Node40 -->
<g id="node40" class="node"><title>Node40</title>
<g id="a_node40"><a xlink:href="classscanpanel.html#ab4add235da4417477830bf34011f027c" target="_top" xlink:title="output the scan result into some file ">
<polygon fill="white" stroke="black" points="105,-183.5 105,-202.5 215,-202.5 215,-183.5 105,-183.5"/>
<text text-anchor="middle" x="160" y="-190.5" font-family="Helvetica,sans-Serif" font-size="10.00">scanpanel::dumpdata</text>
</a>
</g>
</g>
<!-- Node1&#45;&gt;Node40 -->
<g id="edge43" class="edge"><title>Node1&#45;&gt;Node40</title>
<path fill="none" stroke="midnightblue" d="M20.9312,-430.418C24.9336,-391.22 41.9432,-243.654 74,-212 79.8901,-206.184 87.1478,-201.986 94.919,-198.981"/>
<polygon fill="midnightblue" stroke="midnightblue" points="96.1418,-202.265 104.595,-195.878 94.0042,-195.599 96.1418,-202.265"/>
</g>
<!-- Node3 -->
<g id="node3" class="node"><title>Node3</title>
<g id="a_node3"><a xlink:href="readinput_8cpp.html#a18603f7a5cc54c007e8bafb9e5301454" target="_top" xlink:title="define functions to handle reading input parameters from external namelist file. ">
<polygon fill="white" stroke="black" points="344,-677.5 344,-696.5 392,-696.5 392,-677.5 344,-677.5"/>
<text text-anchor="middle" x="368" y="-684.5" font-family="Helvetica,sans-Serif" font-size="10.00">trimline</text>
</a>
</g>
</g>
<!-- Node2&#45;&gt;Node3 -->
<g id="edge2" class="edge"><title>Node2&#45;&gt;Node3</title>
<path fill="none" stroke="midnightblue" d="M184.23,-687C220.723,-687 291.637,-687 333.597,-687"/>
<polygon fill="midnightblue" stroke="midnightblue" points="333.855,-690.5 343.855,-687 333.854,-683.5 333.855,-690.5"/>
</g>
<!-- Node10 -->
<g id="node10" class="node"><title>Node10</title>
<g id="a_node10"><a xlink:href="methods_8cpp.html#a2096e6ed7535e8e7125cfb93687b8891" target="_top" xlink:title="return the abs of average of a exp(double) array, i.e. &lt;exp(&#45;1i*h*psi)&gt; ">
<polygon fill="white" stroke="black" points="545.5,-516.5 545.5,-535.5 602.5,-535.5 602.5,-516.5 545.5,-516.5"/>
<text text-anchor="middle" x="574" y="-523.5" font-family="Helvetica,sans-Serif" font-size="10.00">normrand</text>
</a>
</g>
</g>
<!-- Node9&#45;&gt;Node10 -->
<g id="edge9" class="edge"><title>Node9&#45;&gt;Node10</title>
<path fill="none" stroke="midnightblue" d="M391.891,-471.539C415.999,-481.341 455.213,-496.599 490,-507 504.702,-511.396 521.128,-515.351 535.462,-518.5"/>
<polygon fill="midnightblue" stroke="midnightblue" points="534.964,-521.972 545.476,-520.645 536.431,-515.128 534.964,-521.972"/>
</g>
<!-- Node13 -->
<g id="node13" class="node"><title>Node13</title>
<g id="a_node13"><a xlink:href="methods_8cpp.html#ab666508c8a9676400c002d7f74ad7f8d" target="_top" xlink:title="METHODS_H_. ">
<polygon fill="white" stroke="black" points="543,-402.5 543,-421.5 605,-421.5 605,-402.5 543,-402.5"/>
<text text-anchor="middle" x="574" y="-409.5" font-family="Helvetica,sans-Serif" font-size="10.00">meanexph</text>
</a>
</g>
</g>
<!-- Node12&#45;&gt;Node13 -->
<g id="edge12" class="edge"><title>Node12&#45;&gt;Node13</title>
<path fill="none" stroke="midnightblue" d="M446.124,-392.098C475.643,-396.728 508.123,-401.823 532.83,-405.699"/>
<polygon fill="midnightblue" stroke="midnightblue" points="532.489,-409.188 542.911,-407.28 533.574,-402.273 532.489,-409.188"/>
</g>
<!-- Node14 -->
<g id="node14" class="node"><title>Node14</title>
<g id="a_node14"><a xlink:href="class_f_e_l_numerical.html#a98b323d8cec0f07d129408b4aff1ae5d" target="_top" xlink:title="dump numerical simulation results ">
<polygon fill="white" stroke="black" points="519.5,-364.5 519.5,-383.5 628.5,-383.5 628.5,-364.5 519.5,-364.5"/>
<text text-anchor="middle" x="574" y="-371.5" font-family="Helvetica,sans-Serif" font-size="10.00">FELNumerical::odef3</text>
</a>
</g>
</g>
<!-- Node12&#45;&gt;Node14 -->
<g id="edge13" class="edge"><title>Node12&#45;&gt;Node14</title>
<path fill="none" stroke="midnightblue" d="M446.124,-377.732C466.877,-377.121 489.094,-376.468 509.045,-375.881"/>
<polygon fill="midnightblue" stroke="midnightblue" points="509.359,-379.373 519.251,-375.581 509.153,-372.376 509.359,-379.373"/>
</g>
<!-- Node15 -->
<g id="node15" class="node"><title>Node15</title>
<g id="a_node15"><a xlink:href="class_f_e_l_numerical.html#a7c1664a08d8c091b8399a6cf040abdc3" target="_top" xlink:title="FELNumerical::odef1">
<polygon fill="white" stroke="black" points="519.5,-478.5 519.5,-497.5 628.5,-497.5 628.5,-478.5 519.5,-478.5"/>
<text text-anchor="middle" x="574" y="-485.5" font-family="Helvetica,sans-Serif" font-size="10.00">FELNumerical::odef1</text>
</a>
</g>
</g>
<!-- Node12&#45;&gt;Node15 -->
<g id="edge14" class="edge"><title>Node12&#45;&gt;Node15</title>
<path fill="none" stroke="midnightblue" d="M438.141,-395.176C443.801,-397.924 449.186,-401.168 454,-405 479.535,-425.323 463.857,-449.465 490,-469 495.862,-473.38 502.56,-476.776 509.551,-479.406"/>
<polygon fill="midnightblue" stroke="midnightblue" points="508.625,-482.785 519.217,-482.537 510.782,-476.126 508.625,-482.785"/>
</g>
<!-- Node16 -->
<g id="node16" class="node"><title>Node16</title>
<g id="a_node16"><a xlink:href="class_f_e_l_numerical.html#a50847862c4edf2851f4422eb3ff68dca" target="_top" xlink:title="FELNumerical::odef2">
<polygon fill="white" stroke="black" points="519.5,-440.5 519.5,-459.5 628.5,-459.5 628.5,-440.5 519.5,-440.5"/>
<text text-anchor="middle" x="574" y="-447.5" font-family="Helvetica,sans-Serif" font-size="10.00">FELNumerical::odef2</text>
</a>
</g>
</g>
<!-- Node12&#45;&gt;Node16 -->
<g id="edge15" class="edge"><title>Node12&#45;&gt;Node16</title>
<path fill="none" stroke="midnightblue" d="M429.867,-395.147C438.148,-397.999 446.403,-401.276 454,-405 471.722,-413.687 472.021,-422.858 490,-431 496.152,-433.786 502.752,-436.183 509.444,-438.241"/>
<polygon fill="midnightblue" stroke="midnightblue" points="508.697,-441.667 519.272,-441.019 510.601,-434.931 508.697,-441.667"/>
</g>
<!-- Node19 -->
<g id="node19" class="node"><title>Node19</title>
<g id="a_node19"><a xlink:href="readinput_8cpp.html#aa8e009615e0c90278ea678ee0b8bbfc7" target="_top" xlink:title="convert double into string ">
<polygon fill="white" stroke="black" points="551,-136.5 551,-155.5 597,-155.5 597,-136.5 551,-136.5"/>
<text text-anchor="middle" x="574" y="-143.5" font-family="Helvetica,sans-Serif" font-size="10.00">dbl2str</text>
</a>
</g>
</g>
<!-- Node18&#45;&gt;Node19 -->
<g id="edge18" class="edge"><title>Node18&#45;&gt;Node19</title>
<path fill="none" stroke="midnightblue" d="M409.792,-176.401C448.253,-169.237 505.14,-158.641 540.59,-152.037"/>
<polygon fill="midnightblue" stroke="midnightblue" points="541.67,-155.396 550.86,-150.124 540.388,-148.515 541.67,-155.396"/>
</g>
<!-- Node21&#45;&gt;Node9 -->
<g id="edge39" class="edge"><title>Node21&#45;&gt;Node9</title>
<path fill="none" stroke="midnightblue" d="M169.679,-354.523C188.247,-374.282 234.055,-419.82 282,-443 287.02,-445.427 292.357,-447.549 297.817,-449.404"/>
<polygon fill="midnightblue" stroke="midnightblue" points="297.145,-452.859 307.733,-452.461 299.208,-446.17 297.145,-452.859"/>
</g>
<!-- Node21&#45;&gt;Node11 -->
<g id="edge40" class="edge"><title>Node21&#45;&gt;Node11</title>
<path fill="none" stroke="midnightblue" d="M177.713,-354.638C200.593,-367.482 243.254,-390.19 282,-404 290.3,-406.958 299.213,-409.604 308.033,-411.927"/>
<polygon fill="midnightblue" stroke="midnightblue" points="307.362,-415.368 317.913,-414.412 309.069,-408.579 307.362,-415.368"/>
</g>
<!-- Node21&#45;&gt;Node12 -->
<g id="edge41" class="edge"><title>Node21&#45;&gt;Node12</title>
<path fill="none" stroke="midnightblue" d="M217.018,-354.518C236.355,-357.803 258.502,-361.566 279.736,-365.174"/>
<polygon fill="midnightblue" stroke="midnightblue" points="279.296,-368.649 289.741,-366.874 280.469,-361.748 279.296,-368.649"/>
</g>
<!-- Node22 -->
<g id="node22" class="node"><title>Node22</title>
<g id="a_node22"><a xlink:href="classscanpanel.html#abcd398fda4ec23590821fb7fa391f8eb" target="_top" xlink:title="check scan setup, return 1 if all the parameters are OK, or 0 and exit(1); ">
<polygon fill="white" stroke="black" points="286,-326.5 286,-345.5 450,-345.5 450,-326.5 286,-326.5"/>
<text text-anchor="middle" x="368" y="-333.5" font-family="Helvetica,sans-Serif" font-size="10.00">scanpanel::checkScanSetupIsOK</text>
</a>
</g>
</g>
<!-- Node21&#45;&gt;Node22 -->
<g id="edge21" class="edge"><title>Node21&#45;&gt;Node22</title>
<path fill="none" stroke="midnightblue" d="M218.109,-342.505C235.955,-341.725 256.111,-340.845 275.696,-339.989"/>
<polygon fill="midnightblue" stroke="midnightblue" points="276.032,-343.478 285.87,-339.545 275.727,-336.484 276.032,-343.478"/>
</g>
<!-- Node24 -->
<g id="node24" class="node"><title>Node24</title>
<g id="a_node24"><a xlink:href="classscanpanel.html#a1338695a9884249cea3397a4f75c4fe5" target="_top" xlink:title="update varlist read from external namelist file ">
<polygon fill="white" stroke="black" points="306,-269.5 306,-288.5 430,-288.5 430,-269.5 306,-269.5"/>
<text text-anchor="middle" x="368" y="-276.5" font-family="Helvetica,sans-Serif" font-size="10.00">scanpanel::updateVarlist</text>
</a>
</g>
</g>
<!-- Node21&#45;&gt;Node24 -->
<g id="edge23" class="edge"><title>Node21&#45;&gt;Node24</title>
<path fill="none" stroke="midnightblue" d="M196.705,-335.422C211.953,-331.202 229.909,-326.059 246,-321 274.77,-311.954 307.017,-300.705 330.983,-292.125"/>
<polygon fill="midnightblue" stroke="midnightblue" points="332.487,-295.304 340.712,-288.626 330.118,-288.717 332.487,-295.304"/>
</g>
<!-- Node39 -->
<g id="node39" class="node"><title>Node39</title>
<g id="a_node39"><a xlink:href="class_f_e_l_numerical.html#aff125b90006edd7fe4b19adbbfacda92" target="_top" xlink:title="FELNumerical::get_maxExAmp">
<polygon fill="white" stroke="black" points="290.5,-231.5 290.5,-250.5 445.5,-250.5 445.5,-231.5 290.5,-231.5"/>
<text text-anchor="middle" x="368" y="-238.5" font-family="Helvetica,sans-Serif" font-size="10.00">FELNumerical::get_maxExAmp</text>
</a>
</g>
</g>
<!-- Node21&#45;&gt;Node39 -->
<g id="edge42" class="edge"><title>Node21&#45;&gt;Node39</title>
<path fill="none" stroke="midnightblue" d="M217.83,-335.476C227.871,-332.04 237.74,-327.363 246,-321 270.938,-301.788 256.54,-278.515 282,-260 284.547,-258.148 287.242,-256.471 290.045,-254.954"/>
<polygon fill="midnightblue" stroke="midnightblue" points="291.728,-258.03 299.31,-250.63 288.768,-251.687 291.728,-258.03"/>
</g>
<!-- Node23 -->
<g id="node23" class="node"><title>Node23</title>
<g id="a_node23"><a xlink:href="classscanpanel.html#af24e52f96205d0d15988bb13ba8427ff" target="_top" xlink:title="check if scan parameter (string) setup is OK, return 1 if is OK, or 0; ">
<polygon fill="white" stroke="black" points="490.5,-326.5 490.5,-345.5 657.5,-345.5 657.5,-326.5 490.5,-326.5"/>
<text text-anchor="middle" x="574" y="-333.5" font-family="Helvetica,sans-Serif" font-size="10.00">scanpanel::checkScanParamIsOK</text>
</a>
</g>
</g>
<!-- Node22&#45;&gt;Node23 -->
<g id="edge22" class="edge"><title>Node22&#45;&gt;Node23</title>
<path fill="none" stroke="midnightblue" d="M450.212,-336C460.129,-336 470.32,-336 480.387,-336"/>
<polygon fill="midnightblue" stroke="midnightblue" points="480.399,-339.5 490.399,-336 480.399,-332.5 480.399,-339.5"/>
</g>
<!-- Node24&#45;&gt;Node19 -->
<g id="edge24" class="edge"><title>Node24&#45;&gt;Node19</title>
<path fill="none" stroke="midnightblue" d="M430.126,-273.093C438.834,-270.144 447.145,-265.943 454,-260 488.117,-230.423 455.959,-194.664 490,-165 503.844,-152.936 523.795,-148.106 540.667,-146.331"/>
<polygon fill="midnightblue" stroke="midnightblue" points="540.98,-149.817 550.692,-145.582 540.459,-142.836 540.98,-149.817"/>
</g>
<!-- Node25 -->
<g id="node25" class="node"><title>Node25</title>
<g id="a_node25"><a xlink:href="classscanpanel.html#a892cbc5c1eeafa7be9d8ddecaee3d68e" target="_top" xlink:title="scanpanel::set_electronBeam">
<polygon fill="white" stroke="black" points="501,-174.5 501,-193.5 647,-193.5 647,-174.5 501,-174.5"/>
<text text-anchor="middle" x="574" y="-181.5" font-family="Helvetica,sans-Serif" font-size="10.00">scanpanel::set_electronBeam</text>
</a>
</g>
</g>
<!-- Node24&#45;&gt;Node25 -->
<g id="edge25" class="edge"><title>Node24&#45;&gt;Node25</title>
<path fill="none" stroke="midnightblue" d="M424.736,-269.471C434.672,-266.952 444.785,-263.832 454,-260 473.811,-251.761 522.172,-219.253 550.774,-199.519"/>
<polygon fill="midnightblue" stroke="midnightblue" points="553.078,-202.18 559.304,-193.607 549.091,-196.426 553.078,-202.18"/>
</g>
<!-- Node32 -->
<g id="node32" class="node"><title>Node32</title>
<g id="a_node32"><a xlink:href="classscanpanel.html#a039ed64a56edba772f36f872d65c61d0" target="_top" xlink:title="scanpanel::set_undulator">
<polygon fill="white" stroke="black" points="511.5,-288.5 511.5,-307.5 636.5,-307.5 636.5,-288.5 511.5,-288.5"/>
<text text-anchor="middle" x="574" y="-295.5" font-family="Helvetica,sans-Serif" font-size="10.00">scanpanel::set_undulator</text>
</a>
</g>
</g>
<!-- Node24&#45;&gt;Node32 -->
<g id="edge32" class="edge"><title>Node24&#45;&gt;Node32</title>
<path fill="none" stroke="midnightblue" d="M430.207,-284.701C452.596,-286.786 478.125,-289.164 501.345,-291.326"/>
<polygon fill="midnightblue" stroke="midnightblue" points="501.203,-294.828 511.484,-292.271 501.852,-287.858 501.203,-294.828"/>
</g>
<!-- Node37 -->
<g id="node37" class="node"><title>Node37</title>
<g id="a_node37"><a xlink:href="classscanpanel.html#ae742a13334bed97f6e39d4dca1be16a1" target="_top" xlink:title="scanpanel::set_FELradiation">
<polygon fill="white" stroke="black" points="504,-250.5 504,-269.5 644,-269.5 644,-250.5 504,-250.5"/>
<text text-anchor="middle" x="574" y="-257.5" font-family="Helvetica,sans-Serif" font-size="10.00">scanpanel::set_FELradiation</text>
</a>
</g>
</g>
<!-- Node24&#45;&gt;Node37 -->
<g id="edge37" class="edge"><title>Node24&#45;&gt;Node37</title>
<path fill="none" stroke="midnightblue" d="M430.207,-273.299C450.177,-271.439 472.644,-269.347 493.744,-267.382"/>
<polygon fill="midnightblue" stroke="midnightblue" points="494.343,-270.841 503.975,-266.429 493.693,-263.871 494.343,-270.841"/>
</g>
<!-- Node26 -->
<g id="node26" class="node"><title>Node26</title>
<g id="a_node26"><a xlink:href="classelectron_beam.html#a787d3e61816281618f284ef3bb2e1ebb" target="_top" xlink:title="beam energy, $$ ">
<polygon fill="white" stroke="black" points="708.5,-49 708.5,-79 839.5,-79 839.5,-49 708.5,-49"/>
<text text-anchor="start" x="716.5" y="-67" font-family="Helvetica,sans-Serif" font-size="10.00">electronBeam::set_central</text>
<text text-anchor="middle" x="774" y="-56" font-family="Helvetica,sans-Serif" font-size="10.00">Energy</text>
</a>
</g>
</g>
<!-- Node25&#45;&gt;Node26 -->
<g id="edge26" class="edge"><title>Node25&#45;&gt;Node26</title>
<path fill="none" stroke="midnightblue" d="M642.297,-174.337C647.934,-171.863 653.275,-168.796 658,-165 687.139,-141.594 665.838,-113.573 694,-89 695.944,-87.3035 698.004,-85.7219 700.153,-84.2476"/>
<polygon fill="midnightblue" stroke="midnightblue" points="702.034,-87.2012 708.834,-79.0761 698.451,-81.1875 702.034,-87.2012"/>
</g>
<!-- Node27 -->
<g id="node27" class="node"><title>Node27</title>
<g id="a_node27"><a xlink:href="classelectron_beam.html#a7e4cff020876ed5b43499b60ad1822cd" target="_top" xlink:title="rms energy spread, $$ ">
<polygon fill="white" stroke="black" points="708.5,-0 708.5,-30 839.5,-30 839.5,-0 708.5,-0"/>
<text text-anchor="start" x="716.5" y="-18" font-family="Helvetica,sans-Serif" font-size="10.00">electronBeam::set_energy</text>
<text text-anchor="middle" x="774" y="-7" font-family="Helvetica,sans-Serif" font-size="10.00">Spread</text>
</a>
</g>
</g>
<!-- Node25&#45;&gt;Node27 -->
<g id="edge27" class="edge"><title>Node25&#45;&gt;Node27</title>
<path fill="none" stroke="midnightblue" d="M644.586,-174.338C649.475,-171.835 654.031,-168.763 658,-165 700.265,-124.929 653.161,-80.5237 694,-39 695.674,-37.2978 697.465,-35.7154 699.35,-34.2446"/>
<polygon fill="midnightblue" stroke="midnightblue" points="701.7,-36.8894 708.15,-28.484 697.866,-31.0326 701.7,-36.8894"/>
</g>
<!-- Node28 -->
<g id="node28" class="node"><title>Node28</title>
<g id="a_node28"><a xlink:href="classelectron_beam.html#a9e750f50d228ef648b6b607afac44c77" target="_top" xlink:title="normalized emittance in x ">
<polygon fill="white" stroke="black" points="708.5,-212.5 708.5,-231.5 839.5,-231.5 839.5,-212.5 708.5,-212.5"/>
<text text-anchor="middle" x="774" y="-219.5" font-family="Helvetica,sans-Serif" font-size="10.00">electronBeam::set_emitnx</text>
</a>
</g>
</g>
<!-- Node25&#45;&gt;Node28 -->
<g id="edge28" class="edge"><title>Node25&#45;&gt;Node28</title>
<path fill="none" stroke="midnightblue" d="M624.708,-193.54C651.541,-198.69 684.859,-205.084 713.113,-210.506"/>
<polygon fill="midnightblue" stroke="midnightblue" points="712.791,-214.009 723.271,-212.456 714.11,-207.134 712.791,-214.009"/>
</g>
<!-- Node29 -->
<g id="node29" class="node"><title>Node29</title>
<g id="a_node29"><a xlink:href="classelectron_beam.html#aacb24d39f88c45a62e5fbd5516e43bfb" target="_top" xlink:title="normalized emittance in y ">
<polygon fill="white" stroke="black" points="708.5,-174.5 708.5,-193.5 839.5,-193.5 839.5,-174.5 708.5,-174.5"/>
<text text-anchor="middle" x="774" y="-181.5" font-family="Helvetica,sans-Serif" font-size="10.00">electronBeam::set_emitny</text>
</a>
</g>
</g>
<!-- Node25&#45;&gt;Node29 -->
<g id="edge29" class="edge"><title>Node25&#45;&gt;Node29</title>
<path fill="none" stroke="midnightblue" d="M647.043,-184C663.616,-184 681.281,-184 697.978,-184"/>
<polygon fill="midnightblue" stroke="midnightblue" points="698.231,-187.5 708.231,-184 698.231,-180.5 698.231,-187.5"/>
</g>
<!-- Node30 -->
<g id="node30" class="node"><title>Node30</title>
<g id="a_node30"><a xlink:href="classelectron_beam.html#a1e6b08af9247eca49c00af3d3c57cd6f" target="_top" xlink:title="peak current, [A] ">
<polygon fill="white" stroke="black" points="696.5,-136.5 696.5,-155.5 851.5,-155.5 851.5,-136.5 696.5,-136.5"/>
<text text-anchor="middle" x="774" y="-143.5" font-family="Helvetica,sans-Serif" font-size="10.00">electronBeam::set_peakCurrent</text>
</a>
</g>
</g>
<!-- Node25&#45;&gt;Node30 -->
<g id="edge30" class="edge"><title>Node25&#45;&gt;Node30</title>
<path fill="none" stroke="midnightblue" d="M624.708,-174.46C651.541,-169.31 684.859,-162.916 713.113,-157.494"/>
<polygon fill="midnightblue" stroke="midnightblue" points="714.11,-160.866 723.271,-155.544 712.791,-153.991 714.11,-160.866"/>
</g>
<!-- Node31 -->
<g id="node31" class="node"><title>Node31</title>
<g id="a_node31"><a xlink:href="classelectron_beam.html#a3c9af6b4b9f079eb078200ac4c91812f" target="_top" xlink:title="average beta function, [m] ">
<polygon fill="white" stroke="black" points="694.5,-98.5 694.5,-117.5 853.5,-117.5 853.5,-98.5 694.5,-98.5"/>
<text text-anchor="middle" x="774" y="-105.5" font-family="Helvetica,sans-Serif" font-size="10.00">electronBeam::set_avgBetaFunc</text>
</a>
</g>
</g>
<!-- Node25&#45;&gt;Node31 -->
<g id="edge31" class="edge"><title>Node25&#45;&gt;Node31</title>
<path fill="none" stroke="midnightblue" d="M635.965,-174.433C643.652,-171.975 651.196,-168.884 658,-165 678.204,-153.466 673.86,-138.645 694,-127 697.883,-124.755 702.02,-122.774 706.289,-121.027"/>
<polygon fill="midnightblue" stroke="midnightblue" points="707.597,-124.276 715.794,-117.564 705.2,-117.699 707.597,-124.276"/>
</g>
<!-- Node33 -->
<g id="node33" class="node"><title>Node33</title>
<g id="a_node33"><a xlink:href="classundulator.html#a7a27a3ad42f9d826929d68e04105c7f1" target="_top" xlink:title="peak magnetic field, [T] ">
<polygon fill="white" stroke="black" points="724.5,-402.5 724.5,-421.5 823.5,-421.5 823.5,-402.5 724.5,-402.5"/>
<text text-anchor="middle" x="774" y="-409.5" font-family="Helvetica,sans-Serif" font-size="10.00">undulator::set_field</text>
</a>
</g>
</g>
<!-- Node32&#45;&gt;Node33 -->
<g id="edge33" class="edge"><title>Node32&#45;&gt;Node33</title>
<path fill="none" stroke="midnightblue" d="M636.854,-305.483C644.486,-308.266 651.777,-312.001 658,-317 687.139,-340.406 664.99,-369.434 694,-393 700.082,-397.941 707.244,-401.632 714.731,-404.383"/>
<polygon fill="midnightblue" stroke="midnightblue" points="713.742,-407.741 724.331,-407.388 715.834,-401.06 713.742,-407.741"/>
</g>
<!-- Node34 -->
<g id="node34" class="node"><title>Node34</title>
<g id="a_node34"><a xlink:href="classundulator.html#a9e87429b74fd3e518da8b64ba7f5dc3e" target="_top" xlink:title="period length, [m] ">
<polygon fill="white" stroke="black" points="720.5,-364.5 720.5,-383.5 827.5,-383.5 827.5,-364.5 720.5,-364.5"/>
<text text-anchor="middle" x="774" y="-371.5" font-family="Helvetica,sans-Serif" font-size="10.00">undulator::set_period</text>
</a>
</g>
</g>
<!-- Node32&#45;&gt;Node34 -->
<g id="edge34" class="edge"><title>Node32&#45;&gt;Node34</title>
<path fill="none" stroke="midnightblue" d="M635.965,-307.567C643.652,-310.025 651.196,-313.116 658,-317 678.204,-328.534 673.86,-343.355 694,-355 699.163,-357.985 704.776,-360.503 710.549,-362.626"/>
<polygon fill="midnightblue" stroke="midnightblue" points="709.772,-366.054 720.365,-365.838 711.949,-359.401 709.772,-366.054"/>
</g>
<!-- Node35 -->
<g id="node35" class="node"><title>Node35</title>
<g id="a_node35"><a xlink:href="classundulator.html#ac2a1d4ec90aa751762c3e8cb6b99e439" target="_top" xlink:title="integration steps per period ">
<polygon fill="white" stroke="black" points="721.5,-326.5 721.5,-345.5 826.5,-345.5 826.5,-326.5 721.5,-326.5"/>
<text text-anchor="middle" x="774" y="-333.5" font-family="Helvetica,sans-Serif" font-size="10.00">undulator::set_nstep</text>
</a>
</g>
</g>
<!-- Node32&#45;&gt;Node35 -->
<g id="edge35" class="edge"><title>Node32&#45;&gt;Node35</title>
<path fill="none" stroke="midnightblue" d="M624.708,-307.54C651.541,-312.69 684.859,-319.084 713.113,-324.506"/>
<polygon fill="midnightblue" stroke="midnightblue" points="712.791,-328.009 723.271,-326.456 714.11,-321.134 712.791,-328.009"/>
</g>
<!-- Node36 -->
<g id="node36" class="node"><title>Node36</title>
<g id="a_node36"><a xlink:href="classundulator.html#ab7da54eee638d6b1fbe9fba7abf68310" target="_top" xlink:title="total period number ">
<polygon fill="white" stroke="black" points="724,-288.5 724,-307.5 824,-307.5 824,-288.5 724,-288.5"/>
<text text-anchor="middle" x="774" y="-295.5" font-family="Helvetica,sans-Serif" font-size="10.00">undulator::set_num</text>
</a>
</g>
</g>
<!-- Node32&#45;&gt;Node36 -->
<g id="edge36" class="edge"><title>Node32&#45;&gt;Node36</title>
<path fill="none" stroke="midnightblue" d="M636.563,-298C661.098,-298 689.231,-298 713.552,-298"/>
<polygon fill="midnightblue" stroke="midnightblue" points="713.72,-301.5 723.72,-298 713.72,-294.5 713.72,-301.5"/>
</g>
<!-- Node38 -->
<g id="node38" class="node"><title>Node38</title>
<g id="a_node38"><a xlink:href="class_f_e_lradiation.html#a05d0489861b497819884e81019c546ca" target="_top" xlink:title="central wavelength, [m] ">
<polygon fill="white" stroke="black" points="701,-250.5 701,-269.5 847,-269.5 847,-250.5 701,-250.5"/>
<text text-anchor="middle" x="774" y="-257.5" font-family="Helvetica,sans-Serif" font-size="10.00">FELradiation::set_wavelength</text>
</a>
</g>
</g>
<!-- Node37&#45;&gt;Node38 -->
<g id="edge38" class="edge"><title>Node37&#45;&gt;Node38</title>
<path fill="none" stroke="midnightblue" d="M644.251,-260C659.254,-260 675.261,-260 690.71,-260"/>
<polygon fill="midnightblue" stroke="midnightblue" points="690.765,-263.5 700.765,-260 690.765,-256.5 690.765,-263.5"/>
</g>
</g>
</svg>
