<?xml version="1.0" encoding="UTF-8" standalone="no"?>
<!DOCTYPE svg PUBLIC "-//W3C//DTD SVG 1.1//EN"
 "http://www.w3.org/Graphics/SVG/1.1/DTD/svg11.dtd">
<!-- Generated by graphviz version 2.36.0 (20140111.2315)
 -->
<!-- Title: methods.h Pages: 1 -->
<svg width="243pt" height="196pt"
 viewBox="0.00 0.00 243.00 196.00" xmlns="http://www.w3.org/2000/svg" xmlns:xlink="http://www.w3.org/1999/xlink">
<g id="graph0" class="graph" transform="scale(1 1) rotate(0) translate(4 192)">
<title>methods.h</title>
<polygon fill="white" stroke="none" points="-4,4 -4,-192 239,-192 239,4 -4,4"/>
<!-- Node1 -->
<g id="node1" class="node"><title>Node1</title>
<polygon fill="#bfbfbf" stroke="black" points="80,-168.5 80,-187.5 142,-187.5 142,-168.5 80,-168.5"/>
<text text-anchor="middle" x="111" y="-175.5" font-family="Helvetica,sans-Serif" font-size="10.00">methods.h</text>
</g>
<!-- Node2 -->
<g id="node2" class="node"><title>Node2</title>
<g id="a_node2"><a xlink:href="constants_8h.html" target="_top" xlink:title="constants.h">
<polygon fill="white" stroke="black" points="108,-56.5 108,-75.5 176,-75.5 176,-56.5 108,-56.5"/>
<text text-anchor="middle" x="142" y="-63.5" font-family="Helvetica,sans-Serif" font-size="10.00">constants.h</text>
</a>
</g>
</g>
<!-- Node1&#45;&gt;Node2 -->
<g id="edge1" class="edge"><title>Node1&#45;&gt;Node2</title>
<path fill="none" stroke="midnightblue" d="M113.433,-168.368C118.458,-150.537 130.08,-109.295 136.851,-85.2717"/>
<polygon fill="midnightblue" stroke="midnightblue" points="140.235,-86.1659 139.579,-75.5914 133.497,-84.2671 140.235,-86.1659"/>
</g>
<!-- Node3 -->
<g id="node3" class="node"><title>Node3</title>
<polygon fill="white" stroke="#bfbfbf" points="-0.5,-0.5 -0.5,-19.5 52.5,-19.5 52.5,-0.5 -0.5,-0.5"/>
<text text-anchor="middle" x="26" y="-7.5" font-family="Helvetica,sans-Serif" font-size="10.00">complex</text>
</g>
<!-- Node1&#45;&gt;Node3 -->
<g id="edge9" class="edge"><title>Node1&#45;&gt;Node3</title>
<path fill="none" stroke="midnightblue" d="M86.7957,-168.427C70.4614,-161.308 49.9552,-149.489 39,-132 19.2557,-100.48 20.5186,-55.0929 23.2338,-29.8149"/>
<polygon fill="midnightblue" stroke="midnightblue" points="26.7257,-30.0989 24.5132,-19.7377 19.7815,-29.2172 26.7257,-30.0989"/>
</g>
<!-- Node5 -->
<g id="node5" class="node"><title>Node5</title>
<g id="a_node5"><a xlink:href="elements_8h.html" target="_top" xlink:title="elements.h">
<polygon fill="white" stroke="black" points="48.5,-112.5 48.5,-131.5 113.5,-131.5 113.5,-112.5 48.5,-112.5"/>
<text text-anchor="middle" x="81" y="-119.5" font-family="Helvetica,sans-Serif" font-size="10.00">elements.h</text>
</a>
</g>
</g>
<!-- Node1&#45;&gt;Node5 -->
<g id="edge4" class="edge"><title>Node1&#45;&gt;Node5</title>
<path fill="none" stroke="midnightblue" d="M106.046,-168.083C101.896,-160.613 95.8469,-149.724 90.7333,-140.52"/>
<polygon fill="midnightblue" stroke="midnightblue" points="93.7777,-138.793 85.8617,-131.751 87.6586,-142.192 93.7777,-138.793"/>
</g>
<!-- Node6 -->
<g id="node6" class="node"><title>Node6</title>
<polygon fill="white" stroke="#bfbfbf" points="194.5,-56.5 194.5,-75.5 235.5,-75.5 235.5,-56.5 194.5,-56.5"/>
<text text-anchor="middle" x="215" y="-63.5" font-family="Helvetica,sans-Serif" font-size="10.00">string</text>
</g>
<!-- Node1&#45;&gt;Node6 -->
<g id="edge10" class="edge"><title>Node1&#45;&gt;Node6</title>
<path fill="none" stroke="midnightblue" d="M119.161,-168.368C136.552,-149.974 177.493,-106.671 199.824,-83.0519"/>
<polygon fill="midnightblue" stroke="midnightblue" points="202.55,-85.2625 206.877,-75.5914 197.464,-80.4534 202.55,-85.2625"/>
</g>
<!-- Node2&#45;&gt;Node3 -->
<g id="edge2" class="edge"><title>Node2&#45;&gt;Node3</title>
<path fill="none" stroke="midnightblue" d="M123.619,-56.4435C104.784,-47.6751 75.2688,-33.9355 53.6207,-23.8579"/>
<polygon fill="midnightblue" stroke="midnightblue" points="54.8375,-20.5637 44.2946,-19.5164 51.8833,-26.9098 54.8375,-20.5637"/>
</g>
<!-- Node4 -->
<g id="node4" class="node"><title>Node4</title>
<polygon fill="white" stroke="#bfbfbf" points="120,-0.5 120,-19.5 164,-19.5 164,-0.5 120,-0.5"/>
<text text-anchor="middle" x="142" y="-7.5" font-family="Helvetica,sans-Serif" font-size="10.00">vector</text>
</g>
<!-- Node2&#45;&gt;Node4 -->
<g id="edge3" class="edge"><title>Node2&#45;&gt;Node4</title>
<path fill="none" stroke="midnightblue" d="M142,-56.083C142,-49.0059 142,-38.8611 142,-29.9865"/>
<polygon fill="midnightblue" stroke="midnightblue" points="145.5,-29.751 142,-19.7511 138.5,-29.7511 145.5,-29.751"/>
</g>
<!-- Node5&#45;&gt;Node2 -->
<g id="edge8" class="edge"><title>Node5&#45;&gt;Node2</title>
<path fill="none" stroke="midnightblue" d="M90.8007,-112.324C99.8181,-104.341 113.406,-92.3128 124.318,-82.6529"/>
<polygon fill="midnightblue" stroke="midnightblue" points="126.853,-85.083 132.021,-75.8339 122.213,-79.8416 126.853,-85.083"/>
</g>
<!-- Node5&#45;&gt;Node3 -->
<g id="edge6" class="edge"><title>Node5&#45;&gt;Node3</title>
<path fill="none" stroke="midnightblue" d="M72.4188,-112.431C64.2973,-103.879 52.2935,-90.0246 45,-76 37.3717,-61.3318 32.3909,-43.1649 29.4508,-29.7692"/>
<polygon fill="midnightblue" stroke="midnightblue" points="32.8527,-28.933 27.4477,-19.8206 25.9904,-30.3147 32.8527,-28.933"/>
</g>
<!-- Node5&#45;&gt;Node6 -->
<g id="edge5" class="edge"><title>Node5&#45;&gt;Node6</title>
<path fill="none" stroke="midnightblue" d="M102.233,-112.444C124.514,-103.465 159.73,-89.2729 184.878,-79.1386"/>
<polygon fill="midnightblue" stroke="midnightblue" points="186.34,-82.3231 194.307,-75.339 183.724,-75.8305 186.34,-82.3231"/>
</g>
<!-- Node7 -->
<g id="node7" class="node"><title>Node7</title>
<polygon fill="white" stroke="#bfbfbf" points="54.5,-56.5 54.5,-75.5 89.5,-75.5 89.5,-56.5 54.5,-56.5"/>
<text text-anchor="middle" x="72" y="-63.5" font-family="Helvetica,sans-Serif" font-size="10.00">map</text>
</g>
<!-- Node5&#45;&gt;Node7 -->
<g id="edge7" class="edge"><title>Node5&#45;&gt;Node7</title>
<path fill="none" stroke="midnightblue" d="M79.5138,-112.083C78.3212,-104.927 76.6059,-94.6353 75.1152,-85.6911"/>
<polygon fill="midnightblue" stroke="midnightblue" points="78.555,-85.0396 73.4585,-75.7511 71.6502,-86.1904 78.555,-85.0396"/>
</g>
</g>
</svg>
