<?xml version="1.0" encoding="UTF-8" standalone="no"?>
<!DOCTYPE svg PUBLIC "-//W3C//DTD SVG 1.1//EN"
 "http://www.w3.org/Graphics/SVG/1.1/DTD/svg11.dtd">
<!-- Generated by graphviz version 2.36.0 (20140111.2315)
 -->
<!-- Title: readinput.cpp Pages: 1 -->
<svg width="428pt" height="140pt"
 viewBox="0.00 0.00 428.00 140.00" xmlns="http://www.w3.org/2000/svg" xmlns:xlink="http://www.w3.org/1999/xlink">
<g id="graph0" class="graph" transform="scale(1 1) rotate(0) translate(4 136)">
<title>readinput.cpp</title>
<polygon fill="white" stroke="none" points="-4,4 -4,-136 424,-136 424,4 -4,4"/>
<!-- Node1 -->
<g id="node1" class="node"><title>Node1</title>
<polygon fill="#bfbfbf" stroke="black" points="222.5,-112.5 222.5,-131.5 297.5,-131.5 297.5,-112.5 222.5,-112.5"/>
<text text-anchor="middle" x="260" y="-119.5" font-family="Helvetica,sans-Serif" font-size="10.00">readinput.cpp</text>
</g>
<!-- Node2 -->
<g id="node2" class="node"><title>Node2</title>
<g id="a_node2"><a xlink:href="readinput_8h.html" target="_top" xlink:title="readinput.h">
<polygon fill="white" stroke="black" points="81.5,-56.5 81.5,-75.5 146.5,-75.5 146.5,-56.5 81.5,-56.5"/>
<text text-anchor="middle" x="114" y="-63.5" font-family="Helvetica,sans-Serif" font-size="10.00">readinput.h</text>
</a>
</g>
</g>
<!-- Node1&#45;&gt;Node2 -->
<g id="edge1" class="edge"><title>Node1&#45;&gt;Node2</title>
<path fill="none" stroke="midnightblue" d="M236.866,-112.444C212.518,-103.438 173.993,-89.1891 146.577,-79.049"/>
<polygon fill="midnightblue" stroke="midnightblue" points="147.619,-75.7028 137.026,-75.5164 145.191,-82.2681 147.619,-75.7028"/>
</g>
<!-- Node7 -->
<g id="node7" class="node"><title>Node7</title>
<polygon fill="white" stroke="#bfbfbf" points="165,-56.5 165,-75.5 215,-75.5 215,-56.5 165,-56.5"/>
<text text-anchor="middle" x="190" y="-63.5" font-family="Helvetica,sans-Serif" font-size="10.00">iomanip</text>
</g>
<!-- Node1&#45;&gt;Node7 -->
<g id="edge6" class="edge"><title>Node1&#45;&gt;Node7</title>
<path fill="none" stroke="midnightblue" d="M248.753,-112.324C238.203,-104.185 222.199,-91.8395 209.558,-82.0874"/>
<polygon fill="midnightblue" stroke="midnightblue" points="211.507,-79.1707 201.451,-75.8339 207.231,-84.7132 211.507,-79.1707"/>
</g>
<!-- Node8 -->
<g id="node8" class="node"><title>Node8</title>
<polygon fill="white" stroke="#bfbfbf" points="233,-56.5 233,-75.5 287,-75.5 287,-56.5 233,-56.5"/>
<text text-anchor="middle" x="260" y="-63.5" font-family="Helvetica,sans-Serif" font-size="10.00">iostream</text>
</g>
<!-- Node1&#45;&gt;Node8 -->
<g id="edge7" class="edge"><title>Node1&#45;&gt;Node8</title>
<path fill="none" stroke="midnightblue" d="M260,-112.083C260,-105.006 260,-94.8611 260,-85.9865"/>
<polygon fill="midnightblue" stroke="midnightblue" points="263.5,-85.751 260,-75.7511 256.5,-85.7511 263.5,-85.751"/>
</g>
<!-- Node9 -->
<g id="node9" class="node"><title>Node9</title>
<polygon fill="white" stroke="#bfbfbf" points="305,-56.5 305,-75.5 357,-75.5 357,-56.5 305,-56.5"/>
<text text-anchor="middle" x="331" y="-63.5" font-family="Helvetica,sans-Serif" font-size="10.00">sstream</text>
</g>
<!-- Node1&#45;&gt;Node9 -->
<g id="edge8" class="edge"><title>Node1&#45;&gt;Node9</title>
<path fill="none" stroke="midnightblue" d="M271.407,-112.324C282.109,-104.185 298.341,-91.8395 311.163,-82.0874"/>
<polygon fill="midnightblue" stroke="midnightblue" points="313.544,-84.6734 319.385,-75.8339 309.307,-79.1018 313.544,-84.6734"/>
</g>
<!-- Node10 -->
<g id="node10" class="node"><title>Node10</title>
<polygon fill="white" stroke="#bfbfbf" points="375.5,-56.5 375.5,-75.5 420.5,-75.5 420.5,-56.5 375.5,-56.5"/>
<text text-anchor="middle" x="398" y="-63.5" font-family="Helvetica,sans-Serif" font-size="10.00">cstdlib</text>
</g>
<!-- Node1&#45;&gt;Node10 -->
<g id="edge9" class="edge"><title>Node1&#45;&gt;Node10</title>
<path fill="none" stroke="midnightblue" d="M281.867,-112.444C304.779,-103.478 340.975,-89.314 366.866,-79.1827"/>
<polygon fill="midnightblue" stroke="midnightblue" points="368.199,-82.4198 376.236,-75.5164 365.648,-75.9011 368.199,-82.4198"/>
</g>
<!-- Node3 -->
<g id="node3" class="node"><title>Node3</title>
<polygon fill="white" stroke="#bfbfbf" points="-0.5,-0.5 -0.5,-19.5 40.5,-19.5 40.5,-0.5 -0.5,-0.5"/>
<text text-anchor="middle" x="20" y="-7.5" font-family="Helvetica,sans-Serif" font-size="10.00">string</text>
</g>
<!-- Node2&#45;&gt;Node3 -->
<g id="edge2" class="edge"><title>Node2&#45;&gt;Node3</title>
<path fill="none" stroke="midnightblue" d="M98.8973,-56.324C84.0967,-47.8215 61.3058,-34.7288 44.0178,-24.7975"/>
<polygon fill="midnightblue" stroke="midnightblue" points="45.4798,-21.6009 35.0652,-19.6545 41.9929,-27.6707 45.4798,-21.6009"/>
</g>
<!-- Node4 -->
<g id="node4" class="node"><title>Node4</title>
<polygon fill="white" stroke="#bfbfbf" points="59,-0.5 59,-19.5 109,-19.5 109,-0.5 59,-0.5"/>
<text text-anchor="middle" x="84" y="-7.5" font-family="Helvetica,sans-Serif" font-size="10.00">fstream</text>
</g>
<!-- Node2&#45;&gt;Node4 -->
<g id="edge3" class="edge"><title>Node2&#45;&gt;Node4</title>
<path fill="none" stroke="midnightblue" d="M109.046,-56.083C104.896,-48.6127 98.8469,-37.7244 93.7333,-28.5199"/>
<polygon fill="midnightblue" stroke="midnightblue" points="96.7777,-26.7929 88.8617,-19.7511 90.6586,-30.1924 96.7777,-26.7929"/>
</g>
<!-- Node5 -->
<g id="node5" class="node"><title>Node5</title>
<polygon fill="white" stroke="#bfbfbf" points="127.5,-0.5 127.5,-19.5 162.5,-19.5 162.5,-0.5 127.5,-0.5"/>
<text text-anchor="middle" x="145" y="-7.5" font-family="Helvetica,sans-Serif" font-size="10.00">map</text>
</g>
<!-- Node2&#45;&gt;Node5 -->
<g id="edge4" class="edge"><title>Node2&#45;&gt;Node5</title>
<path fill="none" stroke="midnightblue" d="M119.119,-56.083C123.408,-48.6127 129.658,-37.7244 134.942,-28.5199"/>
<polygon fill="midnightblue" stroke="midnightblue" points="138.033,-30.1662 139.976,-19.7511 131.962,-26.6811 138.033,-30.1662"/>
</g>
<!-- Node6 -->
<g id="node6" class="node"><title>Node6</title>
<polygon fill="white" stroke="#bfbfbf" points="180.5,-0.5 180.5,-19.5 233.5,-19.5 233.5,-0.5 180.5,-0.5"/>
<text text-anchor="middle" x="207" y="-7.5" font-family="Helvetica,sans-Serif" font-size="10.00">complex</text>
</g>
<!-- Node2&#45;&gt;Node6 -->
<g id="edge5" class="edge"><title>Node2&#45;&gt;Node6</title>
<path fill="none" stroke="midnightblue" d="M128.942,-56.324C143.585,-47.8215 166.134,-34.7288 183.238,-24.7975"/>
<polygon fill="midnightblue" stroke="midnightblue" points="185.205,-27.7027 192.095,-19.6545 181.69,-21.6491 185.205,-27.7027"/>
</g>
</g>
</svg>
