<?xml version="1.0" encoding="UTF-8" standalone="no"?>
<!DOCTYPE svg PUBLIC "-//W3C//DTD SVG 1.1//EN"
 "http://www.w3.org/Graphics/SVG/1.1/DTD/svg11.dtd">
<!-- Generated by graphviz version 2.36.0 (20140111.2315)
 -->
<!-- Title: readinput.h Pages: 1 -->
<svg width="241pt" height="84pt"
 viewBox="0.00 0.00 241.00 84.00" xmlns="http://www.w3.org/2000/svg" xmlns:xlink="http://www.w3.org/1999/xlink">
<g id="graph0" class="graph" transform="scale(1 1) rotate(0) translate(4 80)">
<title>readinput.h</title>
<polygon fill="white" stroke="none" points="-4,4 -4,-80 237,-80 237,4 -4,4"/>
<!-- Node1 -->
<g id="node1" class="node"><title>Node1</title>
<polygon fill="#bfbfbf" stroke="black" points="81.5,-56.5 81.5,-75.5 146.5,-75.5 146.5,-56.5 81.5,-56.5"/>
<text text-anchor="middle" x="114" y="-63.5" font-family="Helvetica,sans-Serif" font-size="10.00">readinput.h</text>
</g>
<!-- Node2 -->
<g id="node2" class="node"><title>Node2</title>
<polygon fill="white" stroke="#bfbfbf" points="-0.5,-0.5 -0.5,-19.5 40.5,-19.5 40.5,-0.5 -0.5,-0.5"/>
<text text-anchor="middle" x="20" y="-7.5" font-family="Helvetica,sans-Serif" font-size="10.00">string</text>
</g>
<!-- Node1&#45;&gt;Node2 -->
<g id="edge1" class="edge"><title>Node1&#45;&gt;Node2</title>
<path fill="none" stroke="midnightblue" d="M98.8973,-56.324C84.0967,-47.8215 61.3058,-34.7288 44.0178,-24.7975"/>
<polygon fill="midnightblue" stroke="midnightblue" points="45.4798,-21.6009 35.0652,-19.6545 41.9929,-27.6707 45.4798,-21.6009"/>
</g>
<!-- Node3 -->
<g id="node3" class="node"><title>Node3</title>
<polygon fill="white" stroke="#bfbfbf" points="59,-0.5 59,-19.5 109,-19.5 109,-0.5 59,-0.5"/>
<text text-anchor="middle" x="84" y="-7.5" font-family="Helvetica,sans-Serif" font-size="10.00">fstream</text>
</g>
<!-- Node1&#45;&gt;Node3 -->
<g id="edge2" class="edge"><title>Node1&#45;&gt;Node3</title>
<path fill="none" stroke="midnightblue" d="M109.046,-56.083C104.896,-48.6127 98.8469,-37.7244 93.7333,-28.5199"/>
<polygon fill="midnightblue" stroke="midnightblue" points="96.7777,-26.7929 88.8617,-19.7511 90.6586,-30.1924 96.7777,-26.7929"/>
</g>
<!-- Node4 -->
<g id="node4" class="node"><title>Node4</title>
<polygon fill="white" stroke="#bfbfbf" points="127.5,-0.5 127.5,-19.5 162.5,-19.5 162.5,-0.5 127.5,-0.5"/>
<text text-anchor="middle" x="145" y="-7.5" font-family="Helvetica,sans-Serif" font-size="10.00">map</text>
</g>
<!-- Node1&#45;&gt;Node4 -->
<g id="edge3" class="edge"><title>Node1&#45;&gt;Node4</title>
<path fill="none" stroke="midnightblue" d="M119.119,-56.083C123.408,-48.6127 129.658,-37.7244 134.942,-28.5199"/>
<polygon fill="midnightblue" stroke="midnightblue" points="138.033,-30.1662 139.976,-19.7511 131.962,-26.6811 138.033,-30.1662"/>
</g>
<!-- Node5 -->
<g id="node5" class="node"><title>Node5</title>
<polygon fill="white" stroke="#bfbfbf" points="180.5,-0.5 180.5,-19.5 233.5,-19.5 233.5,-0.5 180.5,-0.5"/>
<text text-anchor="middle" x="207" y="-7.5" font-family="Helvetica,sans-Serif" font-size="10.00">complex</text>
</g>
<!-- Node1&#45;&gt;Node5 -->
<g id="edge4" class="edge"><title>Node1&#45;&gt;Node5</title>
<path fill="none" stroke="midnightblue" d="M128.942,-56.324C143.585,-47.8215 166.134,-34.7288 183.238,-24.7975"/>
<polygon fill="midnightblue" stroke="midnightblue" points="185.205,-27.7027 192.095,-19.6545 181.69,-21.6491 185.205,-27.7027"/>
</g>
</g>
</svg>
