<?xml version="1.0" encoding="UTF-8" standalone="no"?>
<!DOCTYPE svg PUBLIC "-//W3C//DTD SVG 1.1//EN"
 "http://www.w3.org/Graphics/SVG/1.1/DTD/svg11.dtd">
<!-- Generated by graphviz version 2.36.0 (20140111.2315)
 -->
<!-- Title: undulator Pages: 1 -->
<svg width="102pt" height="282pt"
 viewBox="0.00 0.00 102.00 282.00" xmlns="http://www.w3.org/2000/svg" xmlns:xlink="http://www.w3.org/1999/xlink">
<g id="graph0" class="graph" transform="scale(1 1) rotate(0) translate(4 278)">
<title>undulator</title>
<polygon fill="white" stroke="none" points="-4,4 -4,-278 98,-278 98,4 -4,4"/>
<!-- Node1 -->
<g id="node1" class="node"><title>Node1</title>
<polygon fill="#bfbfbf" stroke="black" points="8.5,-0.5 8.5,-167.5 85.5,-167.5 85.5,-0.5 8.5,-0.5"/>
<text text-anchor="middle" x="47" y="-155.5" font-family="Helvetica,sans-Serif" font-size="10.00">undulator</text>
<polyline fill="none" stroke="black" points="8.5,-148.5 85.5,-148.5 "/>
<text text-anchor="middle" x="47" y="-136.5" font-family="Helvetica,sans-Serif" font-size="10.00"> </text>
<polyline fill="none" stroke="black" points="8.5,-129.5 85.5,-129.5 "/>
<text text-anchor="start" x="16.5" y="-117.5" font-family="Helvetica,sans-Serif" font-size="10.00">+ undulator()</text>
<text text-anchor="start" x="16.5" y="-106.5" font-family="Helvetica,sans-Serif" font-size="10.00">+ undulator()</text>
<text text-anchor="start" x="16.5" y="-95.5" font-family="Helvetica,sans-Serif" font-size="10.00">+ set_period()</text>
<text text-anchor="start" x="16.5" y="-84.5" font-family="Helvetica,sans-Serif" font-size="10.00">+ set_field()</text>
<text text-anchor="start" x="16.5" y="-73.5" font-family="Helvetica,sans-Serif" font-size="10.00">+ set_num()</text>
<text text-anchor="start" x="16.5" y="-62.5" font-family="Helvetica,sans-Serif" font-size="10.00">+ set_deltz()</text>
<text text-anchor="start" x="16.5" y="-51.5" font-family="Helvetica,sans-Serif" font-size="10.00">+ get_field()</text>
<text text-anchor="start" x="16.5" y="-40.5" font-family="Helvetica,sans-Serif" font-size="10.00">+ get_period()</text>
<text text-anchor="start" x="16.5" y="-29.5" font-family="Helvetica,sans-Serif" font-size="10.00">+ get_num()</text>
<text text-anchor="start" x="16.5" y="-18.5" font-family="Helvetica,sans-Serif" font-size="10.00">+ get_deltz()</text>
<text text-anchor="start" x="16.5" y="-7.5" font-family="Helvetica,sans-Serif" font-size="10.00">+ info()</text>
</g>
<!-- Node2 -->
<g id="node2" class="node"><title>Node2</title>
<g id="a_node2"><a xlink:href="classdefault_params.html" target="_top" xlink:title="{defaultParams\n|# dparams\l# oparams\l|+ defaultParams()\l}">
<polygon fill="white" stroke="black" points="-0.5,-205 -0.5,-273 94.5,-273 94.5,-205 -0.5,-205"/>
<text text-anchor="middle" x="47" y="-261" font-family="Helvetica,sans-Serif" font-size="10.00">defaultParams</text>
<polyline fill="none" stroke="black" points="-0.5,-254 94.5,-254 "/>
<text text-anchor="start" x="7.5" y="-242" font-family="Helvetica,sans-Serif" font-size="10.00"># dparams</text>
<text text-anchor="start" x="7.5" y="-231" font-family="Helvetica,sans-Serif" font-size="10.00"># oparams</text>
<polyline fill="none" stroke="black" points="-0.5,-224 94.5,-224 "/>
<text text-anchor="start" x="7.5" y="-212" font-family="Helvetica,sans-Serif" font-size="10.00">+ defaultParams()</text>
</a>
</g>
</g>
<!-- Node2&#45;&gt;Node1 -->
<g id="edge1" class="edge"><title>Node2&#45;&gt;Node1</title>
<path fill="none" stroke="midnightblue" d="M47,-194.783C47,-186.261 47,-177.055 47,-167.724"/>
<polygon fill="none" stroke="midnightblue" points="43.5001,-194.801 47,-204.801 50.5001,-194.801 43.5001,-194.801"/>
</g>
</g>
</svg>
