<?xml version="1.0" encoding="UTF-8" standalone="no"?>
<!DOCTYPE svg PUBLIC "-//W3C//DTD SVG 1.1//EN"
 "http://www.w3.org/Graphics/SVG/1.1/DTD/svg11.dtd">
<!-- Generated by graphviz version 2.36.0 (20140111.2315)
 -->
<!-- Title: efield::get_imag Pages: 1 -->
<svg width="512pt" height="78pt"
 viewBox="0.00 0.00 512.00 78.00" xmlns="http://www.w3.org/2000/svg" xmlns:xlink="http://www.w3.org/1999/xlink">
<g id="graph0" class="graph" transform="scale(1 1) rotate(0) translate(4 74)">
<title>efield::get_imag</title>
<polygon fill="white" stroke="none" points="-4,4 -4,-74 508,-74 508,4 -4,4"/>
<!-- Node1 -->
<g id="node1" class="node"><title>Node1</title>
<polygon fill="#bfbfbf" stroke="black" points="0,-28.5 0,-47.5 86,-47.5 86,-28.5 0,-28.5"/>
<text text-anchor="middle" x="43" y="-35.5" font-family="Helvetica,sans-Serif" font-size="10.00">efield::get_imag</text>
</g>
<!-- Node2 -->
<g id="node2" class="node"><title>Node2</title>
<g id="a_node2"><a xlink:href="classefield.html#a8ea19dbc0f4a7e8c22cecc11c7d3ca64" target="_top" xlink:title="efield::efield">
<polygon fill="white" stroke="black" points="165.5,-50.5 165.5,-69.5 234.5,-69.5 234.5,-50.5 165.5,-50.5"/>
<text text-anchor="middle" x="200" y="-57.5" font-family="Helvetica,sans-Serif" font-size="10.00">efield::efield</text>
</a>
</g>
</g>
<!-- Node1&#45;&gt;Node2 -->
<g id="edge1" class="edge"><title>Node1&#45;&gt;Node2</title>
<path fill="none" stroke="midnightblue" d="M96.5377,-45.457C119.263,-48.6825 145.194,-52.3631 165.284,-55.2145"/>
<polygon fill="midnightblue" stroke="midnightblue" points="96.7471,-41.9517 86.3544,-44.0116 95.7633,-48.8822 96.7471,-41.9517"/>
</g>
<!-- Node3 -->
<g id="node3" class="node"><title>Node3</title>
<g id="a_node3"><a xlink:href="class_f_e_l_numerical.html#acf164cc84fbe47c386ec672d1a62d43e" target="_top" xlink:title="functions defined for ODE solver ">
<polygon fill="white" stroke="black" points="122,-1 122,-31 278,-31 278,-1 122,-1"/>
<text text-anchor="start" x="130" y="-19" font-family="Helvetica,sans-Serif" font-size="10.00">FELNumerical::FELsolverSingle</text>
<text text-anchor="middle" x="200" y="-8" font-family="Helvetica,sans-Serif" font-size="10.00">Frequency1D</text>
</a>
</g>
</g>
<!-- Node1&#45;&gt;Node3 -->
<g id="edge2" class="edge"><title>Node1&#45;&gt;Node3</title>
<path fill="none" stroke="midnightblue" d="M96.4601,-30.5541C104.639,-29.3931 113.236,-28.173 121.826,-26.9537"/>
<polygon fill="midnightblue" stroke="midnightblue" points="95.7633,-27.1178 86.3544,-31.9884 96.7471,-34.0483 95.7633,-27.1178"/>
</g>
<!-- Node4 -->
<g id="node4" class="node"><title>Node4</title>
<g id="a_node4"><a xlink:href="classscanpanel.html#ad5d03fff058d2903c654c55f101ae852" target="_top" xlink:title="do parameters scan ">
<polygon fill="white" stroke="black" points="314,-25.5 314,-44.5 430,-44.5 430,-25.5 314,-25.5"/>
<text text-anchor="middle" x="372" y="-32.5" font-family="Helvetica,sans-Serif" font-size="10.00">scanpanel::paramScan</text>
</a>
</g>
</g>
<!-- Node3&#45;&gt;Node4 -->
<g id="edge3" class="edge"><title>Node3&#45;&gt;Node4</title>
<path fill="none" stroke="midnightblue" d="M288.226,-25.7488C296.908,-26.7191 305.559,-27.686 313.816,-28.6088"/>
<polygon fill="midnightblue" stroke="midnightblue" points="288.369,-22.243 278.042,-24.6105 287.591,-29.1997 288.369,-22.243"/>
</g>
<!-- Node5 -->
<g id="node5" class="node"><title>Node5</title>
<g id="a_node5"><a xlink:href="main_8cpp.html#a3c04138a5bfe5d72780bb7e82a18e627" target="_top" xlink:title="main">
<polygon fill="white" stroke="black" points="466,-6.5 466,-25.5 504,-25.5 504,-6.5 466,-6.5"/>
<text text-anchor="middle" x="485" y="-13.5" font-family="Helvetica,sans-Serif" font-size="10.00">main</text>
</a>
</g>
</g>
<!-- Node3&#45;&gt;Node5 -->
<g id="edge5" class="edge"><title>Node3&#45;&gt;Node5</title>
<path fill="none" stroke="midnightblue" d="M288.656,-16C351.467,-16 430.914,-16 465.975,-16"/>
<polygon fill="midnightblue" stroke="midnightblue" points="288.331,-12.5001 278.331,-16 288.331,-19.5001 288.331,-12.5001"/>
</g>
<!-- Node4&#45;&gt;Node5 -->
<g id="edge4" class="edge"><title>Node4&#45;&gt;Node5</title>
<path fill="none" stroke="midnightblue" d="M438.813,-23.7347C448.699,-22.0425 458.133,-20.4277 465.799,-19.1155"/>
<polygon fill="midnightblue" stroke="midnightblue" points="438.091,-20.3073 428.825,-25.4443 439.272,-27.2069 438.091,-20.3073"/>
</g>
</g>
</svg>
