<?xml version="1.0" encoding="UTF-8" standalone="no"?>
<!DOCTYPE svg PUBLIC "-//W3C//DTD SVG 1.1//EN"
 "http://www.w3.org/Graphics/SVG/1.1/DTD/svg11.dtd">
<!-- Generated by graphviz version 2.36.0 (20140111.2315)
 -->
<!-- Title: electronBeam Pages: 1 -->
<svg width="118pt" height="326pt"
 viewBox="0.00 0.00 118.00 326.00" xmlns="http://www.w3.org/2000/svg" xmlns:xlink="http://www.w3.org/1999/xlink">
<g id="graph0" class="graph" transform="scale(1 1) rotate(0) translate(4 322)">
<title>electronBeam</title>
<polygon fill="white" stroke="none" points="-4,4 -4,-322 114,-322 114,4 -4,4"/>
<!-- Node1 -->
<g id="node1" class="node"><title>Node1</title>
<polygon fill="#bfbfbf" stroke="black" points="0,-0.5 0,-211.5 110,-211.5 110,-0.5 0,-0.5"/>
<text text-anchor="middle" x="55" y="-199.5" font-family="Helvetica,sans-Serif" font-size="10.00">electronBeam</text>
<polyline fill="none" stroke="black" points="0,-192.5 110,-192.5 "/>
<text text-anchor="middle" x="55" y="-180.5" font-family="Helvetica,sans-Serif" font-size="10.00"> </text>
<polyline fill="none" stroke="black" points="0,-173.5 110,-173.5 "/>
<text text-anchor="start" x="8" y="-161.5" font-family="Helvetica,sans-Serif" font-size="10.00">+ electronBeam()</text>
<text text-anchor="start" x="8" y="-150.5" font-family="Helvetica,sans-Serif" font-size="10.00">+ electronBeam()</text>
<text text-anchor="start" x="8" y="-139.5" font-family="Helvetica,sans-Serif" font-size="10.00">+ set_centralEnergy()</text>
<text text-anchor="start" x="8" y="-128.5" font-family="Helvetica,sans-Serif" font-size="10.00">+ set_energySpread()</text>
<text text-anchor="start" x="8" y="-117.5" font-family="Helvetica,sans-Serif" font-size="10.00">+ set_emitnx()</text>
<text text-anchor="start" x="8" y="-106.5" font-family="Helvetica,sans-Serif" font-size="10.00">+ set_emitny()</text>
<text text-anchor="start" x="8" y="-95.5" font-family="Helvetica,sans-Serif" font-size="10.00">+ set_peakCurrent()</text>
<text text-anchor="start" x="8" y="-84.5" font-family="Helvetica,sans-Serif" font-size="10.00">+ set_avgBetaFunc()</text>
<text text-anchor="start" x="8" y="-73.5" font-family="Helvetica,sans-Serif" font-size="10.00">+ get_centralEnergy()</text>
<text text-anchor="start" x="8" y="-62.5" font-family="Helvetica,sans-Serif" font-size="10.00">+ get_energySpread()</text>
<text text-anchor="start" x="8" y="-51.5" font-family="Helvetica,sans-Serif" font-size="10.00">+ get_emitnx()</text>
<text text-anchor="start" x="8" y="-40.5" font-family="Helvetica,sans-Serif" font-size="10.00">+ get_emitny()</text>
<text text-anchor="start" x="8" y="-29.5" font-family="Helvetica,sans-Serif" font-size="10.00">+ get_peakCurrent()</text>
<text text-anchor="start" x="8" y="-18.5" font-family="Helvetica,sans-Serif" font-size="10.00">+ get_avgBetaFunc()</text>
<text text-anchor="start" x="8" y="-7.5" font-family="Helvetica,sans-Serif" font-size="10.00">+ info()</text>
</g>
<!-- Node2 -->
<g id="node2" class="node"><title>Node2</title>
<g id="a_node2"><a xlink:href="classdefault_params.html" target="_top" xlink:title="{defaultParams\n|# dparams\l# oparams\l|+ defaultParams()\l}">
<polygon fill="white" stroke="black" points="7.5,-249 7.5,-317 102.5,-317 102.5,-249 7.5,-249"/>
<text text-anchor="middle" x="55" y="-305" font-family="Helvetica,sans-Serif" font-size="10.00">defaultParams</text>
<polyline fill="none" stroke="black" points="7.5,-298 102.5,-298 "/>
<text text-anchor="start" x="15.5" y="-286" font-family="Helvetica,sans-Serif" font-size="10.00"># dparams</text>
<text text-anchor="start" x="15.5" y="-275" font-family="Helvetica,sans-Serif" font-size="10.00"># oparams</text>
<polyline fill="none" stroke="black" points="7.5,-268 102.5,-268 "/>
<text text-anchor="start" x="15.5" y="-256" font-family="Helvetica,sans-Serif" font-size="10.00">+ defaultParams()</text>
</a>
</g>
</g>
<!-- Node2&#45;&gt;Node1 -->
<g id="edge1" class="edge"><title>Node2&#45;&gt;Node1</title>
<path fill="none" stroke="midnightblue" d="M55,-238.501C55,-230.138 55,-221.05 55,-211.689"/>
<polygon fill="none" stroke="midnightblue" points="51.5001,-238.672 55,-248.672 58.5001,-238.672 51.5001,-238.672"/>
</g>
</g>
</svg>
