<?xml version="1.0" encoding="UTF-8" standalone="no"?>
<!DOCTYPE svg PUBLIC "-//W3C//DTD SVG 1.1//EN"
 "http://www.w3.org/Graphics/SVG/1.1/DTD/svg11.dtd">
<!-- Generated by graphviz version 2.36.0 (20140111.2315)
 -->
<!-- Title: physicalConstants Pages: 1 -->
<svg width="269pt" height="358pt"
 viewBox="0.00 0.00 269.00 358.00" xmlns="http://www.w3.org/2000/svg" xmlns:xlink="http://www.w3.org/1999/xlink">
<g id="graph0" class="graph" transform="scale(1 1) rotate(0) translate(4 354)">
<title>physicalConstants</title>
<polygon fill="white" stroke="none" points="-4,4 -4,-354 265,-354 265,4 -4,4"/>
<!-- Node1 -->
<g id="node1" class="node"><title>Node1</title>
<polygon fill="#bfbfbf" stroke="black" points="75.5,-204.5 75.5,-349.5 188.5,-349.5 188.5,-204.5 75.5,-204.5"/>
<text text-anchor="middle" x="132" y="-337.5" font-family="Helvetica,sans-Serif" font-size="10.00">physicalConstants</text>
<polyline fill="none" stroke="black" points="75.5,-330.5 188.5,-330.5 "/>
<text text-anchor="start" x="83.5" y="-318.5" font-family="Helvetica,sans-Serif" font-size="10.00"># PI</text>
<text text-anchor="start" x="83.5" y="-307.5" font-family="Helvetica,sans-Serif" font-size="10.00"># eps0</text>
<text text-anchor="start" x="83.5" y="-296.5" font-family="Helvetica,sans-Serif" font-size="10.00"># mu0</text>
<text text-anchor="start" x="83.5" y="-285.5" font-family="Helvetica,sans-Serif" font-size="10.00"># M0</text>
<text text-anchor="start" x="83.5" y="-274.5" font-family="Helvetica,sans-Serif" font-size="10.00"># E0</text>
<text text-anchor="start" x="83.5" y="-263.5" font-family="Helvetica,sans-Serif" font-size="10.00"># C0</text>
<text text-anchor="start" x="83.5" y="-252.5" font-family="Helvetica,sans-Serif" font-size="10.00"># IA</text>
<text text-anchor="start" x="83.5" y="-241.5" font-family="Helvetica,sans-Serif" font-size="10.00"># coefs</text>
<polyline fill="none" stroke="black" points="75.5,-234.5 188.5,-234.5 "/>
<text text-anchor="start" x="83.5" y="-222.5" font-family="Helvetica,sans-Serif" font-size="10.00">+ physicalConstants()</text>
<text text-anchor="start" x="83.5" y="-211.5" font-family="Helvetica,sans-Serif" font-size="10.00">+ info()</text>
</g>
<!-- Node2 -->
<g id="node2" class="node"><title>Node2</title>
<g id="a_node2"><a xlink:href="class_f_e_l_analysis.html" target="_top" xlink:title="define classes/functions to handle FEL physics related problems. ">
<polygon fill="white" stroke="black" points="-0.5,-22.5 -0.5,-145.5 124.5,-145.5 124.5,-22.5 -0.5,-22.5"/>
<text text-anchor="middle" x="62" y="-133.5" font-family="Helvetica,sans-Serif" font-size="10.00">FELAnalysis</text>
<polyline fill="none" stroke="black" points="-0.5,-126.5 124.5,-126.5 "/>
<text text-anchor="middle" x="62" y="-114.5" font-family="Helvetica,sans-Serif" font-size="10.00"> </text>
<polyline fill="none" stroke="black" points="-0.5,-107.5 124.5,-107.5 "/>
<text text-anchor="start" x="7.5" y="-95.5" font-family="Helvetica,sans-Serif" font-size="10.00">+ FELAnalysis()</text>
<text text-anchor="start" x="7.5" y="-84.5" font-family="Helvetica,sans-Serif" font-size="10.00">+ ~FELAnalysis()</text>
<text text-anchor="start" x="7.5" y="-73.5" font-family="Helvetica,sans-Serif" font-size="10.00">+ get_FELparameter1D()</text>
<text text-anchor="start" x="7.5" y="-62.5" font-family="Helvetica,sans-Serif" font-size="10.00">+ get_FELparameter3D()</text>
<text text-anchor="start" x="7.5" y="-51.5" font-family="Helvetica,sans-Serif" font-size="10.00">+ get_FELgainlength1D()</text>
<text text-anchor="start" x="7.5" y="-40.5" font-family="Helvetica,sans-Serif" font-size="10.00">+ get_FELgainlength3D()</text>
<text text-anchor="start" x="7.5" y="-29.5" font-family="Helvetica,sans-Serif" font-size="10.00">+ get_FELsatpower()</text>
</a>
</g>
</g>
<!-- Node1&#45;&gt;Node2 -->
<g id="edge1" class="edge"><title>Node1&#45;&gt;Node2</title>
<path fill="none" stroke="midnightblue" d="M102.205,-194.703C96.1589,-178.205 89.9004,-161.128 84.1736,-145.502"/>
<polygon fill="none" stroke="midnightblue" points="99.008,-196.15 105.735,-204.335 105.581,-193.742 99.008,-196.15"/>
</g>
<!-- Node3 -->
<g id="node3" class="node"><title>Node3</title>
<g id="a_node3"><a xlink:href="class_f_e_l_numerical.html" target="_top" xlink:title="{FELNumerical\n||+ FELNumerical()\l+ ~FELNumerical()\l+ get_npart()\l+ get_psi()\l+ get_gam()\l+ get_maxExAmp()\l+ get_maxEyAmp()\l+ get_endExAmp()\l+ get_endEyAmp()\l+ generateDistribution()\land 8 more...\l}">
<polygon fill="white" stroke="black" points="142.5,-0.5 142.5,-167.5 261.5,-167.5 261.5,-0.5 142.5,-0.5"/>
<text text-anchor="middle" x="202" y="-155.5" font-family="Helvetica,sans-Serif" font-size="10.00">FELNumerical</text>
<polyline fill="none" stroke="black" points="142.5,-148.5 261.5,-148.5 "/>
<text text-anchor="middle" x="202" y="-136.5" font-family="Helvetica,sans-Serif" font-size="10.00"> </text>
<polyline fill="none" stroke="black" points="142.5,-129.5 261.5,-129.5 "/>
<text text-anchor="start" x="150.5" y="-117.5" font-family="Helvetica,sans-Serif" font-size="10.00">+ FELNumerical()</text>
<text text-anchor="start" x="150.5" y="-106.5" font-family="Helvetica,sans-Serif" font-size="10.00">+ ~FELNumerical()</text>
<text text-anchor="start" x="150.5" y="-95.5" font-family="Helvetica,sans-Serif" font-size="10.00">+ get_npart()</text>
<text text-anchor="start" x="150.5" y="-84.5" font-family="Helvetica,sans-Serif" font-size="10.00">+ get_psi()</text>
<text text-anchor="start" x="150.5" y="-73.5" font-family="Helvetica,sans-Serif" font-size="10.00">+ get_gam()</text>
<text text-anchor="start" x="150.5" y="-62.5" font-family="Helvetica,sans-Serif" font-size="10.00">+ get_maxExAmp()</text>
<text text-anchor="start" x="150.5" y="-51.5" font-family="Helvetica,sans-Serif" font-size="10.00">+ get_maxEyAmp()</text>
<text text-anchor="start" x="150.5" y="-40.5" font-family="Helvetica,sans-Serif" font-size="10.00">+ get_endExAmp()</text>
<text text-anchor="start" x="150.5" y="-29.5" font-family="Helvetica,sans-Serif" font-size="10.00">+ get_endEyAmp()</text>
<text text-anchor="start" x="150.5" y="-18.5" font-family="Helvetica,sans-Serif" font-size="10.00">+ generateDistribution()</text>
<text text-anchor="start" x="150.5" y="-7.5" font-family="Helvetica,sans-Serif" font-size="10.00">and 8 more...</text>
</a>
</g>
</g>
<!-- Node1&#45;&gt;Node3 -->
<g id="edge2" class="edge"><title>Node1&#45;&gt;Node3</title>
<path fill="none" stroke="midnightblue" d="M161.794,-194.706C165.074,-185.756 168.416,-176.636 171.702,-167.67"/>
<polygon fill="none" stroke="midnightblue" points="158.419,-193.742 158.265,-204.335 164.992,-196.15 158.419,-193.742"/>
</g>
</g>
</svg>
