<?xml version="1.0" encoding="UTF-8" standalone="no"?>
<!DOCTYPE svg PUBLIC "-//W3C//DTD SVG 1.1//EN"
 "http://www.w3.org/Graphics/SVG/1.1/DTD/svg11.dtd">
<!-- Generated by graphviz version 2.36.0 (20140111.2315)
 -->
<!-- Title: controlpanel Pages: 1 -->
<svg width="291pt" height="488pt"
 viewBox="0.00 0.00 291.00 488.00" xmlns="http://www.w3.org/2000/svg" xmlns:xlink="http://www.w3.org/1999/xlink">
<g id="graph0" class="graph" transform="scale(1 1) rotate(0) translate(4 484)">
<title>controlpanel</title>
<polygon fill="white" stroke="none" points="-4,4 -4,-484 287,-484 287,4 -4,4"/>
<!-- Node1 -->
<g id="node1" class="node"><title>Node1</title>
<polygon fill="#bfbfbf" stroke="black" points="94.5,-0.5 94.5,-167.5 195.5,-167.5 195.5,-0.5 94.5,-0.5"/>
<text text-anchor="middle" x="145" y="-155.5" font-family="Helvetica,sans-Serif" font-size="10.00">controlpanel</text>
<polyline fill="none" stroke="black" points="94.5,-148.5 195.5,-148.5 "/>
<text text-anchor="middle" x="145" y="-136.5" font-family="Helvetica,sans-Serif" font-size="10.00"> </text>
<polyline fill="none" stroke="black" points="94.5,-129.5 195.5,-129.5 "/>
<text text-anchor="start" x="102.5" y="-117.5" font-family="Helvetica,sans-Serif" font-size="10.00">+ controlpanel()</text>
<text text-anchor="start" x="102.5" y="-106.5" font-family="Helvetica,sans-Serif" font-size="10.00">+ controlpanel()</text>
<text text-anchor="start" x="102.5" y="-95.5" font-family="Helvetica,sans-Serif" font-size="10.00">+ set_npart()</text>
<text text-anchor="start" x="102.5" y="-84.5" font-family="Helvetica,sans-Serif" font-size="10.00">+ set_method()</text>
<text text-anchor="start" x="102.5" y="-73.5" font-family="Helvetica,sans-Serif" font-size="10.00">+ set_outfilename()</text>
<text text-anchor="start" x="102.5" y="-62.5" font-family="Helvetica,sans-Serif" font-size="10.00">+ set_parfilename()</text>
<text text-anchor="start" x="102.5" y="-51.5" font-family="Helvetica,sans-Serif" font-size="10.00">+ set_disfilename()</text>
<text text-anchor="start" x="102.5" y="-40.5" font-family="Helvetica,sans-Serif" font-size="10.00">+ set_parflag()</text>
<text text-anchor="start" x="102.5" y="-29.5" font-family="Helvetica,sans-Serif" font-size="10.00">+ set_disflag()</text>
<text text-anchor="start" x="102.5" y="-18.5" font-family="Helvetica,sans-Serif" font-size="10.00">+ set_pardelz()</text>
<text text-anchor="start" x="102.5" y="-7.5" font-family="Helvetica,sans-Serif" font-size="10.00">and 9 more...</text>
</g>
<!-- Node2 -->
<g id="node2" class="node"><title>Node2</title>
<g id="a_node2"><a xlink:href="classdefault_params.html" target="_top" xlink:title="{defaultParams\n||+ defaultParams()\l}">
<polygon fill="white" stroke="black" points="97.5,-206.5 97.5,-263.5 192.5,-263.5 192.5,-206.5 97.5,-206.5"/>
<text text-anchor="middle" x="145" y="-251.5" font-family="Helvetica,sans-Serif" font-size="10.00">defaultParams</text>
<polyline fill="none" stroke="black" points="97.5,-244.5 192.5,-244.5 "/>
<text text-anchor="middle" x="145" y="-232.5" font-family="Helvetica,sans-Serif" font-size="10.00"> </text>
<polyline fill="none" stroke="black" points="97.5,-225.5 192.5,-225.5 "/>
<text text-anchor="start" x="105.5" y="-213.5" font-family="Helvetica,sans-Serif" font-size="10.00">+ defaultParams()</text>
</a>
</g>
</g>
<!-- Node2&#45;&gt;Node1 -->
<g id="edge1" class="edge"><title>Node2&#45;&gt;Node1</title>
<path fill="none" stroke="midnightblue" d="M145,-196.07C145,-187.256 145,-177.533 145,-167.617"/>
<polygon fill="none" stroke="midnightblue" points="141.5,-196.323 145,-206.323 148.5,-196.323 141.5,-196.323"/>
</g>
<!-- Node3 -->
<g id="node3" class="node"><title>Node3</title>
<g id="a_node3"><a xlink:href="structdefault_params_1_1otherparams.html" target="_top" xlink:title="{defaultParams::otherparams\n|+ allowedScanParams\l+ allowedObjeParams\l|}">
<polygon fill="white" stroke="black" points="0,-362 0,-430 140,-430 140,-362 0,-362"/>
<text text-anchor="middle" x="70" y="-418" font-family="Helvetica,sans-Serif" font-size="10.00">defaultParams::otherparams</text>
<polyline fill="none" stroke="black" points="0,-411 140,-411 "/>
<text text-anchor="start" x="8" y="-399" font-family="Helvetica,sans-Serif" font-size="10.00">+ allowedScanParams</text>
<text text-anchor="start" x="8" y="-388" font-family="Helvetica,sans-Serif" font-size="10.00">+ allowedObjeParams</text>
<polyline fill="none" stroke="black" points="0,-381 140,-381 "/>
<text text-anchor="middle" x="70" y="-369" font-family="Helvetica,sans-Serif" font-size="10.00"> </text>
</a>
</g>
</g>
<!-- Node3&#45;&gt;Node2 -->
<g id="edge2" class="edge"><title>Node3&#45;&gt;Node2</title>
<path fill="none" stroke="#404040" d="M85.7225,-361.668C97.6584,-336.364 114.099,-301.51 126.639,-274.926"/>
<polygon fill="none" stroke="#404040" points="126.803,-274.578 125.745,-267.445 131.922,-263.725 132.98,-270.858 126.803,-274.578"/>
<text text-anchor="middle" x="146" y="-285.5" font-family="Helvetica,sans-Serif" font-size="10.00"> #oparams</text>
</g>
<!-- Node4 -->
<g id="node4" class="node"><title>Node4</title>
<g id="a_node4"><a xlink:href="structdefault_params_1_1paramlist.html" target="_top" xlink:title="&lt; paramlist: structure of default input parameters list ">
<polygon fill="white" stroke="black" points="158.5,-312.5 158.5,-479.5 283.5,-479.5 283.5,-312.5 158.5,-312.5"/>
<text text-anchor="middle" x="221" y="-467.5" font-family="Helvetica,sans-Serif" font-size="10.00">defaultParams::paramlist</text>
<polyline fill="none" stroke="black" points="158.5,-460.5 283.5,-460.5 "/>
<text text-anchor="start" x="166.5" y="-448.5" font-family="Helvetica,sans-Serif" font-size="10.00">+ seedEx</text>
<text text-anchor="start" x="166.5" y="-437.5" font-family="Helvetica,sans-Serif" font-size="10.00">+ seedEy</text>
<text text-anchor="start" x="166.5" y="-426.5" font-family="Helvetica,sans-Serif" font-size="10.00">+ undulatorField</text>
<text text-anchor="start" x="166.5" y="-415.5" font-family="Helvetica,sans-Serif" font-size="10.00">+ undulatorPeriod</text>
<text text-anchor="start" x="166.5" y="-404.5" font-family="Helvetica,sans-Serif" font-size="10.00">+ undulatorDeltz</text>
<text text-anchor="start" x="166.5" y="-393.5" font-family="Helvetica,sans-Serif" font-size="10.00">+ undulatorNum</text>
<text text-anchor="start" x="166.5" y="-382.5" font-family="Helvetica,sans-Serif" font-size="10.00">+ electronAvgBetaFunc</text>
<text text-anchor="start" x="166.5" y="-371.5" font-family="Helvetica,sans-Serif" font-size="10.00">+ electronCentralEnergy</text>
<text text-anchor="start" x="166.5" y="-360.5" font-family="Helvetica,sans-Serif" font-size="10.00">+ electronEnergySpread</text>
<text text-anchor="start" x="166.5" y="-349.5" font-family="Helvetica,sans-Serif" font-size="10.00">+ electronEmitnx</text>
<text text-anchor="start" x="166.5" y="-338.5" font-family="Helvetica,sans-Serif" font-size="10.00">and 19 more...</text>
<polyline fill="none" stroke="black" points="158.5,-331.5 283.5,-331.5 "/>
<text text-anchor="middle" x="221" y="-319.5" font-family="Helvetica,sans-Serif" font-size="10.00"> </text>
</a>
</g>
</g>
<!-- Node4&#45;&gt;Node2 -->
<g id="edge3" class="edge"><title>Node4&#45;&gt;Node2</title>
<path fill="none" stroke="#404040" d="M187.506,-312.272C182.855,-301.973 177.964,-291.671 173,-282 171.703,-279.474 170.32,-276.899 168.889,-274.323"/>
<polygon fill="none" stroke="#404040" points="168.841,-274.24 162.376,-271.046 162.837,-263.85 169.302,-267.044 168.841,-274.24"/>
<text text-anchor="middle" x="202" y="-285.5" font-family="Helvetica,sans-Serif" font-size="10.00"> #dparams</text>
</g>
</g>
</svg>
