<?xml version="1.0" encoding="UTF-8" standalone="no"?>
<!DOCTYPE svg PUBLIC "-//W3C//DTD SVG 1.1//EN"
 "http://www.w3.org/Graphics/SVG/1.1/DTD/svg11.dtd">
<!-- Generated by graphviz version 2.36.0 (20140111.2315)
 -->
<!-- Title: scanpanel::paramScan Pages: 1 -->
<svg width="732pt" height="715pt"
 viewBox="0.00 0.00 732.00 715.00" xmlns="http://www.w3.org/2000/svg" xmlns:xlink="http://www.w3.org/1999/xlink">
<g id="graph0" class="graph" transform="scale(1 1) rotate(0) translate(4 711)">
<title>scanpanel::paramScan</title>
<polygon fill="white" stroke="none" points="-4,4 -4,-711 728,-711 728,4 -4,4"/>
<!-- Node1 -->
<g id="node1" class="node"><title>Node1</title>
<polygon fill="#bfbfbf" stroke="black" points="0,-323.5 0,-342.5 116,-342.5 116,-323.5 0,-323.5"/>
<text text-anchor="middle" x="58" y="-330.5" font-family="Helvetica,sans-Serif" font-size="10.00">scanpanel::paramScan</text>
</g>
<!-- Node2 -->
<g id="node2" class="node"><title>Node2</title>
<g id="a_node2"><a xlink:href="classscanpanel.html#abcd398fda4ec23590821fb7fa391f8eb" target="_top" xlink:title="check scan setup, return 1 if all the parameters are OK, or 0 and exit(1); ">
<polygon fill="white" stroke="black" points="156,-532.5 156,-551.5 320,-551.5 320,-532.5 156,-532.5"/>
<text text-anchor="middle" x="238" y="-539.5" font-family="Helvetica,sans-Serif" font-size="10.00">scanpanel::checkScanSetupIsOK</text>
</a>
</g>
</g>
<!-- Node1&#45;&gt;Node2 -->
<g id="edge1" class="edge"><title>Node1&#45;&gt;Node2</title>
<path fill="none" stroke="midnightblue" d="M66.5718,-342.579C82.2404,-362.335 119.478,-408.94 152,-447 175.67,-474.701 204.05,-506.063 221.293,-524.921"/>
<polygon fill="midnightblue" stroke="midnightblue" points="218.828,-527.412 228.165,-532.419 223.988,-522.682 218.828,-527.412"/>
</g>
<!-- Node4 -->
<g id="node4" class="node"><title>Node4</title>
<g id="a_node4"><a xlink:href="classscanpanel.html#a1338695a9884249cea3397a4f75c4fe5" target="_top" xlink:title="update varlist read from external namelist file ">
<polygon fill="white" stroke="black" points="176,-418.5 176,-437.5 300,-437.5 300,-418.5 176,-418.5"/>
<text text-anchor="middle" x="238" y="-425.5" font-family="Helvetica,sans-Serif" font-size="10.00">scanpanel::updateVarlist</text>
</a>
</g>
</g>
<!-- Node1&#45;&gt;Node4 -->
<g id="edge3" class="edge"><title>Node1&#45;&gt;Node4</title>
<path fill="none" stroke="midnightblue" d="M77.0472,-342.632C108.446,-359.39 173.279,-393.992 210.033,-413.608"/>
<polygon fill="midnightblue" stroke="midnightblue" points="208.7,-416.863 219.17,-418.484 211.996,-410.688 208.7,-416.863"/>
</g>
<!-- Node20 -->
<g id="node20" class="node"><title>Node20</title>
<g id="a_node20"><a xlink:href="class_f_e_l_numerical.html#a9cc9dab3886a4812336e4ca796c8259d" target="_top" xlink:title="parameters initialization for numerical calculation ">
<polygon fill="white" stroke="black" points="152,-342.5 152,-361.5 324,-361.5 324,-342.5 152,-342.5"/>
<text text-anchor="middle" x="238" y="-349.5" font-family="Helvetica,sans-Serif" font-size="10.00">FELNumerical::generateDistribution</text>
</a>
</g>
</g>
<!-- Node1&#45;&gt;Node20 -->
<g id="edge19" class="edge"><title>Node1&#45;&gt;Node20</title>
<path fill="none" stroke="midnightblue" d="M116.3,-339.116C124.481,-339.99 133.074,-340.907 141.746,-341.832"/>
<polygon fill="midnightblue" stroke="midnightblue" points="141.628,-345.34 151.943,-342.921 142.371,-338.379 141.628,-345.34"/>
</g>
<!-- Node22 -->
<g id="node22" class="node"><title>Node22</title>
<g id="a_node22"><a xlink:href="class_f_e_l_numerical.html#af73b446c5426faf40905db128fc5c589" target="_top" xlink:title="FELNumerical::initParams">
<polygon fill="white" stroke="black" points="172.5,-304.5 172.5,-323.5 303.5,-323.5 303.5,-304.5 172.5,-304.5"/>
<text text-anchor="middle" x="238" y="-311.5" font-family="Helvetica,sans-Serif" font-size="10.00">FELNumerical::initParams</text>
</a>
</g>
</g>
<!-- Node1&#45;&gt;Node22 -->
<g id="edge21" class="edge"><title>Node1&#45;&gt;Node22</title>
<path fill="none" stroke="midnightblue" d="M116.3,-326.884C130.973,-325.317 146.968,-323.61 162.373,-321.966"/>
<polygon fill="midnightblue" stroke="midnightblue" points="162.82,-325.438 172.392,-320.896 162.077,-318.478 162.82,-325.438"/>
</g>
<!-- Node23 -->
<g id="node23" class="node"><title>Node23</title>
<g id="a_node23"><a xlink:href="class_f_e_l_numerical.html#acf164cc84fbe47c386ec672d1a62d43e" target="_top" xlink:title="functions defined for ODE solver ">
<polygon fill="white" stroke="black" points="160,-185 160,-215 316,-215 316,-185 160,-185"/>
<text text-anchor="start" x="168" y="-203" font-family="Helvetica,sans-Serif" font-size="10.00">FELNumerical::FELsolverSingle</text>
<text text-anchor="middle" x="238" y="-192" font-family="Helvetica,sans-Serif" font-size="10.00">Frequency1D</text>
</a>
</g>
</g>
<!-- Node1&#45;&gt;Node23 -->
<g id="edge22" class="edge"><title>Node1&#45;&gt;Node23</title>
<path fill="none" stroke="midnightblue" d="M71.8013,-323.435C100.185,-302.227 168.988,-250.818 208.264,-221.471"/>
<polygon fill="midnightblue" stroke="midnightblue" points="210.722,-224.004 216.638,-215.214 206.532,-218.396 210.722,-224.004"/>
</g>
<!-- Node32 -->
<g id="node32" class="node"><title>Node32</title>
<g id="a_node32"><a xlink:href="class_f_e_l_numerical.html#a6f826e9f11871164430bfe54175e8c11" target="_top" xlink:title="get the last record of Ex amplitude ">
<polygon fill="white" stroke="black" points="162,-73.5 162,-92.5 314,-92.5 314,-73.5 162,-73.5"/>
<text text-anchor="middle" x="238" y="-80.5" font-family="Helvetica,sans-Serif" font-size="10.00">FELNumerical::get_endExAmp</text>
</a>
</g>
</g>
<!-- Node1&#45;&gt;Node32 -->
<g id="edge31" class="edge"><title>Node1&#45;&gt;Node32</title>
<path fill="none" stroke="midnightblue" d="M63.7824,-323.296C76.5064,-297.869 112.899,-227.634 152,-175 172.917,-146.844 201.219,-117.646 219.297,-99.8962"/>
<polygon fill="midnightblue" stroke="midnightblue" points="222.084,-102.069 226.82,-92.5915 217.207,-97.0466 222.084,-102.069"/>
</g>
<!-- Node3 -->
<g id="node3" class="node"><title>Node3</title>
<g id="a_node3"><a xlink:href="classscanpanel.html#af24e52f96205d0d15988bb13ba8427ff" target="_top" xlink:title="check if scan parameter (string) setup is OK, return 1 if is OK, or 0; ">
<polygon fill="white" stroke="black" points="360.5,-589.5 360.5,-608.5 527.5,-608.5 527.5,-589.5 360.5,-589.5"/>
<text text-anchor="middle" x="444" y="-596.5" font-family="Helvetica,sans-Serif" font-size="10.00">scanpanel::checkScanParamIsOK</text>
</a>
</g>
</g>
<!-- Node2&#45;&gt;Node3 -->
<g id="edge2" class="edge"><title>Node2&#45;&gt;Node3</title>
<path fill="none" stroke="midnightblue" d="M267.173,-551.545C291.578,-559.645 327.91,-571.303 360,-580 369.213,-582.497 379.058,-584.943 388.632,-587.205"/>
<polygon fill="midnightblue" stroke="midnightblue" points="387.939,-590.637 398.471,-589.49 389.522,-583.819 387.939,-590.637"/>
</g>
<!-- Node5 -->
<g id="node5" class="node"><title>Node5</title>
<g id="a_node5"><a xlink:href="readinput_8cpp.html#aa8e009615e0c90278ea678ee0b8bbfc7" target="_top" xlink:title="convert double into string ">
<polygon fill="white" stroke="black" points="421,-551.5 421,-570.5 467,-570.5 467,-551.5 421,-551.5"/>
<text text-anchor="middle" x="444" y="-558.5" font-family="Helvetica,sans-Serif" font-size="10.00">dbl2str</text>
</a>
</g>
</g>
<!-- Node4&#45;&gt;Node5 -->
<g id="edge4" class="edge"><title>Node4&#45;&gt;Node5</title>
<path fill="none" stroke="midnightblue" d="M246.269,-437.742C263.417,-459.984 308.823,-514.681 360,-542 375.618,-550.337 394.789,-555.032 410.77,-557.668"/>
<polygon fill="midnightblue" stroke="midnightblue" points="410.342,-561.142 420.742,-559.12 411.351,-554.215 410.342,-561.142"/>
</g>
<!-- Node6 -->
<g id="node6" class="node"><title>Node6</title>
<g id="a_node6"><a xlink:href="classscanpanel.html#a892cbc5c1eeafa7be9d8ddecaee3d68e" target="_top" xlink:title="scanpanel::set_electronBeam">
<polygon fill="white" stroke="black" points="371,-513.5 371,-532.5 517,-532.5 517,-513.5 371,-513.5"/>
<text text-anchor="middle" x="444" y="-520.5" font-family="Helvetica,sans-Serif" font-size="10.00">scanpanel::set_electronBeam</text>
</a>
</g>
</g>
<!-- Node4&#45;&gt;Node6 -->
<g id="edge5" class="edge"><title>Node4&#45;&gt;Node6</title>
<path fill="none" stroke="midnightblue" d="M259.683,-437.632C296.051,-454.568 371.557,-489.73 413.427,-509.228"/>
<polygon fill="midnightblue" stroke="midnightblue" points="412.022,-512.435 422.565,-513.484 414.978,-506.089 412.022,-512.435"/>
</g>
<!-- Node13 -->
<g id="node13" class="node"><title>Node13</title>
<g id="a_node13"><a xlink:href="classscanpanel.html#a039ed64a56edba772f36f872d65c61d0" target="_top" xlink:title="scanpanel::set_undulator">
<polygon fill="white" stroke="black" points="381.5,-418.5 381.5,-437.5 506.5,-437.5 506.5,-418.5 381.5,-418.5"/>
<text text-anchor="middle" x="444" y="-425.5" font-family="Helvetica,sans-Serif" font-size="10.00">scanpanel::set_undulator</text>
</a>
</g>
</g>
<!-- Node4&#45;&gt;Node13 -->
<g id="edge12" class="edge"><title>Node4&#45;&gt;Node13</title>
<path fill="none" stroke="midnightblue" d="M300.207,-428C322.596,-428 348.125,-428 371.345,-428"/>
<polygon fill="midnightblue" stroke="midnightblue" points="371.484,-431.5 381.484,-428 371.484,-424.5 371.484,-431.5"/>
</g>
<!-- Node18 -->
<g id="node18" class="node"><title>Node18</title>
<g id="a_node18"><a xlink:href="classscanpanel.html#ae742a13334bed97f6e39d4dca1be16a1" target="_top" xlink:title="scanpanel::set_FELradiation">
<polygon fill="white" stroke="black" points="374,-380.5 374,-399.5 514,-399.5 514,-380.5 374,-380.5"/>
<text text-anchor="middle" x="444" y="-387.5" font-family="Helvetica,sans-Serif" font-size="10.00">scanpanel::set_FELradiation</text>
</a>
</g>
</g>
<!-- Node4&#45;&gt;Node18 -->
<g id="edge17" class="edge"><title>Node4&#45;&gt;Node18</title>
<path fill="none" stroke="midnightblue" d="M290.214,-418.46C317.981,-413.288 352.489,-406.86 381.681,-401.422"/>
<polygon fill="midnightblue" stroke="midnightblue" points="382.574,-404.816 391.764,-399.544 381.293,-397.934 382.574,-404.816"/>
</g>
<!-- Node7 -->
<g id="node7" class="node"><title>Node7</title>
<g id="a_node7"><a xlink:href="classelectron_beam.html#a787d3e61816281618f284ef3bb2e1ebb" target="_top" xlink:title="beam energy, $$ ">
<polygon fill="white" stroke="black" points="578.5,-677 578.5,-707 709.5,-707 709.5,-677 578.5,-677"/>
<text text-anchor="start" x="586.5" y="-695" font-family="Helvetica,sans-Serif" font-size="10.00">electronBeam::set_central</text>
<text text-anchor="middle" x="644" y="-684" font-family="Helvetica,sans-Serif" font-size="10.00">Energy</text>
</a>
</g>
</g>
<!-- Node6&#45;&gt;Node7 -->
<g id="edge6" class="edge"><title>Node6&#45;&gt;Node7</title>
<path fill="none" stroke="midnightblue" d="M514.577,-532.671C519.468,-535.172 524.027,-538.241 528,-542 569.996,-581.733 523.656,-625.59 564,-667 565.801,-668.848 567.737,-670.56 569.781,-672.146"/>
<polygon fill="midnightblue" stroke="midnightblue" points="567.864,-675.075 578.139,-677.658 571.718,-669.231 567.864,-675.075"/>
</g>
<!-- Node8 -->
<g id="node8" class="node"><title>Node8</title>
<g id="a_node8"><a xlink:href="classelectron_beam.html#a7e4cff020876ed5b43499b60ad1822cd" target="_top" xlink:title="rms energy spread, $$ ">
<polygon fill="white" stroke="black" points="578.5,-628 578.5,-658 709.5,-658 709.5,-628 578.5,-628"/>
<text text-anchor="start" x="586.5" y="-646" font-family="Helvetica,sans-Serif" font-size="10.00">electronBeam::set_energy</text>
<text text-anchor="middle" x="644" y="-635" font-family="Helvetica,sans-Serif" font-size="10.00">Spread</text>
</a>
</g>
</g>
<!-- Node6&#45;&gt;Node8 -->
<g id="edge7" class="edge"><title>Node6&#45;&gt;Node8</title>
<path fill="none" stroke="midnightblue" d="M512.297,-532.663C517.934,-535.137 523.275,-538.204 528,-542 557.139,-565.406 535.838,-593.427 564,-618 565.944,-619.697 568.004,-621.278 570.153,-622.752"/>
<polygon fill="midnightblue" stroke="midnightblue" points="568.451,-625.813 578.834,-627.924 572.034,-619.799 568.451,-625.813"/>
</g>
<!-- Node9 -->
<g id="node9" class="node"><title>Node9</title>
<g id="a_node9"><a xlink:href="classelectron_beam.html#a9e750f50d228ef648b6b607afac44c77" target="_top" xlink:title="normalized emittance in x ">
<polygon fill="white" stroke="black" points="578.5,-589.5 578.5,-608.5 709.5,-608.5 709.5,-589.5 578.5,-589.5"/>
<text text-anchor="middle" x="644" y="-596.5" font-family="Helvetica,sans-Serif" font-size="10.00">electronBeam::set_emitnx</text>
</a>
</g>
</g>
<!-- Node6&#45;&gt;Node9 -->
<g id="edge8" class="edge"><title>Node6&#45;&gt;Node9</title>
<path fill="none" stroke="midnightblue" d="M505.965,-532.567C513.652,-535.025 521.196,-538.116 528,-542 548.204,-553.534 543.86,-568.355 564,-580 567.883,-582.245 572.02,-584.226 576.289,-585.973"/>
<polygon fill="midnightblue" stroke="midnightblue" points="575.2,-589.301 585.794,-589.436 577.597,-582.724 575.2,-589.301"/>
</g>
<!-- Node10 -->
<g id="node10" class="node"><title>Node10</title>
<g id="a_node10"><a xlink:href="classelectron_beam.html#aacb24d39f88c45a62e5fbd5516e43bfb" target="_top" xlink:title="normalized emittance in y ">
<polygon fill="white" stroke="black" points="578.5,-551.5 578.5,-570.5 709.5,-570.5 709.5,-551.5 578.5,-551.5"/>
<text text-anchor="middle" x="644" y="-558.5" font-family="Helvetica,sans-Serif" font-size="10.00">electronBeam::set_emitny</text>
</a>
</g>
</g>
<!-- Node6&#45;&gt;Node10 -->
<g id="edge9" class="edge"><title>Node6&#45;&gt;Node10</title>
<path fill="none" stroke="midnightblue" d="M494.708,-532.54C521.541,-537.69 554.859,-544.084 583.113,-549.506"/>
<polygon fill="midnightblue" stroke="midnightblue" points="582.791,-553.009 593.271,-551.456 584.11,-546.134 582.791,-553.009"/>
</g>
<!-- Node11 -->
<g id="node11" class="node"><title>Node11</title>
<g id="a_node11"><a xlink:href="classelectron_beam.html#a1e6b08af9247eca49c00af3d3c57cd6f" target="_top" xlink:title="peak current, [A] ">
<polygon fill="white" stroke="black" points="566.5,-513.5 566.5,-532.5 721.5,-532.5 721.5,-513.5 566.5,-513.5"/>
<text text-anchor="middle" x="644" y="-520.5" font-family="Helvetica,sans-Serif" font-size="10.00">electronBeam::set_peakCurrent</text>
</a>
</g>
</g>
<!-- Node6&#45;&gt;Node11 -->
<g id="edge10" class="edge"><title>Node6&#45;&gt;Node11</title>
<path fill="none" stroke="midnightblue" d="M517.043,-523C529.694,-523 542.98,-523 555.987,-523"/>
<polygon fill="midnightblue" stroke="midnightblue" points="556.341,-526.5 566.341,-523 556.341,-519.5 556.341,-526.5"/>
</g>
<!-- Node12 -->
<g id="node12" class="node"><title>Node12</title>
<g id="a_node12"><a xlink:href="classelectron_beam.html#a3c9af6b4b9f079eb078200ac4c91812f" target="_top" xlink:title="average beta function, [m] ">
<polygon fill="white" stroke="black" points="564.5,-475.5 564.5,-494.5 723.5,-494.5 723.5,-475.5 564.5,-475.5"/>
<text text-anchor="middle" x="644" y="-482.5" font-family="Helvetica,sans-Serif" font-size="10.00">electronBeam::set_avgBetaFunc</text>
</a>
</g>
</g>
<!-- Node6&#45;&gt;Node12 -->
<g id="edge11" class="edge"><title>Node6&#45;&gt;Node12</title>
<path fill="none" stroke="midnightblue" d="M494.708,-513.46C521.541,-508.31 554.859,-501.916 583.113,-496.494"/>
<polygon fill="midnightblue" stroke="midnightblue" points="584.11,-499.866 593.271,-494.544 582.791,-492.991 584.11,-499.866"/>
</g>
<!-- Node14 -->
<g id="node14" class="node"><title>Node14</title>
<g id="a_node14"><a xlink:href="classundulator.html#a7a27a3ad42f9d826929d68e04105c7f1" target="_top" xlink:title="peak magnetic field, [T] ">
<polygon fill="white" stroke="black" points="594.5,-437.5 594.5,-456.5 693.5,-456.5 693.5,-437.5 594.5,-437.5"/>
<text text-anchor="middle" x="644" y="-444.5" font-family="Helvetica,sans-Serif" font-size="10.00">undulator::set_field</text>
</a>
</g>
</g>
<!-- Node13&#45;&gt;Node14 -->
<g id="edge13" class="edge"><title>Node13&#45;&gt;Node14</title>
<path fill="none" stroke="midnightblue" d="M506.563,-433.908C531.297,-436.281 559.686,-439.005 584.142,-441.352"/>
<polygon fill="midnightblue" stroke="midnightblue" points="584.071,-444.861 594.36,-442.332 584.74,-437.893 584.071,-444.861"/>
</g>
<!-- Node15 -->
<g id="node15" class="node"><title>Node15</title>
<g id="a_node15"><a xlink:href="classundulator.html#a9e87429b74fd3e518da8b64ba7f5dc3e" target="_top" xlink:title="period length, [m] ">
<polygon fill="white" stroke="black" points="590.5,-399.5 590.5,-418.5 697.5,-418.5 697.5,-399.5 590.5,-399.5"/>
<text text-anchor="middle" x="644" y="-406.5" font-family="Helvetica,sans-Serif" font-size="10.00">undulator::set_period</text>
</a>
</g>
</g>
<!-- Node13&#45;&gt;Node15 -->
<g id="edge14" class="edge"><title>Node13&#45;&gt;Node15</title>
<path fill="none" stroke="midnightblue" d="M506.563,-422.092C530,-419.843 556.719,-417.28 580.263,-415.02"/>
<polygon fill="midnightblue" stroke="midnightblue" points="580.866,-418.479 590.486,-414.039 580.197,-411.511 580.866,-418.479"/>
</g>
<!-- Node16 -->
<g id="node16" class="node"><title>Node16</title>
<g id="a_node16"><a xlink:href="classundulator.html#a90893590b2f8011304afed43c806e217" target="_top" xlink:title="integration length in period ">
<polygon fill="white" stroke="black" points="593,-361.5 593,-380.5 695,-380.5 695,-361.5 593,-361.5"/>
<text text-anchor="middle" x="644" y="-368.5" font-family="Helvetica,sans-Serif" font-size="10.00">undulator::set_deltz</text>
</a>
</g>
</g>
<!-- Node13&#45;&gt;Node16 -->
<g id="edge15" class="edge"><title>Node13&#45;&gt;Node16</title>
<path fill="none" stroke="midnightblue" d="M496.532,-418.402C507.09,-415.826 518.022,-412.703 528,-409 544.962,-402.706 547.073,-396.387 564,-390 570.714,-387.466 577.88,-385.189 585.053,-383.167"/>
<polygon fill="midnightblue" stroke="midnightblue" points="586.036,-386.527 594.796,-380.567 584.231,-379.764 586.036,-386.527"/>
</g>
<!-- Node17 -->
<g id="node17" class="node"><title>Node17</title>
<g id="a_node17"><a xlink:href="classundulator.html#ab7da54eee638d6b1fbe9fba7abf68310" target="_top" xlink:title="total period number ">
<polygon fill="white" stroke="black" points="594,-323.5 594,-342.5 694,-342.5 694,-323.5 594,-323.5"/>
<text text-anchor="middle" x="644" y="-330.5" font-family="Helvetica,sans-Serif" font-size="10.00">undulator::set_num</text>
</a>
</g>
</g>
<!-- Node13&#45;&gt;Node17 -->
<g id="edge16" class="edge"><title>Node13&#45;&gt;Node17</title>
<path fill="none" stroke="midnightblue" d="M506.74,-419.648C514.303,-416.996 521.607,-413.528 528,-409 552.451,-391.682 539.644,-369.452 564,-352 569.991,-347.707 576.828,-344.375 583.915,-341.79"/>
<polygon fill="midnightblue" stroke="midnightblue" points="585.196,-345.056 593.679,-338.709 583.089,-338.381 585.196,-345.056"/>
</g>
<!-- Node19 -->
<g id="node19" class="node"><title>Node19</title>
<g id="a_node19"><a xlink:href="class_f_e_lradiation.html#a05d0489861b497819884e81019c546ca" target="_top" xlink:title="central wavelength, [m] ">
<polygon fill="white" stroke="black" points="571,-285.5 571,-304.5 717,-304.5 717,-285.5 571,-285.5"/>
<text text-anchor="middle" x="644" y="-292.5" font-family="Helvetica,sans-Serif" font-size="10.00">FELradiation::set_wavelength</text>
</a>
</g>
</g>
<!-- Node18&#45;&gt;Node19 -->
<g id="edge18" class="edge"><title>Node18&#45;&gt;Node19</title>
<path fill="none" stroke="midnightblue" d="M510.145,-380.391C516.487,-377.925 522.572,-374.845 528,-371 552.451,-353.682 539.644,-331.452 564,-314 566.695,-312.069 569.56,-310.333 572.543,-308.771"/>
<polygon fill="midnightblue" stroke="midnightblue" points="574.116,-311.901 581.787,-304.592 571.233,-305.522 574.116,-311.901"/>
</g>
<!-- Node21 -->
<g id="node21" class="node"><title>Node21</title>
<g id="a_node21"><a xlink:href="methods_8cpp.html#a2096e6ed7535e8e7125cfb93687b8891" target="_top" xlink:title="return &lt;cos(h*psi[])&gt; ">
<polygon fill="white" stroke="black" points="415.5,-342.5 415.5,-361.5 472.5,-361.5 472.5,-342.5 415.5,-342.5"/>
<text text-anchor="middle" x="444" y="-349.5" font-family="Helvetica,sans-Serif" font-size="10.00">normrand</text>
</a>
</g>
</g>
<!-- Node20&#45;&gt;Node21 -->
<g id="edge20" class="edge"><title>Node20&#45;&gt;Node21</title>
<path fill="none" stroke="midnightblue" d="M324.037,-352C352.162,-352 382.058,-352 404.844,-352"/>
<polygon fill="midnightblue" stroke="midnightblue" points="405.1,-355.5 415.1,-352 405.1,-348.5 405.1,-355.5"/>
</g>
<!-- Node24 -->
<g id="node24" class="node"><title>Node24</title>
<g id="a_node24"><a xlink:href="classefield.html#acd868760a36c819bdddeffc734ddd21d" target="_top" xlink:title="efield::get_real">
<polygon fill="white" stroke="black" points="404,-304.5 404,-323.5 484,-323.5 484,-304.5 404,-304.5"/>
<text text-anchor="middle" x="444" y="-311.5" font-family="Helvetica,sans-Serif" font-size="10.00">efield::get_real</text>
</a>
</g>
</g>
<!-- Node23&#45;&gt;Node24 -->
<g id="edge23" class="edge"><title>Node23&#45;&gt;Node24</title>
<path fill="none" stroke="midnightblue" d="M253.545,-215.025C274.888,-236.166 316.855,-274.407 360,-295 370.525,-300.023 382.445,-303.755 393.901,-306.514"/>
<polygon fill="midnightblue" stroke="midnightblue" points="393.283,-309.962 403.802,-308.696 394.79,-303.126 393.283,-309.962"/>
</g>
<!-- Node25 -->
<g id="node25" class="node"><title>Node25</title>
<g id="a_node25"><a xlink:href="classefield.html#a532bb6e564552fc3ddd046e591da4a5d" target="_top" xlink:title="efield::get_imag">
<polygon fill="white" stroke="black" points="401,-266.5 401,-285.5 487,-285.5 487,-266.5 401,-266.5"/>
<text text-anchor="middle" x="444" y="-273.5" font-family="Helvetica,sans-Serif" font-size="10.00">efield::get_imag</text>
</a>
</g>
</g>
<!-- Node23&#45;&gt;Node25 -->
<g id="edge24" class="edge"><title>Node23&#45;&gt;Node25</title>
<path fill="none" stroke="midnightblue" d="M266.643,-215.123C290.716,-227.776 326.858,-245.55 360,-257 369.847,-260.402 380.563,-263.371 390.923,-265.887"/>
<polygon fill="midnightblue" stroke="midnightblue" points="390.174,-269.306 400.707,-268.16 391.758,-262.488 390.174,-269.306"/>
</g>
<!-- Node26 -->
<g id="node26" class="node"><title>Node26</title>
<g id="a_node26"><a xlink:href="methods_8cpp.html#a7ebc760ceffb733e04b5ad7cb8fa703a" target="_top" xlink:title="return &lt;sin(h*psi[])&gt; ">
<polygon fill="white" stroke="black" points="413,-228.5 413,-247.5 475,-247.5 475,-228.5 413,-228.5"/>
<text text-anchor="middle" x="444" y="-235.5" font-family="Helvetica,sans-Serif" font-size="10.00">meancosh</text>
</a>
</g>
</g>
<!-- Node23&#45;&gt;Node26 -->
<g id="edge25" class="edge"><title>Node23&#45;&gt;Node26</title>
<path fill="none" stroke="midnightblue" d="M316.124,-214.366C345.643,-219.865 378.123,-225.915 402.83,-230.517"/>
<polygon fill="midnightblue" stroke="midnightblue" points="402.439,-234.005 412.911,-232.395 403.721,-227.123 402.439,-234.005"/>
</g>
<!-- Node27 -->
<g id="node27" class="node"><title>Node27</title>
<g id="a_node27"><a xlink:href="methods_8cpp.html#a9d3b9594d8625cd4d4a7fcf738c2536d" target="_top" xlink:title="METHODS_H_. ">
<polygon fill="white" stroke="black" points="414.5,-190.5 414.5,-209.5 473.5,-209.5 473.5,-190.5 414.5,-190.5"/>
<text text-anchor="middle" x="444" y="-197.5" font-family="Helvetica,sans-Serif" font-size="10.00">meansinh</text>
</a>
</g>
</g>
<!-- Node23&#45;&gt;Node27 -->
<g id="edge26" class="edge"><title>Node23&#45;&gt;Node27</title>
<path fill="none" stroke="midnightblue" d="M316.124,-200C346.137,-200 379.21,-200 404.062,-200"/>
<polygon fill="midnightblue" stroke="midnightblue" points="404.178,-203.5 414.177,-200 404.177,-196.5 404.178,-203.5"/>
</g>
<!-- Node28 -->
<g id="node28" class="node"><title>Node28</title>
<g id="a_node28"><a xlink:href="class_f_e_l_numerical.html#a07004555a6d926435e5cfe81ea0fce7d" target="_top" xlink:title="FELNumerical::odef3">
<polygon fill="white" stroke="black" points="389.5,-152.5 389.5,-171.5 498.5,-171.5 498.5,-152.5 389.5,-152.5"/>
<text text-anchor="middle" x="444" y="-159.5" font-family="Helvetica,sans-Serif" font-size="10.00">FELNumerical::odef3</text>
</a>
</g>
</g>
<!-- Node23&#45;&gt;Node28 -->
<g id="edge27" class="edge"><title>Node23&#45;&gt;Node28</title>
<path fill="none" stroke="midnightblue" d="M316.124,-185.634C337.844,-181.588 361.166,-177.244 381.816,-173.397"/>
<polygon fill="midnightblue" stroke="midnightblue" points="382.53,-176.824 391.72,-171.552 381.248,-169.943 382.53,-176.824"/>
</g>
<!-- Node29 -->
<g id="node29" class="node"><title>Node29</title>
<g id="a_node29"><a xlink:href="class_f_e_l_numerical.html#ac59b8fd8eb868f25b9e599ab2f99b01e" target="_top" xlink:title="FELNumerical::odef1">
<polygon fill="white" stroke="black" points="389.5,-114.5 389.5,-133.5 498.5,-133.5 498.5,-114.5 389.5,-114.5"/>
<text text-anchor="middle" x="444" y="-121.5" font-family="Helvetica,sans-Serif" font-size="10.00">FELNumerical::odef1</text>
</a>
</g>
</g>
<!-- Node23&#45;&gt;Node29 -->
<g id="edge28" class="edge"><title>Node23&#45;&gt;Node29</title>
<path fill="none" stroke="midnightblue" d="M266.643,-184.877C290.716,-172.224 326.858,-154.45 360,-143 367.549,-140.392 375.609,-138.038 383.628,-135.948"/>
<polygon fill="midnightblue" stroke="midnightblue" points="384.492,-139.34 393.352,-133.53 382.802,-132.547 384.492,-139.34"/>
</g>
<!-- Node30 -->
<g id="node30" class="node"><title>Node30</title>
<g id="a_node30"><a xlink:href="class_f_e_l_numerical.html#a50847862c4edf2851f4422eb3ff68dca" target="_top" xlink:title="FELNumerical::odef2">
<polygon fill="white" stroke="black" points="389.5,-76.5 389.5,-95.5 498.5,-95.5 498.5,-76.5 389.5,-76.5"/>
<text text-anchor="middle" x="444" y="-83.5" font-family="Helvetica,sans-Serif" font-size="10.00">FELNumerical::odef2</text>
</a>
</g>
</g>
<!-- Node23&#45;&gt;Node30 -->
<g id="edge29" class="edge"><title>Node23&#45;&gt;Node30</title>
<path fill="none" stroke="midnightblue" d="M253.545,-184.975C274.888,-163.834 316.855,-125.593 360,-105 366.095,-102.091 372.658,-99.6149 379.328,-97.5102"/>
<polygon fill="midnightblue" stroke="midnightblue" points="380.495,-100.817 389.135,-94.685 378.557,-94.0902 380.495,-100.817"/>
</g>
<!-- Node31 -->
<g id="node31" class="node"><title>Node31</title>
<g id="a_node31"><a xlink:href="class_f_e_l_numerical.html#a9902301071874ffdd433d0f6b52fe711" target="_top" xlink:title="import particle distribution ">
<polygon fill="white" stroke="black" points="375.5,-38.5 375.5,-57.5 512.5,-57.5 512.5,-38.5 375.5,-38.5"/>
<text text-anchor="middle" x="444" y="-45.5" font-family="Helvetica,sans-Serif" font-size="10.00">FELNumerical::dumpParfile</text>
</a>
</g>
</g>
<!-- Node23&#45;&gt;Node31 -->
<g id="edge30" class="edge"><title>Node23&#45;&gt;Node31</title>
<path fill="none" stroke="midnightblue" d="M251.902,-184.822C280.252,-151.622 346.524,-74.8746 360,-67 363.837,-64.7579 367.917,-62.7804 372.131,-61.0363"/>
<polygon fill="midnightblue" stroke="midnightblue" points="373.35,-64.3172 381.526,-57.5787 370.932,-57.748 373.35,-64.3172"/>
</g>
<!-- Node33 -->
<g id="node33" class="node"><title>Node33</title>
<g id="a_node33"><a xlink:href="classefield.html#a278694fcf6d0066dcc3ad781478c4490" target="_top" xlink:title="efield::get_amplitude">
<polygon fill="white" stroke="black" points="390.5,-0.5 390.5,-19.5 497.5,-19.5 497.5,-0.5 390.5,-0.5"/>
<text text-anchor="middle" x="444" y="-7.5" font-family="Helvetica,sans-Serif" font-size="10.00">efield::get_amplitude</text>
</a>
</g>
</g>
<!-- Node32&#45;&gt;Node33 -->
<g id="edge32" class="edge"><title>Node32&#45;&gt;Node33</title>
<path fill="none" stroke="midnightblue" d="M257.412,-73.4228C280.751,-61.6035 322.472,-41.5364 360,-29 367.675,-26.436 375.863,-24.0998 383.994,-22.0112"/>
<polygon fill="midnightblue" stroke="midnightblue" points="384.97,-25.3754 393.845,-19.5876 383.298,-18.5781 384.97,-25.3754"/>
</g>
</g>
</svg>
