<?xml version="1.0" encoding="UTF-8" standalone="no"?>
<!DOCTYPE svg PUBLIC "-//W3C//DTD SVG 1.1//EN"
 "http://www.w3.org/Graphics/SVG/1.1/DTD/svg11.dtd">
<!-- Generated by graphviz version 2.36.0 (20140111.2315)
 -->
<!-- Title: FELNumerical::FELsolverSingleFrequency1D Pages: 1 -->
<svg width="390pt" height="53pt"
 viewBox="0.00 0.00 390.00 53.00" xmlns="http://www.w3.org/2000/svg" xmlns:xlink="http://www.w3.org/1999/xlink">
<g id="graph0" class="graph" transform="scale(1 1) rotate(0) translate(4 49)">
<title>FELNumerical::FELsolverSingleFrequency1D</title>
<polygon fill="white" stroke="none" points="-4,4 -4,-49 386,-49 386,4 -4,4"/>
<!-- Node1 -->
<g id="node1" class="node"><title>Node1</title>
<polygon fill="#bfbfbf" stroke="black" points="0,-1 0,-31 156,-31 156,-1 0,-1"/>
<text text-anchor="start" x="8" y="-19" font-family="Helvetica,sans-Serif" font-size="10.00">FELNumerical::FELsolverSingle</text>
<text text-anchor="middle" x="78" y="-8" font-family="Helvetica,sans-Serif" font-size="10.00">Frequency1D</text>
</g>
<!-- Node2 -->
<g id="node2" class="node"><title>Node2</title>
<g id="a_node2"><a xlink:href="classscanpanel.html#ad5d03fff058d2903c654c55f101ae852" target="_top" xlink:title="do parameters scan ">
<polygon fill="white" stroke="black" points="192,-25.5 192,-44.5 308,-44.5 308,-25.5 192,-25.5"/>
<text text-anchor="middle" x="250" y="-32.5" font-family="Helvetica,sans-Serif" font-size="10.00">scanpanel::paramScan</text>
</a>
</g>
</g>
<!-- Node1&#45;&gt;Node2 -->
<g id="edge1" class="edge"><title>Node1&#45;&gt;Node2</title>
<path fill="none" stroke="midnightblue" d="M166.226,-25.7488C174.908,-26.7191 183.559,-27.686 191.816,-28.6088"/>
<polygon fill="midnightblue" stroke="midnightblue" points="166.369,-22.243 156.042,-24.6105 165.591,-29.1997 166.369,-22.243"/>
</g>
<!-- Node3 -->
<g id="node3" class="node"><title>Node3</title>
<g id="a_node3"><a xlink:href="main_8cpp.html#a3c04138a5bfe5d72780bb7e82a18e627" target="_top" xlink:title="main">
<polygon fill="white" stroke="black" points="344,-6.5 344,-25.5 382,-25.5 382,-6.5 344,-6.5"/>
<text text-anchor="middle" x="363" y="-13.5" font-family="Helvetica,sans-Serif" font-size="10.00">main</text>
</a>
</g>
</g>
<!-- Node1&#45;&gt;Node3 -->
<g id="edge3" class="edge"><title>Node1&#45;&gt;Node3</title>
<path fill="none" stroke="midnightblue" d="M166.656,-16C229.467,-16 308.914,-16 343.975,-16"/>
<polygon fill="midnightblue" stroke="midnightblue" points="166.331,-12.5001 156.331,-16 166.331,-19.5001 166.331,-12.5001"/>
</g>
<!-- Node2&#45;&gt;Node3 -->
<g id="edge2" class="edge"><title>Node2&#45;&gt;Node3</title>
<path fill="none" stroke="midnightblue" d="M316.813,-23.7347C326.699,-22.0425 336.133,-20.4277 343.799,-19.1155"/>
<polygon fill="midnightblue" stroke="midnightblue" points="316.091,-20.3073 306.825,-25.4443 317.272,-27.2069 316.091,-20.3073"/>
</g>
</g>
</svg>
