<?xml version="1.0" encoding="UTF-8" standalone="no"?>
<!DOCTYPE svg PUBLIC "-//W3C//DTD SVG 1.1//EN"
 "http://www.w3.org/Graphics/SVG/1.1/DTD/svg11.dtd">
<!-- Generated by graphviz version 2.36.0 (20140111.2315)
 -->
<!-- Title: electronBeam::set_centralEnergy Pages: 1 -->
<svg width="708pt" height="38pt"
 viewBox="0.00 0.00 708.00 38.00" xmlns="http://www.w3.org/2000/svg" xmlns:xlink="http://www.w3.org/1999/xlink">
<g id="graph0" class="graph" transform="scale(1 1) rotate(0) translate(4 34)">
<title>electronBeam::set_centralEnergy</title>
<polygon fill="white" stroke="none" points="-4,4 -4,-34 704,-34 704,4 -4,4"/>
<!-- Node1 -->
<g id="node1" class="node"><title>Node1</title>
<polygon fill="#bfbfbf" stroke="black" points="0.5,-0 0.5,-30 131.5,-30 131.5,-0 0.5,-0"/>
<text text-anchor="start" x="8.5" y="-18" font-family="Helvetica,sans-Serif" font-size="10.00">electronBeam::set_central</text>
<text text-anchor="middle" x="66" y="-7" font-family="Helvetica,sans-Serif" font-size="10.00">Energy</text>
</g>
<!-- Node2 -->
<g id="node2" class="node"><title>Node2</title>
<g id="a_node2"><a xlink:href="classscanpanel.html#a892cbc5c1eeafa7be9d8ddecaee3d68e" target="_top" xlink:title="scanpanel::set_electronBeam">
<polygon fill="white" stroke="black" points="168,-5.5 168,-24.5 314,-24.5 314,-5.5 168,-5.5"/>
<text text-anchor="middle" x="241" y="-12.5" font-family="Helvetica,sans-Serif" font-size="10.00">scanpanel::set_electronBeam</text>
</a>
</g>
</g>
<!-- Node1&#45;&gt;Node2 -->
<g id="edge1" class="edge"><title>Node1&#45;&gt;Node2</title>
<path fill="none" stroke="midnightblue" d="M142.173,-15C150.665,-15 159.305,-15 167.758,-15"/>
<polygon fill="midnightblue" stroke="midnightblue" points="141.911,-11.5001 131.911,-15 141.911,-18.5001 141.911,-11.5001"/>
</g>
<!-- Node3 -->
<g id="node3" class="node"><title>Node3</title>
<g id="a_node3"><a xlink:href="classscanpanel.html#a1338695a9884249cea3397a4f75c4fe5" target="_top" xlink:title="update varlist read from external namelist file ">
<polygon fill="white" stroke="black" points="350,-5.5 350,-24.5 474,-24.5 474,-5.5 350,-5.5"/>
<text text-anchor="middle" x="412" y="-12.5" font-family="Helvetica,sans-Serif" font-size="10.00">scanpanel::updateVarlist</text>
</a>
</g>
</g>
<!-- Node2&#45;&gt;Node3 -->
<g id="edge2" class="edge"><title>Node2&#45;&gt;Node3</title>
<path fill="none" stroke="midnightblue" d="M324.287,-15C332.943,-15 341.63,-15 349.984,-15"/>
<polygon fill="midnightblue" stroke="midnightblue" points="324.161,-11.5001 314.161,-15 324.161,-18.5001 324.161,-11.5001"/>
</g>
<!-- Node4 -->
<g id="node4" class="node"><title>Node4</title>
<g id="a_node4"><a xlink:href="classscanpanel.html#ad5d03fff058d2903c654c55f101ae852" target="_top" xlink:title="do parameters scan ">
<polygon fill="white" stroke="black" points="510,-5.5 510,-24.5 626,-24.5 626,-5.5 510,-5.5"/>
<text text-anchor="middle" x="568" y="-12.5" font-family="Helvetica,sans-Serif" font-size="10.00">scanpanel::paramScan</text>
</a>
</g>
</g>
<!-- Node3&#45;&gt;Node4 -->
<g id="edge3" class="edge"><title>Node3&#45;&gt;Node4</title>
<path fill="none" stroke="midnightblue" d="M484.31,-15C492.891,-15 501.565,-15 509.906,-15"/>
<polygon fill="midnightblue" stroke="midnightblue" points="484.307,-11.5001 474.307,-15 484.307,-18.5001 484.307,-11.5001"/>
</g>
<!-- Node5 -->
<g id="node5" class="node"><title>Node5</title>
<g id="a_node5"><a xlink:href="main_8cpp.html#a3c04138a5bfe5d72780bb7e82a18e627" target="_top" xlink:title="main">
<polygon fill="white" stroke="black" points="662,-5.5 662,-24.5 700,-24.5 700,-5.5 662,-5.5"/>
<text text-anchor="middle" x="681" y="-12.5" font-family="Helvetica,sans-Serif" font-size="10.00">main</text>
</a>
</g>
</g>
<!-- Node4&#45;&gt;Node5 -->
<g id="edge4" class="edge"><title>Node4&#45;&gt;Node5</title>
<path fill="none" stroke="midnightblue" d="M636.376,-15C645.702,-15 654.558,-15 661.824,-15"/>
<polygon fill="midnightblue" stroke="midnightblue" points="636.126,-11.5001 626.126,-15 636.126,-18.5001 636.126,-11.5001"/>
</g>
</g>
</svg>
