<?xml version="1.0" encoding="UTF-8" standalone="no"?>
<!DOCTYPE svg PUBLIC "-//W3C//DTD SVG 1.1//EN"
 "http://www.w3.org/Graphics/SVG/1.1/DTD/svg11.dtd">
<!-- Generated by graphviz version 2.36.0 (20140111.2315)
 -->
<!-- Title: FELNumerical::dumpParfile Pages: 1 -->
<svg width="564pt" height="53pt"
 viewBox="0.00 0.00 564.00 53.00" xmlns="http://www.w3.org/2000/svg" xmlns:xlink="http://www.w3.org/1999/xlink">
<g id="graph0" class="graph" transform="scale(1 1) rotate(0) translate(4 49)">
<title>FELNumerical::dumpParfile</title>
<polygon fill="white" stroke="none" points="-4,4 -4,-49 560,-49 560,4 -4,4"/>
<!-- Node1 -->
<g id="node1" class="node"><title>Node1</title>
<polygon fill="#bfbfbf" stroke="black" points="0.5,-6.5 0.5,-25.5 137.5,-25.5 137.5,-6.5 0.5,-6.5"/>
<text text-anchor="middle" x="69" y="-13.5" font-family="Helvetica,sans-Serif" font-size="10.00">FELNumerical::dumpParfile</text>
</g>
<!-- Node2 -->
<g id="node2" class="node"><title>Node2</title>
<g id="a_node2"><a xlink:href="class_f_e_l_numerical.html#acf164cc84fbe47c386ec672d1a62d43e" target="_top" xlink:title="functions defined for ODE solver ">
<polygon fill="white" stroke="black" points="174,-1 174,-31 330,-31 330,-1 174,-1"/>
<text text-anchor="start" x="182" y="-19" font-family="Helvetica,sans-Serif" font-size="10.00">FELNumerical::FELsolverSingle</text>
<text text-anchor="middle" x="252" y="-8" font-family="Helvetica,sans-Serif" font-size="10.00">Frequency1D</text>
</a>
</g>
</g>
<!-- Node1&#45;&gt;Node2 -->
<g id="edge1" class="edge"><title>Node1&#45;&gt;Node2</title>
<path fill="none" stroke="midnightblue" d="M147.765,-16C156.457,-16 165.308,-16 173.991,-16"/>
<polygon fill="midnightblue" stroke="midnightblue" points="147.655,-12.5001 137.655,-16 147.655,-19.5001 147.655,-12.5001"/>
</g>
<!-- Node3 -->
<g id="node3" class="node"><title>Node3</title>
<g id="a_node3"><a xlink:href="classscanpanel.html#ad5d03fff058d2903c654c55f101ae852" target="_top" xlink:title="do parameters scan ">
<polygon fill="white" stroke="black" points="366,-25.5 366,-44.5 482,-44.5 482,-25.5 366,-25.5"/>
<text text-anchor="middle" x="424" y="-32.5" font-family="Helvetica,sans-Serif" font-size="10.00">scanpanel::paramScan</text>
</a>
</g>
</g>
<!-- Node2&#45;&gt;Node3 -->
<g id="edge2" class="edge"><title>Node2&#45;&gt;Node3</title>
<path fill="none" stroke="midnightblue" d="M340.226,-25.7488C348.908,-26.7191 357.559,-27.686 365.816,-28.6088"/>
<polygon fill="midnightblue" stroke="midnightblue" points="340.369,-22.243 330.042,-24.6105 339.591,-29.1997 340.369,-22.243"/>
</g>
<!-- Node4 -->
<g id="node4" class="node"><title>Node4</title>
<g id="a_node4"><a xlink:href="main_8cpp.html#a3c04138a5bfe5d72780bb7e82a18e627" target="_top" xlink:title="main">
<polygon fill="white" stroke="black" points="518,-6.5 518,-25.5 556,-25.5 556,-6.5 518,-6.5"/>
<text text-anchor="middle" x="537" y="-13.5" font-family="Helvetica,sans-Serif" font-size="10.00">main</text>
</a>
</g>
</g>
<!-- Node2&#45;&gt;Node4 -->
<g id="edge4" class="edge"><title>Node2&#45;&gt;Node4</title>
<path fill="none" stroke="midnightblue" d="M340.656,-16C403.467,-16 482.914,-16 517.975,-16"/>
<polygon fill="midnightblue" stroke="midnightblue" points="340.331,-12.5001 330.331,-16 340.331,-19.5001 340.331,-12.5001"/>
</g>
<!-- Node3&#45;&gt;Node4 -->
<g id="edge3" class="edge"><title>Node3&#45;&gt;Node4</title>
<path fill="none" stroke="midnightblue" d="M490.813,-23.7347C500.699,-22.0425 510.133,-20.4277 517.799,-19.1155"/>
<polygon fill="midnightblue" stroke="midnightblue" points="490.091,-20.3073 480.825,-25.4443 491.272,-27.2069 490.091,-20.3073"/>
</g>
</g>
</svg>
