<?xml version="1.0" encoding="UTF-8" standalone="no"?>
<!DOCTYPE svg PUBLIC "-//W3C//DTD SVG 1.1//EN"
 "http://www.w3.org/Graphics/SVG/1.1/DTD/svg11.dtd">
<!-- Generated by graphviz version 2.36.0 (20140111.2315)
 -->
<!-- Title: scanpanel::checkScanParamIsOK Pages: 1 -->
<svg width="602pt" height="28pt"
 viewBox="0.00 0.00 602.00 28.00" xmlns="http://www.w3.org/2000/svg" xmlns:xlink="http://www.w3.org/1999/xlink">
<g id="graph0" class="graph" transform="scale(1 1) rotate(0) translate(4 24)">
<title>scanpanel::checkScanParamIsOK</title>
<polygon fill="white" stroke="none" points="-4,4 -4,-24 598,-24 598,4 -4,4"/>
<!-- Node1 -->
<g id="node1" class="node"><title>Node1</title>
<polygon fill="#bfbfbf" stroke="black" points="0.5,-0.5 0.5,-19.5 167.5,-19.5 167.5,-0.5 0.5,-0.5"/>
<text text-anchor="middle" x="84" y="-7.5" font-family="Helvetica,sans-Serif" font-size="10.00">scanpanel::checkScanParamIsOK</text>
</g>
<!-- Node2 -->
<g id="node2" class="node"><title>Node2</title>
<g id="a_node2"><a xlink:href="classscanpanel.html#abcd398fda4ec23590821fb7fa391f8eb" target="_top" xlink:title="check scan setup, return 1 if all the parameters are OK, or 0 and exit(1); ">
<polygon fill="white" stroke="black" points="204,-0.5 204,-19.5 368,-19.5 368,-0.5 204,-0.5"/>
<text text-anchor="middle" x="286" y="-7.5" font-family="Helvetica,sans-Serif" font-size="10.00">scanpanel::checkScanSetupIsOK</text>
</a>
</g>
</g>
<!-- Node1&#45;&gt;Node2 -->
<g id="edge1" class="edge"><title>Node1&#45;&gt;Node2</title>
<path fill="none" stroke="midnightblue" d="M177.738,-10C186.5,-10 195.336,-10 203.977,-10"/>
<polygon fill="midnightblue" stroke="midnightblue" points="177.502,-6.5001 167.502,-10 177.502,-13.5001 177.502,-6.5001"/>
</g>
<!-- Node3 -->
<g id="node3" class="node"><title>Node3</title>
<g id="a_node3"><a xlink:href="classscanpanel.html#ad5d03fff058d2903c654c55f101ae852" target="_top" xlink:title="do parameters scan ">
<polygon fill="white" stroke="black" points="404,-0.5 404,-19.5 520,-19.5 520,-0.5 404,-0.5"/>
<text text-anchor="middle" x="462" y="-7.5" font-family="Helvetica,sans-Serif" font-size="10.00">scanpanel::paramScan</text>
</a>
</g>
</g>
<!-- Node2&#45;&gt;Node3 -->
<g id="edge2" class="edge"><title>Node2&#45;&gt;Node3</title>
<path fill="none" stroke="midnightblue" d="M378.323,-10C386.992,-10 395.603,-10 403.811,-10"/>
<polygon fill="midnightblue" stroke="midnightblue" points="378.142,-6.5001 368.142,-10 378.142,-13.5001 378.142,-6.5001"/>
</g>
<!-- Node4 -->
<g id="node4" class="node"><title>Node4</title>
<g id="a_node4"><a xlink:href="main_8cpp.html#a3c04138a5bfe5d72780bb7e82a18e627" target="_top" xlink:title="main">
<polygon fill="white" stroke="black" points="556,-0.5 556,-19.5 594,-19.5 594,-0.5 556,-0.5"/>
<text text-anchor="middle" x="575" y="-7.5" font-family="Helvetica,sans-Serif" font-size="10.00">main</text>
</a>
</g>
</g>
<!-- Node3&#45;&gt;Node4 -->
<g id="edge3" class="edge"><title>Node3&#45;&gt;Node4</title>
<path fill="none" stroke="midnightblue" d="M530.376,-10C539.702,-10 548.558,-10 555.824,-10"/>
<polygon fill="midnightblue" stroke="midnightblue" points="530.126,-6.5001 520.126,-10 530.126,-13.5001 530.126,-6.5001"/>
</g>
</g>
</svg>
