<?xml version="1.0" encoding="UTF-8" standalone="no"?>
<!DOCTYPE svg PUBLIC "-//W3C//DTD SVG 1.1//EN"
 "http://www.w3.org/Graphics/SVG/1.1/DTD/svg11.dtd">
<!-- Generated by graphviz version 2.36.0 (20140111.2315)
 -->
<!-- Title: efield Pages: 1 -->
<svg width="104pt" height="176pt"
 viewBox="0.00 0.00 104.00 176.00" xmlns="http://www.w3.org/2000/svg" xmlns:xlink="http://www.w3.org/1999/xlink">
<g id="graph0" class="graph" transform="scale(1 1) rotate(0) translate(4 172)">
<title>efield</title>
<polygon fill="white" stroke="none" points="-4,4 -4,-172 100,-172 100,4 -4,4"/>
<!-- Node1 -->
<g id="node1" class="node"><title>Node1</title>
<polygon fill="#bfbfbf" stroke="black" points="-1,-0.5 -1,-167.5 97,-167.5 97,-0.5 -1,-0.5"/>
<text text-anchor="middle" x="48" y="-155.5" font-family="Helvetica,sans-Serif" font-size="10.00">efield</text>
<polyline fill="none" stroke="black" points="-1,-148.5 97,-148.5 "/>
<text text-anchor="middle" x="48" y="-136.5" font-family="Helvetica,sans-Serif" font-size="10.00"> </text>
<polyline fill="none" stroke="black" points="-1,-129.5 97,-129.5 "/>
<text text-anchor="start" x="7" y="-117.5" font-family="Helvetica,sans-Serif" font-size="10.00">+ efield()</text>
<text text-anchor="start" x="7" y="-106.5" font-family="Helvetica,sans-Serif" font-size="10.00">+ efield()</text>
<text text-anchor="start" x="7" y="-95.5" font-family="Helvetica,sans-Serif" font-size="10.00">+ efield()</text>
<text text-anchor="start" x="7" y="-84.5" font-family="Helvetica,sans-Serif" font-size="10.00">+ efield()</text>
<text text-anchor="start" x="7" y="-73.5" font-family="Helvetica,sans-Serif" font-size="10.00">+ set_efield()</text>
<text text-anchor="start" x="7" y="-62.5" font-family="Helvetica,sans-Serif" font-size="10.00">+ get_efield()</text>
<text text-anchor="start" x="7" y="-51.5" font-family="Helvetica,sans-Serif" font-size="10.00">+ get_real()</text>
<text text-anchor="start" x="7" y="-40.5" font-family="Helvetica,sans-Serif" font-size="10.00">+ get_imag()</text>
<text text-anchor="start" x="7" y="-29.5" font-family="Helvetica,sans-Serif" font-size="10.00">+ get_phase()</text>
<text text-anchor="start" x="7" y="-18.5" font-family="Helvetica,sans-Serif" font-size="10.00">+ get_amplitude()</text>
<text text-anchor="start" x="7" y="-7.5" font-family="Helvetica,sans-Serif" font-size="10.00">+ get_amplitude2()</text>
</g>
</g>
</svg>
