<?xml version="1.0" encoding="UTF-8" standalone="no"?>
<!DOCTYPE svg PUBLIC "-//W3C//DTD SVG 1.1//EN"
 "http://www.w3.org/Graphics/SVG/1.1/DTD/svg11.dtd">
<!-- Generated by graphviz version 2.36.0 (20140111.2315)
 -->
<!-- Title: scanpanel Pages: 1 -->
<svg width="138pt" height="282pt"
 viewBox="0.00 0.00 138.00 282.00" xmlns="http://www.w3.org/2000/svg" xmlns:xlink="http://www.w3.org/1999/xlink">
<g id="graph0" class="graph" transform="scale(1 1) rotate(0) translate(4 278)">
<title>scanpanel</title>
<polygon fill="white" stroke="none" points="-4,4 -4,-278 134,-278 134,4 -4,4"/>
<!-- Node1 -->
<g id="node1" class="node"><title>Node1</title>
<polygon fill="#bfbfbf" stroke="black" points="-0.5,-0.5 -0.5,-167.5 130.5,-167.5 130.5,-0.5 -0.5,-0.5"/>
<text text-anchor="middle" x="65" y="-155.5" font-family="Helvetica,sans-Serif" font-size="10.00">scanpanel</text>
<polyline fill="none" stroke="black" points="-0.5,-148.5 130.5,-148.5 "/>
<text text-anchor="middle" x="65" y="-136.5" font-family="Helvetica,sans-Serif" font-size="10.00"> </text>
<polyline fill="none" stroke="black" points="-0.5,-129.5 130.5,-129.5 "/>
<text text-anchor="start" x="7.5" y="-117.5" font-family="Helvetica,sans-Serif" font-size="10.00">+ scanpanel()</text>
<text text-anchor="start" x="7.5" y="-106.5" font-family="Helvetica,sans-Serif" font-size="10.00">+ scanpanel()</text>
<text text-anchor="start" x="7.5" y="-95.5" font-family="Helvetica,sans-Serif" font-size="10.00">+ ~scanpanel()</text>
<text text-anchor="start" x="7.5" y="-84.5" font-family="Helvetica,sans-Serif" font-size="10.00">+ checkScanParamIsOK()</text>
<text text-anchor="start" x="7.5" y="-73.5" font-family="Helvetica,sans-Serif" font-size="10.00">+ checkScanSetupIsOK()</text>
<text text-anchor="start" x="7.5" y="-62.5" font-family="Helvetica,sans-Serif" font-size="10.00">+ updateVarlist()</text>
<text text-anchor="start" x="7.5" y="-51.5" font-family="Helvetica,sans-Serif" font-size="10.00">+ set_electronBeam()</text>
<text text-anchor="start" x="7.5" y="-40.5" font-family="Helvetica,sans-Serif" font-size="10.00">+ set_seedfield()</text>
<text text-anchor="start" x="7.5" y="-29.5" font-family="Helvetica,sans-Serif" font-size="10.00">+ set_undulator()</text>
<text text-anchor="start" x="7.5" y="-18.5" font-family="Helvetica,sans-Serif" font-size="10.00">+ set_FELradiation()</text>
<text text-anchor="start" x="7.5" y="-7.5" font-family="Helvetica,sans-Serif" font-size="10.00">and 6 more...</text>
</g>
<!-- Node2 -->
<g id="node2" class="node"><title>Node2</title>
<g id="a_node2"><a xlink:href="classdefault_params.html" target="_top" xlink:title="{defaultParams\n|# dparams\l# oparams\l|+ defaultParams()\l}">
<polygon fill="white" stroke="black" points="17.5,-205 17.5,-273 112.5,-273 112.5,-205 17.5,-205"/>
<text text-anchor="middle" x="65" y="-261" font-family="Helvetica,sans-Serif" font-size="10.00">defaultParams</text>
<polyline fill="none" stroke="black" points="17.5,-254 112.5,-254 "/>
<text text-anchor="start" x="25.5" y="-242" font-family="Helvetica,sans-Serif" font-size="10.00"># dparams</text>
<text text-anchor="start" x="25.5" y="-231" font-family="Helvetica,sans-Serif" font-size="10.00"># oparams</text>
<polyline fill="none" stroke="black" points="17.5,-224 112.5,-224 "/>
<text text-anchor="start" x="25.5" y="-212" font-family="Helvetica,sans-Serif" font-size="10.00">+ defaultParams()</text>
</a>
</g>
</g>
<!-- Node2&#45;&gt;Node1 -->
<g id="edge1" class="edge"><title>Node2&#45;&gt;Node1</title>
<path fill="none" stroke="midnightblue" d="M65,-194.783C65,-186.261 65,-177.055 65,-167.724"/>
<polygon fill="none" stroke="midnightblue" points="61.5001,-194.801 65,-204.801 68.5001,-194.801 61.5001,-194.801"/>
</g>
</g>
</svg>
