<?xml version="1.0" encoding="UTF-8" standalone="no"?>
<!DOCTYPE svg PUBLIC "-//W3C//DTD SVG 1.1//EN"
 "http://www.w3.org/Graphics/SVG/1.1/DTD/svg11.dtd">
<!-- Generated by graphviz version 2.36.0 (20140111.2315)
 -->
<!-- Title: FELradiation::get_wavelength Pages: 1 -->
<svg width="338pt" height="66pt"
 viewBox="0.00 0.00 338.00 66.00" xmlns="http://www.w3.org/2000/svg" xmlns:xlink="http://www.w3.org/1999/xlink">
<g id="graph0" class="graph" transform="scale(1 1) rotate(0) translate(4 62)">
<title>FELradiation::get_wavelength</title>
<polygon fill="white" stroke="none" points="-4,4 -4,-62 334,-62 334,4 -4,4"/>
<!-- Node1 -->
<g id="node1" class="node"><title>Node1</title>
<polygon fill="#bfbfbf" stroke="black" points="0,-19.5 0,-38.5 146,-38.5 146,-19.5 0,-19.5"/>
<text text-anchor="middle" x="73" y="-26.5" font-family="Helvetica,sans-Serif" font-size="10.00">FELradiation::get_wavelength</text>
</g>
<!-- Node2 -->
<g id="node2" class="node"><title>Node2</title>
<g id="a_node2"><a xlink:href="class_f_e_l_analysis.html#a2d147c239a45ad1949b56bb743e83cd0" target="_top" xlink:title="FELAnalysis::FELAnalysis">
<polygon fill="white" stroke="black" points="189,-38.5 189,-57.5 323,-57.5 323,-38.5 189,-38.5"/>
<text text-anchor="middle" x="256" y="-45.5" font-family="Helvetica,sans-Serif" font-size="10.00">FELAnalysis::FELAnalysis</text>
</a>
</g>
</g>
<!-- Node1&#45;&gt;Node2 -->
<g id="edge1" class="edge"><title>Node1&#45;&gt;Node2</title>
<path fill="none" stroke="midnightblue" d="M156.053,-37.6132C167.009,-38.7634 178.132,-39.931 188.771,-41.0478"/>
<polygon fill="midnightblue" stroke="midnightblue" points="156.367,-34.1271 146.056,-36.5639 155.636,-41.0888 156.367,-34.1271"/>
</g>
<!-- Node3 -->
<g id="node3" class="node"><title>Node3</title>
<g id="a_node3"><a xlink:href="class_f_e_l_numerical.html#a70fa680e4c12c15740c265978097e209" target="_top" xlink:title="&lt; class initialization with input parameters ">
<polygon fill="white" stroke="black" points="182.5,-0.5 182.5,-19.5 329.5,-19.5 329.5,-0.5 182.5,-0.5"/>
<text text-anchor="middle" x="256" y="-7.5" font-family="Helvetica,sans-Serif" font-size="10.00">FELNumerical::FELNumerical</text>
</a>
</g>
</g>
<!-- Node1&#45;&gt;Node3 -->
<g id="edge2" class="edge"><title>Node1&#45;&gt;Node3</title>
<path fill="none" stroke="midnightblue" d="M156.207,-20.3705C164.912,-19.4568 173.719,-18.5322 182.304,-17.631"/>
<polygon fill="midnightblue" stroke="midnightblue" points="155.636,-16.9112 146.056,-21.4361 156.367,-23.8729 155.636,-16.9112"/>
</g>
</g>
</svg>
