<?xml version="1.0" encoding="UTF-8" standalone="no"?>
<!DOCTYPE svg PUBLIC "-//W3C//DTD SVG 1.1//EN"
 "http://www.w3.org/Graphics/SVG/1.1/DTD/svg11.dtd">
<!-- Generated by graphviz version 2.36.0 (20140111.2315)
 -->
<!-- Title: physicalConstants Pages: 1 -->
<svg width="120pt" height="372pt"
 viewBox="0.00 0.00 120.00 372.00" xmlns="http://www.w3.org/2000/svg" xmlns:xlink="http://www.w3.org/1999/xlink">
<g id="graph0" class="graph" transform="scale(1 1) rotate(0) translate(4 368)">
<title>physicalConstants</title>
<polygon fill="white" stroke="none" points="-4,4 -4,-368 116,-368 116,4 -4,4"/>
<!-- Node1 -->
<g id="node1" class="node"><title>Node1</title>
<polygon fill="#bfbfbf" stroke="black" points="-0.5,-1 -0.5,-135 112.5,-135 112.5,-1 -0.5,-1"/>
<text text-anchor="middle" x="56" y="-123" font-family="Helvetica,sans-Serif" font-size="10.00">physicalConstants</text>
<polyline fill="none" stroke="black" points="-0.5,-116 112.5,-116 "/>
<text text-anchor="start" x="7.5" y="-104" font-family="Helvetica,sans-Serif" font-size="10.00"># PI</text>
<text text-anchor="start" x="7.5" y="-93" font-family="Helvetica,sans-Serif" font-size="10.00"># eps0</text>
<text text-anchor="start" x="7.5" y="-82" font-family="Helvetica,sans-Serif" font-size="10.00"># mu0</text>
<text text-anchor="start" x="7.5" y="-71" font-family="Helvetica,sans-Serif" font-size="10.00"># M0</text>
<text text-anchor="start" x="7.5" y="-60" font-family="Helvetica,sans-Serif" font-size="10.00"># E0</text>
<text text-anchor="start" x="7.5" y="-49" font-family="Helvetica,sans-Serif" font-size="10.00"># C0</text>
<text text-anchor="start" x="7.5" y="-38" font-family="Helvetica,sans-Serif" font-size="10.00"># IA</text>
<polyline fill="none" stroke="black" points="-0.5,-31 112.5,-31 "/>
<text text-anchor="start" x="7.5" y="-19" font-family="Helvetica,sans-Serif" font-size="10.00">+ physicalConstants()</text>
<text text-anchor="start" x="7.5" y="-8" font-family="Helvetica,sans-Serif" font-size="10.00">+ info()</text>
</g>
<!-- Node2 -->
<g id="node2" class="node"><title>Node2</title>
<g id="a_node2"><a xlink:href="structphysical_constants_1_1coefs_xie.html" target="_top" xlink:title="{physicalConstants::\lcoefsXie\n|+ a1\l+ a2\l+ a3\l+ a4\l+ a5\l+ a6\l+ a7\l+ a8\l+ a9\l+ a10\land 9 more...\l|}">
<polygon fill="white" stroke="black" points="4,-185 4,-363 108,-363 108,-185 4,-185"/>
<text text-anchor="start" x="12" y="-351" font-family="Helvetica,sans-Serif" font-size="10.00">physicalConstants::</text>
<text text-anchor="middle" x="56" y="-340" font-family="Helvetica,sans-Serif" font-size="10.00">coefsXie</text>
<polyline fill="none" stroke="black" points="4,-333 108,-333 "/>
<text text-anchor="start" x="12" y="-321" font-family="Helvetica,sans-Serif" font-size="10.00">+ a1</text>
<text text-anchor="start" x="12" y="-310" font-family="Helvetica,sans-Serif" font-size="10.00">+ a2</text>
<text text-anchor="start" x="12" y="-299" font-family="Helvetica,sans-Serif" font-size="10.00">+ a3</text>
<text text-anchor="start" x="12" y="-288" font-family="Helvetica,sans-Serif" font-size="10.00">+ a4</text>
<text text-anchor="start" x="12" y="-277" font-family="Helvetica,sans-Serif" font-size="10.00">+ a5</text>
<text text-anchor="start" x="12" y="-266" font-family="Helvetica,sans-Serif" font-size="10.00">+ a6</text>
<text text-anchor="start" x="12" y="-255" font-family="Helvetica,sans-Serif" font-size="10.00">+ a7</text>
<text text-anchor="start" x="12" y="-244" font-family="Helvetica,sans-Serif" font-size="10.00">+ a8</text>
<text text-anchor="start" x="12" y="-233" font-family="Helvetica,sans-Serif" font-size="10.00">+ a9</text>
<text text-anchor="start" x="12" y="-222" font-family="Helvetica,sans-Serif" font-size="10.00">+ a10</text>
<text text-anchor="start" x="12" y="-211" font-family="Helvetica,sans-Serif" font-size="10.00">and 9 more...</text>
<polyline fill="none" stroke="black" points="4,-204 108,-204 "/>
<text text-anchor="middle" x="56" y="-192" font-family="Helvetica,sans-Serif" font-size="10.00"> </text>
</a>
</g>
</g>
<!-- Node2&#45;&gt;Node1 -->
<g id="edge1" class="edge"><title>Node2&#45;&gt;Node1</title>
<path fill="none" stroke="#404040" d="M56,-184.709C56,-172.272 56,-159.558 56,-147.324"/>
<polygon fill="none" stroke="#404040" points="56.0001,-147.279 52,-141.279 56,-135.279 60,-141.279 56.0001,-147.279"/>
<text text-anchor="middle" x="72.5" y="-157.5" font-family="Helvetica,sans-Serif" font-size="10.00"> #coefs</text>
</g>
</g>
</svg>
