<?xml version="1.0" encoding="UTF-8" standalone="no"?>
<!DOCTYPE svg PUBLIC "-//W3C//DTD SVG 1.1//EN"
 "http://www.w3.org/Graphics/SVG/1.1/DTD/svg11.dtd">
<!-- Generated by graphviz version 2.36.0 (20140111.2315)
 -->
<!-- Title: scanpanel::set_electronBeam Pages: 1 -->
<svg width="350pt" height="240pt"
 viewBox="0.00 0.00 350.00 240.00" xmlns="http://www.w3.org/2000/svg" xmlns:xlink="http://www.w3.org/1999/xlink">
<g id="graph0" class="graph" transform="scale(1 1) rotate(0) translate(4 236)">
<title>scanpanel::set_electronBeam</title>
<polygon fill="white" stroke="none" points="-4,4 -4,-236 346,-236 346,4 -4,4"/>
<!-- Node1 -->
<g id="node1" class="node"><title>Node1</title>
<polygon fill="#bfbfbf" stroke="black" points="0,-95.5 0,-114.5 146,-114.5 146,-95.5 0,-95.5"/>
<text text-anchor="middle" x="73" y="-102.5" font-family="Helvetica,sans-Serif" font-size="10.00">scanpanel::set_electronBeam</text>
</g>
<!-- Node2 -->
<g id="node2" class="node"><title>Node2</title>
<g id="a_node2"><a xlink:href="classelectron_beam.html#a787d3e61816281618f284ef3bb2e1ebb" target="_top" xlink:title="beam energy, $$ ">
<polygon fill="white" stroke="black" points="196.5,-202 196.5,-232 327.5,-232 327.5,-202 196.5,-202"/>
<text text-anchor="start" x="204.5" y="-220" font-family="Helvetica,sans-Serif" font-size="10.00">electronBeam::set_central</text>
<text text-anchor="middle" x="262" y="-209" font-family="Helvetica,sans-Serif" font-size="10.00">Energy</text>
</a>
</g>
</g>
<!-- Node1&#45;&gt;Node2 -->
<g id="edge1" class="edge"><title>Node1&#45;&gt;Node2</title>
<path fill="none" stroke="midnightblue" d="M83.5142,-114.774C101.302,-132.533 141.474,-170.264 182,-192 186.031,-194.162 190.279,-196.173 194.629,-198.036"/>
<polygon fill="midnightblue" stroke="midnightblue" points="193.683,-201.427 204.268,-201.882 196.277,-194.925 193.683,-201.427"/>
</g>
<!-- Node3 -->
<g id="node3" class="node"><title>Node3</title>
<g id="a_node3"><a xlink:href="classelectron_beam.html#a7e4cff020876ed5b43499b60ad1822cd" target="_top" xlink:title="rms energy spread, $$ ">
<polygon fill="white" stroke="black" points="196.5,-153 196.5,-183 327.5,-183 327.5,-153 196.5,-153"/>
<text text-anchor="start" x="204.5" y="-171" font-family="Helvetica,sans-Serif" font-size="10.00">electronBeam::set_energy</text>
<text text-anchor="middle" x="262" y="-160" font-family="Helvetica,sans-Serif" font-size="10.00">Spread</text>
</a>
</g>
</g>
<!-- Node1&#45;&gt;Node3 -->
<g id="edge2" class="edge"><title>Node1&#45;&gt;Node3</title>
<path fill="none" stroke="midnightblue" d="M100.549,-114.606C122.361,-122.435 154.098,-133.679 182,-143 188.754,-145.256 195.85,-147.575 202.903,-149.847"/>
<polygon fill="midnightblue" stroke="midnightblue" points="201.866,-153.19 212.457,-152.906 204.001,-146.523 201.866,-153.19"/>
</g>
<!-- Node4 -->
<g id="node4" class="node"><title>Node4</title>
<g id="a_node4"><a xlink:href="classelectron_beam.html#a9e750f50d228ef648b6b607afac44c77" target="_top" xlink:title="normalized emittance in x ">
<polygon fill="white" stroke="black" points="196.5,-114.5 196.5,-133.5 327.5,-133.5 327.5,-114.5 196.5,-114.5"/>
<text text-anchor="middle" x="262" y="-121.5" font-family="Helvetica,sans-Serif" font-size="10.00">electronBeam::set_emitnx</text>
</a>
</g>
</g>
<!-- Node1&#45;&gt;Node4 -->
<g id="edge3" class="edge"><title>Node1&#45;&gt;Node4</title>
<path fill="none" stroke="midnightblue" d="M146.032,-112.319C159.232,-113.66 173.035,-115.062 186.311,-116.411"/>
<polygon fill="midnightblue" stroke="midnightblue" points="186.039,-119.902 196.342,-117.43 186.747,-112.937 186.039,-119.902"/>
</g>
<!-- Node5 -->
<g id="node5" class="node"><title>Node5</title>
<g id="a_node5"><a xlink:href="classelectron_beam.html#aacb24d39f88c45a62e5fbd5516e43bfb" target="_top" xlink:title="normalized emittance in y ">
<polygon fill="white" stroke="black" points="196.5,-76.5 196.5,-95.5 327.5,-95.5 327.5,-76.5 196.5,-76.5"/>
<text text-anchor="middle" x="262" y="-83.5" font-family="Helvetica,sans-Serif" font-size="10.00">electronBeam::set_emitny</text>
</a>
</g>
</g>
<!-- Node1&#45;&gt;Node5 -->
<g id="edge4" class="edge"><title>Node1&#45;&gt;Node5</title>
<path fill="none" stroke="midnightblue" d="M146.032,-97.6813C159.232,-96.3401 173.035,-94.9376 186.311,-93.5887"/>
<polygon fill="midnightblue" stroke="midnightblue" points="186.747,-97.0625 196.342,-92.5695 186.039,-90.0984 186.747,-97.0625"/>
</g>
<!-- Node6 -->
<g id="node6" class="node"><title>Node6</title>
<g id="a_node6"><a xlink:href="classelectron_beam.html#a1e6b08af9247eca49c00af3d3c57cd6f" target="_top" xlink:title="peak current, [A] ">
<polygon fill="white" stroke="black" points="184.5,-38.5 184.5,-57.5 339.5,-57.5 339.5,-38.5 184.5,-38.5"/>
<text text-anchor="middle" x="262" y="-45.5" font-family="Helvetica,sans-Serif" font-size="10.00">electronBeam::set_peakCurrent</text>
</a>
</g>
</g>
<!-- Node1&#45;&gt;Node6 -->
<g id="edge5" class="edge"><title>Node1&#45;&gt;Node6</title>
<path fill="none" stroke="midnightblue" d="M99.0747,-95.3564C120.813,-87.1945 153.215,-75.5012 182,-67 190.355,-64.5324 199.276,-62.1497 208.005,-59.9544"/>
<polygon fill="midnightblue" stroke="midnightblue" points="208.862,-63.348 217.737,-57.5611 207.19,-56.5505 208.862,-63.348"/>
</g>
<!-- Node7 -->
<g id="node7" class="node"><title>Node7</title>
<g id="a_node7"><a xlink:href="classelectron_beam.html#a3c9af6b4b9f079eb078200ac4c91812f" target="_top" xlink:title="average beta function, [m] ">
<polygon fill="white" stroke="black" points="182.5,-0.5 182.5,-19.5 341.5,-19.5 341.5,-0.5 182.5,-0.5"/>
<text text-anchor="middle" x="262" y="-7.5" font-family="Helvetica,sans-Serif" font-size="10.00">electronBeam::set_avgBetaFunc</text>
</a>
</g>
</g>
<!-- Node1&#45;&gt;Node7 -->
<g id="edge6" class="edge"><title>Node1&#45;&gt;Node7</title>
<path fill="none" stroke="midnightblue" d="M84.794,-95.2622C103.314,-79.0738 142.933,-46.6628 182,-29 187.435,-26.5429 193.229,-24.3791 199.116,-22.4788"/>
<polygon fill="midnightblue" stroke="midnightblue" points="200.475,-25.7265 209.064,-19.5242 198.482,-19.0162 200.475,-25.7265"/>
</g>
</g>
</svg>
