<?xml version="1.0" encoding="UTF-8" standalone="no"?>
<!DOCTYPE svg PUBLIC "-//W3C//DTD SVG 1.1//EN"
 "http://www.w3.org/Graphics/SVG/1.1/DTD/svg11.dtd">
<!-- Generated by graphviz version 2.36.0 (20140111.2315)
 -->
<!-- Title: undulator::get_period Pages: 1 -->
<svg width="300pt" height="66pt"
 viewBox="0.00 0.00 300.00 66.00" xmlns="http://www.w3.org/2000/svg" xmlns:xlink="http://www.w3.org/1999/xlink">
<g id="graph0" class="graph" transform="scale(1 1) rotate(0) translate(4 62)">
<title>undulator::get_period</title>
<polygon fill="white" stroke="none" points="-4,4 -4,-62 296,-62 296,4 -4,4"/>
<!-- Node1 -->
<g id="node1" class="node"><title>Node1</title>
<polygon fill="#bfbfbf" stroke="black" points="0.5,-19.5 0.5,-38.5 107.5,-38.5 107.5,-19.5 0.5,-19.5"/>
<text text-anchor="middle" x="54" y="-26.5" font-family="Helvetica,sans-Serif" font-size="10.00">undulator::get_period</text>
</g>
<!-- Node2 -->
<g id="node2" class="node"><title>Node2</title>
<g id="a_node2"><a xlink:href="class_f_e_l_analysis.html#a2d147c239a45ad1949b56bb743e83cd0" target="_top" xlink:title="FELAnalysis::FELAnalysis">
<polygon fill="white" stroke="black" points="151,-38.5 151,-57.5 285,-57.5 285,-38.5 151,-38.5"/>
<text text-anchor="middle" x="218" y="-45.5" font-family="Helvetica,sans-Serif" font-size="10.00">FELAnalysis::FELAnalysis</text>
</a>
</g>
</g>
<!-- Node1&#45;&gt;Node2 -->
<g id="edge1" class="edge"><title>Node1&#45;&gt;Node2</title>
<path fill="none" stroke="midnightblue" d="M117.792,-36.3645C128.6,-37.6321 139.864,-38.9531 150.759,-40.231"/>
<polygon fill="midnightblue" stroke="midnightblue" points="117.936,-32.8575 107.597,-35.1688 117.121,-39.8099 117.936,-32.8575"/>
</g>
<!-- Node3 -->
<g id="node3" class="node"><title>Node3</title>
<g id="a_node3"><a xlink:href="class_f_e_l_numerical.html#a70fa680e4c12c15740c265978097e209" target="_top" xlink:title="&lt; class initialization with input parameters ">
<polygon fill="white" stroke="black" points="144.5,-0.5 144.5,-19.5 291.5,-19.5 291.5,-0.5 144.5,-0.5"/>
<text text-anchor="middle" x="218" y="-7.5" font-family="Helvetica,sans-Serif" font-size="10.00">FELNumerical::FELNumerical</text>
</a>
</g>
</g>
<!-- Node1&#45;&gt;Node3 -->
<g id="edge2" class="edge"><title>Node1&#45;&gt;Node3</title>
<path fill="none" stroke="midnightblue" d="M117.687,-21.6479C126.421,-20.6234 135.456,-19.5638 144.355,-18.5201"/>
<polygon fill="midnightblue" stroke="midnightblue" points="117.121,-18.1901 107.597,-22.8312 117.936,-25.1425 117.121,-18.1901"/>
</g>
</g>
</svg>
