<?xml version="1.0" encoding="UTF-8" standalone="no"?>
<!DOCTYPE svg PUBLIC "-//W3C//DTD SVG 1.1//EN"
 "http://www.w3.org/Graphics/SVG/1.1/DTD/svg11.dtd">
<!-- Generated by graphviz version 2.36.0 (20140111.2315)
 -->
<!-- Title: constants.cpp Pages: 1 -->
<svg width="366pt" height="140pt"
 viewBox="0.00 0.00 366.00 140.00" xmlns="http://www.w3.org/2000/svg" xmlns:xlink="http://www.w3.org/1999/xlink">
<g id="graph0" class="graph" transform="scale(1 1) rotate(0) translate(4 136)">
<title>constants.cpp</title>
<polygon fill="white" stroke="none" points="-4,4 -4,-136 362,-136 362,4 -4,4"/>
<!-- Node1 -->
<g id="node1" class="node"><title>Node1</title>
<polygon fill="#bfbfbf" stroke="black" points="163,-112.5 163,-131.5 241,-131.5 241,-112.5 163,-112.5"/>
<text text-anchor="middle" x="202" y="-119.5" font-family="Helvetica,sans-Serif" font-size="10.00">constants.cpp</text>
</g>
<!-- Node2 -->
<g id="node2" class="node"><title>Node2</title>
<g id="a_node2"><a xlink:href="constants_8h.html" target="_top" xlink:title="constants.h">
<polygon fill="white" stroke="black" points="18,-56.5 18,-75.5 86,-75.5 86,-56.5 18,-56.5"/>
<text text-anchor="middle" x="52" y="-63.5" font-family="Helvetica,sans-Serif" font-size="10.00">constants.h</text>
</a>
</g>
</g>
<!-- Node1&#45;&gt;Node2 -->
<g id="edge1" class="edge"><title>Node1&#45;&gt;Node2</title>
<path fill="none" stroke="midnightblue" d="M178.232,-112.444C153.107,-103.399 113.289,-89.064 85.0996,-78.9158"/>
<polygon fill="midnightblue" stroke="midnightblue" points="86.2512,-75.6106 75.6567,-75.5164 83.8801,-82.1968 86.2512,-75.6106"/>
</g>
<!-- Node5 -->
<g id="node5" class="node"><title>Node5</title>
<polygon fill="white" stroke="#bfbfbf" points="104,-56.5 104,-75.5 158,-75.5 158,-56.5 104,-56.5"/>
<text text-anchor="middle" x="131" y="-63.5" font-family="Helvetica,sans-Serif" font-size="10.00">iostream</text>
</g>
<!-- Node1&#45;&gt;Node5 -->
<g id="edge4" class="edge"><title>Node1&#45;&gt;Node5</title>
<path fill="none" stroke="midnightblue" d="M190.593,-112.324C179.891,-104.185 163.659,-91.8395 150.837,-82.0874"/>
<polygon fill="midnightblue" stroke="midnightblue" points="152.693,-79.1018 142.615,-75.8339 148.456,-84.6734 152.693,-79.1018"/>
</g>
<!-- Node6 -->
<g id="node6" class="node"><title>Node6</title>
<polygon fill="white" stroke="#bfbfbf" points="176,-56.5 176,-75.5 228,-75.5 228,-56.5 176,-56.5"/>
<text text-anchor="middle" x="202" y="-63.5" font-family="Helvetica,sans-Serif" font-size="10.00">sstream</text>
</g>
<!-- Node1&#45;&gt;Node6 -->
<g id="edge5" class="edge"><title>Node1&#45;&gt;Node6</title>
<path fill="none" stroke="midnightblue" d="M202,-112.083C202,-105.006 202,-94.8611 202,-85.9865"/>
<polygon fill="midnightblue" stroke="midnightblue" points="205.5,-85.751 202,-75.7511 198.5,-85.7511 205.5,-85.751"/>
</g>
<!-- Node7 -->
<g id="node7" class="node"><title>Node7</title>
<polygon fill="white" stroke="#bfbfbf" points="246,-56.5 246,-75.5 296,-75.5 296,-56.5 246,-56.5"/>
<text text-anchor="middle" x="271" y="-63.5" font-family="Helvetica,sans-Serif" font-size="10.00">iomanip</text>
</g>
<!-- Node1&#45;&gt;Node7 -->
<g id="edge6" class="edge"><title>Node1&#45;&gt;Node7</title>
<path fill="none" stroke="midnightblue" d="M213.086,-112.324C223.486,-104.185 239.261,-91.8395 251.722,-82.0874"/>
<polygon fill="midnightblue" stroke="midnightblue" points="253.994,-84.7533 259.712,-75.8339 249.68,-79.2407 253.994,-84.7533"/>
</g>
<!-- Node8 -->
<g id="node8" class="node"><title>Node8</title>
<polygon fill="white" stroke="#bfbfbf" points="314,-56.5 314,-75.5 358,-75.5 358,-56.5 314,-56.5"/>
<text text-anchor="middle" x="336" y="-63.5" font-family="Helvetica,sans-Serif" font-size="10.00">cmath</text>
</g>
<!-- Node1&#45;&gt;Node8 -->
<g id="edge7" class="edge"><title>Node1&#45;&gt;Node8</title>
<path fill="none" stroke="midnightblue" d="M223.233,-112.444C245.384,-103.517 280.319,-89.4387 305.436,-79.3168"/>
<polygon fill="midnightblue" stroke="midnightblue" points="306.9,-82.5006 314.867,-75.5164 304.283,-76.0079 306.9,-82.5006"/>
</g>
<!-- Node3 -->
<g id="node3" class="node"><title>Node3</title>
<polygon fill="white" stroke="#bfbfbf" points="0,-0.5 0,-19.5 44,-19.5 44,-0.5 0,-0.5"/>
<text text-anchor="middle" x="22" y="-7.5" font-family="Helvetica,sans-Serif" font-size="10.00">vector</text>
</g>
<!-- Node2&#45;&gt;Node3 -->
<g id="edge2" class="edge"><title>Node2&#45;&gt;Node3</title>
<path fill="none" stroke="midnightblue" d="M47.0461,-56.083C42.8959,-48.6127 36.8469,-37.7244 31.7333,-28.5199"/>
<polygon fill="midnightblue" stroke="midnightblue" points="34.7777,-26.7929 26.8617,-19.7511 28.6586,-30.1924 34.7777,-26.7929"/>
</g>
<!-- Node4 -->
<g id="node4" class="node"><title>Node4</title>
<polygon fill="white" stroke="#bfbfbf" points="62.5,-0.5 62.5,-19.5 103.5,-19.5 103.5,-0.5 62.5,-0.5"/>
<text text-anchor="middle" x="83" y="-7.5" font-family="Helvetica,sans-Serif" font-size="10.00">string</text>
</g>
<!-- Node2&#45;&gt;Node4 -->
<g id="edge3" class="edge"><title>Node2&#45;&gt;Node4</title>
<path fill="none" stroke="midnightblue" d="M57.119,-56.083C61.4075,-48.6127 67.6582,-37.7244 72.9423,-28.5199"/>
<polygon fill="midnightblue" stroke="midnightblue" points="76.0329,-30.1662 77.9762,-19.7511 69.9621,-26.6811 76.0329,-30.1662"/>
</g>
</g>
</svg>
