<?xml version="1.0" encoding="UTF-8" standalone="no"?>
<!DOCTYPE svg PUBLIC "-//W3C//DTD SVG 1.1//EN"
 "http://www.w3.org/Graphics/SVG/1.1/DTD/svg11.dtd">
<!-- Generated by graphviz version 2.36.0 (20140111.2315)
 -->
<!-- Title: main Pages: 1 -->
<svg width="834pt" height="773pt"
 viewBox="0.00 0.00 834.00 773.00" xmlns="http://www.w3.org/2000/svg" xmlns:xlink="http://www.w3.org/1999/xlink">
<g id="graph0" class="graph" transform="scale(1 1) rotate(0) translate(4 769)">
<title>main</title>
<polygon fill="white" stroke="none" points="-4,4 -4,-769 830,-769 830,4 -4,4"/>
<!-- Node1 -->
<g id="node1" class="node"><title>Node1</title>
<polygon fill="#bfbfbf" stroke="black" points="0,-268.5 0,-287.5 38,-287.5 38,-268.5 0,-268.5"/>
<text text-anchor="middle" x="19" y="-275.5" font-family="Helvetica,sans-Serif" font-size="10.00">main</text>
</g>
<!-- Node2 -->
<g id="node2" class="node"><title>Node2</title>
<g id="a_node2"><a xlink:href="readinput_8cpp.html#a7aca6ded447d93acc99b708101b02474" target="_top" xlink:title="get variable names and values from infile ">
<polygon fill="white" stroke="black" points="122,-445.5 122,-464.5 170,-464.5 170,-445.5 122,-445.5"/>
<text text-anchor="middle" x="146" y="-452.5" font-family="Helvetica,sans-Serif" font-size="10.00">getfield</text>
</a>
</g>
</g>
<!-- Node1&#45;&gt;Node2 -->
<g id="edge1" class="edge"><title>Node1&#45;&gt;Node2</title>
<path fill="none" stroke="midnightblue" d="M20.6332,-287.689C22.8841,-314.232 32.7535,-388.869 74,-430 84.176,-440.148 98.7109,-446.19 111.982,-449.782"/>
<polygon fill="midnightblue" stroke="midnightblue" points="111.257,-453.207 121.791,-452.079 112.852,-446.391 111.257,-453.207"/>
</g>
<!-- Node4 -->
<g id="node4" class="node"><title>Node4</title>
<g id="a_node4"><a xlink:href="classscanpanel.html#aa9124426cac480f9b9bc103b1941717d" target="_top" xlink:title="scanpanel::get_scanflag">
<polygon fill="white" stroke="black" points="85,-401.5 85,-420.5 207,-420.5 207,-401.5 85,-401.5"/>
<text text-anchor="middle" x="146" y="-408.5" font-family="Helvetica,sans-Serif" font-size="10.00">scanpanel::get_scanflag</text>
</a>
</g>
</g>
<!-- Node1&#45;&gt;Node4 -->
<g id="edge3" class="edge"><title>Node1&#45;&gt;Node4</title>
<path fill="none" stroke="midnightblue" d="M22.1334,-287.691C27.2802,-308.818 42.3603,-359.339 74,-387 78.7571,-391.159 84.2644,-394.604 90.066,-397.455"/>
<polygon fill="midnightblue" stroke="midnightblue" points="88.7912,-400.717 99.3595,-401.466 91.5649,-394.29 88.7912,-400.717"/>
</g>
<!-- Node5 -->
<g id="node5" class="node"><title>Node5</title>
<g id="a_node5"><a xlink:href="classscanpanel.html#ad5d03fff058d2903c654c55f101ae852" target="_top" xlink:title="do parameters scan ">
<polygon fill="white" stroke="black" points="88,-325.5 88,-344.5 204,-344.5 204,-325.5 88,-325.5"/>
<text text-anchor="middle" x="146" y="-332.5" font-family="Helvetica,sans-Serif" font-size="10.00">scanpanel::paramScan</text>
</a>
</g>
</g>
<!-- Node1&#45;&gt;Node5 -->
<g id="edge4" class="edge"><title>Node1&#45;&gt;Node5</title>
<path fill="none" stroke="midnightblue" d="M33.7337,-287.575C44.3729,-294.696 59.6673,-304.3 74,-311 82.9234,-315.171 92.778,-318.974 102.233,-322.262"/>
<polygon fill="midnightblue" stroke="midnightblue" points="101.291,-325.638 111.885,-325.495 103.515,-319 101.291,-325.638"/>
</g>
<!-- Node24 -->
<g id="node24" class="node"><title>Node24</title>
<g id="a_node24"><a xlink:href="class_f_e_l_numerical.html#a9cc9dab3886a4812336e4ca796c8259d" target="_top" xlink:title="parameters initialization for numerical calculation ">
<polygon fill="white" stroke="black" points="254,-418.5 254,-437.5 426,-437.5 426,-418.5 254,-418.5"/>
<text text-anchor="middle" x="340" y="-425.5" font-family="Helvetica,sans-Serif" font-size="10.00">FELNumerical::generateDistribution</text>
</a>
</g>
</g>
<!-- Node1&#45;&gt;Node24 -->
<g id="edge40" class="edge"><title>Node1&#45;&gt;Node24</title>
<path fill="none" stroke="midnightblue" d="M24.1103,-287.572C31.5859,-303.811 48.9807,-336.68 74,-354 128.422,-391.675 155.813,-369.329 218,-392 234.624,-398.061 237.264,-403.257 254,-409 261.626,-411.617 269.763,-413.968 277.867,-416.05"/>
<polygon fill="midnightblue" stroke="midnightblue" points="277.154,-419.479 287.699,-418.457 278.818,-412.68 277.154,-419.479"/>
</g>
<!-- Node26 -->
<g id="node26" class="node"><title>Node26</title>
<g id="a_node26"><a xlink:href="class_f_e_l_numerical.html#af73b446c5426faf40905db128fc5c589" target="_top" xlink:title="FELNumerical::initParams">
<polygon fill="white" stroke="black" points="274.5,-266.5 274.5,-285.5 405.5,-285.5 405.5,-266.5 274.5,-266.5"/>
<text text-anchor="middle" x="340" y="-273.5" font-family="Helvetica,sans-Serif" font-size="10.00">FELNumerical::initParams</text>
</a>
</g>
</g>
<!-- Node1&#45;&gt;Node26 -->
<g id="edge41" class="edge"><title>Node1&#45;&gt;Node26</title>
<path fill="none" stroke="midnightblue" d="M38.0648,-277.887C80.7384,-277.619 189.781,-276.936 264.19,-276.469"/>
<polygon fill="midnightblue" stroke="midnightblue" points="264.471,-279.967 274.449,-276.405 264.427,-272.968 264.471,-279.967"/>
</g>
<!-- Node27 -->
<g id="node27" class="node"><title>Node27</title>
<g id="a_node27"><a xlink:href="class_f_e_l_numerical.html#acf164cc84fbe47c386ec672d1a62d43e" target="_top" xlink:title="functions defined for ODE solver ">
<polygon fill="white" stroke="black" points="262,-152 262,-182 418,-182 418,-152 262,-152"/>
<text text-anchor="start" x="270" y="-170" font-family="Helvetica,sans-Serif" font-size="10.00">FELNumerical::FELsolverSingle</text>
<text text-anchor="middle" x="340" y="-159" font-family="Helvetica,sans-Serif" font-size="10.00">Frequency1D</text>
</a>
</g>
</g>
<!-- Node1&#45;&gt;Node27 -->
<g id="edge42" class="edge"><title>Node1&#45;&gt;Node27</title>
<path fill="none" stroke="midnightblue" d="M38.0592,-276.672C73.5826,-273.601 154.599,-264.316 218,-240 252.07,-226.933 287.395,-204.408 311.017,-187.826"/>
<polygon fill="midnightblue" stroke="midnightblue" points="313.056,-190.671 319.166,-182.015 308.992,-184.972 313.056,-190.671"/>
</g>
<!-- Node38 -->
<g id="node38" class="node"><title>Node38</title>
<g id="a_node38"><a xlink:href="classscanpanel.html#ab4add235da4417477830bf34011f027c" target="_top" xlink:title="output the scan result into some file ">
<polygon fill="white" stroke="black" points="91,-211.5 91,-230.5 201,-230.5 201,-211.5 91,-211.5"/>
<text text-anchor="middle" x="146" y="-218.5" font-family="Helvetica,sans-Serif" font-size="10.00">scanpanel::dumpdata</text>
</a>
</g>
</g>
<!-- Node1&#45;&gt;Node38 -->
<g id="edge37" class="edge"><title>Node1&#45;&gt;Node38</title>
<path fill="none" stroke="midnightblue" d="M33.7337,-268.425C44.3729,-261.304 59.6673,-251.7 74,-245 82.9234,-240.829 92.778,-237.026 102.233,-233.738"/>
<polygon fill="midnightblue" stroke="midnightblue" points="103.515,-237 111.885,-230.505 101.291,-230.362 103.515,-237"/>
</g>
<!-- Node39 -->
<g id="node39" class="node"><title>Node39</title>
<g id="a_node39"><a xlink:href="classcontrolpanel.html#ac5e75f460c7ca307ea56430887aac20b" target="_top" xlink:title="controlpanel::get_disflag">
<polygon fill="white" stroke="black" points="85,-173.5 85,-192.5 207,-192.5 207,-173.5 85,-173.5"/>
<text text-anchor="middle" x="146" y="-180.5" font-family="Helvetica,sans-Serif" font-size="10.00">controlpanel::get_disflag</text>
</a>
</g>
</g>
<!-- Node1&#45;&gt;Node39 -->
<g id="edge38" class="edge"><title>Node1&#45;&gt;Node39</title>
<path fill="none" stroke="midnightblue" d="M24.1166,-268.437C31.6019,-252.212 49.0108,-219.364 74,-202 76.8637,-200.01 79.925,-198.229 83.1092,-196.634"/>
<polygon fill="midnightblue" stroke="midnightblue" points="84.5731,-199.814 92.3461,-192.614 81.7801,-193.395 84.5731,-199.814"/>
</g>
<!-- Node40 -->
<g id="node40" class="node"><title>Node40</title>
<g id="a_node40"><a xlink:href="class_f_e_l_numerical.html#abd3f48d9e0ed7e7ad5d7d899d826f67c" target="_top" xlink:title="FELNumerical::importDisfile">
<polygon fill="white" stroke="black" points="76,-135.5 76,-154.5 216,-154.5 216,-135.5 76,-135.5"/>
<text text-anchor="middle" x="146" y="-142.5" font-family="Helvetica,sans-Serif" font-size="10.00">FELNumerical::importDisfile</text>
</a>
</g>
</g>
<!-- Node1&#45;&gt;Node40 -->
<g id="edge39" class="edge"><title>Node1&#45;&gt;Node40</title>
<path fill="none" stroke="midnightblue" d="M21.7248,-268.378C26.1829,-246.389 40.19,-192.187 74,-164 76.0153,-162.32 78.1649,-160.787 80.4143,-159.389"/>
<polygon fill="midnightblue" stroke="midnightblue" points="82.2696,-162.368 89.5115,-154.635 79.0277,-156.164 82.2696,-162.368"/>
</g>
<!-- Node41 -->
<g id="node41" class="node"><title>Node41</title>
<g id="a_node41"><a xlink:href="class_f_e_l_numerical.html#a85fac03f6396978c4f403ca3129b0936" target="_top" xlink:title="&lt; dump numerical simulation results ">
<polygon fill="white" stroke="black" points="74.5,-97.5 74.5,-116.5 217.5,-116.5 217.5,-97.5 74.5,-97.5"/>
<text text-anchor="middle" x="146" y="-104.5" font-family="Helvetica,sans-Serif" font-size="10.00">FELNumerical::dumpResults</text>
</a>
</g>
</g>
<!-- Node1&#45;&gt;Node41 -->
<g id="edge43" class="edge"><title>Node1&#45;&gt;Node41</title>
<path fill="none" stroke="midnightblue" d="M20.4693,-268.14C22.3013,-241.161 31.1994,-165.511 74,-126 75.714,-124.418 77.5453,-122.964 79.4684,-121.63"/>
<polygon fill="midnightblue" stroke="midnightblue" points="81.4722,-124.516 88.4088,-116.507 77.9921,-118.442 81.4722,-124.516"/>
</g>
<!-- Node3 -->
<g id="node3" class="node"><title>Node3</title>
<g id="a_node3"><a xlink:href="readinput_8cpp.html#a18603f7a5cc54c007e8bafb9e5301454" target="_top" xlink:title="define functions to handle reading input parameters from external namelist file. ">
<polygon fill="white" stroke="black" points="316,-456.5 316,-475.5 364,-475.5 364,-456.5 316,-456.5"/>
<text text-anchor="middle" x="340" y="-463.5" font-family="Helvetica,sans-Serif" font-size="10.00">trimline</text>
</a>
</g>
</g>
<!-- Node2&#45;&gt;Node3 -->
<g id="edge2" class="edge"><title>Node2&#45;&gt;Node3</title>
<path fill="none" stroke="midnightblue" d="M170.16,-456.327C203.892,-458.259 266.73,-461.86 305.504,-464.081"/>
<polygon fill="midnightblue" stroke="midnightblue" points="305.574,-467.591 315.758,-464.668 305.975,-460.602 305.574,-467.591"/>
</g>
<!-- Node6 -->
<g id="node6" class="node"><title>Node6</title>
<g id="a_node6"><a xlink:href="classscanpanel.html#abcd398fda4ec23590821fb7fa391f8eb" target="_top" xlink:title="check scan setup, return 1 if all the parameters are OK, or 0 and exit(1); ">
<polygon fill="white" stroke="black" points="258,-304.5 258,-323.5 422,-323.5 422,-304.5 258,-304.5"/>
<text text-anchor="middle" x="340" y="-311.5" font-family="Helvetica,sans-Serif" font-size="10.00">scanpanel::checkScanSetupIsOK</text>
</a>
</g>
</g>
<!-- Node5&#45;&gt;Node6 -->
<g id="edge5" class="edge"><title>Node5&#45;&gt;Node6</title>
<path fill="none" stroke="midnightblue" d="M204.086,-328.756C217.828,-327.253 232.85,-325.61 247.72,-323.984"/>
<polygon fill="midnightblue" stroke="midnightblue" points="248.413,-327.429 257.974,-322.862 247.652,-320.47 248.413,-327.429"/>
</g>
<!-- Node8 -->
<g id="node8" class="node"><title>Node8</title>
<g id="a_node8"><a xlink:href="classscanpanel.html#a1338695a9884249cea3397a4f75c4fe5" target="_top" xlink:title="update varlist read from external namelist file ">
<polygon fill="white" stroke="black" points="278,-380.5 278,-399.5 402,-399.5 402,-380.5 278,-380.5"/>
<text text-anchor="middle" x="340" y="-387.5" font-family="Helvetica,sans-Serif" font-size="10.00">scanpanel::updateVarlist</text>
</a>
</g>
</g>
<!-- Node5&#45;&gt;Node8 -->
<g id="edge7" class="edge"><title>Node5&#45;&gt;Node8</title>
<path fill="none" stroke="midnightblue" d="M175.259,-344.548C206.285,-355.024 252.012,-370.445 254,-371 263.08,-373.535 272.778,-375.962 282.256,-378.183"/>
<polygon fill="midnightblue" stroke="midnightblue" points="281.488,-381.598 292.017,-380.42 283.051,-374.775 281.488,-381.598"/>
</g>
<!-- Node5&#45;&gt;Node24 -->
<g id="edge23" class="edge"><title>Node5&#45;&gt;Node24</title>
<path fill="none" stroke="midnightblue" d="M189.291,-344.532C199.303,-348.034 209.524,-352.737 218,-359 240.023,-375.273 231.145,-393.917 254,-409 257.084,-411.035 260.354,-412.855 263.746,-414.482"/>
<polygon fill="midnightblue" stroke="midnightblue" points="262.391,-417.71 272.967,-418.354 265.102,-411.256 262.391,-417.71"/>
</g>
<!-- Node5&#45;&gt;Node26 -->
<g id="edge25" class="edge"><title>Node5&#45;&gt;Node26</title>
<path fill="none" stroke="midnightblue" d="M177.277,-325.448C189.955,-321.273 204.788,-316.156 218,-311 234.311,-304.634 237.375,-300.492 254,-295 261.946,-292.375 270.429,-289.997 278.846,-287.882"/>
<polygon fill="midnightblue" stroke="midnightblue" points="279.756,-291.263 288.659,-285.52 278.118,-284.457 279.756,-291.263"/>
</g>
<!-- Node5&#45;&gt;Node27 -->
<g id="edge26" class="edge"><title>Node5&#45;&gt;Node27</title>
<path fill="none" stroke="midnightblue" d="M158.073,-325.34C172.046,-313.149 196.813,-291.531 218,-273 251.24,-243.927 289.581,-210.328 314.04,-188.886"/>
<polygon fill="midnightblue" stroke="midnightblue" points="316.563,-191.329 321.775,-182.105 311.949,-186.065 316.563,-191.329"/>
</g>
<!-- Node36 -->
<g id="node36" class="node"><title>Node36</title>
<g id="a_node36"><a xlink:href="class_f_e_l_numerical.html#a6f826e9f11871164430bfe54175e8c11" target="_top" xlink:title="get the last record of Ex amplitude ">
<polygon fill="white" stroke="black" points="264,-342.5 264,-361.5 416,-361.5 416,-342.5 264,-342.5"/>
<text text-anchor="middle" x="340" y="-349.5" font-family="Helvetica,sans-Serif" font-size="10.00">FELNumerical::get_endExAmp</text>
</a>
</g>
</g>
<!-- Node5&#45;&gt;Node36 -->
<g id="edge35" class="edge"><title>Node5&#45;&gt;Node36</title>
<path fill="none" stroke="midnightblue" d="M204.086,-340.055C219.648,-341.432 236.853,-342.956 253.619,-344.44"/>
<polygon fill="midnightblue" stroke="midnightblue" points="253.714,-347.962 263.984,-345.358 254.331,-340.99 253.714,-347.962"/>
</g>
<!-- Node7 -->
<g id="node7" class="node"><title>Node7</title>
<g id="a_node7"><a xlink:href="classscanpanel.html#af24e52f96205d0d15988bb13ba8427ff" target="_top" xlink:title="check if scan parameter (string) setup is OK, return 1 if is OK, or 0; ">
<polygon fill="white" stroke="black" points="462.5,-304.5 462.5,-323.5 629.5,-323.5 629.5,-304.5 462.5,-304.5"/>
<text text-anchor="middle" x="546" y="-311.5" font-family="Helvetica,sans-Serif" font-size="10.00">scanpanel::checkScanParamIsOK</text>
</a>
</g>
</g>
<!-- Node6&#45;&gt;Node7 -->
<g id="edge6" class="edge"><title>Node6&#45;&gt;Node7</title>
<path fill="none" stroke="midnightblue" d="M422.212,-314C432.129,-314 442.32,-314 452.387,-314"/>
<polygon fill="midnightblue" stroke="midnightblue" points="452.399,-317.5 462.399,-314 452.399,-310.5 452.399,-317.5"/>
</g>
<!-- Node9 -->
<g id="node9" class="node"><title>Node9</title>
<g id="a_node9"><a xlink:href="readinput_8cpp.html#aa8e009615e0c90278ea678ee0b8bbfc7" target="_top" xlink:title="convert double into string ">
<polygon fill="white" stroke="black" points="523,-380.5 523,-399.5 569,-399.5 569,-380.5 523,-380.5"/>
<text text-anchor="middle" x="546" y="-387.5" font-family="Helvetica,sans-Serif" font-size="10.00">dbl2str</text>
</a>
</g>
</g>
<!-- Node8&#45;&gt;Node9 -->
<g id="edge8" class="edge"><title>Node8&#45;&gt;Node9</title>
<path fill="none" stroke="midnightblue" d="M402.207,-390C438.373,-390 482.73,-390 512.318,-390"/>
<polygon fill="midnightblue" stroke="midnightblue" points="512.508,-393.5 522.508,-390 512.508,-386.5 512.508,-393.5"/>
</g>
<!-- Node10 -->
<g id="node10" class="node"><title>Node10</title>
<g id="a_node10"><a xlink:href="classscanpanel.html#a892cbc5c1eeafa7be9d8ddecaee3d68e" target="_top" xlink:title="scanpanel::set_electronBeam">
<polygon fill="white" stroke="black" points="473,-592.5 473,-611.5 619,-611.5 619,-592.5 473,-592.5"/>
<text text-anchor="middle" x="546" y="-599.5" font-family="Helvetica,sans-Serif" font-size="10.00">scanpanel::set_electronBeam</text>
</a>
</g>
</g>
<!-- Node8&#45;&gt;Node10 -->
<g id="edge9" class="edge"><title>Node8&#45;&gt;Node10</title>
<path fill="none" stroke="midnightblue" d="M402.155,-396.544C410.758,-399.419 419.03,-403.431 426,-409 455.199,-432.332 443.115,-452.746 462,-485 483.662,-521.998 513.723,-562.144 531.091,-584.474"/>
<polygon fill="midnightblue" stroke="midnightblue" points="528.363,-586.666 537.288,-592.375 533.871,-582.346 528.363,-586.666"/>
</g>
<!-- Node17 -->
<g id="node17" class="node"><title>Node17</title>
<g id="a_node17"><a xlink:href="classscanpanel.html#a039ed64a56edba772f36f872d65c61d0" target="_top" xlink:title="scanpanel::set_undulator">
<polygon fill="white" stroke="black" points="483.5,-456.5 483.5,-475.5 608.5,-475.5 608.5,-456.5 483.5,-456.5"/>
<text text-anchor="middle" x="546" y="-463.5" font-family="Helvetica,sans-Serif" font-size="10.00">scanpanel::set_undulator</text>
</a>
</g>
</g>
<!-- Node8&#45;&gt;Node17 -->
<g id="edge16" class="edge"><title>Node8&#45;&gt;Node17</title>
<path fill="none" stroke="midnightblue" d="M402.092,-399.018C410.425,-401.561 418.635,-404.821 426,-409 446.234,-420.482 441.796,-435.466 462,-447 465.934,-449.246 470.115,-451.226 474.427,-452.972"/>
<polygon fill="midnightblue" stroke="midnightblue" points="473.44,-456.337 484.035,-456.433 475.813,-449.751 473.44,-456.337"/>
</g>
<!-- Node22 -->
<g id="node22" class="node"><title>Node22</title>
<g id="a_node22"><a xlink:href="classscanpanel.html#ae742a13334bed97f6e39d4dca1be16a1" target="_top" xlink:title="scanpanel::set_FELradiation">
<polygon fill="white" stroke="black" points="476,-418.5 476,-437.5 616,-437.5 616,-418.5 476,-418.5"/>
<text text-anchor="middle" x="546" y="-425.5" font-family="Helvetica,sans-Serif" font-size="10.00">scanpanel::set_FELradiation</text>
</a>
</g>
</g>
<!-- Node8&#45;&gt;Node22 -->
<g id="edge21" class="edge"><title>Node8&#45;&gt;Node22</title>
<path fill="none" stroke="midnightblue" d="M392.214,-399.54C419.981,-404.712 454.489,-411.14 483.681,-416.578"/>
<polygon fill="midnightblue" stroke="midnightblue" points="483.293,-420.066 493.764,-418.456 484.574,-413.184 483.293,-420.066"/>
</g>
<!-- Node11 -->
<g id="node11" class="node"><title>Node11</title>
<g id="a_node11"><a xlink:href="classelectron_beam.html#a787d3e61816281618f284ef3bb2e1ebb" target="_top" xlink:title="beam energy, $$ ">
<polygon fill="white" stroke="black" points="680.5,-658 680.5,-688 811.5,-688 811.5,-658 680.5,-658"/>
<text text-anchor="start" x="688.5" y="-676" font-family="Helvetica,sans-Serif" font-size="10.00">electronBeam::set_central</text>
<text text-anchor="middle" x="746" y="-665" font-family="Helvetica,sans-Serif" font-size="10.00">Energy</text>
</a>
</g>
</g>
<!-- Node10&#45;&gt;Node11 -->
<g id="edge10" class="edge"><title>Node10&#45;&gt;Node11</title>
<path fill="none" stroke="midnightblue" d="M603.429,-611.553C612.53,-614.041 621.686,-617.144 630,-621 648.144,-629.415 648.214,-638.853 666,-648 670.33,-650.227 674.895,-652.301 679.559,-654.226"/>
<polygon fill="midnightblue" stroke="midnightblue" points="678.635,-657.621 689.224,-657.964 681.16,-651.092 678.635,-657.621"/>
</g>
<!-- Node12 -->
<g id="node12" class="node"><title>Node12</title>
<g id="a_node12"><a xlink:href="classelectron_beam.html#a7e4cff020876ed5b43499b60ad1822cd" target="_top" xlink:title="rms energy spread, $$ ">
<polygon fill="white" stroke="black" points="680.5,-609 680.5,-639 811.5,-639 811.5,-609 680.5,-609"/>
<text text-anchor="start" x="688.5" y="-627" font-family="Helvetica,sans-Serif" font-size="10.00">electronBeam::set_energy</text>
<text text-anchor="middle" x="746" y="-616" font-family="Helvetica,sans-Serif" font-size="10.00">Spread</text>
</a>
</g>
</g>
<!-- Node10&#45;&gt;Node12 -->
<g id="edge11" class="edge"><title>Node10&#45;&gt;Node12</title>
<path fill="none" stroke="midnightblue" d="M619.043,-610.005C635.616,-611.846 653.281,-613.809 669.978,-615.664"/>
<polygon fill="midnightblue" stroke="midnightblue" points="669.905,-619.178 680.231,-616.803 670.678,-612.22 669.905,-619.178"/>
</g>
<!-- Node13 -->
<g id="node13" class="node"><title>Node13</title>
<g id="a_node13"><a xlink:href="classelectron_beam.html#a9e750f50d228ef648b6b607afac44c77" target="_top" xlink:title="normalized emittance in x ">
<polygon fill="white" stroke="black" points="680.5,-570.5 680.5,-589.5 811.5,-589.5 811.5,-570.5 680.5,-570.5"/>
<text text-anchor="middle" x="746" y="-577.5" font-family="Helvetica,sans-Serif" font-size="10.00">electronBeam::set_emitnx</text>
</a>
</g>
</g>
<!-- Node10&#45;&gt;Node13 -->
<g id="edge12" class="edge"><title>Node10&#45;&gt;Node13</title>
<path fill="none" stroke="midnightblue" d="M619.043,-593.995C635.616,-592.154 653.281,-590.191 669.978,-588.336"/>
<polygon fill="midnightblue" stroke="midnightblue" points="670.678,-591.78 680.231,-587.197 669.905,-584.822 670.678,-591.78"/>
</g>
<!-- Node14 -->
<g id="node14" class="node"><title>Node14</title>
<g id="a_node14"><a xlink:href="classelectron_beam.html#aacb24d39f88c45a62e5fbd5516e43bfb" target="_top" xlink:title="normalized emittance in y ">
<polygon fill="white" stroke="black" points="680.5,-532.5 680.5,-551.5 811.5,-551.5 811.5,-532.5 680.5,-532.5"/>
<text text-anchor="middle" x="746" y="-539.5" font-family="Helvetica,sans-Serif" font-size="10.00">electronBeam::set_emitny</text>
</a>
</g>
</g>
<!-- Node10&#45;&gt;Node14 -->
<g id="edge13" class="edge"><title>Node10&#45;&gt;Node14</title>
<path fill="none" stroke="midnightblue" d="M572.308,-592.49C596.245,-583.685 633.276,-570.549 666,-561 674.461,-558.531 683.499,-556.135 692.327,-553.924"/>
<polygon fill="midnightblue" stroke="midnightblue" points="693.284,-557.293 702.163,-551.512 691.617,-550.495 693.284,-557.293"/>
</g>
<!-- Node15 -->
<g id="node15" class="node"><title>Node15</title>
<g id="a_node15"><a xlink:href="classelectron_beam.html#a1e6b08af9247eca49c00af3d3c57cd6f" target="_top" xlink:title="peak current, [A] ">
<polygon fill="white" stroke="black" points="668.5,-745.5 668.5,-764.5 823.5,-764.5 823.5,-745.5 668.5,-745.5"/>
<text text-anchor="middle" x="746" y="-752.5" font-family="Helvetica,sans-Serif" font-size="10.00">electronBeam::set_peakCurrent</text>
</a>
</g>
</g>
<!-- Node10&#45;&gt;Node15 -->
<g id="edge14" class="edge"><title>Node10&#45;&gt;Node15</title>
<path fill="none" stroke="midnightblue" d="M616.084,-611.572C621.147,-614.087 625.875,-617.187 630,-621 669.324,-657.358 626.876,-699.426 666,-736 667.675,-737.565 669.455,-739.009 671.321,-740.339"/>
<polygon fill="midnightblue" stroke="midnightblue" points="669.6,-743.388 679.987,-745.476 673.17,-737.366 669.6,-743.388"/>
</g>
<!-- Node16 -->
<g id="node16" class="node"><title>Node16</title>
<g id="a_node16"><a xlink:href="classelectron_beam.html#a3c9af6b4b9f079eb078200ac4c91812f" target="_top" xlink:title="average beta function, [m] ">
<polygon fill="white" stroke="black" points="666.5,-707.5 666.5,-726.5 825.5,-726.5 825.5,-707.5 666.5,-707.5"/>
<text text-anchor="middle" x="746" y="-714.5" font-family="Helvetica,sans-Serif" font-size="10.00">electronBeam::set_avgBetaFunc</text>
</a>
</g>
</g>
<!-- Node10&#45;&gt;Node16 -->
<g id="edge15" class="edge"><title>Node10&#45;&gt;Node16</title>
<path fill="none" stroke="midnightblue" d="M614.297,-611.663C619.934,-614.137 625.275,-617.204 630,-621 659.139,-644.406 637.131,-673.261 666,-697 668.705,-699.224 671.625,-701.205 674.693,-702.969"/>
<polygon fill="midnightblue" stroke="midnightblue" points="673.161,-706.116 683.679,-707.388 676.25,-699.834 673.161,-706.116"/>
</g>
<!-- Node18 -->
<g id="node18" class="node"><title>Node18</title>
<g id="a_node18"><a xlink:href="classundulator.html#a7a27a3ad42f9d826929d68e04105c7f1" target="_top" xlink:title="peak magnetic field, [T] ">
<polygon fill="white" stroke="black" points="696.5,-494.5 696.5,-513.5 795.5,-513.5 795.5,-494.5 696.5,-494.5"/>
<text text-anchor="middle" x="746" y="-501.5" font-family="Helvetica,sans-Serif" font-size="10.00">undulator::set_field</text>
</a>
</g>
</g>
<!-- Node17&#45;&gt;Node18 -->
<g id="edge17" class="edge"><title>Node17&#45;&gt;Node18</title>
<path fill="none" stroke="midnightblue" d="M596.708,-475.54C623.966,-480.771 657.916,-487.287 686.452,-492.763"/>
<polygon fill="midnightblue" stroke="midnightblue" points="685.819,-496.206 696.299,-494.653 687.138,-489.331 685.819,-496.206"/>
</g>
<!-- Node19 -->
<g id="node19" class="node"><title>Node19</title>
<g id="a_node19"><a xlink:href="classundulator.html#a9e87429b74fd3e518da8b64ba7f5dc3e" target="_top" xlink:title="period length, [m] ">
<polygon fill="white" stroke="black" points="692.5,-456.5 692.5,-475.5 799.5,-475.5 799.5,-456.5 692.5,-456.5"/>
<text text-anchor="middle" x="746" y="-463.5" font-family="Helvetica,sans-Serif" font-size="10.00">undulator::set_period</text>
</a>
</g>
</g>
<!-- Node17&#45;&gt;Node19 -->
<g id="edge18" class="edge"><title>Node17&#45;&gt;Node19</title>
<path fill="none" stroke="midnightblue" d="M608.563,-466C632,-466 658.719,-466 682.263,-466"/>
<polygon fill="midnightblue" stroke="midnightblue" points="682.486,-469.5 692.486,-466 682.486,-462.5 682.486,-469.5"/>
</g>
<!-- Node20 -->
<g id="node20" class="node"><title>Node20</title>
<g id="a_node20"><a xlink:href="classundulator.html#a90893590b2f8011304afed43c806e217" target="_top" xlink:title="integration length in period ">
<polygon fill="white" stroke="black" points="695,-418.5 695,-437.5 797,-437.5 797,-418.5 695,-418.5"/>
<text text-anchor="middle" x="746" y="-425.5" font-family="Helvetica,sans-Serif" font-size="10.00">undulator::set_deltz</text>
</a>
</g>
</g>
<!-- Node17&#45;&gt;Node20 -->
<g id="edge19" class="edge"><title>Node17&#45;&gt;Node20</title>
<path fill="none" stroke="midnightblue" d="M596.708,-456.46C623.541,-451.31 656.859,-444.916 685.113,-439.494"/>
<polygon fill="midnightblue" stroke="midnightblue" points="686.11,-442.866 695.271,-437.544 684.791,-435.991 686.11,-442.866"/>
</g>
<!-- Node21 -->
<g id="node21" class="node"><title>Node21</title>
<g id="a_node21"><a xlink:href="classundulator.html#ab7da54eee638d6b1fbe9fba7abf68310" target="_top" xlink:title="total period number ">
<polygon fill="white" stroke="black" points="696,-380.5 696,-399.5 796,-399.5 796,-380.5 696,-380.5"/>
<text text-anchor="middle" x="746" y="-387.5" font-family="Helvetica,sans-Serif" font-size="10.00">undulator::set_num</text>
</a>
</g>
</g>
<!-- Node17&#45;&gt;Node21 -->
<g id="edge20" class="edge"><title>Node17&#45;&gt;Node21</title>
<path fill="none" stroke="midnightblue" d="M607.965,-456.433C615.652,-453.975 623.196,-450.884 630,-447 650.204,-435.466 645.86,-420.645 666,-409 672.213,-405.408 679.076,-402.493 686.087,-400.128"/>
<polygon fill="midnightblue" stroke="midnightblue" points="687.126,-403.471 695.69,-397.232 685.105,-396.769 687.126,-403.471"/>
</g>
<!-- Node23 -->
<g id="node23" class="node"><title>Node23</title>
<g id="a_node23"><a xlink:href="class_f_e_lradiation.html#a05d0489861b497819884e81019c546ca" target="_top" xlink:title="central wavelength, [m] ">
<polygon fill="white" stroke="black" points="673,-342.5 673,-361.5 819,-361.5 819,-342.5 673,-342.5"/>
<text text-anchor="middle" x="746" y="-349.5" font-family="Helvetica,sans-Serif" font-size="10.00">FELradiation::set_wavelength</text>
</a>
</g>
</g>
<!-- Node22&#45;&gt;Node23 -->
<g id="edge22" class="edge"><title>Node22&#45;&gt;Node23</title>
<path fill="none" stroke="midnightblue" d="M607.965,-418.433C615.652,-415.975 623.196,-412.884 630,-409 650.204,-397.466 645.86,-382.645 666,-371 669.883,-368.755 674.02,-366.774 678.289,-365.027"/>
<polygon fill="midnightblue" stroke="midnightblue" points="679.597,-368.276 687.794,-361.564 677.2,-361.699 679.597,-368.276"/>
</g>
<!-- Node25 -->
<g id="node25" class="node"><title>Node25</title>
<g id="a_node25"><a xlink:href="methods_8cpp.html#a2096e6ed7535e8e7125cfb93687b8891" target="_top" xlink:title="return &lt;cos(h*psi[])&gt; ">
<polygon fill="white" stroke="black" points="517.5,-630.5 517.5,-649.5 574.5,-649.5 574.5,-630.5 517.5,-630.5"/>
<text text-anchor="middle" x="546" y="-637.5" font-family="Helvetica,sans-Serif" font-size="10.00">normrand</text>
</a>
</g>
</g>
<!-- Node24&#45;&gt;Node25 -->
<g id="edge24" class="edge"><title>Node24&#45;&gt;Node25</title>
<path fill="none" stroke="midnightblue" d="M413.368,-437.599C418.001,-440.132 422.288,-443.228 426,-447 481.395,-503.283 406.749,-564.575 462,-621 473.708,-632.957 491.291,-638.054 507.264,-640.021"/>
<polygon fill="midnightblue" stroke="midnightblue" points="507.186,-643.527 517.45,-640.901 507.789,-636.553 507.186,-643.527"/>
</g>
<!-- Node28 -->
<g id="node28" class="node"><title>Node28</title>
<g id="a_node28"><a xlink:href="classefield.html#acd868760a36c819bdddeffc734ddd21d" target="_top" xlink:title="efield::get_real">
<polygon fill="white" stroke="black" points="506,-114.5 506,-133.5 586,-133.5 586,-114.5 506,-114.5"/>
<text text-anchor="middle" x="546" y="-121.5" font-family="Helvetica,sans-Serif" font-size="10.00">efield::get_real</text>
</a>
</g>
</g>
<!-- Node27&#45;&gt;Node28 -->
<g id="edge27" class="edge"><title>Node27&#45;&gt;Node28</title>
<path fill="none" stroke="midnightblue" d="M412.349,-151.961C439.918,-146.15 470.78,-139.644 495.794,-134.372"/>
<polygon fill="midnightblue" stroke="midnightblue" points="496.713,-137.755 505.776,-132.268 495.269,-130.906 496.713,-137.755"/>
</g>
<!-- Node29 -->
<g id="node29" class="node"><title>Node29</title>
<g id="a_node29"><a xlink:href="classefield.html#a532bb6e564552fc3ddd046e591da4a5d" target="_top" xlink:title="efield::get_imag">
<polygon fill="white" stroke="black" points="503,-76.5 503,-95.5 589,-95.5 589,-76.5 503,-76.5"/>
<text text-anchor="middle" x="546" y="-83.5" font-family="Helvetica,sans-Serif" font-size="10.00">efield::get_imag</text>
</a>
</g>
</g>
<!-- Node27&#45;&gt;Node29 -->
<g id="edge28" class="edge"><title>Node27&#45;&gt;Node29</title>
<path fill="none" stroke="midnightblue" d="M373.996,-151.824C389.866,-144.338 409.075,-135 426,-126 442.355,-117.303 444.775,-111.811 462,-105 471.792,-101.128 482.562,-97.9395 493.006,-95.3542"/>
<polygon fill="midnightblue" stroke="midnightblue" points="493.931,-98.7326 502.878,-93.0576 492.345,-91.9146 493.931,-98.7326"/>
</g>
<!-- Node30 -->
<g id="node30" class="node"><title>Node30</title>
<g id="a_node30"><a xlink:href="methods_8cpp.html#a7ebc760ceffb733e04b5ad7cb8fa703a" target="_top" xlink:title="return &lt;sin(h*psi[])&gt; ">
<polygon fill="white" stroke="black" points="515,-38.5 515,-57.5 577,-57.5 577,-38.5 515,-38.5"/>
<text text-anchor="middle" x="546" y="-45.5" font-family="Helvetica,sans-Serif" font-size="10.00">meancosh</text>
</a>
</g>
</g>
<!-- Node27&#45;&gt;Node30 -->
<g id="edge29" class="edge"><title>Node27&#45;&gt;Node30</title>
<path fill="none" stroke="midnightblue" d="M384.134,-151.941C398.545,-145.49 413.98,-136.891 426,-126 448.763,-105.374 437.07,-84.9478 462,-67 474.26,-58.1734 489.959,-53.3661 504.397,-50.7757"/>
<polygon fill="midnightblue" stroke="midnightblue" points="505.243,-54.1884 514.62,-49.2555 504.214,-47.2645 505.243,-54.1884"/>
</g>
<!-- Node31 -->
<g id="node31" class="node"><title>Node31</title>
<g id="a_node31"><a xlink:href="methods_8cpp.html#a9d3b9594d8625cd4d4a7fcf738c2536d" target="_top" xlink:title="METHODS_H_. ">
<polygon fill="white" stroke="black" points="516.5,-0.5 516.5,-19.5 575.5,-19.5 575.5,-0.5 516.5,-0.5"/>
<text text-anchor="middle" x="546" y="-7.5" font-family="Helvetica,sans-Serif" font-size="10.00">meansinh</text>
</a>
</g>
</g>
<!-- Node27&#45;&gt;Node31 -->
<g id="edge30" class="edge"><title>Node27&#45;&gt;Node31</title>
<path fill="none" stroke="midnightblue" d="M388.466,-151.805C402.023,-145.578 415.854,-137.148 426,-126 456.951,-91.9915 427.436,-59.3293 462,-29 474.007,-18.4641 490.667,-13.4374 505.911,-11.1463"/>
<polygon fill="midnightblue" stroke="midnightblue" points="506.632,-14.5865 516.165,-9.96312 505.83,-7.63263 506.632,-14.5865"/>
</g>
<!-- Node32 -->
<g id="node32" class="node"><title>Node32</title>
<g id="a_node32"><a xlink:href="class_f_e_l_numerical.html#a07004555a6d926435e5cfe81ea0fce7d" target="_top" xlink:title="FELNumerical::odef3">
<polygon fill="white" stroke="black" points="491.5,-266.5 491.5,-285.5 600.5,-285.5 600.5,-266.5 491.5,-266.5"/>
<text text-anchor="middle" x="546" y="-273.5" font-family="Helvetica,sans-Serif" font-size="10.00">FELNumerical::odef3</text>
</a>
</g>
</g>
<!-- Node27&#45;&gt;Node32 -->
<g id="edge31" class="edge"><title>Node27&#45;&gt;Node32</title>
<path fill="none" stroke="midnightblue" d="M356.806,-182.219C378.659,-202.396 420.16,-237.696 462,-257 468.132,-259.829 474.72,-262.254 481.404,-264.328"/>
<polygon fill="midnightblue" stroke="midnightblue" points="480.649,-267.752 491.225,-267.123 482.565,-261.02 480.649,-267.752"/>
</g>
<!-- Node33 -->
<g id="node33" class="node"><title>Node33</title>
<g id="a_node33"><a xlink:href="class_f_e_l_numerical.html#ac59b8fd8eb868f25b9e599ab2f99b01e" target="_top" xlink:title="FELNumerical::odef1">
<polygon fill="white" stroke="black" points="491.5,-228.5 491.5,-247.5 600.5,-247.5 600.5,-228.5 491.5,-228.5"/>
<text text-anchor="middle" x="546" y="-235.5" font-family="Helvetica,sans-Serif" font-size="10.00">FELNumerical::odef1</text>
</a>
</g>
</g>
<!-- Node27&#45;&gt;Node33 -->
<g id="edge32" class="edge"><title>Node27&#45;&gt;Node33</title>
<path fill="none" stroke="midnightblue" d="M371.742,-182.049C395.85,-193.398 430.482,-208.714 462,-219 469.793,-221.543 478.104,-223.876 486.343,-225.971"/>
<polygon fill="midnightblue" stroke="midnightblue" points="485.774,-229.434 496.318,-228.405 487.434,-222.634 485.774,-229.434"/>
</g>
<!-- Node34 -->
<g id="node34" class="node"><title>Node34</title>
<g id="a_node34"><a xlink:href="class_f_e_l_numerical.html#a50847862c4edf2851f4422eb3ff68dca" target="_top" xlink:title="FELNumerical::odef2">
<polygon fill="white" stroke="black" points="491.5,-190.5 491.5,-209.5 600.5,-209.5 600.5,-190.5 491.5,-190.5"/>
<text text-anchor="middle" x="546" y="-197.5" font-family="Helvetica,sans-Serif" font-size="10.00">FELNumerical::odef2</text>
</a>
</g>
</g>
<!-- Node27&#45;&gt;Node34 -->
<g id="edge33" class="edge"><title>Node27&#45;&gt;Node34</title>
<path fill="none" stroke="midnightblue" d="M418.124,-179.476C438.973,-182.849 461.298,-186.46 481.319,-189.699"/>
<polygon fill="midnightblue" stroke="midnightblue" points="480.821,-193.163 491.251,-191.305 481.939,-186.253 480.821,-193.163"/>
</g>
<!-- Node35 -->
<g id="node35" class="node"><title>Node35</title>
<g id="a_node35"><a xlink:href="class_f_e_l_numerical.html#a9902301071874ffdd433d0f6b52fe711" target="_top" xlink:title="import particle distribution ">
<polygon fill="white" stroke="black" points="477.5,-152.5 477.5,-171.5 614.5,-171.5 614.5,-152.5 477.5,-152.5"/>
<text text-anchor="middle" x="546" y="-159.5" font-family="Helvetica,sans-Serif" font-size="10.00">FELNumerical::dumpParfile</text>
</a>
</g>
</g>
<!-- Node27&#45;&gt;Node35 -->
<g id="edge34" class="edge"><title>Node27&#45;&gt;Node35</title>
<path fill="none" stroke="midnightblue" d="M418.124,-165.11C434.136,-164.717 451.019,-164.303 467.06,-163.91"/>
<polygon fill="midnightblue" stroke="midnightblue" points="467.552,-167.399 477.463,-163.655 467.38,-160.401 467.552,-167.399"/>
</g>
<!-- Node37 -->
<g id="node37" class="node"><title>Node37</title>
<g id="a_node37"><a xlink:href="classefield.html#a278694fcf6d0066dcc3ad781478c4490" target="_top" xlink:title="efield::get_amplitude">
<polygon fill="white" stroke="black" points="492.5,-342.5 492.5,-361.5 599.5,-361.5 599.5,-342.5 492.5,-342.5"/>
<text text-anchor="middle" x="546" y="-349.5" font-family="Helvetica,sans-Serif" font-size="10.00">efield::get_amplitude</text>
</a>
</g>
</g>
<!-- Node36&#45;&gt;Node37 -->
<g id="edge36" class="edge"><title>Node36&#45;&gt;Node37</title>
<path fill="none" stroke="midnightblue" d="M416.093,-352C437.865,-352 461.398,-352 482.324,-352"/>
<polygon fill="midnightblue" stroke="midnightblue" points="482.368,-355.5 492.368,-352 482.368,-348.5 482.368,-355.5"/>
</g>
<!-- Node42 -->
<g id="node42" class="node"><title>Node42</title>
<g id="a_node42"><a xlink:href="classefield.html#a7717cd5167090edf95e3bc4900ab82c4" target="_top" xlink:title="efield::get_amplitude2">
<polygon fill="white" stroke="black" points="284,-97.5 284,-116.5 396,-116.5 396,-97.5 284,-97.5"/>
<text text-anchor="middle" x="340" y="-104.5" font-family="Helvetica,sans-Serif" font-size="10.00">efield::get_amplitude2</text>
</a>
</g>
</g>
<!-- Node41&#45;&gt;Node42 -->
<g id="edge44" class="edge"><title>Node41&#45;&gt;Node42</title>
<path fill="none" stroke="midnightblue" d="M217.676,-107C235.995,-107 255.639,-107 273.67,-107"/>
<polygon fill="midnightblue" stroke="midnightblue" points="273.79,-110.5 283.79,-107 273.79,-103.5 273.79,-110.5"/>
</g>
</g>
</svg>
