<?xml version="1.0" encoding="UTF-8" standalone="no"?>
<!DOCTYPE svg PUBLIC "-//W3C//DTD SVG 1.1//EN"
 "http://www.w3.org/Graphics/SVG/1.1/DTD/svg11.dtd">
<!-- Generated by graphviz version 2.36.0 (20140111.2315)
 -->
<!-- Title: main.cpp Pages: 1 -->
<svg width="433pt" height="252pt"
 viewBox="0.00 0.00 433.00 252.00" xmlns="http://www.w3.org/2000/svg" xmlns:xlink="http://www.w3.org/1999/xlink">
<g id="graph0" class="graph" transform="scale(1 1) rotate(0) translate(4 248)">
<title>main.cpp</title>
<polygon fill="white" stroke="none" points="-4,4 -4,-248 429,-248 429,4 -4,4"/>
<!-- Node1 -->
<g id="node1" class="node"><title>Node1</title>
<polygon fill="#bfbfbf" stroke="black" points="162,-224.5 162,-243.5 218,-243.5 218,-224.5 162,-224.5"/>
<text text-anchor="middle" x="190" y="-231.5" font-family="Helvetica,sans-Serif" font-size="10.00">main.cpp</text>
</g>
<!-- Node2 -->
<g id="node2" class="node"><title>Node2</title>
<g id="a_node2"><a xlink:href="readinput_8h.html" target="_top" xlink:title="readinput.h">
<polygon fill="white" stroke="black" points="-0.5,-168.5 -0.5,-187.5 64.5,-187.5 64.5,-168.5 -0.5,-168.5"/>
<text text-anchor="middle" x="32" y="-175.5" font-family="Helvetica,sans-Serif" font-size="10.00">readinput.h</text>
</a>
</g>
</g>
<!-- Node1&#45;&gt;Node2 -->
<g id="edge1" class="edge"><title>Node1&#45;&gt;Node2</title>
<path fill="none" stroke="midnightblue" d="M164.964,-224.444C138.384,-215.359 96.1912,-200.939 66.4766,-190.783"/>
<polygon fill="midnightblue" stroke="midnightblue" points="67.513,-187.439 56.9184,-187.516 65.2491,-194.062 67.513,-187.439"/>
</g>
<!-- Node4 -->
<g id="node4" class="node"><title>Node4</title>
<polygon fill="white" stroke="#bfbfbf" points="60,-112.5 60,-131.5 110,-131.5 110,-112.5 60,-112.5"/>
<text text-anchor="middle" x="85" y="-119.5" font-family="Helvetica,sans-Serif" font-size="10.00">fstream</text>
</g>
<!-- Node1&#45;&gt;Node4 -->
<g id="edge20" class="edge"><title>Node1&#45;&gt;Node4</title>
<path fill="none" stroke="midnightblue" d="M180.677,-224.193C171.27,-215.233 156.401,-200.874 144,-188 128.388,-171.793 111.157,-152.658 99.3692,-139.364"/>
<polygon fill="midnightblue" stroke="midnightblue" points="101.722,-136.741 92.4803,-131.561 96.4748,-141.374 101.722,-136.741"/>
</g>
<!-- Node6 -->
<g id="node6" class="node"><title>Node6</title>
<g id="a_node6"><a xlink:href="elements_8h.html" target="_top" xlink:title="elements.h">
<polygon fill="white" stroke="black" points="128.5,-112.5 128.5,-131.5 193.5,-131.5 193.5,-112.5 128.5,-112.5"/>
<text text-anchor="middle" x="161" y="-119.5" font-family="Helvetica,sans-Serif" font-size="10.00">elements.h</text>
</a>
</g>
</g>
<!-- Node1&#45;&gt;Node6 -->
<g id="edge12" class="edge"><title>Node1&#45;&gt;Node6</title>
<path fill="none" stroke="midnightblue" d="M178.734,-224.427C169.034,-216.275 155.721,-203.046 150,-188 144.223,-172.805 148.242,-154.463 152.966,-141.143"/>
<polygon fill="midnightblue" stroke="midnightblue" points="156.281,-142.279 156.731,-131.693 149.778,-139.687 156.281,-142.279"/>
</g>
<!-- Node9 -->
<g id="node9" class="node"><title>Node9</title>
<g id="a_node9"><a xlink:href="methods_8h.html" target="_top" xlink:title="methods.h">
<polygon fill="white" stroke="black" points="159,-168.5 159,-187.5 221,-187.5 221,-168.5 159,-168.5"/>
<text text-anchor="middle" x="190" y="-175.5" font-family="Helvetica,sans-Serif" font-size="10.00">methods.h</text>
</a>
</g>
</g>
<!-- Node1&#45;&gt;Node9 -->
<g id="edge13" class="edge"><title>Node1&#45;&gt;Node9</title>
<path fill="none" stroke="midnightblue" d="M190,-224.083C190,-217.006 190,-206.861 190,-197.986"/>
<polygon fill="midnightblue" stroke="midnightblue" points="193.5,-197.751 190,-187.751 186.5,-197.751 193.5,-197.751"/>
</g>
<!-- Node10 -->
<g id="node10" class="node"><title>Node10</title>
<polygon fill="white" stroke="#bfbfbf" points="239.5,-168.5 239.5,-187.5 284.5,-187.5 284.5,-168.5 239.5,-168.5"/>
<text text-anchor="middle" x="262" y="-175.5" font-family="Helvetica,sans-Serif" font-size="10.00">cstdlib</text>
</g>
<!-- Node1&#45;&gt;Node10 -->
<g id="edge18" class="edge"><title>Node1&#45;&gt;Node10</title>
<path fill="none" stroke="midnightblue" d="M201.568,-224.324C212.42,-216.185 228.881,-203.839 241.883,-194.087"/>
<polygon fill="midnightblue" stroke="midnightblue" points="244.321,-196.634 250.221,-187.834 240.121,-191.034 244.321,-196.634"/>
</g>
<!-- Node11 -->
<g id="node11" class="node"><title>Node11</title>
<polygon fill="white" stroke="#bfbfbf" points="303,-168.5 303,-187.5 357,-187.5 357,-168.5 303,-168.5"/>
<text text-anchor="middle" x="330" y="-175.5" font-family="Helvetica,sans-Serif" font-size="10.00">iostream</text>
</g>
<!-- Node1&#45;&gt;Node11 -->
<g id="edge19" class="edge"><title>Node1&#45;&gt;Node11</title>
<path fill="none" stroke="midnightblue" d="M212.183,-224.444C235.428,-215.478 272.149,-201.314 298.415,-191.183"/>
<polygon fill="midnightblue" stroke="midnightblue" points="299.85,-194.381 307.92,-187.516 297.331,-187.85 299.85,-194.381"/>
</g>
<!-- Node12 -->
<g id="node12" class="node"><title>Node12</title>
<polygon fill="white" stroke="#bfbfbf" points="375,-168.5 375,-187.5 425,-187.5 425,-168.5 375,-168.5"/>
<text text-anchor="middle" x="400" y="-175.5" font-family="Helvetica,sans-Serif" font-size="10.00">iomanip</text>
</g>
<!-- Node1&#45;&gt;Node12 -->
<g id="edge21" class="edge"><title>Node1&#45;&gt;Node12</title>
<path fill="none" stroke="midnightblue" d="M218.062,-225.903C250.912,-217.578 307.214,-203.257 364.76,-188.308"/>
<polygon fill="midnightblue" stroke="midnightblue" points="365.958,-191.612 374.755,-185.708 364.196,-184.838 365.958,-191.612"/>
</g>
<!-- Node3 -->
<g id="node3" class="node"><title>Node3</title>
<polygon fill="white" stroke="#bfbfbf" points="96.5,-0.5 96.5,-19.5 137.5,-19.5 137.5,-0.5 96.5,-0.5"/>
<text text-anchor="middle" x="117" y="-7.5" font-family="Helvetica,sans-Serif" font-size="10.00">string</text>
</g>
<!-- Node2&#45;&gt;Node3 -->
<g id="edge2" class="edge"><title>Node2&#45;&gt;Node3</title>
<path fill="none" stroke="midnightblue" d="M27.1241,-168.372C22.4412,-159.552 15.6924,-145.299 13,-132 8.81937,-111.351 16.1742,-59.9288 19,-56 34.8315,-33.9891 64.1132,-22.4805 86.561,-16.6359"/>
<polygon fill="midnightblue" stroke="midnightblue" points="87.3929,-20.0358 96.3211,-14.3316 85.7844,-13.2231 87.3929,-20.0358"/>
</g>
<!-- Node2&#45;&gt;Node4 -->
<g id="edge3" class="edge"><title>Node2&#45;&gt;Node4</title>
<path fill="none" stroke="midnightblue" d="M40.7519,-168.083C48.4697,-160.22 59.9047,-148.569 69.2165,-139.081"/>
<polygon fill="midnightblue" stroke="midnightblue" points="71.9042,-141.34 76.411,-131.751 66.9084,-136.436 71.9042,-141.34"/>
</g>
<!-- Node5 -->
<g id="node5" class="node"><title>Node5</title>
<polygon fill="white" stroke="#bfbfbf" points="28.5,-56.5 28.5,-75.5 63.5,-75.5 63.5,-56.5 28.5,-56.5"/>
<text text-anchor="middle" x="46" y="-63.5" font-family="Helvetica,sans-Serif" font-size="10.00">map</text>
</g>
<!-- Node2&#45;&gt;Node5 -->
<g id="edge4" class="edge"><title>Node2&#45;&gt;Node5</title>
<path fill="none" stroke="midnightblue" d="M27.5217,-168.498C21.5321,-155.997 12.2918,-131.979 18,-112 20.9019,-101.844 26.8316,-91.747 32.4901,-83.6991"/>
<polygon fill="midnightblue" stroke="midnightblue" points="35.3756,-85.6853 38.5876,-75.5891 29.7806,-81.4786 35.3756,-85.6853"/>
</g>
<!-- Node2&#45;&gt;Node6 -->
<g id="edge5" class="edge"><title>Node2&#45;&gt;Node6</title>
<path fill="none" stroke="midnightblue" d="M52.4404,-168.444C73.6704,-159.557 107.099,-145.563 131.255,-135.451"/>
<polygon fill="midnightblue" stroke="midnightblue" points="132.782,-138.606 140.655,-131.516 130.079,-132.149 132.782,-138.606"/>
</g>
<!-- Node7 -->
<g id="node7" class="node"><title>Node7</title>
<g id="a_node7"><a xlink:href="constants_8h.html" target="_top" xlink:title="constants.h">
<polygon fill="white" stroke="black" points="145,-56.5 145,-75.5 213,-75.5 213,-56.5 145,-56.5"/>
<text text-anchor="middle" x="179" y="-63.5" font-family="Helvetica,sans-Serif" font-size="10.00">constants.h</text>
</a>
</g>
</g>
<!-- Node2&#45;&gt;Node7 -->
<g id="edge11" class="edge"><title>Node2&#45;&gt;Node7</title>
<path fill="none" stroke="midnightblue" d="M32.1321,-168.193C32.8142,-154.411 36.1193,-127.702 51,-112 72.9352,-88.8546 107.465,-77.6044 135.135,-72.1412"/>
<polygon fill="midnightblue" stroke="midnightblue" points="135.756,-75.5858 144.983,-70.379 134.523,-68.6953 135.756,-75.5858"/>
</g>
<!-- Node6&#45;&gt;Node3 -->
<g id="edge6" class="edge"><title>Node6&#45;&gt;Node3</title>
<path fill="none" stroke="midnightblue" d="M155.415,-112.328C149.9,-103.474 141.512,-89.1943 136,-76 129.627,-60.7446 124.522,-42.6357 121.215,-29.4114"/>
<polygon fill="midnightblue" stroke="midnightblue" points="124.604,-28.5325 118.872,-19.6218 117.796,-30.1619 124.604,-28.5325"/>
</g>
<!-- Node6&#45;&gt;Node5 -->
<g id="edge7" class="edge"><title>Node6&#45;&gt;Node5</title>
<path fill="none" stroke="midnightblue" d="M142.778,-112.444C123.995,-103.624 94.4994,-89.7736 73.0047,-79.6805"/>
<polygon fill="midnightblue" stroke="midnightblue" points="74.2984,-76.4213 63.759,-75.339 71.3231,-82.7576 74.2984,-76.4213"/>
</g>
<!-- Node6&#45;&gt;Node7 -->
<g id="edge8" class="edge"><title>Node6&#45;&gt;Node7</title>
<path fill="none" stroke="midnightblue" d="M163.972,-112.083C166.384,-104.849 169.864,-94.4087 172.868,-85.3968"/>
<polygon fill="midnightblue" stroke="midnightblue" points="176.241,-86.3447 176.083,-75.7511 169.6,-84.1311 176.241,-86.3447"/>
</g>
<!-- Node7&#45;&gt;Node3 -->
<g id="edge10" class="edge"><title>Node7&#45;&gt;Node3</title>
<path fill="none" stroke="midnightblue" d="M169.039,-56.324C159.873,-48.3414 146.063,-36.3128 134.972,-26.6529"/>
<polygon fill="midnightblue" stroke="midnightblue" points="136.982,-23.7624 127.143,-19.8339 132.385,-29.041 136.982,-23.7624"/>
</g>
<!-- Node8 -->
<g id="node8" class="node"><title>Node8</title>
<polygon fill="white" stroke="#bfbfbf" points="157,-0.5 157,-19.5 201,-19.5 201,-0.5 157,-0.5"/>
<text text-anchor="middle" x="179" y="-7.5" font-family="Helvetica,sans-Serif" font-size="10.00">vector</text>
</g>
<!-- Node7&#45;&gt;Node8 -->
<g id="edge9" class="edge"><title>Node7&#45;&gt;Node8</title>
<path fill="none" stroke="midnightblue" d="M179,-56.083C179,-49.0059 179,-38.8611 179,-29.9865"/>
<polygon fill="midnightblue" stroke="midnightblue" points="182.5,-29.751 179,-19.7511 175.5,-29.7511 182.5,-29.751"/>
</g>
<!-- Node9&#45;&gt;Node3 -->
<g id="edge17" class="edge"><title>Node9&#45;&gt;Node3</title>
<path fill="none" stroke="midnightblue" d="M196.669,-168.324C211.933,-147.333 246.282,-92.825 222,-56 213.346,-42.8758 175.144,-28.7494 147.309,-19.895"/>
<polygon fill="midnightblue" stroke="midnightblue" points="148.185,-16.5022 137.597,-16.883 146.111,-23.1881 148.185,-16.5022"/>
</g>
<!-- Node9&#45;&gt;Node4 -->
<g id="edge16" class="edge"><title>Node9&#45;&gt;Node4</title>
<path fill="none" stroke="midnightblue" d="M173.13,-168.324C156.291,-159.664 130.193,-146.242 110.762,-136.249"/>
<polygon fill="midnightblue" stroke="midnightblue" points="112.322,-133.116 101.828,-131.655 109.12,-139.341 112.322,-133.116"/>
</g>
<!-- Node9&#45;&gt;Node6 -->
<g id="edge15" class="edge"><title>Node9&#45;&gt;Node6</title>
<path fill="none" stroke="midnightblue" d="M185.211,-168.083C181.242,-160.691 175.475,-149.953 170.565,-140.811"/>
<polygon fill="midnightblue" stroke="midnightblue" points="173.514,-138.905 165.7,-131.751 167.347,-142.217 173.514,-138.905"/>
</g>
<!-- Node9&#45;&gt;Node7 -->
<g id="edge14" class="edge"><title>Node9&#45;&gt;Node7</title>
<path fill="none" stroke="midnightblue" d="M193.995,-168.105C199.112,-155.526 206.781,-131.859 202,-112 199.693,-102.418 194.983,-92.5813 190.422,-84.5579"/>
<polygon fill="midnightblue" stroke="midnightblue" points="193.289,-82.537 185.105,-75.8095 187.308,-86.1727 193.289,-82.537"/>
</g>
</g>
</svg>
