<?xml version="1.0" encoding="UTF-8" standalone="no"?>
<!DOCTYPE svg PUBLIC "-//W3C//DTD SVG 1.1//EN"
 "http://www.w3.org/Graphics/SVG/1.1/DTD/svg11.dtd">
<!-- Generated by graphviz version 2.36.0 (20140111.2315)
 -->
<!-- Title: methods.h Pages: 1 -->
<svg width="266pt" height="196pt"
 viewBox="0.00 0.00 266.00 196.00" xmlns="http://www.w3.org/2000/svg" xmlns:xlink="http://www.w3.org/1999/xlink">
<g id="graph0" class="graph" transform="scale(1 1) rotate(0) translate(4 192)">
<title>methods.h</title>
<polygon fill="white" stroke="none" points="-4,4 -4,-192 262,-192 262,4 -4,4"/>
<!-- Node1 -->
<g id="node1" class="node"><title>Node1</title>
<polygon fill="#bfbfbf" stroke="black" points="95,-168.5 95,-187.5 157,-187.5 157,-168.5 95,-168.5"/>
<text text-anchor="middle" x="126" y="-175.5" font-family="Helvetica,sans-Serif" font-size="10.00">methods.h</text>
</g>
<!-- Node2 -->
<g id="node2" class="node"><title>Node2</title>
<g id="a_node2"><a xlink:href="constants_8h.html" target="_top" xlink:title="constants.h">
<polygon fill="white" stroke="black" points="0,-56.5 0,-75.5 68,-75.5 68,-56.5 0,-56.5"/>
<text text-anchor="middle" x="34" y="-63.5" font-family="Helvetica,sans-Serif" font-size="10.00">constants.h</text>
</a>
</g>
</g>
<!-- Node1&#45;&gt;Node2 -->
<g id="edge1" class="edge"><title>Node1&#45;&gt;Node2</title>
<path fill="none" stroke="midnightblue" d="M116.858,-168.378C107.686,-159.563 93.3307,-145.313 82,-132 68.703,-116.376 54.933,-97.3897 45.5703,-83.9818"/>
<polygon fill="midnightblue" stroke="midnightblue" points="48.4144,-81.941 39.8524,-75.7005 42.6541,-85.9182 48.4144,-81.941"/>
</g>
<!-- Node4 -->
<g id="node4" class="node"><title>Node4</title>
<polygon fill="white" stroke="#bfbfbf" points="75.5,-0.5 75.5,-19.5 116.5,-19.5 116.5,-0.5 75.5,-0.5"/>
<text text-anchor="middle" x="96" y="-7.5" font-family="Helvetica,sans-Serif" font-size="10.00">string</text>
</g>
<!-- Node1&#45;&gt;Node4 -->
<g id="edge9" class="edge"><title>Node1&#45;&gt;Node4</title>
<path fill="none" stroke="midnightblue" d="M123.675,-168.421C121.285,-159.402 117.56,-144.775 115,-132 107.784,-95.985 101.655,-53.483 98.4323,-29.645"/>
<polygon fill="midnightblue" stroke="midnightblue" points="101.878,-29.0042 97.0914,-19.5522 94.939,-29.9261 101.878,-29.0042"/>
</g>
<!-- Node5 -->
<g id="node5" class="node"><title>Node5</title>
<g id="a_node5"><a xlink:href="elements_8h.html" target="_top" xlink:title="elements.h">
<polygon fill="white" stroke="black" points="124.5,-112.5 124.5,-131.5 189.5,-131.5 189.5,-112.5 124.5,-112.5"/>
<text text-anchor="middle" x="157" y="-119.5" font-family="Helvetica,sans-Serif" font-size="10.00">elements.h</text>
</a>
</g>
</g>
<!-- Node1&#45;&gt;Node5 -->
<g id="edge4" class="edge"><title>Node1&#45;&gt;Node5</title>
<path fill="none" stroke="midnightblue" d="M131.119,-168.083C135.408,-160.613 141.658,-149.724 146.942,-140.52"/>
<polygon fill="midnightblue" stroke="midnightblue" points="150.033,-142.166 151.976,-131.751 143.962,-138.681 150.033,-142.166"/>
</g>
<!-- Node7 -->
<g id="node7" class="node"><title>Node7</title>
<polygon fill="white" stroke="#bfbfbf" points="208,-112.5 208,-131.5 258,-131.5 258,-112.5 208,-112.5"/>
<text text-anchor="middle" x="233" y="-119.5" font-family="Helvetica,sans-Serif" font-size="10.00">fstream</text>
</g>
<!-- Node1&#45;&gt;Node7 -->
<g id="edge8" class="edge"><title>Node1&#45;&gt;Node7</title>
<path fill="none" stroke="midnightblue" d="M143.191,-168.324C160.351,-159.664 186.946,-146.242 206.747,-136.249"/>
<polygon fill="midnightblue" stroke="midnightblue" points="208.501,-139.285 215.851,-131.655 205.347,-133.035 208.501,-139.285"/>
</g>
<!-- Node3 -->
<g id="node3" class="node"><title>Node3</title>
<polygon fill="white" stroke="#bfbfbf" points="12,-0.5 12,-19.5 56,-19.5 56,-0.5 12,-0.5"/>
<text text-anchor="middle" x="34" y="-7.5" font-family="Helvetica,sans-Serif" font-size="10.00">vector</text>
</g>
<!-- Node2&#45;&gt;Node3 -->
<g id="edge2" class="edge"><title>Node2&#45;&gt;Node3</title>
<path fill="none" stroke="midnightblue" d="M34,-56.083C34,-49.0059 34,-38.8611 34,-29.9865"/>
<polygon fill="midnightblue" stroke="midnightblue" points="37.5001,-29.751 34,-19.7511 30.5001,-29.7511 37.5001,-29.751"/>
</g>
<!-- Node2&#45;&gt;Node4 -->
<g id="edge3" class="edge"><title>Node2&#45;&gt;Node4</title>
<path fill="none" stroke="midnightblue" d="M43.9614,-56.324C53.1266,-48.3414 66.9372,-36.3128 78.0282,-26.6529"/>
<polygon fill="midnightblue" stroke="midnightblue" points="80.6153,-29.041 85.8574,-19.8339 76.0178,-23.7624 80.6153,-29.041"/>
</g>
<!-- Node5&#45;&gt;Node2 -->
<g id="edge7" class="edge"><title>Node5&#45;&gt;Node2</title>
<path fill="none" stroke="midnightblue" d="M137.51,-112.444C117.358,-103.596 85.6771,-89.6875 62.6692,-79.5865"/>
<polygon fill="midnightblue" stroke="midnightblue" points="63.962,-76.3316 53.3985,-75.5164 61.148,-82.7411 63.962,-76.3316"/>
</g>
<!-- Node5&#45;&gt;Node4 -->
<g id="edge5" class="edge"><title>Node5&#45;&gt;Node4</title>
<path fill="none" stroke="midnightblue" d="M152.213,-112.368C142.236,-94.376 119.042,-52.5503 105.775,-28.6267"/>
<polygon fill="midnightblue" stroke="midnightblue" points="108.675,-26.6393 100.764,-19.5914 102.553,-30.0342 108.675,-26.6393"/>
</g>
<!-- Node6 -->
<g id="node6" class="node"><title>Node6</title>
<polygon fill="white" stroke="#bfbfbf" points="162.5,-56.5 162.5,-75.5 197.5,-75.5 197.5,-56.5 162.5,-56.5"/>
<text text-anchor="middle" x="180" y="-63.5" font-family="Helvetica,sans-Serif" font-size="10.00">map</text>
</g>
<!-- Node5&#45;&gt;Node6 -->
<g id="edge6" class="edge"><title>Node5&#45;&gt;Node6</title>
<path fill="none" stroke="midnightblue" d="M160.798,-112.083C163.913,-104.77 168.423,-94.1814 172.289,-85.1034"/>
<polygon fill="midnightblue" stroke="midnightblue" points="175.574,-86.3229 176.273,-75.7511 169.134,-83.5798 175.574,-86.3229"/>
</g>
</g>
</svg>
