<?xml version="1.0" encoding="UTF-8" standalone="no"?>
<!DOCTYPE svg PUBLIC "-//W3C//DTD SVG 1.1//EN"
 "http://www.w3.org/Graphics/SVG/1.1/DTD/svg11.dtd">
<!-- Generated by graphviz version 2.36.0 (20140111.2315)
 -->
<!-- Title: methods.cpp Pages: 1 -->
<svg width="780pt" height="252pt"
 viewBox="0.00 0.00 779.72 252.00" xmlns="http://www.w3.org/2000/svg" xmlns:xlink="http://www.w3.org/1999/xlink">
<g id="graph0" class="graph" transform="scale(1 1) rotate(0) translate(4 248)">
<title>methods.cpp</title>
<polygon fill="white" stroke="none" points="-4,4 -4,-248 775.722,-248 775.722,4 -4,4"/>
<!-- Node1 -->
<g id="node1" class="node"><title>Node1</title>
<polygon fill="#bfbfbf" stroke="black" points="330.222,-224.5 330.222,-243.5 403.222,-243.5 403.222,-224.5 330.222,-224.5"/>
<text text-anchor="middle" x="366.722" y="-231.5" font-family="Helvetica,sans-Serif" font-size="10.00">methods.cpp</text>
</g>
<!-- Node2 -->
<g id="node2" class="node"><title>Node2</title>
<g id="a_node2"><a xlink:href="methods_8h.html" target="_top" xlink:title="methods.h">
<polygon fill="white" stroke="black" points="99.7223,-168.5 99.7223,-187.5 161.722,-187.5 161.722,-168.5 99.7223,-168.5"/>
<text text-anchor="middle" x="130.722" y="-175.5" font-family="Helvetica,sans-Serif" font-size="10.00">methods.h</text>
</a>
</g>
</g>
<!-- Node1&#45;&gt;Node2 -->
<g id="edge1" class="edge"><title>Node1&#45;&gt;Node2</title>
<path fill="none" stroke="midnightblue" d="M330.106,-224.622C287.226,-214.81 216.39,-198.602 171.709,-188.378"/>
<polygon fill="midnightblue" stroke="midnightblue" points="172.299,-184.923 161.77,-186.104 170.737,-191.747 172.299,-184.923"/>
</g>
<!-- Node8 -->
<g id="node8" class="node"><title>Node8</title>
<polygon fill="white" stroke="#bfbfbf" points="164.722,-112.5 164.722,-131.5 214.722,-131.5 214.722,-112.5 164.722,-112.5"/>
<text text-anchor="middle" x="189.722" y="-119.5" font-family="Helvetica,sans-Serif" font-size="10.00">fstream</text>
</g>
<!-- Node1&#45;&gt;Node8 -->
<g id="edge14" class="edge"><title>Node1&#45;&gt;Node8</title>
<path fill="none" stroke="midnightblue" d="M330.055,-232.303C294.391,-229.636 241.001,-220.056 208.722,-188 196.611,-175.972 192.126,-156.68 190.512,-142.232"/>
<polygon fill="midnightblue" stroke="midnightblue" points="193.977,-141.627 189.743,-131.915 186.996,-142.148 193.977,-141.627"/>
</g>
<!-- Node9 -->
<g id="node9" class="node"><title>Node9</title>
<polygon fill="white" stroke="#bfbfbf" points="217.722,-168.5 217.722,-187.5 261.722,-187.5 261.722,-168.5 217.722,-168.5"/>
<text text-anchor="middle" x="239.722" y="-175.5" font-family="Helvetica,sans-Serif" font-size="10.00">cmath</text>
</g>
<!-- Node1&#45;&gt;Node9 -->
<g id="edge11" class="edge"><title>Node1&#45;&gt;Node9</title>
<path fill="none" stroke="midnightblue" d="M346.599,-224.444C325.698,-215.557 292.788,-201.563 269.006,-191.451"/>
<polygon fill="midnightblue" stroke="midnightblue" points="270.324,-188.208 259.752,-187.516 267.585,-194.65 270.324,-188.208"/>
</g>
<!-- Node10 -->
<g id="node10" class="node"><title>Node10</title>
<polygon fill="white" stroke="#bfbfbf" points="280.222,-168.5 280.222,-187.5 321.222,-187.5 321.222,-168.5 280.222,-168.5"/>
<text text-anchor="middle" x="300.722" y="-175.5" font-family="Helvetica,sans-Serif" font-size="10.00">ctime</text>
</g>
<!-- Node1&#45;&gt;Node10 -->
<g id="edge12" class="edge"><title>Node1&#45;&gt;Node10</title>
<path fill="none" stroke="midnightblue" d="M356.118,-224.324C346.266,-216.263 331.371,-204.077 319.507,-194.369"/>
<polygon fill="midnightblue" stroke="midnightblue" points="321.475,-191.457 311.519,-187.834 317.043,-196.875 321.475,-191.457"/>
</g>
<!-- Node11 -->
<g id="node11" class="node"><title>Node11</title>
<polygon fill="white" stroke="#bfbfbf" points="339.722,-168.5 339.722,-187.5 393.722,-187.5 393.722,-168.5 339.722,-168.5"/>
<text text-anchor="middle" x="366.722" y="-175.5" font-family="Helvetica,sans-Serif" font-size="10.00">iostream</text>
</g>
<!-- Node1&#45;&gt;Node11 -->
<g id="edge13" class="edge"><title>Node1&#45;&gt;Node11</title>
<path fill="none" stroke="midnightblue" d="M366.722,-224.083C366.722,-217.006 366.722,-206.861 366.722,-197.986"/>
<polygon fill="midnightblue" stroke="midnightblue" points="370.222,-197.751 366.722,-187.751 363.222,-197.751 370.222,-197.751"/>
</g>
<!-- Node12 -->
<g id="node12" class="node"><title>Node12</title>
<polygon fill="white" stroke="#bfbfbf" points="412.222,-168.5 412.222,-187.5 513.222,-187.5 513.222,-168.5 412.222,-168.5"/>
<text text-anchor="middle" x="462.722" y="-175.5" font-family="Helvetica,sans-Serif" font-size="10.00">gsl/gsl_sf_bessel.h</text>
</g>
<!-- Node1&#45;&gt;Node12 -->
<g id="edge15" class="edge"><title>Node1&#45;&gt;Node12</title>
<path fill="none" stroke="midnightblue" d="M382.146,-224.324C397.262,-215.822 420.538,-202.729 438.193,-192.797"/>
<polygon fill="midnightblue" stroke="midnightblue" points="440.337,-195.608 447.337,-187.655 436.905,-189.507 440.337,-195.608"/>
</g>
<!-- Node13 -->
<g id="node13" class="node"><title>Node13</title>
<polygon fill="white" stroke="#bfbfbf" points="531.722,-168.5 531.722,-187.5 603.722,-187.5 603.722,-168.5 531.722,-168.5"/>
<text text-anchor="middle" x="567.722" y="-175.5" font-family="Helvetica,sans-Serif" font-size="10.00">gsl/gsl_rng.h</text>
</g>
<!-- Node1&#45;&gt;Node13 -->
<g id="edge16" class="edge"><title>Node1&#45;&gt;Node13</title>
<path fill="none" stroke="midnightblue" d="M398.571,-224.444C433.121,-215.162 488.405,-200.309 526.305,-190.127"/>
<polygon fill="midnightblue" stroke="midnightblue" points="527.273,-193.491 536.022,-187.516 525.457,-186.731 527.273,-193.491"/>
</g>
<!-- Node14 -->
<g id="node14" class="node"><title>Node14</title>
<polygon fill="white" stroke="#bfbfbf" points="621.722,-168.5 621.722,-187.5 709.722,-187.5 709.722,-168.5 621.722,-168.5"/>
<text text-anchor="middle" x="665.722" y="-175.5" font-family="Helvetica,sans-Serif" font-size="10.00">gsl/gsl_randist.h</text>
</g>
<!-- Node1&#45;&gt;Node14 -->
<g id="edge17" class="edge"><title>Node1&#45;&gt;Node14</title>
<path fill="none" stroke="midnightblue" d="M403.386,-226.379C455.496,-216.967 551.335,-199.659 611.623,-188.77"/>
<polygon fill="midnightblue" stroke="midnightblue" points="612.496,-192.17 621.714,-186.948 611.251,-185.281 612.496,-192.17"/>
</g>
<!-- Node15 -->
<g id="node15" class="node"><title>Node15</title>
<polygon fill="white" stroke="#bfbfbf" points="727.722,-168.5 727.722,-187.5 771.722,-187.5 771.722,-168.5 727.722,-168.5"/>
<text text-anchor="middle" x="749.722" y="-175.5" font-family="Helvetica,sans-Serif" font-size="10.00">omp.h</text>
</g>
<!-- Node1&#45;&gt;Node15 -->
<g id="edge18" class="edge"><title>Node1&#45;&gt;Node15</title>
<path fill="none" stroke="midnightblue" d="M403.393,-230.083C465.82,-224.731 596.823,-211.834 717.31,-187.772"/>
<polygon fill="midnightblue" stroke="midnightblue" points="718.34,-191.134 727.445,-185.716 716.949,-184.274 718.34,-191.134"/>
</g>
<!-- Node3 -->
<g id="node3" class="node"><title>Node3</title>
<g id="a_node3"><a xlink:href="constants_8h.html" target="_top" xlink:title="constants.h">
<polygon fill="white" stroke="black" points="103.722,-56.5 103.722,-75.5 171.722,-75.5 171.722,-56.5 103.722,-56.5"/>
<text text-anchor="middle" x="137.722" y="-63.5" font-family="Helvetica,sans-Serif" font-size="10.00">constants.h</text>
</a>
</g>
</g>
<!-- Node2&#45;&gt;Node3 -->
<g id="edge2" class="edge"><title>Node2&#45;&gt;Node3</title>
<path fill="none" stroke="midnightblue" d="M131.272,-168.368C132.401,-150.617 135.007,-109.666 136.539,-85.5974"/>
<polygon fill="midnightblue" stroke="midnightblue" points="140.033,-85.7935 137.176,-75.5914 133.047,-85.3489 140.033,-85.7935"/>
</g>
<!-- Node5 -->
<g id="node5" class="node"><title>Node5</title>
<polygon fill="white" stroke="#bfbfbf" points="55.2223,-0.5 55.2223,-19.5 96.2223,-19.5 96.2223,-0.5 55.2223,-0.5"/>
<text text-anchor="middle" x="75.7223" y="-7.5" font-family="Helvetica,sans-Serif" font-size="10.00">string</text>
</g>
<!-- Node2&#45;&gt;Node5 -->
<g id="edge10" class="edge"><title>Node2&#45;&gt;Node5</title>
<path fill="none" stroke="midnightblue" d="M100.292,-168.413C79.5809,-161.341 52.6067,-149.585 33.7223,-132 12.9033,-112.613 9.83734,-103.544 2.72232,-76 0.499151,-67.3936 -1.61074,-63.7612 2.72232,-56 11.9178,-39.5294 29.893,-28.3393 45.7047,-21.2374"/>
<polygon fill="midnightblue" stroke="midnightblue" points="47.2619,-24.3812 55.1723,-17.3331 44.5931,-17.9099 47.2619,-24.3812"/>
</g>
<!-- Node6 -->
<g id="node6" class="node"><title>Node6</title>
<g id="a_node6"><a xlink:href="elements_8h.html" target="_top" xlink:title="elements.h">
<polygon fill="white" stroke="black" points="43.2223,-112.5 43.2223,-131.5 108.222,-131.5 108.222,-112.5 43.2223,-112.5"/>
<text text-anchor="middle" x="75.7223" y="-119.5" font-family="Helvetica,sans-Serif" font-size="10.00">elements.h</text>
</a>
</g>
</g>
<!-- Node2&#45;&gt;Node6 -->
<g id="edge5" class="edge"><title>Node2&#45;&gt;Node6</title>
<path fill="none" stroke="midnightblue" d="M121.64,-168.083C113.551,-160.141 101.527,-148.335 91.8121,-138.797"/>
<polygon fill="midnightblue" stroke="midnightblue" points="94.2232,-136.26 84.6355,-131.751 89.319,-141.254 94.2232,-136.26"/>
</g>
<!-- Node2&#45;&gt;Node8 -->
<g id="edge9" class="edge"><title>Node2&#45;&gt;Node8</title>
<path fill="none" stroke="midnightblue" d="M140.202,-168.324C148.923,-160.341 162.066,-148.313 172.62,-138.653"/>
<polygon fill="midnightblue" stroke="midnightblue" points="175.057,-141.167 180.07,-131.834 170.331,-136.004 175.057,-141.167"/>
</g>
<!-- Node4 -->
<g id="node4" class="node"><title>Node4</title>
<polygon fill="white" stroke="#bfbfbf" points="115.722,-0.5 115.722,-19.5 159.722,-19.5 159.722,-0.5 115.722,-0.5"/>
<text text-anchor="middle" x="137.722" y="-7.5" font-family="Helvetica,sans-Serif" font-size="10.00">vector</text>
</g>
<!-- Node3&#45;&gt;Node4 -->
<g id="edge3" class="edge"><title>Node3&#45;&gt;Node4</title>
<path fill="none" stroke="midnightblue" d="M137.722,-56.083C137.722,-49.0059 137.722,-38.8611 137.722,-29.9865"/>
<polygon fill="midnightblue" stroke="midnightblue" points="141.222,-29.751 137.722,-19.7511 134.222,-29.7511 141.222,-29.751"/>
</g>
<!-- Node3&#45;&gt;Node5 -->
<g id="edge4" class="edge"><title>Node3&#45;&gt;Node5</title>
<path fill="none" stroke="midnightblue" d="M127.761,-56.324C118.596,-48.3414 104.785,-36.3128 93.6942,-26.6529"/>
<polygon fill="midnightblue" stroke="midnightblue" points="95.7045,-23.7624 85.8649,-19.8339 91.107,-29.041 95.7045,-23.7624"/>
</g>
<!-- Node6&#45;&gt;Node3 -->
<g id="edge8" class="edge"><title>Node6&#45;&gt;Node3</title>
<path fill="none" stroke="midnightblue" d="M85.6837,-112.324C94.8489,-104.341 108.66,-92.3128 119.75,-82.6529"/>
<polygon fill="midnightblue" stroke="midnightblue" points="122.338,-85.041 127.58,-75.8339 117.74,-79.7624 122.338,-85.041"/>
</g>
<!-- Node6&#45;&gt;Node5 -->
<g id="edge6" class="edge"><title>Node6&#45;&gt;Node5</title>
<path fill="none" stroke="midnightblue" d="M75.7223,-112.368C75.7223,-94.617 75.7223,-53.6664 75.7223,-29.5974"/>
<polygon fill="midnightblue" stroke="midnightblue" points="79.2224,-29.5914 75.7223,-19.5914 72.2224,-29.5915 79.2224,-29.5914"/>
</g>
<!-- Node7 -->
<g id="node7" class="node"><title>Node7</title>
<polygon fill="white" stroke="#bfbfbf" points="12.2223,-56.5 12.2223,-75.5 47.2223,-75.5 47.2223,-56.5 12.2223,-56.5"/>
<text text-anchor="middle" x="29.7223" y="-63.5" font-family="Helvetica,sans-Serif" font-size="10.00">map</text>
</g>
<!-- Node6&#45;&gt;Node7 -->
<g id="edge7" class="edge"><title>Node6&#45;&gt;Node7</title>
<path fill="none" stroke="midnightblue" d="M68.1264,-112.083C61.4948,-104.298 51.7013,-92.8015 43.6642,-83.3665"/>
<polygon fill="midnightblue" stroke="midnightblue" points="46.326,-81.0939 37.1769,-75.7511 40.9973,-85.6332 46.326,-81.0939"/>
</g>
</g>
</svg>
