<?xml version="1.0" encoding="UTF-8" standalone="no"?>
<!DOCTYPE svg PUBLIC "-//W3C//DTD SVG 1.1//EN"
 "http://www.w3.org/Graphics/SVG/1.1/DTD/svg11.dtd">
<!-- Generated by graphviz version 2.36.0 (20140111.2315)
 -->
<!-- Title: normrand Pages: 1 -->
<svg width="500pt" height="47pt"
 viewBox="0.00 0.00 500.00 47.00" xmlns="http://www.w3.org/2000/svg" xmlns:xlink="http://www.w3.org/1999/xlink">
<g id="graph0" class="graph" transform="scale(1 1) rotate(0) translate(4 43)">
<title>normrand</title>
<polygon fill="white" stroke="none" points="-4,4 -4,-43 496,-43 496,4 -4,4"/>
<!-- Node1 -->
<g id="node1" class="node"><title>Node1</title>
<polygon fill="#bfbfbf" stroke="black" points="0.5,-0.5 0.5,-19.5 57.5,-19.5 57.5,-0.5 0.5,-0.5"/>
<text text-anchor="middle" x="29" y="-7.5" font-family="Helvetica,sans-Serif" font-size="10.00">normrand</text>
</g>
<!-- Node2 -->
<g id="node2" class="node"><title>Node2</title>
<g id="a_node2"><a xlink:href="class_f_e_l_numerical.html#a9cc9dab3886a4812336e4ca796c8259d" target="_top" xlink:title="parameters initialization for numerical calculation ">
<polygon fill="white" stroke="black" points="94,-0.5 94,-19.5 266,-19.5 266,-0.5 94,-0.5"/>
<text text-anchor="middle" x="180" y="-7.5" font-family="Helvetica,sans-Serif" font-size="10.00">FELNumerical::generateDistribution</text>
</a>
</g>
</g>
<!-- Node1&#45;&gt;Node2 -->
<g id="edge1" class="edge"><title>Node1&#45;&gt;Node2</title>
<path fill="none" stroke="midnightblue" d="M67.8292,-10C75.9249,-10 84.7903,-10 93.8708,-10"/>
<polygon fill="midnightblue" stroke="midnightblue" points="67.6766,-6.5001 57.6766,-10 67.6765,-13.5001 67.6766,-6.5001"/>
</g>
<!-- Node3 -->
<g id="node3" class="node"><title>Node3</title>
<g id="a_node3"><a xlink:href="classscanpanel.html#ad5d03fff058d2903c654c55f101ae852" target="_top" xlink:title="do parameters scan ">
<polygon fill="white" stroke="black" points="302,-19.5 302,-38.5 418,-38.5 418,-19.5 302,-19.5"/>
<text text-anchor="middle" x="360" y="-26.5" font-family="Helvetica,sans-Serif" font-size="10.00">scanpanel::paramScan</text>
</a>
</g>
</g>
<!-- Node2&#45;&gt;Node3 -->
<g id="edge2" class="edge"><title>Node2&#45;&gt;Node3</title>
<path fill="none" stroke="midnightblue" d="M276.065,-20.1474C284.887,-21.089 293.628,-22.0221 301.941,-22.9095"/>
<polygon fill="midnightblue" stroke="midnightblue" points="276.405,-16.6639 266.09,-19.0826 275.662,-23.6243 276.405,-16.6639"/>
</g>
<!-- Node4 -->
<g id="node4" class="node"><title>Node4</title>
<g id="a_node4"><a xlink:href="main_8cpp.html#a3c04138a5bfe5d72780bb7e82a18e627" target="_top" xlink:title="main">
<polygon fill="white" stroke="black" points="454,-0.5 454,-19.5 492,-19.5 492,-0.5 454,-0.5"/>
<text text-anchor="middle" x="473" y="-7.5" font-family="Helvetica,sans-Serif" font-size="10.00">main</text>
</a>
</g>
</g>
<!-- Node2&#45;&gt;Node4 -->
<g id="edge4" class="edge"><title>Node2&#45;&gt;Node4</title>
<path fill="none" stroke="midnightblue" d="M276.477,-10C340.46,-10 419.138,-10 453.958,-10"/>
<polygon fill="midnightblue" stroke="midnightblue" points="276.343,-6.5001 266.343,-10 276.343,-13.5001 276.343,-6.5001"/>
</g>
<!-- Node3&#45;&gt;Node4 -->
<g id="edge3" class="edge"><title>Node3&#45;&gt;Node4</title>
<path fill="none" stroke="midnightblue" d="M426.813,-17.7347C436.699,-16.0425 446.133,-14.4277 453.799,-13.1155"/>
<polygon fill="midnightblue" stroke="midnightblue" points="426.091,-14.3073 416.825,-19.4443 427.272,-21.2069 426.091,-14.3073"/>
</g>
</g>
</svg>
