<?xml version="1.0" encoding="UTF-8" standalone="no"?>
<!DOCTYPE svg PUBLIC "-//W3C//DTD SVG 1.1//EN"
 "http://www.w3.org/Graphics/SVG/1.1/DTD/svg11.dtd">
<!-- Generated by graphviz version 2.36.0 (20140111.2315)
 -->
<!-- Title: trimline Pages: 1 -->
<svg width="214pt" height="28pt"
 viewBox="0.00 0.00 214.00 28.00" xmlns="http://www.w3.org/2000/svg" xmlns:xlink="http://www.w3.org/1999/xlink">
<g id="graph0" class="graph" transform="scale(1 1) rotate(0) translate(4 24)">
<title>trimline</title>
<polygon fill="white" stroke="none" points="-4,4 -4,-24 210,-24 210,4 -4,4"/>
<!-- Node1 -->
<g id="node1" class="node"><title>Node1</title>
<polygon fill="#bfbfbf" stroke="black" points="0,-0.5 0,-19.5 48,-19.5 48,-0.5 0,-0.5"/>
<text text-anchor="middle" x="24" y="-7.5" font-family="Helvetica,sans-Serif" font-size="10.00">trimline</text>
</g>
<!-- Node2 -->
<g id="node2" class="node"><title>Node2</title>
<g id="a_node2"><a xlink:href="readinput_8h.html#a7aca6ded447d93acc99b708101b02474" target="_top" xlink:title="get variable names and values from infile ">
<polygon fill="white" stroke="black" points="84,-0.5 84,-19.5 132,-19.5 132,-0.5 84,-0.5"/>
<text text-anchor="middle" x="108" y="-7.5" font-family="Helvetica,sans-Serif" font-size="10.00">getfield</text>
</a>
</g>
</g>
<!-- Node1&#45;&gt;Node2 -->
<g id="edge1" class="edge"><title>Node1&#45;&gt;Node2</title>
<path fill="none" stroke="midnightblue" d="M58.4083,-10C66.9863,-10 76.0237,-10 83.947,-10"/>
<polygon fill="midnightblue" stroke="midnightblue" points="58.2786,-6.5001 48.2786,-10 58.2785,-13.5001 58.2786,-6.5001"/>
</g>
<!-- Node3 -->
<g id="node3" class="node"><title>Node3</title>
<g id="a_node3"><a xlink:href="main_8cpp.html#a3c04138a5bfe5d72780bb7e82a18e627" target="_top" xlink:title="main">
<polygon fill="white" stroke="black" points="168,-0.5 168,-19.5 206,-19.5 206,-0.5 168,-0.5"/>
<text text-anchor="middle" x="187" y="-7.5" font-family="Helvetica,sans-Serif" font-size="10.00">main</text>
</a>
</g>
</g>
<!-- Node2&#45;&gt;Node3 -->
<g id="edge2" class="edge"><title>Node2&#45;&gt;Node3</title>
<path fill="none" stroke="midnightblue" d="M142.352,-10C150.996,-10 159.993,-10 167.557,-10"/>
<polygon fill="midnightblue" stroke="midnightblue" points="142.103,-6.5001 132.103,-10 142.103,-13.5001 142.103,-6.5001"/>
</g>
</g>
</svg>
