<?xml version="1.0" encoding="UTF-8" standalone="no"?>
<!DOCTYPE svg PUBLIC "-//W3C//DTD SVG 1.1//EN"
 "http://www.w3.org/Graphics/SVG/1.1/DTD/svg11.dtd">
<!-- Generated by graphviz version 2.36.0 (20140111.2315)
 -->
<!-- Title: readinput.h Pages: 1 -->
<svg width="250pt" height="196pt"
 viewBox="0.00 0.00 249.53 196.00" xmlns="http://www.w3.org/2000/svg" xmlns:xlink="http://www.w3.org/1999/xlink">
<g id="graph0" class="graph" transform="scale(1 1) rotate(0) translate(4 192)">
<title>readinput.h</title>
<polygon fill="white" stroke="none" points="-4,4 -4,-192 245.528,-192 245.528,4 -4,4"/>
<!-- Node1 -->
<g id="node1" class="node"><title>Node1</title>
<polygon fill="#bfbfbf" stroke="black" points="57.0282,-168.5 57.0282,-187.5 122.028,-187.5 122.028,-168.5 57.0282,-168.5"/>
<text text-anchor="middle" x="89.5282" y="-175.5" font-family="Helvetica,sans-Serif" font-size="10.00">readinput.h</text>
</g>
<!-- Node2 -->
<g id="node2" class="node"><title>Node2</title>
<polygon fill="white" stroke="#bfbfbf" points="125.028,-0.5 125.028,-19.5 166.028,-19.5 166.028,-0.5 125.028,-0.5"/>
<text text-anchor="middle" x="145.528" y="-7.5" font-family="Helvetica,sans-Serif" font-size="10.00">string</text>
</g>
<!-- Node1&#45;&gt;Node2 -->
<g id="edge1" class="edge"><title>Node1&#45;&gt;Node2</title>
<path fill="none" stroke="midnightblue" d="M57.8915,-168.415C28.1786,-158.491 -9.98428,-139.863 2.52817,-112 23.7541,-64.7332 80.1221,-35.6302 115.417,-21.46"/>
<polygon fill="midnightblue" stroke="midnightblue" points="116.694,-24.7187 124.766,-17.8565 114.177,-18.1871 116.694,-24.7187"/>
</g>
<!-- Node3 -->
<g id="node3" class="node"><title>Node3</title>
<polygon fill="white" stroke="#bfbfbf" points="11.5282,-112.5 11.5282,-131.5 61.5282,-131.5 61.5282,-112.5 11.5282,-112.5"/>
<text text-anchor="middle" x="36.5282" y="-119.5" font-family="Helvetica,sans-Serif" font-size="10.00">fstream</text>
</g>
<!-- Node1&#45;&gt;Node3 -->
<g id="edge2" class="edge"><title>Node1&#45;&gt;Node3</title>
<path fill="none" stroke="midnightblue" d="M80.7763,-168.083C73.0584,-160.22 61.6235,-148.569 52.3116,-139.081"/>
<polygon fill="midnightblue" stroke="midnightblue" points="54.6198,-136.436 45.1172,-131.751 49.624,-141.34 54.6198,-136.436"/>
</g>
<!-- Node4 -->
<g id="node4" class="node"><title>Node4</title>
<polygon fill="white" stroke="#bfbfbf" points="75.0282,-56.5 75.0282,-75.5 110.028,-75.5 110.028,-56.5 75.0282,-56.5"/>
<text text-anchor="middle" x="92.5282" y="-63.5" font-family="Helvetica,sans-Serif" font-size="10.00">map</text>
</g>
<!-- Node1&#45;&gt;Node4 -->
<g id="edge3" class="edge"><title>Node1&#45;&gt;Node4</title>
<path fill="none" stroke="midnightblue" d="M89.7636,-168.368C90.2477,-150.617 91.3645,-109.666 92.021,-85.5974"/>
<polygon fill="midnightblue" stroke="midnightblue" points="95.5198,-85.6832 92.2939,-75.5914 88.5224,-85.4922 95.5198,-85.6832"/>
</g>
<!-- Node5 -->
<g id="node5" class="node"><title>Node5</title>
<g id="a_node5"><a xlink:href="elements_8h.html" target="_top" xlink:title="elements.h">
<polygon fill="white" stroke="black" points="118.028,-112.5 118.028,-131.5 183.028,-131.5 183.028,-112.5 118.028,-112.5"/>
<text text-anchor="middle" x="150.528" y="-119.5" font-family="Helvetica,sans-Serif" font-size="10.00">elements.h</text>
</a>
</g>
</g>
<!-- Node1&#45;&gt;Node5 -->
<g id="edge4" class="edge"><title>Node1&#45;&gt;Node5</title>
<path fill="none" stroke="midnightblue" d="M99.3289,-168.324C108.346,-160.341 121.934,-148.313 132.846,-138.653"/>
<polygon fill="midnightblue" stroke="midnightblue" points="135.381,-141.083 140.549,-131.834 130.742,-135.842 135.381,-141.083"/>
</g>
<!-- Node6 -->
<g id="node6" class="node"><title>Node6</title>
<g id="a_node6"><a xlink:href="constants_8h.html" target="_top" xlink:title="constants.h">
<polygon fill="white" stroke="black" points="173.528,-56.5 173.528,-75.5 241.528,-75.5 241.528,-56.5 173.528,-56.5"/>
<text text-anchor="middle" x="207.528" y="-63.5" font-family="Helvetica,sans-Serif" font-size="10.00">constants.h</text>
</a>
</g>
</g>
<!-- Node1&#45;&gt;Node6 -->
<g id="edge10" class="edge"><title>Node1&#45;&gt;Node6</title>
<path fill="none" stroke="midnightblue" d="M122.163,-170.57C144.821,-164.431 173.982,-152.902 191.528,-132 202.377,-119.077 206.066,-99.9049 207.228,-85.729"/>
<polygon fill="midnightblue" stroke="midnightblue" points="210.728,-85.8006 207.706,-75.646 203.736,-85.469 210.728,-85.8006"/>
</g>
<!-- Node5&#45;&gt;Node2 -->
<g id="edge5" class="edge"><title>Node5&#45;&gt;Node2</title>
<path fill="none" stroke="midnightblue" d="M150.136,-112.368C149.329,-94.617 147.468,-53.6664 146.374,-29.5974"/>
<polygon fill="midnightblue" stroke="midnightblue" points="149.869,-29.4221 145.919,-19.5914 142.876,-29.7401 149.869,-29.4221"/>
</g>
<!-- Node5&#45;&gt;Node4 -->
<g id="edge6" class="edge"><title>Node5&#45;&gt;Node4</title>
<path fill="none" stroke="midnightblue" d="M141.209,-112.324C132.636,-104.341 119.716,-92.3128 109.341,-82.6529"/>
<polygon fill="midnightblue" stroke="midnightblue" points="111.72,-80.0865 102.016,-75.8339 106.95,-85.2098 111.72,-80.0865"/>
</g>
<!-- Node5&#45;&gt;Node6 -->
<g id="edge7" class="edge"><title>Node5&#45;&gt;Node6</title>
<path fill="none" stroke="midnightblue" d="M159.686,-112.324C168.03,-104.42 180.561,-92.5482 190.705,-82.9377"/>
<polygon fill="midnightblue" stroke="midnightblue" points="193.351,-85.2522 198.204,-75.8339 188.537,-80.1705 193.351,-85.2522"/>
</g>
<!-- Node6&#45;&gt;Node2 -->
<g id="edge9" class="edge"><title>Node6&#45;&gt;Node2</title>
<path fill="none" stroke="midnightblue" d="M197.567,-56.324C188.402,-48.3414 174.591,-36.3128 163.5,-26.6529"/>
<polygon fill="midnightblue" stroke="midnightblue" points="165.51,-23.7624 155.671,-19.8339 160.913,-29.041 165.51,-23.7624"/>
</g>
<!-- Node7 -->
<g id="node7" class="node"><title>Node7</title>
<polygon fill="white" stroke="#bfbfbf" points="185.528,-0.5 185.528,-19.5 229.528,-19.5 229.528,-0.5 185.528,-0.5"/>
<text text-anchor="middle" x="207.528" y="-7.5" font-family="Helvetica,sans-Serif" font-size="10.00">vector</text>
</g>
<!-- Node6&#45;&gt;Node7 -->
<g id="edge8" class="edge"><title>Node6&#45;&gt;Node7</title>
<path fill="none" stroke="midnightblue" d="M207.528,-56.083C207.528,-49.0059 207.528,-38.8611 207.528,-29.9865"/>
<polygon fill="midnightblue" stroke="midnightblue" points="211.028,-29.751 207.528,-19.7511 204.028,-29.7511 211.028,-29.751"/>
</g>
</g>
</svg>
