<?xml version="1.0" encoding="UTF-8" standalone="no"?>
<!DOCTYPE svg PUBLIC "-//W3C//DTD SVG 1.1//EN"
 "http://www.w3.org/Graphics/SVG/1.1/DTD/svg11.dtd">
<!-- Generated by graphviz version 2.36.0 (20140111.2315)
 -->
<!-- Title: efield::efield Pages: 1 -->
<svg width="200pt" height="66pt"
 viewBox="0.00 0.00 200.00 66.00" xmlns="http://www.w3.org/2000/svg" xmlns:xlink="http://www.w3.org/1999/xlink">
<g id="graph0" class="graph" transform="scale(1 1) rotate(0) translate(4 62)">
<title>efield::efield</title>
<polygon fill="white" stroke="none" points="-4,4 -4,-62 196,-62 196,4 -4,4"/>
<!-- Node1 -->
<g id="node1" class="node"><title>Node1</title>
<polygon fill="#bfbfbf" stroke="black" points="0.5,-19.5 0.5,-38.5 69.5,-38.5 69.5,-19.5 0.5,-19.5"/>
<text text-anchor="middle" x="35" y="-26.5" font-family="Helvetica,sans-Serif" font-size="10.00">efield::efield</text>
</g>
<!-- Node2 -->
<g id="node2" class="node"><title>Node2</title>
<g id="a_node2"><a xlink:href="classefield.html#acd868760a36c819bdddeffc734ddd21d" target="_top" xlink:title="efield::get_real">
<polygon fill="white" stroke="black" points="109,-38.5 109,-57.5 189,-57.5 189,-38.5 109,-38.5"/>
<text text-anchor="middle" x="149" y="-45.5" font-family="Helvetica,sans-Serif" font-size="10.00">efield::get_real</text>
</a>
</g>
</g>
<!-- Node1&#45;&gt;Node2 -->
<g id="edge1" class="edge"><title>Node1&#45;&gt;Node2</title>
<path fill="none" stroke="midnightblue" d="M69.6037,-34.7006C78.7856,-36.2583 88.9292,-37.9791 98.788,-39.6515"/>
<polygon fill="midnightblue" stroke="midnightblue" points="98.4619,-43.1461 108.906,-41.3681 99.6327,-36.2447 98.4619,-43.1461"/>
</g>
<!-- Node3 -->
<g id="node3" class="node"><title>Node3</title>
<g id="a_node3"><a xlink:href="classefield.html#a532bb6e564552fc3ddd046e591da4a5d" target="_top" xlink:title="efield::get_imag">
<polygon fill="white" stroke="black" points="106,-0.5 106,-19.5 192,-19.5 192,-0.5 106,-0.5"/>
<text text-anchor="middle" x="149" y="-7.5" font-family="Helvetica,sans-Serif" font-size="10.00">efield::get_imag</text>
</a>
</g>
</g>
<!-- Node1&#45;&gt;Node3 -->
<g id="edge2" class="edge"><title>Node1&#45;&gt;Node3</title>
<path fill="none" stroke="midnightblue" d="M69.6037,-23.2994C77.8432,-21.9016 86.8572,-20.3724 95.7448,-18.8647"/>
<polygon fill="midnightblue" stroke="midnightblue" points="96.4038,-22.303 105.678,-17.1797 95.233,-15.4016 96.4038,-22.303"/>
</g>
</g>
</svg>
