<?xml version="1.0" encoding="UTF-8" standalone="no"?>
<!DOCTYPE svg PUBLIC "-//W3C//DTD SVG 1.1//EN"
 "http://www.w3.org/Graphics/SVG/1.1/DTD/svg11.dtd">
<!-- Generated by graphviz version 2.36.0 (20140111.2315)
 -->
<!-- Title: FELNumerical::initParams Pages: 1 -->
<svg width="366pt" height="47pt"
 viewBox="0.00 0.00 366.00 47.00" xmlns="http://www.w3.org/2000/svg" xmlns:xlink="http://www.w3.org/1999/xlink">
<g id="graph0" class="graph" transform="scale(1 1) rotate(0) translate(4 43)">
<title>FELNumerical::initParams</title>
<polygon fill="white" stroke="none" points="-4,4 -4,-43 362,-43 362,4 -4,4"/>
<!-- Node1 -->
<g id="node1" class="node"><title>Node1</title>
<polygon fill="#bfbfbf" stroke="black" points="0.5,-0.5 0.5,-19.5 131.5,-19.5 131.5,-0.5 0.5,-0.5"/>
<text text-anchor="middle" x="66" y="-7.5" font-family="Helvetica,sans-Serif" font-size="10.00">FELNumerical::initParams</text>
</g>
<!-- Node2 -->
<g id="node2" class="node"><title>Node2</title>
<g id="a_node2"><a xlink:href="classscanpanel.html#ad5d03fff058d2903c654c55f101ae852" target="_top" xlink:title="do parameters scan ">
<polygon fill="white" stroke="black" points="168,-19.5 168,-38.5 284,-38.5 284,-19.5 168,-19.5"/>
<text text-anchor="middle" x="226" y="-26.5" font-family="Helvetica,sans-Serif" font-size="10.00">scanpanel::paramScan</text>
</a>
</g>
</g>
<!-- Node1&#45;&gt;Node2 -->
<g id="edge1" class="edge"><title>Node1&#45;&gt;Node2</title>
<path fill="none" stroke="midnightblue" d="M141.656,-18.9776C150.505,-20.0417 159.426,-21.1146 167.975,-22.1426"/>
<polygon fill="midnightblue" stroke="midnightblue" points="142.067,-15.5019 131.721,-17.7828 141.231,-22.4518 142.067,-15.5019"/>
</g>
<!-- Node3 -->
<g id="node3" class="node"><title>Node3</title>
<g id="a_node3"><a xlink:href="main_8cpp.html#a3c04138a5bfe5d72780bb7e82a18e627" target="_top" xlink:title="main">
<polygon fill="white" stroke="black" points="320,-0.5 320,-19.5 358,-19.5 358,-0.5 320,-0.5"/>
<text text-anchor="middle" x="339" y="-7.5" font-family="Helvetica,sans-Serif" font-size="10.00">main</text>
</a>
</g>
</g>
<!-- Node1&#45;&gt;Node3 -->
<g id="edge3" class="edge"><title>Node1&#45;&gt;Node3</title>
<path fill="none" stroke="midnightblue" d="M141.919,-10C202.83,-10 284.308,-10 319.989,-10"/>
<polygon fill="midnightblue" stroke="midnightblue" points="141.567,-6.5001 131.567,-10 141.567,-13.5001 141.567,-6.5001"/>
</g>
<!-- Node2&#45;&gt;Node3 -->
<g id="edge2" class="edge"><title>Node2&#45;&gt;Node3</title>
<path fill="none" stroke="midnightblue" d="M292.813,-17.7347C302.699,-16.0425 312.133,-14.4277 319.799,-13.1155"/>
<polygon fill="midnightblue" stroke="midnightblue" points="292.091,-14.3073 282.825,-19.4443 293.272,-21.2069 292.091,-14.3073"/>
</g>
</g>
</svg>
