<?xml version="1.0" encoding="UTF-8" standalone="no"?>
<!DOCTYPE svg PUBLIC "-//W3C//DTD SVG 1.1//EN"
 "http://www.w3.org/Graphics/SVG/1.1/DTD/svg11.dtd">
<!-- Generated by graphviz version 2.36.0 (20140111.2315)
 -->
<!-- Title: FELNumerical::FELNumerical Pages: 1 -->
<svg width="352pt" height="773pt"
 viewBox="0.00 0.00 352.00 773.00" xmlns="http://www.w3.org/2000/svg" xmlns:xlink="http://www.w3.org/1999/xlink">
<g id="graph0" class="graph" transform="scale(1 1) rotate(0) translate(4 769)">
<title>FELNumerical::FELNumerical</title>
<polygon fill="white" stroke="none" points="-4,4 -4,-769 348,-769 348,4 -4,4"/>
<!-- Node1 -->
<g id="node1" class="node"><title>Node1</title>
<polygon fill="#bfbfbf" stroke="black" points="0.5,-361.5 0.5,-380.5 147.5,-380.5 147.5,-361.5 0.5,-361.5"/>
<text text-anchor="middle" x="74" y="-368.5" font-family="Helvetica,sans-Serif" font-size="10.00">FELNumerical::FELNumerical</text>
</g>
<!-- Node2 -->
<g id="node2" class="node"><title>Node2</title>
<g id="a_node2"><a xlink:href="classseedfield.html#a37be3b602da3dd62d1613bc4245b8c0c" target="_top" xlink:title="seedfield::get_Ex">
<polygon fill="white" stroke="black" points="218,-745.5 218,-764.5 310,-764.5 310,-745.5 218,-745.5"/>
<text text-anchor="middle" x="264" y="-752.5" font-family="Helvetica,sans-Serif" font-size="10.00">seedfield::get_Ex</text>
</a>
</g>
</g>
<!-- Node1&#45;&gt;Node2 -->
<g id="edge1" class="edge"><title>Node1&#45;&gt;Node2</title>
<path fill="none" stroke="midnightblue" d="M74.6694,-380.628C73.6183,-427.444 75.4913,-633.216 184,-736 190.694,-742.34 199.119,-746.682 207.955,-749.632"/>
<polygon fill="midnightblue" stroke="midnightblue" points="207.071,-753.018 217.642,-752.315 208.939,-746.272 207.071,-753.018"/>
</g>
<!-- Node3 -->
<g id="node3" class="node"><title>Node3</title>
<g id="a_node3"><a xlink:href="classseedfield.html#ad910b052e3121815789098ed505527fc" target="_top" xlink:title="seedfield::get_Ey">
<polygon fill="white" stroke="black" points="218,-707.5 218,-726.5 310,-726.5 310,-707.5 218,-707.5"/>
<text text-anchor="middle" x="264" y="-714.5" font-family="Helvetica,sans-Serif" font-size="10.00">seedfield::get_Ey</text>
</a>
</g>
</g>
<!-- Node1&#45;&gt;Node3 -->
<g id="edge2" class="edge"><title>Node1&#45;&gt;Node3</title>
<path fill="none" stroke="midnightblue" d="M75.0904,-380.746C76.0499,-424.674 86.012,-606.073 184,-697 190.778,-703.29 199.245,-707.672 208.096,-710.71"/>
<polygon fill="midnightblue" stroke="midnightblue" points="207.211,-714.097 217.789,-713.506 209.151,-707.371 207.211,-714.097"/>
</g>
<!-- Node4 -->
<g id="node4" class="node"><title>Node4</title>
<g id="a_node4"><a xlink:href="classelectron_beam.html#afe29e0f5432af0a901d1040750d9e30a" target="_top" xlink:title="electronBeam::get_central\lEnergy">
<polygon fill="white" stroke="black" points="198.5,-658 198.5,-688 329.5,-688 329.5,-658 198.5,-658"/>
<text text-anchor="start" x="206.5" y="-676" font-family="Helvetica,sans-Serif" font-size="10.00">electronBeam::get_central</text>
<text text-anchor="middle" x="264" y="-665" font-family="Helvetica,sans-Serif" font-size="10.00">Energy</text>
</a>
</g>
</g>
<!-- Node1&#45;&gt;Node4 -->
<g id="edge3" class="edge"><title>Node1&#45;&gt;Node4</title>
<path fill="none" stroke="midnightblue" d="M75.8743,-380.746C79.9422,-420.25 100.526,-570.049 184,-648 185.709,-649.595 187.518,-651.089 189.41,-652.487"/>
<polygon fill="midnightblue" stroke="midnightblue" points="187.844,-655.638 198.166,-658.028 191.587,-649.723 187.844,-655.638"/>
</g>
<!-- Node5 -->
<g id="node5" class="node"><title>Node5</title>
<g id="a_node5"><a xlink:href="classelectron_beam.html#a9bd9fc55effd4ed222652cfd9e9123c1" target="_top" xlink:title="electronBeam::get_energy\lSpread">
<polygon fill="white" stroke="black" points="198.5,-609 198.5,-639 329.5,-639 329.5,-609 198.5,-609"/>
<text text-anchor="start" x="206.5" y="-627" font-family="Helvetica,sans-Serif" font-size="10.00">electronBeam::get_energy</text>
<text text-anchor="middle" x="264" y="-616" font-family="Helvetica,sans-Serif" font-size="10.00">Spread</text>
</a>
</g>
</g>
<!-- Node1&#45;&gt;Node5 -->
<g id="edge4" class="edge"><title>Node1&#45;&gt;Node5</title>
<path fill="none" stroke="midnightblue" d="M76.8159,-380.913C83.7898,-416.144 112.151,-536.533 184,-599 185.947,-600.693 188.01,-602.272 190.161,-603.743"/>
<polygon fill="midnightblue" stroke="midnightblue" points="188.464,-606.806 198.848,-608.907 192.041,-600.789 188.464,-606.806"/>
</g>
<!-- Node6 -->
<g id="node6" class="node"><title>Node6</title>
<g id="a_node6"><a xlink:href="classelectron_beam.html#a1ea62fb4f103eece7f7f0226a18a6d33" target="_top" xlink:title="electronBeam::get_emitnx">
<polygon fill="white" stroke="black" points="198.5,-570.5 198.5,-589.5 329.5,-589.5 329.5,-570.5 198.5,-570.5"/>
<text text-anchor="middle" x="264" y="-577.5" font-family="Helvetica,sans-Serif" font-size="10.00">electronBeam::get_emitnx</text>
</a>
</g>
</g>
<!-- Node1&#45;&gt;Node6 -->
<g id="edge5" class="edge"><title>Node1&#45;&gt;Node6</title>
<path fill="none" stroke="midnightblue" d="M77.5798,-380.724C86.4608,-412.219 118.87,-512.205 184,-561 186.515,-562.885 189.191,-564.585 191.981,-566.119"/>
<polygon fill="midnightblue" stroke="midnightblue" points="190.681,-569.376 201.219,-570.474 193.666,-563.044 190.681,-569.376"/>
</g>
<!-- Node7 -->
<g id="node7" class="node"><title>Node7</title>
<g id="a_node7"><a xlink:href="classelectron_beam.html#aae0c806c3fc1fcd56296a7e3d11cb0e1" target="_top" xlink:title="electronBeam::get_avgBetaFunc">
<polygon fill="white" stroke="black" points="184.5,-532.5 184.5,-551.5 343.5,-551.5 343.5,-532.5 184.5,-532.5"/>
<text text-anchor="middle" x="264" y="-539.5" font-family="Helvetica,sans-Serif" font-size="10.00">electronBeam::get_avgBetaFunc</text>
</a>
</g>
</g>
<!-- Node1&#45;&gt;Node7 -->
<g id="edge6" class="edge"><title>Node1&#45;&gt;Node7</title>
<path fill="none" stroke="midnightblue" d="M78.9794,-380.657C90.6748,-407.776 127.695,-485.108 184,-523 186.957,-524.99 190.1,-526.772 193.363,-528.368"/>
<polygon fill="midnightblue" stroke="midnightblue" points="192.251,-531.699 202.823,-532.391 194.99,-525.257 192.251,-531.699"/>
</g>
<!-- Node8 -->
<g id="node8" class="node"><title>Node8</title>
<g id="a_node8"><a xlink:href="classundulator.html#a717066050ec371b8bb7704168cd118b6" target="_top" xlink:title="undulator::get_period">
<polygon fill="white" stroke="black" points="210.5,-494.5 210.5,-513.5 317.5,-513.5 317.5,-494.5 210.5,-494.5"/>
<text text-anchor="middle" x="264" y="-501.5" font-family="Helvetica,sans-Serif" font-size="10.00">undulator::get_period</text>
</a>
</g>
</g>
<!-- Node1&#45;&gt;Node8 -->
<g id="edge7" class="edge"><title>Node1&#45;&gt;Node8</title>
<path fill="none" stroke="midnightblue" d="M81.325,-380.725C96.3037,-402.932 136.288,-457.56 184,-485 189.17,-487.973 194.788,-490.483 200.563,-492.601"/>
<polygon fill="midnightblue" stroke="midnightblue" points="199.79,-496.03 210.382,-495.808 201.963,-489.376 199.79,-496.03"/>
</g>
<!-- Node9 -->
<g id="node9" class="node"><title>Node9</title>
<g id="a_node9"><a xlink:href="classundulator.html#a9cdaa82744819744efb5eaa12ed28b92" target="_top" xlink:title="undulator::get_field">
<polygon fill="white" stroke="black" points="214.5,-456.5 214.5,-475.5 313.5,-475.5 313.5,-456.5 214.5,-456.5"/>
<text text-anchor="middle" x="264" y="-463.5" font-family="Helvetica,sans-Serif" font-size="10.00">undulator::get_field</text>
</a>
</g>
</g>
<!-- Node1&#45;&gt;Node9 -->
<g id="edge8" class="edge"><title>Node1&#45;&gt;Node9</title>
<path fill="none" stroke="midnightblue" d="M85.9116,-380.733C104.629,-396.913 144.653,-429.313 184,-447 190.546,-449.942 197.61,-452.466 204.728,-454.62"/>
<polygon fill="midnightblue" stroke="midnightblue" points="203.85,-458.009 214.424,-457.334 205.737,-451.268 203.85,-458.009"/>
</g>
<!-- Node10 -->
<g id="node10" class="node"><title>Node10</title>
<g id="a_node10"><a xlink:href="classundulator.html#ac85551d58515bffeee330d5557ee0032" target="_top" xlink:title="undulator::get_deltz">
<polygon fill="white" stroke="black" points="213,-418.5 213,-437.5 315,-437.5 315,-418.5 213,-418.5"/>
<text text-anchor="middle" x="264" y="-425.5" font-family="Helvetica,sans-Serif" font-size="10.00">undulator::get_deltz</text>
</a>
</g>
</g>
<!-- Node1&#45;&gt;Node10 -->
<g id="edge9" class="edge"><title>Node1&#45;&gt;Node10</title>
<path fill="none" stroke="midnightblue" d="M100.315,-380.629C122.26,-388.782 154.966,-400.47 184,-409 192.359,-411.456 201.282,-413.832 210.011,-416.025"/>
<polygon fill="midnightblue" stroke="midnightblue" points="209.197,-419.429 219.743,-418.417 210.868,-412.631 209.197,-419.429"/>
</g>
<!-- Node11 -->
<g id="node11" class="node"><title>Node11</title>
<g id="a_node11"><a xlink:href="classundulator.html#aaa0c6986ca659e596400dcd41f5c871f" target="_top" xlink:title="undulator::get_num">
<polygon fill="white" stroke="black" points="214,-380.5 214,-399.5 314,-399.5 314,-380.5 214,-380.5"/>
<text text-anchor="middle" x="264" y="-387.5" font-family="Helvetica,sans-Serif" font-size="10.00">undulator::get_num</text>
</a>
</g>
</g>
<!-- Node1&#45;&gt;Node11 -->
<g id="edge10" class="edge"><title>Node1&#45;&gt;Node11</title>
<path fill="none" stroke="midnightblue" d="M147.686,-378.346C166.17,-380.214 185.815,-382.199 203.553,-383.992"/>
<polygon fill="midnightblue" stroke="midnightblue" points="203.452,-387.5 213.753,-385.023 204.156,-380.535 203.452,-387.5"/>
</g>
<!-- Node12 -->
<g id="node12" class="node"><title>Node12</title>
<g id="a_node12"><a xlink:href="classelectron_beam.html#a7ece1e5a5fd4ca224a6b1104f14b3c8f" target="_top" xlink:title="electronBeam::get_peakCurrent">
<polygon fill="white" stroke="black" points="186.5,-342.5 186.5,-361.5 341.5,-361.5 341.5,-342.5 186.5,-342.5"/>
<text text-anchor="middle" x="264" y="-349.5" font-family="Helvetica,sans-Serif" font-size="10.00">electronBeam::get_peakCurrent</text>
</a>
</g>
</g>
<!-- Node1&#45;&gt;Node12 -->
<g id="edge11" class="edge"><title>Node1&#45;&gt;Node12</title>
<path fill="none" stroke="midnightblue" d="M147.686,-363.654C157.118,-362.701 166.853,-361.717 176.483,-360.744"/>
<polygon fill="midnightblue" stroke="midnightblue" points="176.865,-364.223 186.462,-359.735 176.161,-357.259 176.865,-364.223"/>
</g>
<!-- Node13 -->
<g id="node13" class="node"><title>Node13</title>
<g id="a_node13"><a xlink:href="class_f_e_lradiation.html#a5be822c35edae96fc72449a6b8a34852" target="_top" xlink:title="FELradiation::get_wavelength">
<polygon fill="white" stroke="black" points="191,-304.5 191,-323.5 337,-323.5 337,-304.5 191,-304.5"/>
<text text-anchor="middle" x="264" y="-311.5" font-family="Helvetica,sans-Serif" font-size="10.00">FELradiation::get_wavelength</text>
</a>
</g>
</g>
<!-- Node1&#45;&gt;Node13 -->
<g id="edge12" class="edge"><title>Node1&#45;&gt;Node13</title>
<path fill="none" stroke="midnightblue" d="M100.315,-361.371C122.26,-353.218 154.966,-341.53 184,-333 192.359,-330.544 201.282,-328.168 210.011,-325.975"/>
<polygon fill="midnightblue" stroke="midnightblue" points="210.868,-329.369 219.743,-323.583 209.197,-322.571 210.868,-329.369"/>
</g>
<!-- Node14 -->
<g id="node14" class="node"><title>Node14</title>
<g id="a_node14"><a xlink:href="classcontrolpanel.html#a9dd767a92ae72829a03eaf39129deca1" target="_top" xlink:title="controlpanel::get_npart">
<polygon fill="white" stroke="black" points="206,-266.5 206,-285.5 322,-285.5 322,-266.5 206,-266.5"/>
<text text-anchor="middle" x="264" y="-273.5" font-family="Helvetica,sans-Serif" font-size="10.00">controlpanel::get_npart</text>
</a>
</g>
</g>
<!-- Node1&#45;&gt;Node14 -->
<g id="edge13" class="edge"><title>Node1&#45;&gt;Node14</title>
<path fill="none" stroke="midnightblue" d="M85.9116,-361.267C104.629,-345.087 144.653,-312.687 184,-295 189.44,-292.555 195.238,-290.399 201.127,-288.503"/>
<polygon fill="midnightblue" stroke="midnightblue" points="202.485,-291.752 211.078,-285.555 200.496,-285.04 202.485,-291.752"/>
</g>
<!-- Node15 -->
<g id="node15" class="node"><title>Node15</title>
<g id="a_node15"><a xlink:href="classcontrolpanel.html#a9c939cf2a8ddaccfd5e74b4aa8d8ca6f" target="_top" xlink:title="controlpanel::get_method">
<polygon fill="white" stroke="black" points="201,-228.5 201,-247.5 327,-247.5 327,-228.5 201,-228.5"/>
<text text-anchor="middle" x="264" y="-235.5" font-family="Helvetica,sans-Serif" font-size="10.00">controlpanel::get_method</text>
</a>
</g>
</g>
<!-- Node1&#45;&gt;Node15 -->
<g id="edge14" class="edge"><title>Node1&#45;&gt;Node15</title>
<path fill="none" stroke="midnightblue" d="M81.325,-361.275C96.3037,-339.068 136.288,-284.44 184,-257 187.888,-254.764 192.029,-252.79 196.3,-251.048"/>
<polygon fill="midnightblue" stroke="midnightblue" points="197.607,-254.297 205.811,-247.592 195.217,-247.718 197.607,-254.297"/>
</g>
<!-- Node16 -->
<g id="node16" class="node"><title>Node16</title>
<g id="a_node16"><a xlink:href="classcontrolpanel.html#a04179eeb56ee6c5a0ac60cc29fa1fa39" target="_top" xlink:title="controlpanel::get_outfilename">
<polygon fill="white" stroke="black" points="192,-190.5 192,-209.5 336,-209.5 336,-190.5 192,-190.5"/>
<text text-anchor="middle" x="264" y="-197.5" font-family="Helvetica,sans-Serif" font-size="10.00">controlpanel::get_outfilename</text>
</a>
</g>
</g>
<!-- Node1&#45;&gt;Node16 -->
<g id="edge15" class="edge"><title>Node1&#45;&gt;Node16</title>
<path fill="none" stroke="midnightblue" d="M78.9794,-361.343C90.6748,-334.224 127.695,-256.892 184,-219 186.957,-217.01 190.1,-215.228 193.363,-213.632"/>
<polygon fill="midnightblue" stroke="midnightblue" points="194.99,-216.743 202.823,-209.609 192.251,-210.301 194.99,-216.743"/>
</g>
<!-- Node17 -->
<g id="node17" class="node"><title>Node17</title>
<g id="a_node17"><a xlink:href="classcontrolpanel.html#ac853ba04fdbf5065eb764ff6c3ffa273" target="_top" xlink:title="controlpanel::get_parfilename">
<polygon fill="white" stroke="black" points="192,-152.5 192,-171.5 336,-171.5 336,-152.5 192,-152.5"/>
<text text-anchor="middle" x="264" y="-159.5" font-family="Helvetica,sans-Serif" font-size="10.00">controlpanel::get_parfilename</text>
</a>
</g>
</g>
<!-- Node1&#45;&gt;Node17 -->
<g id="edge16" class="edge"><title>Node1&#45;&gt;Node17</title>
<path fill="none" stroke="midnightblue" d="M77.5798,-361.276C86.4608,-329.781 118.87,-229.795 184,-181 186.515,-179.115 189.191,-177.415 191.981,-175.881"/>
<polygon fill="midnightblue" stroke="midnightblue" points="193.666,-178.956 201.219,-171.526 190.681,-172.624 193.666,-178.956"/>
</g>
<!-- Node18 -->
<g id="node18" class="node"><title>Node18</title>
<g id="a_node18"><a xlink:href="classcontrolpanel.html#a2cf91a2b1b110750d709c9f4d88b60f7" target="_top" xlink:title="controlpanel::get_parflag">
<polygon fill="white" stroke="black" points="202.5,-114.5 202.5,-133.5 325.5,-133.5 325.5,-114.5 202.5,-114.5"/>
<text text-anchor="middle" x="264" y="-121.5" font-family="Helvetica,sans-Serif" font-size="10.00">controlpanel::get_parflag</text>
</a>
</g>
</g>
<!-- Node1&#45;&gt;Node18 -->
<g id="edge17" class="edge"><title>Node1&#45;&gt;Node18</title>
<path fill="none" stroke="midnightblue" d="M76.5777,-361.398C82.8864,-326.2 109.655,-203.174 184,-143 186.77,-140.758 189.763,-138.773 192.908,-137.017"/>
<polygon fill="midnightblue" stroke="midnightblue" points="194.58,-140.098 202.113,-132.648 191.578,-133.774 194.58,-140.098"/>
</g>
<!-- Node19 -->
<g id="node19" class="node"><title>Node19</title>
<g id="a_node19"><a xlink:href="classcontrolpanel.html#ae84ac30b604ac0555548ef6c01b75335" target="_top" xlink:title="controlpanel::get_pardelz">
<polygon fill="white" stroke="black" points="201.5,-76.5 201.5,-95.5 326.5,-95.5 326.5,-76.5 201.5,-76.5"/>
<text text-anchor="middle" x="264" y="-83.5" font-family="Helvetica,sans-Serif" font-size="10.00">controlpanel::get_pardelz</text>
</a>
</g>
</g>
<!-- Node1&#45;&gt;Node19 -->
<g id="edge18" class="edge"><title>Node1&#45;&gt;Node19</title>
<path fill="none" stroke="midnightblue" d="M75.8606,-361.47C79.8754,-322.872 100.281,-176.807 184,-105 186.57,-102.796 189.352,-100.838 192.284,-99.0997"/>
<polygon fill="midnightblue" stroke="midnightblue" points="194.084,-102.113 201.469,-94.5162 190.959,-95.8497 194.084,-102.113"/>
</g>
<!-- Node20 -->
<g id="node20" class="node"><title>Node20</title>
<g id="a_node20"><a xlink:href="classcontrolpanel.html#ac5e75f460c7ca307ea56430887aac20b" target="_top" xlink:title="controlpanel::get_disflag">
<polygon fill="white" stroke="black" points="203,-38.5 203,-57.5 325,-57.5 325,-38.5 203,-38.5"/>
<text text-anchor="middle" x="264" y="-45.5" font-family="Helvetica,sans-Serif" font-size="10.00">controlpanel::get_disflag</text>
</a>
</g>
</g>
<!-- Node1&#45;&gt;Node20 -->
<g id="edge19" class="edge"><title>Node1&#45;&gt;Node20</title>
<path fill="none" stroke="midnightblue" d="M75.3275,-361.31C77.2973,-319.203 90.9362,-150.498 184,-67 186.986,-64.321 190.283,-62.0028 193.786,-59.9982"/>
<polygon fill="midnightblue" stroke="midnightblue" points="195.362,-63.1242 202.856,-55.6346 192.327,-56.8163 195.362,-63.1242"/>
</g>
<!-- Node21 -->
<g id="node21" class="node"><title>Node21</title>
<g id="a_node21"><a xlink:href="classcontrolpanel.html#aa9ca1d979ee6e17885fc3382b86e465f" target="_top" xlink:title="controlpanel::get_disfilename">
<polygon fill="white" stroke="black" points="192.5,-0.5 192.5,-19.5 335.5,-19.5 335.5,-0.5 192.5,-0.5"/>
<text text-anchor="middle" x="264" y="-7.5" font-family="Helvetica,sans-Serif" font-size="10.00">controlpanel::get_disfilename</text>
</a>
</g>
</g>
<!-- Node1&#45;&gt;Node21 -->
<g id="edge20" class="edge"><title>Node1&#45;&gt;Node21</title>
<path fill="none" stroke="midnightblue" d="M74.8911,-361.37C74.9334,-316.313 81.3245,-124.488 184,-29 185.679,-27.4389 187.462,-25.9995 189.331,-24.6725"/>
<polygon fill="midnightblue" stroke="midnightblue" points="191.179,-27.6464 198.008,-19.5465 187.618,-21.6195 191.179,-27.6464"/>
</g>
</g>
</svg>
