<?xml version="1.0" encoding="UTF-8" standalone="no"?>
<!DOCTYPE svg PUBLIC "-//W3C//DTD SVG 1.1//EN"
 "http://www.w3.org/Graphics/SVG/1.1/DTD/svg11.dtd">
<!-- Generated by graphviz version 2.36.0 (20140111.2315)
 -->
<!-- Title: FELNumerical::generateDistribution Pages: 1 -->
<svg width="406pt" height="47pt"
 viewBox="0.00 0.00 406.00 47.00" xmlns="http://www.w3.org/2000/svg" xmlns:xlink="http://www.w3.org/1999/xlink">
<g id="graph0" class="graph" transform="scale(1 1) rotate(0) translate(4 43)">
<title>FELNumerical::generateDistribution</title>
<polygon fill="white" stroke="none" points="-4,4 -4,-43 402,-43 402,4 -4,4"/>
<!-- Node1 -->
<g id="node1" class="node"><title>Node1</title>
<polygon fill="#bfbfbf" stroke="black" points="0,-0.5 0,-19.5 172,-19.5 172,-0.5 0,-0.5"/>
<text text-anchor="middle" x="86" y="-7.5" font-family="Helvetica,sans-Serif" font-size="10.00">FELNumerical::generateDistribution</text>
</g>
<!-- Node2 -->
<g id="node2" class="node"><title>Node2</title>
<g id="a_node2"><a xlink:href="classscanpanel.html#ad5d03fff058d2903c654c55f101ae852" target="_top" xlink:title="do parameters scan ">
<polygon fill="white" stroke="black" points="208,-19.5 208,-38.5 324,-38.5 324,-19.5 208,-19.5"/>
<text text-anchor="middle" x="266" y="-26.5" font-family="Helvetica,sans-Serif" font-size="10.00">scanpanel::paramScan</text>
</a>
</g>
</g>
<!-- Node1&#45;&gt;Node2 -->
<g id="edge1" class="edge"><title>Node1&#45;&gt;Node2</title>
<path fill="none" stroke="midnightblue" d="M182.065,-20.1474C190.887,-21.089 199.628,-22.0221 207.941,-22.9095"/>
<polygon fill="midnightblue" stroke="midnightblue" points="182.405,-16.6639 172.09,-19.0826 181.662,-23.6243 182.405,-16.6639"/>
</g>
<!-- Node3 -->
<g id="node3" class="node"><title>Node3</title>
<g id="a_node3"><a xlink:href="main_8cpp.html#a3c04138a5bfe5d72780bb7e82a18e627" target="_top" xlink:title="main">
<polygon fill="white" stroke="black" points="360,-0.5 360,-19.5 398,-19.5 398,-0.5 360,-0.5"/>
<text text-anchor="middle" x="379" y="-7.5" font-family="Helvetica,sans-Serif" font-size="10.00">main</text>
</a>
</g>
</g>
<!-- Node1&#45;&gt;Node3 -->
<g id="edge3" class="edge"><title>Node1&#45;&gt;Node3</title>
<path fill="none" stroke="midnightblue" d="M182.477,-10C246.46,-10 325.138,-10 359.958,-10"/>
<polygon fill="midnightblue" stroke="midnightblue" points="182.343,-6.5001 172.343,-10 182.343,-13.5001 182.343,-6.5001"/>
</g>
<!-- Node2&#45;&gt;Node3 -->
<g id="edge2" class="edge"><title>Node2&#45;&gt;Node3</title>
<path fill="none" stroke="midnightblue" d="M332.813,-17.7347C342.699,-16.0425 352.133,-14.4277 359.799,-13.1155"/>
<polygon fill="midnightblue" stroke="midnightblue" points="332.091,-14.3073 322.825,-19.4443 333.272,-21.2069 332.091,-14.3073"/>
</g>
</g>
</svg>
