<?xml version="1.0" encoding="UTF-8" standalone="no"?>
<!DOCTYPE svg PUBLIC "-//W3C//DTD SVG 1.1//EN"
 "http://www.w3.org/Graphics/SVG/1.1/DTD/svg11.dtd">
<!-- Generated by graphviz version 2.36.0 (20140111.2315)
 -->
<!-- Title: electronBeam::get_avgBetaFunc Pages: 1 -->
<svg width="352pt" height="66pt"
 viewBox="0.00 0.00 352.00 66.00" xmlns="http://www.w3.org/2000/svg" xmlns:xlink="http://www.w3.org/1999/xlink">
<g id="graph0" class="graph" transform="scale(1 1) rotate(0) translate(4 62)">
<title>electronBeam::get_avgBetaFunc</title>
<polygon fill="white" stroke="none" points="-4,4 -4,-62 348,-62 348,4 -4,4"/>
<!-- Node1 -->
<g id="node1" class="node"><title>Node1</title>
<polygon fill="#bfbfbf" stroke="black" points="0.5,-19.5 0.5,-38.5 159.5,-38.5 159.5,-19.5 0.5,-19.5"/>
<text text-anchor="middle" x="80" y="-26.5" font-family="Helvetica,sans-Serif" font-size="10.00">electronBeam::get_avgBetaFunc</text>
</g>
<!-- Node2 -->
<g id="node2" class="node"><title>Node2</title>
<g id="a_node2"><a xlink:href="class_f_e_l_analysis.html#a2d147c239a45ad1949b56bb743e83cd0" target="_top" xlink:title="FELAnalysis::FELAnalysis">
<polygon fill="white" stroke="black" points="203,-38.5 203,-57.5 337,-57.5 337,-38.5 203,-38.5"/>
<text text-anchor="middle" x="270" y="-45.5" font-family="Helvetica,sans-Serif" font-size="10.00">FELAnalysis::FELAnalysis</text>
</a>
</g>
</g>
<!-- Node1&#45;&gt;Node2 -->
<g id="edge1" class="edge"><title>Node1&#45;&gt;Node2</title>
<path fill="none" stroke="midnightblue" d="M169.82,-37.9765C180.954,-39.1018 192.186,-40.2369 202.888,-41.3184"/>
<polygon fill="midnightblue" stroke="midnightblue" points="169.941,-34.471 159.64,-36.9476 169.237,-41.4355 169.941,-34.471"/>
</g>
<!-- Node3 -->
<g id="node3" class="node"><title>Node3</title>
<g id="a_node3"><a xlink:href="class_f_e_l_numerical.html#a70fa680e4c12c15740c265978097e209" target="_top" xlink:title="&lt; class initialization with input parameters ">
<polygon fill="white" stroke="black" points="196.5,-0.5 196.5,-19.5 343.5,-19.5 343.5,-0.5 196.5,-0.5"/>
<text text-anchor="middle" x="270" y="-7.5" font-family="Helvetica,sans-Serif" font-size="10.00">FELNumerical::FELNumerical</text>
</a>
</g>
</g>
<!-- Node1&#45;&gt;Node3 -->
<g id="edge2" class="edge"><title>Node1&#45;&gt;Node3</title>
<path fill="none" stroke="midnightblue" d="M169.689,-20.0368C178.629,-19.1332 187.633,-18.2232 196.377,-17.3395"/>
<polygon fill="midnightblue" stroke="midnightblue" points="169.237,-16.5645 159.64,-21.0524 169.941,-23.529 169.237,-16.5645"/>
</g>
</g>
</svg>
