<?xml version="1.0" encoding="UTF-8" standalone="no"?>
<!DOCTYPE svg PUBLIC "-//W3C//DTD SVG 1.1//EN"
 "http://www.w3.org/Graphics/SVG/1.1/DTD/svg11.dtd">
<!-- Generated by graphviz version 2.36.0 (20140111.2315)
 -->
<!-- Title: Graphical Class Hierarchy Pages: 1 -->
<svg width="202pt" height="218pt"
 viewBox="0.00 0.00 202.00 218.00" xmlns="http://www.w3.org/2000/svg" xmlns:xlink="http://www.w3.org/1999/xlink">
<g id="graph0" class="graph" transform="scale(1 1) rotate(0) translate(4 214)">
<title>Graphical Class Hierarchy</title>
<polygon fill="white" stroke="none" points="-4,4 -4,-214 198,-214 198,4 -4,4"/>
<!-- Node1 -->
<g id="node1" class="node"><title>Node1</title>
<g id="a_node1"><a xlink:href="classdefault_params.html" target="_top" xlink:title="defaultParams">
<polygon fill="white" stroke="black" points="0,-95.5 0,-114.5 80,-114.5 80,-95.5 0,-95.5"/>
<text text-anchor="middle" x="40" y="-102.5" font-family="Helvetica,sans-Serif" font-size="10.00">defaultParams</text>
</a>
</g>
</g>
<!-- Node2 -->
<g id="node2" class="node"><title>Node2</title>
<g id="a_node2"><a xlink:href="classcontrolpanel.html" target="_top" xlink:title="controlpanel">
<polygon fill="white" stroke="black" points="120.5,-190.5 120.5,-209.5 189.5,-209.5 189.5,-190.5 120.5,-190.5"/>
<text text-anchor="middle" x="155" y="-197.5" font-family="Helvetica,sans-Serif" font-size="10.00">controlpanel</text>
</a>
</g>
</g>
<!-- Node1&#45;&gt;Node2 -->
<g id="edge1" class="edge"><title>Node1&#45;&gt;Node2</title>
<path fill="none" stroke="midnightblue" d="M55.4912,-122.736C69.6652,-139.292 92.4932,-163.939 116,-181 120.775,-184.466 126.277,-187.621 131.585,-190.321"/>
<polygon fill="midnightblue" stroke="midnightblue" points="58.0213,-120.306 48.9101,-114.899 52.6607,-124.808 58.0213,-120.306"/>
</g>
<!-- Node3 -->
<g id="node3" class="node"><title>Node3</title>
<g id="a_node3"><a xlink:href="classelectron_beam.html" target="_top" xlink:title="electronBeam">
<polygon fill="white" stroke="black" points="116.5,-152.5 116.5,-171.5 193.5,-171.5 193.5,-152.5 116.5,-152.5"/>
<text text-anchor="middle" x="155" y="-159.5" font-family="Helvetica,sans-Serif" font-size="10.00">electronBeam</text>
</a>
</g>
</g>
<!-- Node1&#45;&gt;Node3 -->
<g id="edge2" class="edge"><title>Node1&#45;&gt;Node3</title>
<path fill="none" stroke="midnightblue" d="M68.9629,-119.212C83.0603,-126.366 100.427,-135.162 116,-143 122.061,-146.051 128.674,-149.363 134.658,-152.354"/>
<polygon fill="midnightblue" stroke="midnightblue" points="70.2888,-115.96 59.7877,-114.554 67.1199,-122.202 70.2888,-115.96"/>
</g>
<!-- Node4 -->
<g id="node4" class="node"><title>Node4</title>
<g id="a_node4"><a xlink:href="class_f_e_lradiation.html" target="_top" xlink:title="FELradiation">
<polygon fill="white" stroke="black" points="119.5,-114.5 119.5,-133.5 190.5,-133.5 190.5,-114.5 119.5,-114.5"/>
<text text-anchor="middle" x="155" y="-121.5" font-family="Helvetica,sans-Serif" font-size="10.00">FELradiation</text>
</a>
</g>
</g>
<!-- Node1&#45;&gt;Node4 -->
<g id="edge3" class="edge"><title>Node1&#45;&gt;Node4</title>
<path fill="none" stroke="midnightblue" d="M90.2738,-113.285C100.087,-114.935 110.197,-116.635 119.391,-118.181"/>
<polygon fill="midnightblue" stroke="midnightblue" points="90.6467,-109.799 80.2048,-111.592 89.486,-116.702 90.6467,-109.799"/>
</g>
<!-- Node5 -->
<g id="node5" class="node"><title>Node5</title>
<g id="a_node5"><a xlink:href="classscanpanel.html" target="_top" xlink:title="ELEMENTS_H_. ">
<polygon fill="white" stroke="black" points="124.5,-76.5 124.5,-95.5 185.5,-95.5 185.5,-76.5 124.5,-76.5"/>
<text text-anchor="middle" x="155" y="-83.5" font-family="Helvetica,sans-Serif" font-size="10.00">scanpanel</text>
</a>
</g>
</g>
<!-- Node1&#45;&gt;Node5 -->
<g id="edge4" class="edge"><title>Node1&#45;&gt;Node5</title>
<path fill="none" stroke="midnightblue" d="M90.2924,-96.7119C101.951,-94.7516 114.026,-92.7212 124.488,-90.9622"/>
<polygon fill="midnightblue" stroke="midnightblue" points="89.486,-93.2983 80.2048,-98.408 90.6467,-100.201 89.486,-93.2983"/>
</g>
<!-- Node6 -->
<g id="node6" class="node"><title>Node6</title>
<g id="a_node6"><a xlink:href="classseedfield.html" target="_top" xlink:title="define element classes. ">
<polygon fill="white" stroke="black" points="127,-38.5 127,-57.5 183,-57.5 183,-38.5 127,-38.5"/>
<text text-anchor="middle" x="155" y="-45.5" font-family="Helvetica,sans-Serif" font-size="10.00">seedfield</text>
</a>
</g>
</g>
<!-- Node1&#45;&gt;Node6 -->
<g id="edge5" class="edge"><title>Node1&#45;&gt;Node6</title>
<path fill="none" stroke="midnightblue" d="M68.9629,-90.7878C83.0603,-83.634 100.427,-74.8382 116,-67 122.061,-63.9491 128.674,-60.6372 134.658,-57.6459"/>
<polygon fill="midnightblue" stroke="midnightblue" points="67.1199,-87.7982 59.7877,-95.4461 70.2888,-94.0398 67.1199,-87.7982"/>
</g>
<!-- Node7 -->
<g id="node7" class="node"><title>Node7</title>
<g id="a_node7"><a xlink:href="classundulator.html" target="_top" xlink:title="undulator">
<polygon fill="white" stroke="black" points="127,-0.5 127,-19.5 183,-19.5 183,-0.5 127,-0.5"/>
<text text-anchor="middle" x="155" y="-7.5" font-family="Helvetica,sans-Serif" font-size="10.00">undulator</text>
</a>
</g>
</g>
<!-- Node1&#45;&gt;Node7 -->
<g id="edge6" class="edge"><title>Node1&#45;&gt;Node7</title>
<path fill="none" stroke="midnightblue" d="M55.4912,-87.264C69.6652,-70.7085 92.4932,-46.0613 116,-29 120.775,-25.5339 126.277,-22.3787 131.585,-19.6785"/>
<polygon fill="midnightblue" stroke="midnightblue" points="52.6607,-85.1921 48.9101,-95.1009 58.0213,-89.6937 52.6607,-85.1921"/>
</g>
</g>
</svg>
